<svg xmlns="http://www.w3.org/2000/svg" width="22.042" height="18.828" viewBox="0 0 22.042 18.828"><path d="M662.108,493.44a.917.917,0,0,1-.49-.141c-3.934-2.477-10.532-7.422-10.532-12.717a5.977,5.977,0,0,1,5.969-5.97,6.691,6.691,0,0,1,5.052,2.359,6.689,6.689,0,0,1,5.051-2.359,5.977,5.977,0,0,1,5.969,5.97c0,5.295-6.6,10.241-10.532,12.717A.917.917,0,0,1,662.108,493.44Zm-5.052-16.992a4.138,4.138,0,0,0-4.132,4.133c0,3.136,3.339,7.074,9.184,10.851,5.845-3.777,9.184-7.714,9.184-10.851a4.137,4.137,0,0,0-4.132-4.133,4.617,4.617,0,0,0-4.2,2.63.918.918,0,0,1-.855.585h0a.919.919,0,0,1-.856-.585A4.616,4.616,0,0,0,657.056,476.449Z" transform="translate(-651.087 -474.612)" fill="#909090"/></svg>