<svg xmlns="http://www.w3.org/2000/svg" width="24.926" height="22.914" viewBox="0 0 24.926 22.914"><g transform="translate(0 0)"><g transform="translate(0 0)"><path d="M288.109,62.543c.027,0,.053,0,.08,0a.9.9,0,0,0,.892-.819l.439-5.009a.9.9,0,0,0-1.788-.157l-.439,5.009A.9.9,0,0,0,288.109,62.543Z" transform="translate(-277.956 -50.201)" fill="#909090"/><path d="M292.312,62.543c.027,0,.052,0,.079,0a.9.9,0,0,0,.893-.819l.438-5.009a.9.9,0,1,0-1.788-.157l-.439,5.009A.9.9,0,0,0,292.312,62.543Z" transform="translate(-279.141 -50.201)" fill="#909090"/><path d="M296.513,62.543c.027,0,.053,0,.08,0a.9.9,0,0,0,.892-.819l.439-5.009a.9.9,0,0,0-1.789-.157l-.438,5.009A.9.9,0,0,0,296.513,62.543Z" transform="translate(-280.327 -50.201)" fill="#909090"/><path d="M300.715,62.543c.027,0,.053,0,.08,0a.9.9,0,0,0,.892-.819l.439-5.009a.9.9,0,0,0-1.788-.157l-.439,5.009A.9.9,0,0,0,300.715,62.543Z" transform="translate(-281.511 -50.201)" fill="#909090"/><path d="M296.075,62.562a2.94,2.94,0,0,0,2.408-2.619l.722-7.113a1.957,1.957,0,0,0-.486-1.5,1.885,1.885,0,0,0-1.383-.629l-17.823-.144-.437-1.842a.9.9,0,0,0-.873-.691h-3.017a.9.9,0,0,0,0,1.795h2.308l3.726,15.736a2.9,2.9,0,1,0,4.261,3.372h7.066a2.909,2.909,0,1,0,0-1.8h-7.066a2.9,2.9,0,0,0-2.514-1.987l-.09-.384Zm1.307-10.034a.154.154,0,0,1,.037.121l-.722,7.113a1.141,1.141,0,0,1-.918,1.03l-13.315,2.219L279.94,52.358ZM295.3,66.916a1.114,1.114,0,1,1-1.114,1.114A1.115,1.115,0,0,1,295.3,66.916Zm-11.458,1.114a1.114,1.114,0,1,1-1.114-1.114A1.115,1.115,0,0,1,283.843,68.031Z" transform="translate(-274.289 -48.025)" fill="#909090"/></g></g></svg>