<svg xmlns="http://www.w3.org/2000/svg" width="26.183" height="24.001" viewBox="0 0 26.183 24.001"><g transform="translate(-2180.64 1336.511)"><path d="M2205.732-1334.329h-4.364v-1.091a1.091,1.091,0,0,0-1.091-1.091,1.091,1.091,0,0,0-1.091,1.091v1.091H2197v-1.091a1.091,1.091,0,0,0-1.091-1.091,1.091,1.091,0,0,0-1.091,1.091v1.091h-2.182v-1.091a1.091,1.091,0,0,0-1.091-1.091,1.091,1.091,0,0,0-1.091,1.091v1.091h-2.182v-1.091a1.091,1.091,0,0,0-1.091-1.091,1.091,1.091,0,0,0-1.091,1.091v1.091h-4.364a1.091,1.091,0,0,0-1.091,1.091v17.456a3.277,3.277,0,0,0,3.273,3.273h19.637a3.277,3.277,0,0,0,3.273-3.273v-17.456A1.091,1.091,0,0,0,2205.732-1334.329Zm-19.638,2.182v1.091a1.091,1.091,0,0,0,1.091,1.091,1.091,1.091,0,0,0,1.091-1.091v-1.091h2.182v1.091a1.091,1.091,0,0,0,1.091,1.091,1.091,1.091,0,0,0,1.091-1.091v-1.091h2.182v1.091a1.091,1.091,0,0,0,1.091,1.091,1.091,1.091,0,0,0,1.091-1.091v-1.091h2.182v1.091a1.091,1.091,0,0,0,1.091,1.091,1.091,1.091,0,0,0,1.091-1.091v-1.091h3.273v4.364h-21.82v-4.364Zm17.456,17.456h-19.637a1.092,1.092,0,0,1-1.091-1.091v-9.819h21.82v9.819A1.092,1.092,0,0,1,2203.55-1314.691Z" fill="#46278a"/><ellipse cx="1.5" cy="1" rx="1.5" ry="1" transform="translate(2186.095 -1323.51)" fill="#46278a"/><ellipse cx="1.5" cy="1" rx="1.5" ry="1" transform="translate(2186.095 -1318.51)" fill="#46278a"/><ellipse cx="1.5" cy="1" rx="1.5" ry="1" transform="translate(2190.095 -1323.51)" fill="#46278a"/><ellipse cx="1.5" cy="1" rx="1.5" ry="1" transform="translate(2190.095 -1318.51)" fill="#46278a"/><circle cx="1" cy="1" r="1" transform="translate(2195.095 -1323.51)" fill="#46278a"/><circle cx="1" cy="1" r="1" transform="translate(2195.095 -1318.51)" fill="#46278a"/><circle cx="1" cy="1" r="1" transform="translate(2199.095 -1323.51)" fill="#46278a"/><circle cx="1" cy="1" r="1" transform="translate(2199.095 -1318.51)" fill="#46278a"/></g></svg>