<svg xmlns="http://www.w3.org/2000/svg" width="21.071" height="14.483" viewBox="0 0 21.071 14.483"><g transform="translate(0 0.001)"><path d="M21.067,3.172a3.232,3.232,0,0,0-.036-.555A3.078,3.078,0,0,0,17.92,0C16.067,0,14.215,0,12.362,0S8.657,0,6.8,0A3.1,3.1,0,0,0,4.368,1.1C3.2,2.426,2.036,3.746.884,5.079a3.562,3.562,0,0,0-.6.9,3.03,3.03,0,0,0,.572,3.4C2.006,10.694,3.166,12,4.312,13.318a3.213,3.213,0,0,0,2.555,1.165c3.657-.008,7.314,0,10.97,0a3.575,3.575,0,0,0,.6-.034,3.076,3.076,0,0,0,2.625-3.126q.008-4.073,0-8.146M14.754,9.753a1.029,1.029,0,0,1-.979.589A1.069,1.069,0,0,1,13.048,10c-.426-.43-.855-.856-1.3-1.3-.452.453-.887.9-1.331,1.33a1.032,1.032,0,0,1-1.48-1.439c.38-.4.776-.779,1.164-1.168.056-.056.109-.115.183-.193-.447-.445-.891-.878-1.326-1.321A1.018,1.018,0,0,1,8.815,4.6a1.028,1.028,0,0,1,1.6-.158c.39.376.767.764,1.151,1.146.057.056.116.11.192.182l1.3-1.3a1.006,1.006,0,0,1,.971-.308,1.028,1.028,0,0,1,.531,1.726c-.376.4-.775.779-1.163,1.168-.056.056-.109.115-.189.2.463.457.912.888,1.347,1.333a1.011,1.011,0,0,1,.195,1.165" transform="translate(0.001 0)" fill="#505050"/></g></svg>