<svg xmlns="http://www.w3.org/2000/svg" width="73.153" height="20.386" viewBox="0 0 73.153 20.386"><g transform="translate(0 0.001)"><g transform="translate(0 0.482)"><path d="M-4076.911,3671.262l.293-1.38a.251.251,0,0,1,.272-.228h1.456a.246.246,0,0,1,.133.036.131.131,0,0,1,.057.122.5.5,0,0,1-.011.071l-.538,2.521a.376.376,0,0,1-.057.141.332.332,0,0,1-.122.1,4.926,4.926,0,0,1-2.494.641,3.387,3.387,0,0,1-1.706-.429,3.055,3.055,0,0,1-1.182-1.2,3.523,3.523,0,0,1-.427-1.741,4.265,4.265,0,0,1,.049-.635,4.356,4.356,0,0,1,.834-2.051,4.678,4.678,0,0,1,1.7-1.41,4.869,4.869,0,0,1,2.189-.505,3.149,3.149,0,0,1,1.184.206,3.436,3.436,0,0,1,.967.6.182.182,0,0,1,.076.135.252.252,0,0,1-.076.158l-1.01,1.163a.254.254,0,0,1-.185.092.2.2,0,0,1-.136-.054,1.616,1.616,0,0,0-.489-.291,1.687,1.687,0,0,0-.609-.106,2.312,2.312,0,0,0-1.1.272,2.508,2.508,0,0,0-.856.741,2.726,2.726,0,0,0-.47,1.046,2.5,2.5,0,0,0-.054.483,1.725,1.725,0,0,0,.19.818,1.421,1.421,0,0,0,.543.571,1.591,1.591,0,0,0,.826.209A2.76,2.76,0,0,0-4076.911,3671.262Z" transform="translate(4091.149 -3665.27)" fill="#52aef2"/><path d="M-4038,3666.033a.254.254,0,0,1,.182-.071h3.352a2.023,2.023,0,0,1,1.1.293,1.966,1.966,0,0,1,.717.783,2.318,2.318,0,0,1,.25,1.07,2.581,2.581,0,0,1-.038.457,2.623,2.623,0,0,1-.595,1.271,3.3,3.3,0,0,1-1.132.864l.9,2.781a.317.317,0,0,1,.011.06.162.162,0,0,1-.049.12.183.183,0,0,1-.136.049h-1.717a.223.223,0,0,1-.155-.043.4.4,0,0,1-.084-.174l-.733-2.357h-1.005l-.5,2.346a.255.255,0,0,1-.271.229h-1.559q-.19,0-.19-.152a.484.484,0,0,1,.011-.076l1.549-7.285A.328.328,0,0,1-4038,3666.033Zm1.225,3.434h1.211a1.022,1.022,0,0,0,.505-.133,1.3,1.3,0,0,0,.4-.35,1.125,1.125,0,0,0,.215-.457.922.922,0,0,0,.022-.212.782.782,0,0,0-.182-.524.637.637,0,0,0-.513-.214h-1.266Z" transform="translate(4056.936 -3665.8)" fill="#52aef2"/><path d="M-3997.491,3665.962h1.277a.243.243,0,0,1,.261.234l1.3,7.285a.274.274,0,0,1,.005.06q0,.168-.2.168h-1.5a.24.24,0,0,1-.266-.229l-.146-1.021h-2.847l-.571,1.021a.383.383,0,0,1-.358.229h-1.608c-.1,0-.152-.033-.152-.1a.28.28,0,0,1,.049-.131l4.378-7.285A.417.417,0,0,1-3997.491,3665.962Zm.494,4.819-.337-2.369-1.325,2.369Z" transform="translate(4026.202 -3665.8)" fill="#52aef2"/><path d="M-3953.763,3665.962h5.66c.123,0,.185.053.185.158a.459.459,0,0,1-.011.076l-.277,1.32a.26.26,0,0,1-.277.233h-1.852l-1.222,5.731a.259.259,0,0,1-.277.229h-1.5c-.13,0-.2-.052-.2-.158a.47.47,0,0,1,.011-.071l1.222-5.731h-1.841q-.19,0-.19-.157a.445.445,0,0,1,.011-.076l.277-1.32A.263.263,0,0,1-3953.763,3665.962Z" transform="translate(3986.744 -3665.8)" fill="#52aef2"/><path d="M-3918.017,3665.962h1.559q.185,0,.185.158a.451.451,0,0,1-.011.076l-1.548,7.285a.256.256,0,0,1-.272.229h-1.559c-.13,0-.2-.052-.2-.158a.483.483,0,0,1,.011-.071l1.548-7.285A.263.263,0,0,1-3918.017,3665.962Z" transform="translate(3958.381 -3665.8)" fill="#52aef2"/><path d="M-3898.867,3671.476a.31.31,0,0,1,.141-.228l.973-.836a.284.284,0,0,1,.179-.076.3.3,0,0,1,.212.119q.234.245.416.4a1.948,1.948,0,0,0,.437.285,1.232,1.232,0,0,0,.549.125q.907,0,1.07-.728a.442.442,0,0,0,.006-.082.468.468,0,0,0-.255-.407,3.9,3.9,0,0,0-.657-.31,4.5,4.5,0,0,1-1.554-.894,1.614,1.614,0,0,1-.516-1.2,2.427,2.427,0,0,1,.054-.462,2.6,2.6,0,0,1,.549-1.133,2.661,2.661,0,0,1,1.051-.75,3.851,3.851,0,0,1,1.47-.263,3.343,3.343,0,0,1,1.369.3,3.011,3.011,0,0,1,1.081.771.275.275,0,0,1,.071.174.427.427,0,0,1-.185.3l-.842.777a.314.314,0,0,1-.185.082.357.357,0,0,1-.245-.141,1.3,1.3,0,0,0-.307-.244,3.192,3.192,0,0,0-.421-.217,1.4,1.4,0,0,0-.494-.076,1.386,1.386,0,0,0-.6.125.553.553,0,0,0-.323.4.651.651,0,0,0-.011.093.362.362,0,0,0,.122.269,1.172,1.172,0,0,0,.337.212q.215.095.595.225a5.917,5.917,0,0,1,1.075.5,2.064,2.064,0,0,1,.668.633,1.594,1.594,0,0,1,.239.885,2.535,2.535,0,0,1-.06.549,2.882,2.882,0,0,1-.611,1.293,2.9,2.9,0,0,1-1.146.82,4.1,4.1,0,0,1-1.562.283,2.919,2.919,0,0,1-1.008-.179,3.462,3.462,0,0,1-.9-.483,3.334,3.334,0,0,1-.682-.679A.457.457,0,0,1-3898.867,3671.476Z" transform="translate(3941.111 -3665.044)" fill="#52aef2"/><path d="M-4136.149,3716.226a4.973,4.973,0,0,1,1.73-1.407,4.732,4.732,0,0,1,2.113-.5,3.406,3.406,0,0,1,1.7.418,2.947,2.947,0,0,1,1.155,1.154,3.325,3.325,0,0,1,.41,1.649,4.106,4.106,0,0,1-.071.766,4.748,4.748,0,0,1-.934,2.059,5.032,5.032,0,0,1-1.728,1.415,4.677,4.677,0,0,1-2.119.508,3.406,3.406,0,0,1-1.692-.418,2.992,2.992,0,0,1-1.163-1.149,3.256,3.256,0,0,1-.416-1.638,3.859,3.859,0,0,1,.076-.777A4.734,4.734,0,0,1-4136.149,3716.226Zm1.013,2.553a1.706,1.706,0,0,0,.2.82,1.418,1.418,0,0,0,.557.57,1.674,1.674,0,0,0,.845.207,2.224,2.224,0,0,0,1.076-.277,2.693,2.693,0,0,0,.87-.75,2.592,2.592,0,0,0,.478-1.043,2.479,2.479,0,0,0,.054-.478,1.69,1.69,0,0,0-.2-.817,1.423,1.423,0,0,0-.557-.568,1.674,1.674,0,0,0-.845-.206,2.224,2.224,0,0,0-1.076.277,2.682,2.682,0,0,0-.869.75,2.575,2.575,0,0,0-.479,1.042A2.431,2.431,0,0,0-4135.136,3718.779Z" transform="translate(4137.162 -3705.584)" fill="#52aef2"/><path d="M-4086.976,3722.481a.271.271,0,0,1-.3.228h-1.456q-.2,0-.2-.158a.46.46,0,0,1,.011-.071l1.548-7.284a.309.309,0,0,1,.1-.166.267.267,0,0,1,.185-.068h1.581a.329.329,0,0,1,.315.234l1.787,4.389.935-4.389a.306.306,0,0,1,.1-.166.274.274,0,0,1,.19-.068h1.45a.215.215,0,0,1,.141.055.164.164,0,0,1,.065.13.174.174,0,0,1-.005.049l-1.549,7.284a.271.271,0,0,1-.3.228h-1.527a.332.332,0,0,1-.331-.228l-1.782-4.514Z" transform="translate(4097.477 -3706.114)" fill="#52aef2"/><path d="M-4034.9,3720.262l.293-1.38a.251.251,0,0,1,.272-.229h1.456a.248.248,0,0,1,.133.035.132.132,0,0,1,.057.122.474.474,0,0,1-.011.071l-.538,2.521a.377.377,0,0,1-.057.141.331.331,0,0,1-.122.1,4.93,4.93,0,0,1-2.494.641,3.389,3.389,0,0,1-1.705-.429,3.055,3.055,0,0,1-1.182-1.2,3.528,3.528,0,0,1-.426-1.741,4.3,4.3,0,0,1,.049-.636,4.356,4.356,0,0,1,.834-2.051,4.679,4.679,0,0,1,1.7-1.41,4.873,4.873,0,0,1,2.189-.505,3.149,3.149,0,0,1,1.184.207,3.443,3.443,0,0,1,.967.6.183.183,0,0,1,.076.135.253.253,0,0,1-.076.158l-1.01,1.163a.253.253,0,0,1-.185.092.2.2,0,0,1-.136-.054,1.616,1.616,0,0,0-.489-.291,1.691,1.691,0,0,0-.608-.106,2.315,2.315,0,0,0-1.1.271,2.516,2.516,0,0,0-.856.741,2.728,2.728,0,0,0-.47,1.046,2.488,2.488,0,0,0-.054.484,1.729,1.729,0,0,0,.19.818,1.42,1.42,0,0,0,.543.57,1.593,1.593,0,0,0,.826.209A2.76,2.76,0,0,0-4034.9,3720.262Z" transform="translate(4056.582 -3705.584)" fill="#52aef2"/><path d="M-3991.016,3722.465a.273.273,0,0,1,.032.119c0,.083-.051.125-.152.125h-1.815a.24.24,0,0,1-.168-.054.484.484,0,0,1-.108-.174l-1.146-2.678-.994.951-.369,1.727a.256.256,0,0,1-.271.228h-1.559q-.19,0-.19-.152a.446.446,0,0,1,.011-.076l1.548-7.284a.265.265,0,0,1,.278-.234h1.537a.222.222,0,0,1,.144.065.165.165,0,0,1,.051.168l-.565,2.683,2.76-2.743a.654.654,0,0,1,.2-.144.673.673,0,0,1,.223-.03h1.945c.069,0,.1.024.1.071a.27.27,0,0,1-.1.174l-3.271,3.15Z" transform="translate(4022.47 -3706.114)" fill="#52aef2"/><path d="M-3950.807,3714.963h1.559c.123,0,.185.053.185.158a.454.454,0,0,1-.011.076l-1.548,7.284a.256.256,0,0,1-.271.228h-1.559q-.2,0-.2-.158a.472.472,0,0,1,.011-.071l1.548-7.284A.263.263,0,0,1-3950.807,3714.963Z" transform="translate(3985.358 -3706.114)" fill="#52aef2"/><path d="M-3930.063,3715.034a.253.253,0,0,1,.182-.071h3.352a2.021,2.021,0,0,1,1.1.293,1.963,1.963,0,0,1,.717.782,2.319,2.319,0,0,1,.25,1.071,2.632,2.632,0,0,1-.038.456,2.636,2.636,0,0,1-.595,1.271,3.3,3.3,0,0,1-1.133.864l.9,2.781a.306.306,0,0,1,.011.06.163.163,0,0,1-.049.12.184.184,0,0,1-.136.049h-1.717a.223.223,0,0,1-.155-.043.406.406,0,0,1-.084-.174l-.733-2.358h-1l-.5,2.347a.256.256,0,0,1-.272.228h-1.559q-.19,0-.19-.152a.446.446,0,0,1,.011-.076l1.548-7.284A.323.323,0,0,1-3930.063,3715.034Zm1.225,3.433h1.211a1.027,1.027,0,0,0,.506-.133,1.3,1.3,0,0,0,.4-.351,1.114,1.114,0,0,0,.215-.456.925.925,0,0,0,.021-.212.783.783,0,0,0-.182-.524.637.637,0,0,0-.513-.215h-1.266Z" transform="translate(3968.137 -3706.114)" fill="#52aef2"/></g><g transform="translate(5.405 -0.001)"><path d="M-3762.049,3707.9h-3.021l-.752-2.821a.536.536,0,0,0-.657-.38.536.536,0,0,0-.38.656l.858,3.219a.536.536,0,0,0,.518.4h3.434a.536.536,0,0,0,.536-.536A.536.536,0,0,0-3762.049,3707.9Z" transform="translate(3827.114 -3697.176)" fill="#f40890"/><path d="M-3849.907,3673.12l-3.054-4.8a1.4,1.4,0,0,0-1.18-.641h-4.137v-3.948a1.414,1.414,0,0,0-1.408-1.417h-12.205a1.414,1.414,0,0,0-1.408,1.417v2.2a.536.536,0,0,0,.537.537.536.536,0,0,0,.536-.537v-2.2a.345.345,0,0,1,.335-.344h12.205a.344.344,0,0,1,.335.344V3674.3a.344.344,0,0,1-.335.344h-16.009a.976.976,0,0,0-.973.977v3.082a1.853,1.853,0,0,0,1.844,1.857h5.333a2.687,2.687,0,0,0,2.628,2.146,2.687,2.687,0,0,0,2.629-2.146h6.546a2.686,2.686,0,0,0,2.628,2.146,2.687,2.687,0,0,0,2.628-2.146h.912a1.815,1.815,0,0,0,1.824-1.8v-4.9A1.378,1.378,0,0,0-3849.907,3673.12Zm-16.955,8.511a1.611,1.611,0,0,1-1.609-1.609,1.611,1.611,0,0,1,1.609-1.61,1.611,1.611,0,0,1,1.609,1.61A1.611,1.611,0,0,1-3866.862,3681.631Zm11.8,0a1.612,1.612,0,0,1-1.61-1.609,1.611,1.611,0,0,1,1.61-1.61,1.611,1.611,0,0,1,1.609,1.61A1.611,1.611,0,0,1-3855.059,3681.631Zm4.292-2.874a.741.741,0,0,1-.751.728h-.912a2.687,2.687,0,0,0-2.628-2.146,2.686,2.686,0,0,0-2.628,2.146h-6.546a2.687,2.687,0,0,0-2.629-2.146,2.687,2.687,0,0,0-2.628,2.146h-5.333a.779.779,0,0,1-.771-.784v-2.985h15.909a1.414,1.414,0,0,0,1.408-1.417v-5.543h4.137a.334.334,0,0,1,.277.148l3.049,4.788a.312.312,0,0,1,.048.163Z" transform="translate(3917.441 -3662.318)" fill="#f40890"/><path d="M-3866.562,3720.354a.536.536,0,0,0,.536.537h8.22a.537.537,0,0,0,.537-.537.537.537,0,0,0-.537-.536h-8.22A.536.536,0,0,0-3866.562,3720.354Z" transform="translate(3909.126 -3709.625)" fill="#f40890"/><path d="M-4078.148,3768.776a.536.536,0,0,0,.537.536h34.1a.536.536,0,0,0,.536-.536.536.536,0,0,0-.536-.537h-34.1A.537.537,0,0,0-4078.148,3768.776Z" transform="translate(4083.204 -3749.463)" fill="#f40890"/><path d="M-3842.184,3690.627h7.511a.536.536,0,0,0,.537-.536.537.537,0,0,0-.537-.537h-7.511a.537.537,0,0,0-.536.537A.536.536,0,0,0-3842.184,3690.627Z" transform="translate(3889.511 -3684.727)" fill="#f40890"/><path d="M-3854.8,3705.759a.537.537,0,0,0,.537-.537.537.537,0,0,0-.537-.536h-6.438a.537.537,0,0,0-.537.536.537.537,0,0,0,.537.537Z" transform="translate(3905.187 -3697.176)" fill="#f40890"/><path d="M-3890.382,3720.354a.536.536,0,0,0-.537-.536h-3.028a.537.537,0,0,0-.537.536.537.537,0,0,0,.537.537h3.028A.536.536,0,0,0-3890.382,3720.354Z" transform="translate(3932.098 -3709.625)" fill="#f40890"/><path d="M-4102.569,3768.776a.537.537,0,0,0-.537-.537h-3.027a.537.537,0,0,0-.537.537.536.536,0,0,0,.537.536h3.027A.536.536,0,0,0-4102.569,3768.776Z" transform="translate(4106.67 -3749.463)" fill="#f40890"/><path d="M-3813.314,3704.686h-1.073a.536.536,0,0,0-.536.536.536.536,0,0,0,.536.537h1.073a.536.536,0,0,0,.536-.537A.536.536,0,0,0-3813.314,3704.686Z" transform="translate(3866.643 -3697.176)" fill="#f40890"/><path d="M-3857.5,3689.555h-1.073a.536.536,0,0,0-.536.537.536.536,0,0,0,.536.536h1.073a.536.536,0,0,0,.537-.536A.537.537,0,0,0-3857.5,3689.555Z" transform="translate(3902.998 -3684.727)" fill="#f40890"/></g></g></svg>