<svg xmlns="http://www.w3.org/2000/svg" xmlns:xlink="http://www.w3.org/1999/xlink" width="220" height="50" viewBox="0 0 220 50"><defs><clipPath id="a"><rect width="220" height="50" rx="25" transform="translate(232 606)" fill="#fff"/></clipPath></defs><g transform="translate(-232 -606)" clip-path="url(#a)"><g transform="translate(-1818.33 169.383)"><g transform="translate(2117.33 448.413)"><path d="M2756.752,520.86c-.479.192-.961.38-1.438.577q-3.936,1.626-7.872,3.256c-.042.017-.083.038-.146.067a3.635,3.635,0,0,0,1.988,1.89,4.118,4.118,0,0,0,2.764.033,4.245,4.245,0,0,0,2.154-1.742l1.375.915,1.056.705c-.288.338-.548.683-.848.988a6.855,6.855,0,0,1-5.617,2.1,6.7,6.7,0,0,1-5.069-2.732,7.554,7.554,0,0,1-.1-8.6,6.3,6.3,0,0,1,4.776-2.736,6.04,6.04,0,0,1,5.99,3.149,18.421,18.421,0,0,1,.9,1.917c.027.059.056.116.084.174Zm-9.964,1.535,6.346-2.633a5.094,5.094,0,0,0-.464-.631,2.947,2.947,0,0,0-2.628-.814A3.88,3.88,0,0,0,2746.789,522.4Z" transform="translate(-2670.753 -507.734)" fill="#fff"/><path d="M2135.98,451.423l-2.087,2.089c-.4-.3-.787-.622-1.21-.894a7.894,7.894,0,0,0-10.911,2.558,7.824,7.824,0,0,0-1.049,5.6,8.028,8.028,0,0,0,11.716,5.612,6.057,6.057,0,0,0,3.155-4.595c.015-.1.03-.207.049-.335h-7.156v-2.986h10.12c.039.423.1.85.113,1.278a10.261,10.261,0,0,1-1.531,6.2,9.406,9.406,0,0,1-6.228,4.167,11.126,11.126,0,0,1-6.959-.714,10.717,10.717,0,0,1-6.478-8.126,10.417,10.417,0,0,1,3.365-9.877,10.692,10.692,0,0,1,6.444-2.928,10.481,10.481,0,0,1,8.6,2.894C2135.949,451.388,2135.965,451.408,2135.98,451.423Z" transform="translate(-2117.33 -448.413)" fill="#fff"/><path d="M2584.906,515.865h2.935c0,.069.01.138.01.207q0,6.194,0,12.389a9.472,9.472,0,0,1-.6,3.587,5.78,5.78,0,0,1-4.533,3.694,7.058,7.058,0,0,1-4.556-.514,6.785,6.785,0,0,1-3.24-3.362.848.848,0,0,1-.036-.092.236.236,0,0,1,0-.054l2.673-1.112c.066.131.124.255.19.373a3.9,3.9,0,0,0,5.956,1.25,3.457,3.457,0,0,0,1.119-2.262c.082-.66.08-1.331.116-2l-.067-.031a.888.888,0,0,0-.156.109,4.678,4.678,0,0,1-3.089,1.477,6.836,6.836,0,0,1-6.781-4.266,7.152,7.152,0,0,1,3.563-9.227,5.727,5.727,0,0,1,4.809-.162,4.237,4.237,0,0,1,1.492,1.039,1.228,1.228,0,0,0,.2.133Zm-7.5,6.437a4.563,4.563,0,0,0,1.01,3.094,3.671,3.671,0,0,0,6.076-.49,4.682,4.682,0,0,0-.085-4.944,3.578,3.578,0,0,0-5.227-1.055A4.176,4.176,0,0,0,2577.409,522.3Z" transform="translate(-2521.073 -507.613)" fill="#fff"/><path d="M2311.459,522.556a7.1,7.1,0,1,1,7.073,7.076A6.979,6.979,0,0,1,2311.459,522.556Zm11.09-.1c-.017-.174-.025-.451-.075-.721a5.134,5.134,0,0,0-.224-.834,3.908,3.908,0,0,0-6.616-1.3,4.625,4.625,0,0,0-.081,5.812,3.86,3.86,0,0,0,5.445.554A4.336,4.336,0,0,0,2322.549,522.456Z" transform="translate(-2288.851 -507.684)" fill="#fff"/><path d="M2442.938,522.558a7.093,7.093,0,1,1,7.071,7.074A6.971,6.971,0,0,1,2442.938,522.558Zm11.086.122a5.172,5.172,0,0,0-.3-1.8,3.913,3.913,0,0,0-6.6-1.293,4.618,4.618,0,0,0-.07,5.857,3.845,3.845,0,0,0,5.035.8A4.158,4.158,0,0,0,2454.024,522.681Z" transform="translate(-2405.017 -507.683)" fill="#fff"/><path d="M2706.6,455.389h3v20.69h-3Z" transform="translate(-2637.974 -454.577)" fill="#fff"/></g></g></g></svg>