<svg xmlns="http://www.w3.org/2000/svg" xmlns:xlink="http://www.w3.org/1999/xlink" width="70.062" height="22.816" viewBox="0 0 70.062 22.816"><defs><linearGradient id="a" x1="1" x2="0.348" y2="1" gradientUnits="objectBoundingBox"><stop offset="0" stop-color="#ff5b10"/><stop offset="1" stop-color="#ff264a"/></linearGradient></defs><g transform="translate(14.702 14.103)"><path d="M-3851.627,4163.957h-1.2a.246.246,0,0,1-.266-.223l-1.218-7.146a.283.283,0,0,1-.006-.064c0-.109.066-.165.2-.165l1.543.011a.225.225,0,0,1,.25.229l.6,4.576,2.522-4.576a.4.4,0,0,1,.356-.229h1.735c.092,0,.138.03.138.09a.33.33,0,0,1-.048.139l-4.251,7.135A.4.4,0,0,1-3851.627,4163.957Z" transform="translate(3854.32 -4155.54)" fill="#20268b"/><path d="M-3820.324,4163.791a3.882,3.882,0,0,1,1.434-1.168,4.263,4.263,0,0,1,1.862-.41,2.878,2.878,0,0,1,1.421.346,2.477,2.477,0,0,1,.968.953,2.7,2.7,0,0,1,.346,1.362,3.376,3.376,0,0,1-.075.681,4.3,4.3,0,0,1-.782,1.777,3.883,3.883,0,0,1-1.415,1.163,4.144,4.144,0,0,1-1.831.407,2.894,2.894,0,0,1-1.434-.351,2.509,2.509,0,0,1-.982-.968,2.746,2.746,0,0,1-.351-1.383,3.341,3.341,0,0,1,.064-.644A4.2,4.2,0,0,1-3820.324,4163.791Zm1.056,2.147a1.4,1.4,0,0,0,.141.633,1.068,1.068,0,0,0,.41.444,1.209,1.209,0,0,0,.636.162,1.609,1.609,0,0,0,.822-.224,2.071,2.071,0,0,0,.652-.6,2.126,2.126,0,0,0,.356-.8,1.994,1.994,0,0,0,.042-.389,1.4,1.4,0,0,0-.138-.63,1.032,1.032,0,0,0-.4-.439,1.206,1.206,0,0,0-.633-.16,1.631,1.631,0,0,0-.82.221,2.1,2.1,0,0,0-.66.591,2.045,2.045,0,0,0-.362.806A1.962,1.962,0,0,0-3819.268,4165.938Z" transform="translate(3826.919 -4160.377)" fill="#20268b"/><path d="M-3773.626,4162.581h1.48q.2,0,.2.16a.649.649,0,0,1-.011.08l-1.282,6.039a.271.271,0,0,1-.287.239h-.947a.285.285,0,0,1-.21-.087.322.322,0,0,1-.1-.2l-.027-.57a2.949,2.949,0,0,1-2.2.969,2.078,2.078,0,0,1-.878-.21,1.858,1.858,0,0,1-.763-.673,2.054,2.054,0,0,1-.311-1.171,3.523,3.523,0,0,1,.085-.745l.766-3.592a.261.261,0,0,1,.282-.234h1.447c.132,0,.2.055.2.165a.435.435,0,0,1-.011.069l-.734,3.454a1.172,1.172,0,0,0-.032.271.832.832,0,0,0,.234.61.911.911,0,0,0,.676.236,1.536,1.536,0,0,0,.508-.1,1.491,1.491,0,0,0,.545-.356,1.309,1.309,0,0,0,.346-.668l.729-3.437A.28.28,0,0,1-3773.626,4162.581Z" transform="translate(3792.047 -4160.682)" fill="#20268b"/><path d="M-3733.842,4166.652a.122.122,0,0,1,.123.069l.559,1.085a.3.3,0,0,1,.032.127c0,.064-.046.13-.139.2a3.9,3.9,0,0,1-1.03.54,3.385,3.385,0,0,1-1.147.215,2.9,2.9,0,0,1-1.437-.356,2.554,2.554,0,0,1-1-.993,2.872,2.872,0,0,1-.359-1.439,3.973,3.973,0,0,1,.059-.649,3.727,3.727,0,0,1,.724-1.657,4.136,4.136,0,0,1,1.4-1.178,3.7,3.7,0,0,1,1.732-.431,3.084,3.084,0,0,1,1.184.208,2.907,2.907,0,0,1,.9.585.182.182,0,0,1,.064.122.172.172,0,0,1-.053.112l-.915,1.075a.2.2,0,0,1-.144.064.176.176,0,0,1-.112-.043,1.883,1.883,0,0,0-.54-.316,1.725,1.725,0,0,0-.577-.093,1.59,1.59,0,0,0-.769.207,2.079,2.079,0,0,0-.663.58,2.114,2.114,0,0,0-.383.841,2.181,2.181,0,0,0-.042.4,1.359,1.359,0,0,0,.146.641,1.039,1.039,0,0,0,.412.431,1.219,1.219,0,0,0,.617.151,1.482,1.482,0,0,0,.6-.128,4.834,4.834,0,0,0,.612-.324A.249.249,0,0,1-3733.842,4166.652Z" transform="translate(3758.393 -4160.353)" fill="#20268b"/><path d="M-3700.872,4156.2a.983.983,0,0,0-.216-.681.753.753,0,0,0-.588-.239,1.214,1.214,0,0,0-.575.144,1.322,1.322,0,0,0-.468.428,1.871,1.871,0,0,0-.282.689l-.7,3.278a.319.319,0,0,1-.1.175.276.276,0,0,1-.186.063h-1.479c-.132,0-.2-.055-.2-.165v-.021a.212.212,0,0,1,.005-.053l1.687-7.939a.3.3,0,0,1,.1-.181.3.3,0,0,1,.189-.058h1.479a.207.207,0,0,1,.144.047.158.158,0,0,1,.053.123.313.313,0,0,1-.011.069l-.495,2.336a2.957,2.957,0,0,1,1.767-.751q1.889,0,1.889,2.033a6.686,6.686,0,0,1-.16,1.346l-.633,2.975a.318.318,0,0,1-.1.175.276.276,0,0,1-.186.063h-1.48c-.131,0-.2-.055-.2-.165v-.021a.223.223,0,0,1,.006-.053l.676-3.171A2.026,2.026,0,0,0-3700.872,4156.2Z" transform="translate(3731.473 -4151.641)" fill="#20268b"/><path d="M-3658.813,4166.708a.142.142,0,0,1,.133.074l.542.91a.292.292,0,0,1,.048.149.258.258,0,0,1-.133.2,4.458,4.458,0,0,1-1.306.708,4.332,4.332,0,0,1-1.269.181,2.82,2.82,0,0,1-1.415-.361,2.671,2.671,0,0,1-1.006-.993,2.746,2.746,0,0,1-.367-1.408,3.111,3.111,0,0,1,.053-.58,4.168,4.168,0,0,1,.726-1.748,3.812,3.812,0,0,1,1.376-1.176,3.9,3.9,0,0,1,1.788-.417,2.5,2.5,0,0,1,1.144.284,2.318,2.318,0,0,1,.923.878,2.755,2.755,0,0,1,.365,1.466,4.345,4.345,0,0,1-.053.67.935.935,0,0,1-.144.412.5.5,0,0,1-.274.184,1.875,1.875,0,0,1-.476.048h-3.629a1.3,1.3,0,0,0,.181.606,1.1,1.1,0,0,0,.428.4,1.278,1.278,0,0,0,.609.144,2.806,2.806,0,0,0,.644-.063,1.7,1.7,0,0,0,.431-.158,3.232,3.232,0,0,0,.362-.242c.078-.057.136-.1.176-.123A.25.25,0,0,1-3658.813,4166.708Zm-1.913-2.658a2.337,2.337,0,0,0-.651.678h2.581a.958.958,0,0,0-.357-.694,1.2,1.2,0,0,0-.766-.247A1.412,1.412,0,0,0-3660.726,4164.05Z" transform="translate(3696.704 -4160.403)" fill="#20268b"/><path d="M-3624.1,4162.277h.872a.413.413,0,0,1,.213.045.331.331,0,0,1,.111.221l.107.57a5.5,5.5,0,0,1,.473-.471,1.862,1.862,0,0,1,.506-.3,1.723,1.723,0,0,1,.681-.125,1.924,1.924,0,0,1,.75.154,3.079,3.079,0,0,1,.625.343,2.622,2.622,0,0,1,.37.312.277.277,0,0,1,.09.186.38.38,0,0,1-.117.224l-.868.941a.26.26,0,0,1-.181.106.21.21,0,0,1-.149-.08c-.018-.018-.071-.072-.159-.166a1.1,1.1,0,0,0-.341-.231,1.1,1.1,0,0,0-.452-.093,1.458,1.458,0,0,0-.607.13,1.36,1.36,0,0,0-.5.389,1.415,1.415,0,0,0-.285.625l-.745,3.513a.265.265,0,0,1-.282.229h-1.5a.225.225,0,0,1-.141-.04.137.137,0,0,1-.05-.115.424.424,0,0,1,.011-.074l1.288-6.056A.259.259,0,0,1-3624.1,4162.277Z" transform="translate(3665.378 -4160.377)" fill="#20268b"/></g><g transform="translate(22.045 4.033)"><path d="M-3811.471,4103.421h5.545c.12,0,.181.051.181.154a.449.449,0,0,1-.01.075l-.271,1.293a.255.255,0,0,1-.271.229h-1.815l-1.2,5.613a.253.253,0,0,1-.271.224h-1.474q-.192,0-.192-.154a.471.471,0,0,1,.011-.07l1.2-5.613h-1.8c-.124,0-.186-.052-.186-.154a.416.416,0,0,1,.011-.074l.271-1.293A.258.258,0,0,1-3811.471,4103.421Z" transform="translate(3812.03 -4101.724)" fill="#20268b"/><path d="M-3779.063,4113.708a.143.143,0,0,1,.133.074l.543.91a.3.3,0,0,1,.048.149.258.258,0,0,1-.133.2,4.445,4.445,0,0,1-1.307.708,4.309,4.309,0,0,1-1.269.181,2.82,2.82,0,0,1-1.416-.362,2.665,2.665,0,0,1-1.006-.992,2.748,2.748,0,0,1-.367-1.407,3.149,3.149,0,0,1,.053-.58,4.173,4.173,0,0,1,.727-1.749,3.8,3.8,0,0,1,1.375-1.176,3.9,3.9,0,0,1,1.788-.417,2.49,2.49,0,0,1,1.144.285,2.319,2.319,0,0,1,.923.877,2.755,2.755,0,0,1,.365,1.466,4.375,4.375,0,0,1-.053.67.952.952,0,0,1-.144.413.5.5,0,0,1-.274.184,1.873,1.873,0,0,1-.477.048h-3.629a1.3,1.3,0,0,0,.181.606,1.1,1.1,0,0,0,.428.4,1.267,1.267,0,0,0,.609.144,2.773,2.773,0,0,0,.644-.064,1.663,1.663,0,0,0,.431-.157,3.278,3.278,0,0,0,.362-.242c.078-.057.136-.1.176-.123A.249.249,0,0,1-3779.063,4113.708Zm-1.913-2.658a2.332,2.332,0,0,0-.652.678h2.581a.959.959,0,0,0-.357-.695,1.2,1.2,0,0,0-.766-.247A1.408,1.408,0,0,0-3780.976,4111.051Z" transform="translate(3788.731 -4106.536)" fill="#20268b"/><path d="M-3744.353,4109.277h.872a.418.418,0,0,1,.213.045.331.331,0,0,1,.111.221l.106.569a5.582,5.582,0,0,1,.474-.471,1.9,1.9,0,0,1,.506-.3,1.741,1.741,0,0,1,.681-.125,1.916,1.916,0,0,1,.75.154,3.116,3.116,0,0,1,.625.343,2.69,2.69,0,0,1,.37.312.278.278,0,0,1,.09.186.378.378,0,0,1-.117.224l-.868.942a.26.26,0,0,1-.181.106.212.212,0,0,1-.149-.08l-.159-.165a1.08,1.08,0,0,0-.341-.231,1.092,1.092,0,0,0-.452-.093,1.454,1.454,0,0,0-.607.13,1.364,1.364,0,0,0-.5.388,1.413,1.413,0,0,0-.285.625l-.745,3.512a.265.265,0,0,1-.282.229h-1.5a.226.226,0,0,1-.141-.04.138.138,0,0,1-.05-.115.424.424,0,0,1,.011-.074l1.288-6.056A.259.259,0,0,1-3744.353,4109.277Z" transform="translate(3757.405 -4106.51)" fill="#20268b"/><path d="M-3714.946,4114.5a.369.369,0,0,1,.155-.271l.83-.713a.248.248,0,0,1,.149-.064.266.266,0,0,1,.175.1,1.525,1.525,0,0,0,1.128.58,1.027,1.027,0,0,0,.559-.12.519.519,0,0,0,.229-.332.832.832,0,0,0,.011-.1.308.308,0,0,0-.074-.2.737.737,0,0,0-.261-.171,5.14,5.14,0,0,0-.533-.188,2.326,2.326,0,0,1-1.085-.654,1.573,1.573,0,0,1-.383-1.075,2.326,2.326,0,0,1,.059-.521,1.973,1.973,0,0,1,.46-.913,2.3,2.3,0,0,1,.886-.6,3.238,3.238,0,0,1,1.2-.213,2.658,2.658,0,0,1,.934.149,2.287,2.287,0,0,1,.655.354,4.336,4.336,0,0,1,.487.465.252.252,0,0,1,.075.16c0,.071-.055.147-.166.229l-.862.639a.305.305,0,0,1-.181.08.234.234,0,0,1-.154-.085,3.115,3.115,0,0,0-.237-.218.905.905,0,0,0-.239-.13.99.99,0,0,0-.354-.056.976.976,0,0,0-.458.09.357.357,0,0,0-.2.224.6.6,0,0,0-.011.085.208.208,0,0,0,.069.159.738.738,0,0,0,.2.123q.136.058.429.159c.159.053.311.106.453.16a2.032,2.032,0,0,1,.979.689,1.631,1.631,0,0,1,.3.955,2.279,2.279,0,0,1-.059.5,2.367,2.367,0,0,1-.575,1.136,2.556,2.556,0,0,1-1.021.667,3.767,3.767,0,0,1-1.277.213,3.023,3.023,0,0,1-1.271-.267,2.207,2.207,0,0,1-.947-.813A.331.331,0,0,1-3714.946,4114.5Z" transform="translate(3731.803 -4106.358)" fill="#20268b"/><path d="M-3675.452,4113.708a.143.143,0,0,1,.133.074l.542.91a.3.3,0,0,1,.048.149.258.258,0,0,1-.133.2,4.446,4.446,0,0,1-1.306.708,4.312,4.312,0,0,1-1.269.181,2.822,2.822,0,0,1-1.416-.362,2.666,2.666,0,0,1-1.006-.992,2.746,2.746,0,0,1-.367-1.407,3.107,3.107,0,0,1,.053-.58,4.172,4.172,0,0,1,.726-1.749,3.8,3.8,0,0,1,1.375-1.176,3.9,3.9,0,0,1,1.788-.417,2.49,2.49,0,0,1,1.144.285,2.316,2.316,0,0,1,.923.877,2.755,2.755,0,0,1,.365,1.466,4.375,4.375,0,0,1-.053.67.942.942,0,0,1-.144.413.5.5,0,0,1-.274.184,1.872,1.872,0,0,1-.476.048h-3.629a1.294,1.294,0,0,0,.181.606,1.1,1.1,0,0,0,.428.4,1.266,1.266,0,0,0,.609.144,2.775,2.775,0,0,0,.644-.064,1.668,1.668,0,0,0,.431-.157,3.349,3.349,0,0,0,.362-.242q.117-.085.175-.123A.25.25,0,0,1-3675.452,4113.708Zm-1.913-2.658a2.325,2.325,0,0,0-.652.678h2.581a.96.96,0,0,0-.356-.695,1.2,1.2,0,0,0-.766-.247A1.408,1.408,0,0,0-3677.365,4111.051Z" transform="translate(3703.111 -4106.536)" fill="#20268b"/><path d="M-3634.155,4107.059h-1.229a.181.181,0,0,1-.157-.08.475.475,0,0,1-.074-.157q-.019-.078-.045-.248l-.032-.165a3.2,3.2,0,0,1-.872.559,2.406,2.406,0,0,1-.947.2,2.535,2.535,0,0,1-1.309-.335,2.288,2.288,0,0,1-.883-.942,2.986,2.986,0,0,1-.314-1.394,4.359,4.359,0,0,1,.074-.761,3.946,3.946,0,0,1,.724-1.663,3.981,3.981,0,0,1,1.375-1.168,3.761,3.761,0,0,1,1.753-.426,1.858,1.858,0,0,1,1.474.628l.479-2.235a.258.258,0,0,1,.277-.229h1.5q.191,0,.191.154a.418.418,0,0,1-.01.075l-1.692,7.96A.257.257,0,0,1-3634.155,4107.059Zm-.857-3.6a1.288,1.288,0,0,0-.167-.657,1.186,1.186,0,0,0-.466-.453,1.394,1.394,0,0,0-.676-.162,1.6,1.6,0,0,0-.806.221,2.062,2.062,0,0,0-.654.594,2.086,2.086,0,0,0-.359.809,1.79,1.79,0,0,0-.048.4,1.328,1.328,0,0,0,.144.623,1.038,1.038,0,0,0,.412.431,1.237,1.237,0,0,0,.625.154,1.852,1.852,0,0,0,.856-.213,2.159,2.159,0,0,0,.711-.583,1.957,1.957,0,0,0,.391-.816A1.67,1.67,0,0,0-3635.012,4103.462Z" transform="translate(3669.886 -4097.774)" fill="#20268b"/><path d="M-3597.024,4096.471a.274.274,0,0,1,.165-.059h1.517a.18.18,0,0,1,.133.048.166.166,0,0,1,.048.123.185.185,0,0,1-.005.053l-1.293,6.071a.25.25,0,0,1-.266.223h-1.516c-.127,0-.192-.051-.192-.154a.441.441,0,0,1,.011-.069l1.293-6.071A.282.282,0,0,1-3597.024,4096.471Zm.6-2.711a.479.479,0,0,1,.343-.114h1.171q.314,0,.314.277a.928.928,0,0,1-.021.149l-.25,1.181a.458.458,0,0,1-.152.293.523.523,0,0,1-.311.08h-1.171a.5.5,0,0,1-.261-.056.209.209,0,0,1-.091-.194.477.477,0,0,1,.011-.117l.25-1.187A.623.623,0,0,1-3596.425,4093.76Z" transform="translate(3635.522 -4093.646)" fill="#20268b"/><path d="M-3573.278,4115.77h-1.165a.181.181,0,0,1-.157-.08.471.471,0,0,1-.074-.157q-.019-.077-.045-.248l-.032-.181a3.751,3.751,0,0,1-.889.578,2.271,2.271,0,0,1-.931.194,2.854,2.854,0,0,1-1.384-.341,2.543,2.543,0,0,1-.992-.956,2.7,2.7,0,0,1-.365-1.407,3.76,3.76,0,0,1,.074-.708,4.2,4.2,0,0,1,.748-1.7,3.859,3.859,0,0,1,1.394-1.165,4.064,4.064,0,0,1,1.844-.418,1.852,1.852,0,0,1,1.671.862l.324-.564a.808.808,0,0,1,.122-.184.225.225,0,0,1,.155-.044h1.085q.192,0,.191.154a.462.462,0,0,1-.01.075l-1.288,6.061A.257.257,0,0,1-3573.278,4115.77Zm-1-3.591a1.335,1.335,0,0,0-.155-.644,1.147,1.147,0,0,0-.439-.455,1.269,1.269,0,0,0-.657-.167,1.723,1.723,0,0,0-.8.2,2.079,2.079,0,0,0-.687.575,1.983,1.983,0,0,0-.386.833,1.978,1.978,0,0,0-.042.383,1.308,1.308,0,0,0,.152.639,1.087,1.087,0,0,0,.431.434,1.3,1.3,0,0,0,.646.157,1.713,1.713,0,0,0,.835-.221,2.169,2.169,0,0,0,.689-.59,1.97,1.97,0,0,0,.375-.8A1.574,1.574,0,0,0-3574.278,4112.179Z" transform="translate(3619.72 -4106.485)" fill="#20268b"/></g><path d="M-3916.456,4070.7a.95.95,0,0,0-1.344,0l-1.278,1.278a6.34,6.34,0,0,0-8.229.624l-11.408,11.408a.95.95,0,0,0-.278.672c0,.393.128.522.605,1l7.279,7.279a.95.95,0,0,0,.672.278,1.055,1.055,0,0,0,.8-.407l11.28-11.279a6.34,6.34,0,0,0,.624-8.229l1.278-1.278A.95.95,0,0,0-3916.456,4070.7Zm-3.246,9.507-10.736,10.735-6.261-6.261,10.736-10.736a4.437,4.437,0,0,1,5.517-.6l-1.157,1.157a2.832,2.832,0,0,0-1.23-.278,2.833,2.833,0,0,0-2.016.835,2.832,2.832,0,0,0-.835,2.017,2.834,2.834,0,0,0,.835,2.017,2.846,2.846,0,0,0,2.017.834,2.846,2.846,0,0,0,2.017-.834,2.834,2.834,0,0,0,.836-2.017,2.839,2.839,0,0,0-.278-1.23l1.157-1.156A4.436,4.436,0,0,1-3919.7,4080.2Zm-2.458-3.8a.944.944,0,0,1,.278.672.944.944,0,0,1-.278.672.952.952,0,0,1-1.345,0,.945.945,0,0,1-.278-.672.947.947,0,0,1,.278-.672.946.946,0,0,1,.672-.278.945.945,0,0,1,.672.278h0Z" transform="translate(3938.994 -4070.418)" fill="url(#a)"/></svg>