<svg xmlns="http://www.w3.org/2000/svg" width="56" height="56.001" viewBox="0 0 56 56.001"><g transform="translate(0 0)"><path d="M4319.742-1379.71a5.589,5.589,0,0,1,3.055,2.414,4.6,4.6,0,0,0,6.1,1.618,5.4,5.4,0,0,1,2.953-.62,3.652,3.652,0,0,1,3.087,3.115c.1.481.151.971.206,1.459a4.609,4.609,0,0,0,4.074,4.068,11.651,11.651,0,0,1,1.771.3,3.558,3.558,0,0,1,2.624,4.728,12.168,12.168,0,0,1-.573,1.472,4.639,4.639,0,0,0,1.519,5.7,12.132,12.132,0,0,1,1.587,1.329,3.285,3.285,0,0,1,.071,4.758,7.994,7.994,0,0,1-1.306,1.154,4.65,4.65,0,0,0-1.708,6.3,5.163,5.163,0,0,1,.57,2.907,3.646,3.646,0,0,1-3.1,3.039c-.48.1-.971.151-1.459.206a4.619,4.619,0,0,0-4.075,4.068,10.613,10.613,0,0,1-.43,2.186,3.431,3.431,0,0,1-4.162,2.307,9.8,9.8,0,0,1-1.847-.646,4.66,4.66,0,0,0-5.784,1.54,10.78,10.78,0,0,1-1.418,1.652,3.265,3.265,0,0,1-4.675-.066,9.705,9.705,0,0,1-1.209-1.4,4.63,4.63,0,0,0-6.1-1.624,5.577,5.577,0,0,1-2.9.632,3.649,3.649,0,0,1-3.15-3.112c-.1-.479-.152-.971-.208-1.459a4.6,4.6,0,0,0-4.063-4.078,11.6,11.6,0,0,1-1.826-.307,3.561,3.561,0,0,1-2.6-4.658,11.772,11.772,0,0,1,.591-1.524,4.6,4.6,0,0,0-1.6-5.757,5.749,5.749,0,0,1-2.548-3.151v-1.094a5.756,5.756,0,0,1,2.548-3.151,4.6,4.6,0,0,0,1.6-5.756,12.257,12.257,0,0,1-.574-1.471,3.559,3.559,0,0,1,2.635-4.721,11.783,11.783,0,0,1,1.772-.3,4.6,4.6,0,0,0,4.068-4.072c.056-.488.106-.979.206-1.458a3.65,3.65,0,0,1,3.144-3.118,5.659,5.659,0,0,1,2.948.649,4.59,4.59,0,0,0,6.046-1.639,5.624,5.624,0,0,1,3.055-2.414Zm-12.671,6.608c-.117.134-.293.249-.334.4a6.742,6.742,0,0,0-.208,1.179,7.88,7.88,0,0,1-5.757,6.891c-.735.192-1.51.227-2.262.36-.66.116-.743.264-.538.889a7.588,7.588,0,0,0,.335.8,7.9,7.9,0,0,1-2.611,9.816c-.341.242-.663.51-.987.774a.312.312,0,0,0,0,.546c.31.253.616.512.943.742a7.9,7.9,0,0,1,2.638,9.9c-.687,1.47-.6,1.609,1.031,1.754a7.851,7.851,0,0,1,7.211,7.193c.027.308.072.616.126.92.082.464.32.677.8.467.3-.13.61-.237.907-.373a7.893,7.893,0,0,1,9.769,2.616c.221.312.465.607.7.912.256.338.5.3.741-.015s.482-.639.726-.958a7.611,7.611,0,0,1,7.388-3.187,15,15,0,0,1,2.95.915c.855.3,1.019.223,1.145-.666.084-.595.116-1.2.25-1.784a7.9,7.9,0,0,1,7-6.036c1.67-.141,1.755-.283,1.059-1.776a7.9,7.9,0,0,1,2.752-9.951c1.319-.94,1.339-.932.007-1.874a7.871,7.871,0,0,1-2.69-10.094c.6-1.294.506-1.4-.9-1.634a10.831,10.831,0,0,1-2.932-.764,7.573,7.573,0,0,1-4.476-6.457c-.15-1.578-.319-1.7-1.615-1.1a7.859,7.859,0,0,1-10.131-2.709c-.879-1.241-.959-1.24-1.849.014a7.869,7.869,0,0,1-10.14,2.69C4307.814-1372.84,4307.484-1372.944,4307.071-1373.1Z" transform="translate(-4291.199 1379.71)" fill="#46278a"/><path d="M4365.13-1331.566a8.313,8.313,0,0,1-2.84-10.659c.636-1.366.534-1.481-.947-1.725a11.434,11.434,0,0,1-3.1-.806,8,8,0,0,1-4.726-6.819c-.159-1.666-.338-1.794-1.706-1.157a8.3,8.3,0,0,1-10.7-2.86c-.927-1.311-1.012-1.31-1.952.015a8.309,8.309,0,0,1-10.707,2.841c-.329-.152-.678-.262-1.114-.428-.124.142-.31.263-.354.422a7.168,7.168,0,0,0-.218,1.245,8.322,8.322,0,0,1-6.08,7.277c-.776.2-1.594.24-2.388.38-.7.123-.785.279-.568.938a7.744,7.744,0,0,0,.354.849,8.34,8.34,0,0,1-2.757,10.366c-.36.255-.7.539-1.042.818a.329.329,0,0,0,0,.576c.327.267.651.541,1,.783a8.345,8.345,0,0,1,2.786,10.452c-.725,1.552-.639,1.7,1.088,1.852a8.292,8.292,0,0,1,7.617,7.6c.028.325.075.65.132.972.087.49.338.715.85.493.317-.138.645-.25.958-.394a8.334,8.334,0,0,1,10.315,2.762c.232.329.49.641.734.963.271.357.529.316.783-.016s.509-.675.766-1.011a8.039,8.039,0,0,1,7.8-3.366,15.867,15.867,0,0,1,3.114.966c.9.314,1.076.235,1.208-.7.089-.628.123-1.268.264-1.884a8.339,8.339,0,0,1,7.4-6.374c1.764-.149,1.854-.3,1.117-1.876a8.343,8.343,0,0,1,2.906-10.508C4366.515-1330.579,4366.535-1330.57,4365.13-1331.566Z" transform="translate(-4312.15 1358.575)" fill="#703be2"/></g></svg>