<svg xmlns="http://www.w3.org/2000/svg" width="27.412" height="25.2" viewBox="0 0 27.412 25.2"><g transform="translate(0.001 -0.001)"><path d="M-307.446,344.7c.029,0,.058,0,.087,0a.986.986,0,0,0,.981-.9l.482-5.509a.988.988,0,0,0-.9-1.07.987.987,0,0,0-1.069.9l-.482,5.509A.985.985,0,0,0-307.446,344.7Z" transform="translate(318.613 -331.131)" fill="#46278a"/><path d="M-303.643,344.7c.03,0,.058,0,.087,0a.988.988,0,0,0,.982-.9l.482-5.509a.987.987,0,0,0-.9-1.07.988.988,0,0,0-1.07.9l-.482,5.509A.987.987,0,0,0-303.643,344.7Z" transform="translate(318.127 -331.131)" fill="#46278a"/><path d="M-299.84,344.7c.03,0,.058,0,.087,0a.988.988,0,0,0,.982-.9l.482-5.509a.988.988,0,0,0-.9-1.07.988.988,0,0,0-1.07.9l-.482,5.509A.986.986,0,0,0-299.84,344.7Z" transform="translate(317.643 -331.131)" fill="#46278a"/><path d="M-296.036,344.7c.029,0,.058,0,.086,0a.987.987,0,0,0,.982-.9l.482-5.509a.987.987,0,0,0-.9-1.07.987.987,0,0,0-1.069.9l-.482,5.509A.987.987,0,0,0-296.036,344.7Z" transform="translate(317.156 -331.131)" fill="#46278a"/><path d="M-296.156,346.228a3.233,3.233,0,0,0,2.648-2.879l.795-7.823a2.15,2.15,0,0,0-.534-1.65,2.072,2.072,0,0,0-1.521-.692l-19.6-.158-.48-2.027a.987.987,0,0,0-.961-.759h-3.318a.986.986,0,0,0-.987.987.986.986,0,0,0,.987.987h2.538l4.1,17.305a3.191,3.191,0,0,0-1.541,2.722,3.2,3.2,0,0,0,3.2,3.2,3.192,3.192,0,0,0,3.027-2.212h7.771a3.192,3.192,0,0,0,3.027,2.212,3.2,3.2,0,0,0,3.2-3.2,3.2,3.2,0,0,0-3.2-3.2,3.192,3.192,0,0,0-3.027,2.212H-307.8a3.184,3.184,0,0,0-2.764-2.185l-.1-.423Zm1.439-11.035a.175.175,0,0,1,.04.134l-.795,7.822a1.255,1.255,0,0,1-1.01,1.132l-14.644,2.441-2.774-11.716Zm-2.29,15.824a1.226,1.226,0,0,1,1.225,1.225,1.226,1.226,0,0,1-1.225,1.225,1.226,1.226,0,0,1-1.225-1.225A1.226,1.226,0,0,1-297.007,351.017Zm-12.6,1.225a1.226,1.226,0,0,1-1.225,1.225,1.226,1.226,0,0,1-1.225-1.225,1.226,1.226,0,0,1,1.225-1.225A1.226,1.226,0,0,1-309.607,352.242Z" transform="translate(320.113 -330.24)" fill="#46278a"/></g></svg>