<svg xmlns="http://www.w3.org/2000/svg" width="50" height="50" viewBox="0 0 50 50"><g transform="translate(14 15.221)"><rect width="50" height="50" transform="translate(-14 -15.221)" fill="#fff"/><path d="M-178.851,350.264a.932.932,0,0,1-.5-.142c-3.982-2.507-10.662-7.514-10.662-12.874a6.05,6.05,0,0,1,6.044-6.043,6.769,6.769,0,0,1,5.113,2.388,6.773,6.773,0,0,1,5.114-2.388,6.05,6.05,0,0,1,6.043,6.043c0,5.36-6.68,10.367-10.662,12.874A.93.93,0,0,1-178.851,350.264Zm-5.113-17.2a4.189,4.189,0,0,0-4.184,4.184c0,3.175,3.381,7.161,9.3,10.985,5.918-3.824,9.3-7.81,9.3-10.985a4.189,4.189,0,0,0-4.184-4.184,4.673,4.673,0,0,0-4.248,2.663.93.93,0,0,1-.866.591h0a.928.928,0,0,1-.865-.591A4.673,4.673,0,0,0-183.964,333.063Z" transform="translate(190.008 -331.201)" fill="#46278a"/></g></svg>