<svg xmlns="http://www.w3.org/2000/svg" width="26.273" height="22.443" viewBox="0 0 26.273 22.443"><path d="M664.224,497.055a1.093,1.093,0,0,1-.584-.168c-4.689-2.952-12.553-8.846-12.553-15.158a7.124,7.124,0,0,1,7.115-7.116,7.976,7.976,0,0,1,6.022,2.812,7.972,7.972,0,0,1,6.021-2.812,7.124,7.124,0,0,1,7.115,7.116c0,6.311-7.865,12.206-12.553,15.158A1.092,1.092,0,0,1,664.224,497.055ZM658.2,476.8a4.932,4.932,0,0,0-4.926,4.927c0,3.738,3.98,8.432,10.948,12.933,6.966-4.5,10.947-9.2,10.947-12.933a4.931,4.931,0,0,0-4.926-4.927,5.5,5.5,0,0,0-5,3.135,1.094,1.094,0,0,1-1.019.7h0a1.1,1.1,0,0,1-1.02-.7A5.5,5.5,0,0,0,658.2,476.8Z" transform="translate(-651.087 -474.612)" fill="#909090"/></svg>