<svg xmlns="http://www.w3.org/2000/svg" width="21.923" height="26.308" viewBox="0 0 21.923 26.308"><g transform="translate(-388.209 -142.531)"><g transform="translate(389.305 146.916)"><path d="M405.842,169.218H392.689a3.293,3.293,0,0,1-3.289-3.289V148.391a1.1,1.1,0,1,1,2.192,0V165.93a1.1,1.1,0,0,0,1.1,1.1h13.154a1.1,1.1,0,0,0,1.1-1.1V148.391a1.1,1.1,0,1,1,2.192,0V165.93A3.293,3.293,0,0,1,405.842,169.218Z" transform="translate(-389.4 -147.295)" fill="#909090"/></g><g transform="translate(388.209 146.916)"><path d="M409.036,149.487H389.305a1.1,1.1,0,0,1,0-2.192h19.731a1.1,1.1,0,1,1,0,2.192Z" transform="translate(-388.209 -147.295)" fill="#909090"/></g><g transform="translate(393.69 151.301)"><path d="M395.259,165.213a1.1,1.1,0,0,1-1.1-1.1V153.155a1.1,1.1,0,1,1,2.191,0v10.961A1.1,1.1,0,0,1,395.259,165.213Z" transform="translate(-394.164 -152.059)" fill="#909090"/></g><g transform="translate(398.074 151.301)"><path d="M400.023,165.213a1.1,1.1,0,0,1-1.1-1.1V153.155a1.1,1.1,0,0,1,2.192,0v10.961A1.1,1.1,0,0,1,400.023,165.213Z" transform="translate(-398.927 -152.059)" fill="#909090"/></g><g transform="translate(402.459 151.301)"><path d="M404.787,165.213a1.1,1.1,0,0,1-1.1-1.1V153.155a1.1,1.1,0,0,1,2.192,0v10.961A1.1,1.1,0,0,1,404.787,165.213Z" transform="translate(-403.691 -152.059)" fill="#909090"/></g><g transform="translate(393.69 142.531)"><path d="M404.029,149.108a1.1,1.1,0,0,1-1.1-1.1V145.82a1.1,1.1,0,0,0-1.1-1.1h-4.385a1.1,1.1,0,0,0-1.1,1.1v2.192a1.1,1.1,0,1,1-2.191,0V145.82a3.292,3.292,0,0,1,3.288-3.289h4.385a3.293,3.293,0,0,1,3.289,3.289v2.192A1.1,1.1,0,0,1,404.029,149.108Z" transform="translate(-394.164 -142.531)" fill="#909090"/></g></g></svg>