<svg xmlns="http://www.w3.org/2000/svg" xmlns:xlink="http://www.w3.org/1999/xlink" width="68" height="68" viewBox="0 0 68 68"><defs><filter id="a" x="0" y="0" width="68" height="68" filterUnits="userSpaceOnUse"><feOffset dy="3" input="SourceAlpha"/><feGaussianBlur stdDeviation="3" result="b"/><feFlood flood-opacity="0.161"/><feComposite operator="in" in2="b"/><feComposite in="SourceGraphic"/></filter></defs><g transform="translate(8.738 6)"><g transform="translate(0.262 0)"><g transform="matrix(1, 0, 0, 1, -9, -6)" filter="url(#a)"><circle cx="25" cy="25" r="25" transform="translate(9 6)" fill="#fff"/></g><path d="M664.224,497.055a1.093,1.093,0,0,1-.584-.168c-4.689-2.952-12.553-8.846-12.553-15.158a7.124,7.124,0,0,1,7.115-7.116,7.976,7.976,0,0,1,6.022,2.812,7.972,7.972,0,0,1,6.021-2.812,7.124,7.124,0,0,1,7.115,7.116c0,6.311-7.865,12.206-12.553,15.158A1.092,1.092,0,0,1,664.224,497.055ZM658.2,476.8a4.932,4.932,0,0,0-4.926,4.927c0,3.738,3.98,8.432,10.948,12.933,6.966-4.5,10.947-9.2,10.947-12.933a4.931,4.931,0,0,0-4.926-4.927,5.5,5.5,0,0,0-5,3.135,1.094,1.094,0,0,1-1.019.7h0a1.1,1.1,0,0,1-1.02-.7A5.5,5.5,0,0,0,658.2,476.8Z" transform="translate(-639.083 -460.062)" fill="#909090"/></g><g transform="translate(0.262 0)"><path d="M172.167,474.612a7.973,7.973,0,0,0-6.021,2.813,7.977,7.977,0,0,0-6.022-2.813,7.124,7.124,0,0,0-7.116,7.116c0,6.312,7.866,12.207,12.554,15.159a1.1,1.1,0,0,0,1.167,0c4.689-2.952,12.555-8.848,12.555-15.159A7.125,7.125,0,0,0,172.167,474.612Z" transform="translate(-141.007 -460.064)" fill="#ff1d53"/></g></g></svg>