<svg xmlns="http://www.w3.org/2000/svg" width="37.389" height="32.083" viewBox="0 0 37.389 32.083"><g transform="translate(0.417 0.5)"><path d="M-3137.114,7478.851c-6.494-4.088-17.387-12.253-17.387-20.994a9.867,9.867,0,0,1,9.854-9.856,11.045,11.045,0,0,1,8.341,3.9,11.037,11.037,0,0,1,8.338-3.9,9.867,9.867,0,0,1,9.856,9.856c0,8.741-10.894,16.906-17.387,20.994a1.513,1.513,0,0,1-.807.233A1.515,1.515,0,0,1-3137.114,7478.851Z" transform="translate(3154.583 -7448)" fill="#ff1d53"/><path d="M-3136.3,7479.583a2.016,2.016,0,0,1-1.075-.31,62.609,62.609,0,0,1-11.222-8.827c-4.246-4.378-6.4-8.614-6.4-12.59a10.367,10.367,0,0,1,10.354-10.356,11.618,11.618,0,0,1,8.341,3.636,11.61,11.61,0,0,1,8.338-3.636,10.368,10.368,0,0,1,10.356,10.356c0,3.976-2.153,8.212-6.4,12.59a62.63,62.63,0,0,1-11.221,8.827A2.013,2.013,0,0,1-3136.3,7479.583Zm-8.341-31.083a9.366,9.366,0,0,0-9.354,9.356c0,3.707,2.058,7.709,6.117,11.894a61.592,61.592,0,0,0,11.036,8.677,1.019,1.019,0,0,0,.542.156,1.015,1.015,0,0,0,.541-.156,61.631,61.631,0,0,0,11.036-8.677c4.059-4.186,6.117-8.187,6.117-11.894a9.367,9.367,0,0,0-9.356-9.356,10.541,10.541,0,0,0-7.952,3.713l-.385.467-.386-.467A10.551,10.551,0,0,0-3144.646,7448.5Z" transform="translate(3154.583 -7448)" fill="rgba(0,0,0,0)"/></g></svg>