<svg xmlns="http://www.w3.org/2000/svg" xmlns:xlink="http://www.w3.org/1999/xlink" width="231.337" height="231.337" viewBox="0 0 231.337 231.337"><defs><linearGradient id="a" x1="0.497" y1="0.121" x2="0.516" y2="1.006" gradientUnits="objectBoundingBox"><stop offset="0" stop-color="#ff1d53"/><stop offset="1" stop-color="#101572"/></linearGradient><linearGradient id="b" x1="0.511" y1="1.004" x2="0.474" y2="0.114" gradientUnits="objectBoundingBox"><stop offset="0" stop-color="#fff"/><stop offset="1" stop-color="#ff1d53"/></linearGradient><linearGradient id="c" x1="0.491" y1="0.502" x2="0.584" y2="-0.104" gradientUnits="objectBoundingBox"><stop offset="0" stop-color="#ff1d53"/><stop offset="1" stop-color="#ff6a00"/></linearGradient></defs><g transform="translate(-7235.061 -4197.607)"><g transform="translate(7235.061 4197.607)"><path d="M7261.649,4313.274a89.08,89.08,0,0,0,89.081,89.079v26.591a115.668,115.668,0,1,1,0-231.337V4224.2A89.08,89.08,0,0,0,7261.649,4313.274Z" transform="translate(-7235.061 -4197.607)" fill="url(#a)"/><path d="M7556.4,4313.274a115.667,115.667,0,0,1-115.668,115.669v-26.591a89.079,89.079,0,1,0,0-178.157v-26.589A115.666,115.666,0,0,1,7556.4,4313.274Z" transform="translate(-7325.061 -4197.607)" fill="url(#b)"/></g><g transform="translate(7305.127 4273.045)"><path d="M7387.085,4403.747l21.965-21.965-21.965-21.964c-15.83-15.83-37.794,6.134-21.964,21.964Z" transform="translate(-7359.646 -4341.633)" fill="#101572"/><g transform="translate(16.503 0)"><path d="M7417.487,4411.418l-24.12-24.12a14.947,14.947,0,0,1,0-21.138l25.441-25.441c25.952-25.952,61.962,10.058,36.01,36.01l-34.689,34.689A1.869,1.869,0,0,1,7417.487,4411.418Z" transform="translate(-7388.989 -4331.743)" fill="url(#c)"/><circle cx="4.914" cy="4.914" r="4.914" transform="translate(52.422 12.555)" fill="#fff"/></g><path d="M0,0H10.825a0,0,0,0,1,0,0V19.926a0,0,0,0,1,0,0h0A10.825,10.825,0,0,1,0,9.1V0A0,0,0,0,1,0,0Z" transform="translate(24.19 30.243) rotate(-45)" fill="#101572"/></g></g></svg>