<svg xmlns="http://www.w3.org/2000/svg" width="36.388" height="31.083" viewBox="0 0 36.388 31.083"><g transform="translate(0.169)"><path d="M669.281,505.695a1.515,1.515,0,0,1-.808-.233c-6.494-4.088-17.386-12.252-17.386-20.994a9.866,9.866,0,0,1,9.854-9.856,11.046,11.046,0,0,1,8.34,3.9,11.042,11.042,0,0,1,8.339-3.9,9.867,9.867,0,0,1,9.855,9.856c0,8.741-10.892,16.906-17.386,20.994A1.515,1.515,0,0,1,669.281,505.695Zm-8.34-28.05a6.831,6.831,0,0,0-6.822,6.823c0,5.178,5.513,11.678,15.162,17.913,9.649-6.235,15.161-12.735,15.161-17.913a6.83,6.83,0,0,0-6.822-6.823,7.621,7.621,0,0,0-6.928,4.342,1.515,1.515,0,0,1-1.411.966h0a1.517,1.517,0,0,1-1.413-.966A7.621,7.621,0,0,0,660.941,477.644Z" transform="translate(-651.256 -474.612)" fill="#e6e6e6"/></g></svg>