<svg xmlns="http://www.w3.org/2000/svg" width="60" height="60" viewBox="0 0 60 60"><g transform="translate(-41.699 168.343)"><g transform="translate(60.682 -153.323)"><path d="M81.478-146.835H78.172v-1.1a5.515,5.515,0,0,0-5.508-5.509h-2.2a5.515,5.515,0,0,0-5.508,5.509v1.1H61.646a1.1,1.1,0,0,0-1.1,1.1v17.628a1.1,1.1,0,0,0,1.1,1.1H81.478a1.1,1.1,0,0,0,1.1-1.1v-17.628A1.1,1.1,0,0,0,81.478-146.835Zm-14.323-1.1a3.309,3.309,0,0,1,3.305-3.305h2.2a3.309,3.309,0,0,1,3.305,3.305v1.1H67.155Zm13.221,18.729H62.748v-15.424h2.2v1.1a1.1,1.1,0,0,0,1.1,1.1,1.1,1.1,0,0,0,1.1-1.1v-1.1h8.814v1.1a1.1,1.1,0,0,0,1.1,1.1,1.1,1.1,0,0,0,1.1-1.1v-1.1h2.2Z" transform="translate(-60.545 153.446)" fill="#44454f"/><path d="M75.19-140.343l-4.509,4.509-2.747-2.746a1.1,1.1,0,0,0-1.558,0,1.1,1.1,0,0,0,0,1.558L69.9-133.5a1.1,1.1,0,0,0,.779.323,1.1,1.1,0,0,0,.779-.323l5.288-5.288a1.1,1.1,0,0,0,0-1.558A1.1,1.1,0,0,0,75.19-140.343Z" transform="translate(-60.545 153.446)" fill="#44454f"/></g><g transform="translate(41.699 -168.343)"><path d="M71.7-108.343a30.034,30.034,0,0,1-30-30,30.035,30.035,0,0,1,30-30,30.034,30.034,0,0,1,30,30A30.033,30.033,0,0,1,71.7-108.343Zm0-56.493a26.524,26.524,0,0,0-26.495,26.493A26.524,26.524,0,0,0,71.7-111.849a26.522,26.522,0,0,0,26.491-26.494A26.523,26.523,0,0,0,71.7-164.836Z" transform="translate(-41.699 168.343)" fill="#44454f"/></g></g></svg>