<svg xmlns="http://www.w3.org/2000/svg" width="25.602" height="25.601" viewBox="0 0 25.602 25.601"><g transform="translate(-94 -305)"><path d="M575.845,65.248a1.067,1.067,0,0,0-1.067,1.066,10.675,10.675,0,1,1-3.356-7.763h-1.681a1.067,1.067,0,0,0,0,2.133h4.138a1.08,1.08,0,0,0,.129.008,1.067,1.067,0,0,0,1.067-1.067V55.358a1.067,1.067,0,0,0-2.134,0v1.689a12.8,12.8,0,0,0-19.13,16.87,12.8,12.8,0,0,0,23.1-7.6A1.067,1.067,0,0,0,575.845,65.248Z" transform="translate(-457.31 251.486)" fill="#46278a"/></g></svg>