<svg xmlns="http://www.w3.org/2000/svg" width="36.743" height="36.819" viewBox="0 0 36.743 36.819"><g transform="translate(-7243.626 987.629)"><path d="M7260.988-950.81c-.718-.1-1.441-.178-2.156-.3a18.366,18.366,0,0,1-14.789-14.193,18.22,18.22,0,0,1,9.1-19.982c6.194-3.311,12.4-3.076,18.482.437.093.053.179.117.308.2l-1.149,1.782a16.109,16.109,0,0,0-14.285-1.592,15.656,15.656,0,0,0-8.8,7.6,16.232,16.232,0,0,0,5.229,21.11,16.33,16.33,0,0,0,21.162-2.64,16.176,16.176,0,0,0,1.57-19.472c-.094.527-.186,1.043-.279,1.561a1.075,1.075,0,0,1-1.242.87h0a1.075,1.075,0,0,1-.875-1.244l.785-4.491a.652.652,0,0,1,.752-.53h0c1.194.208,3.264.586,4.523.817a1.063,1.063,0,0,1,.849,1.264h0a1.064,1.064,0,0,1-1.22.83l-1.418-.242c.076.134.11.2.146.256a18.146,18.146,0,0,1,2.42,6.5c.107.657.179,1.32.268,1.981v2.225c-.021.092-.046.184-.06.277-.125.85-.2,1.709-.378,2.549a18.374,18.374,0,0,1-14.733,14.114c-.713.116-1.431.2-2.146.3Z" transform="translate(0 0)" fill="#505050"/><path d="M7347.8-906.474c.234-4.317.469-8.625.705-12.958a1.182,1.182,0,0,1,1.179-1.118h2.5c0-.651-.006-1.258,0-1.864a3.9,3.9,0,0,1,2.2-3.668,3.978,3.978,0,0,1,5.78,3.669c.009.606,0,1.213,0,1.853h2.5a1.18,1.18,0,0,1,1.179,1.118c.236,4.331.471,8.644.706,12.968a2.122,2.122,0,0,1-2.119,2.238h-12.522A2.123,2.123,0,0,1,7347.8-906.474Zm14.547-1.067c-.189-3.489-.379-6.963-.568-10.446a.413.413,0,0,0-.411-.39H7351a.413.413,0,0,0-.412.39c-.189,3.49-.378,6.963-.568,10.447a1.09,1.09,0,0,0,1.088,1.149h10.157A1.09,1.09,0,0,0,7362.349-907.541Zm-4.378-13.034a21.453,21.453,0,0,0-.019-2.367,1.749,1.749,0,0,0-1.771-1.424,1.755,1.755,0,0,0-1.771,1.428,21.637,21.637,0,0,0-.019,2.364Z" transform="translate(-94.185 -55.239)" fill="#505050"/><rect width="6.598" height="2.11" rx="1.055" transform="translate(7258.699 -968.682)" fill="#505050"/></g></svg>