<svg xmlns="http://www.w3.org/2000/svg" xmlns:xlink="http://www.w3.org/1999/xlink" width="151.996" height="151.996" viewBox="0 0 151.996 151.996"><defs><linearGradient id="a" x1="0.497" y1="0.121" x2="0.516" y2="1.006" gradientUnits="objectBoundingBox"><stop offset="0" stop-color="#ff1d53"/><stop offset="1" stop-color="#101572"/></linearGradient><linearGradient id="b" x1="0.511" y1="1.004" x2="0.474" y2="0.114" gradientUnits="objectBoundingBox"><stop offset="0" stop-color="#fff"/><stop offset="1" stop-color="#ff1d53"/></linearGradient></defs><path d="M7252.53,4273.6a58.529,58.529,0,0,0,58.529,58.527V4349.6a76,76,0,1,1,0-152v17.47A58.529,58.529,0,0,0,7252.53,4273.6Z" transform="translate(-7235.061 -4197.607)" fill="url(#a)"/><path d="M7516.728,4273.6a76,76,0,0,1-76,76v-17.471a58.528,58.528,0,0,0,0-117.055v-17.47A76,76,0,0,1,7516.728,4273.6Z" transform="translate(-7364.732 -4197.607)" fill="url(#b)"/></svg>