<svg xmlns="http://www.w3.org/2000/svg" width="22.034" height="26.442" viewBox="0 0 22.034 26.442"><path d="M81.478-146.835H78.172v-1.1a5.515,5.515,0,0,0-5.508-5.509h-2.2a5.515,5.515,0,0,0-5.508,5.509v1.1H61.646a1.1,1.1,0,0,0-1.1,1.1v17.628a1.1,1.1,0,0,0,1.1,1.1H81.478a1.1,1.1,0,0,0,1.1-1.1v-17.628A1.1,1.1,0,0,0,81.478-146.835Zm-14.323-1.1a3.309,3.309,0,0,1,3.305-3.305h2.2a3.309,3.309,0,0,1,3.305,3.305v1.1H67.155Zm13.221,18.729H62.748v-15.424h2.2v1.1a1.1,1.1,0,0,0,1.1,1.1,1.1,1.1,0,0,0,1.1-1.1v-1.1h8.814v1.1a1.1,1.1,0,0,0,1.1,1.1,1.1,1.1,0,0,0,1.1-1.1v-1.1h2.2Z" transform="translate(-60.545 153.446)" fill="#b3b3b3"/><path d="M75.19-140.343l-4.509,4.509-2.747-2.746a1.1,1.1,0,0,0-1.558,0,1.1,1.1,0,0,0,0,1.558L69.9-133.5a1.1,1.1,0,0,0,.779.323,1.1,1.1,0,0,0,.779-.323l5.288-5.288a1.1,1.1,0,0,0,0-1.558A1.1,1.1,0,0,0,75.19-140.343Z" transform="translate(-60.545 153.446)" fill="#b3b3b3"/></svg>