<svg xmlns="http://www.w3.org/2000/svg" width="26.206" height="24.325" viewBox="0 0 26.206 24.325"><path d="M164.887-136.377a1.239,1.239,0,0,0,1.237,1.237,1.239,1.239,0,0,0,1.237-1.237,1.238,1.238,0,0,0-1.237-1.237A1.239,1.239,0,0,0,164.887-136.377Zm1.237-.341a.341.341,0,0,1,.341.341.341.341,0,0,1-.341.341.341.341,0,0,1-.341-.341A.341.341,0,0,1,166.124-136.718Z" transform="translate(-146.598 150.642)" fill="#b3b3b3"/><path d="M171.976-139.633v-2.95a2.79,2.79,0,0,0-2.772-2.8h-.909v-3.407a1.8,1.8,0,0,0-.736-1.445,2.079,2.079,0,0,0-1.834-.318l-16.663,5.189a2.222,2.222,0,0,0-.365.066,2.789,2.789,0,0,0-2.1,2.717v13.463a2.79,2.79,0,0,0,2.772,2.8H169.2a2.79,2.79,0,0,0,2.772-2.8v-4a1.775,1.775,0,0,0,.828-1.5v-3.506A1.775,1.775,0,0,0,171.976-139.633Zm-5.92-8.68v2.928h-9.4Zm3.681,19.193a.549.549,0,0,1-.533.563H149.37a.549.549,0,0,1-.533-.563v-13.463a.57.57,0,0,1,.434-.553.407.407,0,0,1,.1-.01H169.2a.549.549,0,0,1,.533.563v2.681h-3.718a3.326,3.326,0,0,0-2.428,1.043,3.543,3.543,0,0,0-.992,2.482,3.478,3.478,0,0,0,3.42,3.525h3.718Zm1.276-5.524h-4.994a1.685,1.685,0,0,1-1.629-1.733,1.761,1.761,0,0,1,.494-1.241,1.554,1.554,0,0,1,1.135-.493l4.994-.019Z" transform="translate(-146.598 150.642)" fill="#b3b3b3"/></svg>