<svg xmlns="http://www.w3.org/2000/svg" width="46.488" height="46.488" viewBox="0 0 46.488 46.488"><path d="M-362.115-176.744A23.27,23.27,0,0,0-385.359-153.5a23.27,23.27,0,0,0,23.244,23.244A23.271,23.271,0,0,0-338.871-153.5,23.27,23.27,0,0,0-362.115-176.744Zm0,42.614a19.392,19.392,0,0,1-19.37-19.37,19.392,19.392,0,0,1,19.37-19.37,19.392,19.392,0,0,1,19.37,19.37A19.392,19.392,0,0,1-362.115-134.13Z" transform="translate(385.359 176.744)" fill="#9494cb"/><path d="M-304.926-106h-5.811v-5.811a1.937,1.937,0,0,0-1.937-1.937,1.937,1.937,0,0,0-1.937,1.937V-106h-5.811a1.937,1.937,0,0,0-1.937,1.937,1.937,1.937,0,0,0,1.937,1.937h5.811v5.811a1.937,1.937,0,0,0,1.937,1.937,1.937,1.937,0,0,0,1.937-1.937v-5.811h5.811a1.937,1.937,0,0,0,1.937-1.937A1.937,1.937,0,0,0-304.926-106Z" transform="translate(335.918 127.303)" fill="#9494cb"/></svg>