<svg xmlns="http://www.w3.org/2000/svg" width="24.685" height="22.912" viewBox="0 0 24.685 22.912"><g transform="translate(-489.637 -48.605)"><path d="M510.054,64.529a1.381,1.381,0,1,0,1.381-1.381A1.383,1.383,0,0,0,510.054,64.529Zm1.381-.381a.381.381,0,1,1-.381.381A.381.381,0,0,1,511.435,64.148Z" transform="translate(-3.522 -2.53)" fill="#bc9dff"/><path d="M513.541,58.974V56.2a2.628,2.628,0,0,0-2.611-2.64h-.856V50.347a1.7,1.7,0,0,0-.694-1.361,1.96,1.96,0,0,0-1.728-.3l-15.695,4.888a2.3,2.3,0,0,0-.344.062,2.627,2.627,0,0,0-1.977,2.56V68.877a2.628,2.628,0,0,0,2.611,2.639h18.682a2.628,2.628,0,0,0,2.611-2.639V65.108a1.672,1.672,0,0,0,.781-1.416v-3.3A1.672,1.672,0,0,0,513.541,58.974Zm-.907,1.416v3.284h-4.7a1.587,1.587,0,0,1-1.533-1.633,1.663,1.663,0,0,1,.464-1.169,1.466,1.466,0,0,1,1.069-.464ZM507.965,50.8v2.758h-8.854Zm2.966,18.609H492.248a.517.517,0,0,1-.5-.53V56.2a.536.536,0,0,1,.409-.521.384.384,0,0,1,.093-.009h18.682a.517.517,0,0,1,.5.531v2.525h-3.5a3.135,3.135,0,0,0-2.287.983,3.338,3.338,0,0,0-.934,2.337,3.275,3.275,0,0,0,3.221,3.32h3.5v3.516A.516.516,0,0,1,510.931,69.407Z" fill="#bc9dff"/></g></svg>