<svg xmlns="http://www.w3.org/2000/svg" width="29.032" height="29.032" viewBox="0 0 29.032 29.032"><g transform="translate(-1089.5 -1100.5)"><path d="M26.032,13.016A13.016,13.016,0,1,1,13.016,0,13.016,13.016,0,0,1,26.032,13.016" transform="translate(1091 1102)" fill="#fff" stroke="#46278a" stroke-width="3"/><path d="M100.893,114.665a1.6,1.6,0,0,1-.492,1.166q-3.139,3.144-6.285,6.281a1.622,1.622,0,0,1-2.389-.008q-1.849-1.829-3.678-3.678a1.654,1.654,0,1,1,2.338-2.34c.756.743,1.509,1.488,2.245,2.251.219.227.341.256.581.011q2.382-2.42,4.8-4.808a1.654,1.654,0,0,1,2.884,1.126" transform="translate(1009.813 997.207)" fill="#46278a"/></g></svg>