<svg xmlns="http://www.w3.org/2000/svg" width="21.151" height="21.032" viewBox="0 0 21.151 21.032"><g transform="translate(0)"><path d="M7.964,170.557A10.516,10.516,0,1,1,18.54,160.041,10.558,10.558,0,0,1,7.964,170.557Zm0-19.28a8.764,8.764,0,1,0,8.813,8.764A8.8,8.8,0,0,0,7.964,151.277Z" transform="translate(2.611 -149.525)" fill="#5e1906"/></g><g transform="translate(7.36 6.469)"><path d="M8.619,166.95a1,1,0,0,1-1.1-1.1v-6.263a1.1,1.1,0,0,1,.286-.818,1.117,1.117,0,0,1,.823-.285h2.934a3.117,3.117,0,0,1,2.212.729,2.976,2.976,0,0,1,0,4.021,3.12,3.12,0,0,1-2.212.729H9.717v1.886a1.119,1.119,0,0,1-.28.818A1.1,1.1,0,0,1,8.619,166.95Zm1.1-4.661h1.466q1.289,0,1.289-1.068t-1.289-1.067H9.717Z" transform="translate(-7.522 -158.482)" fill="#5e1906"/></g></svg>