<svg xmlns="http://www.w3.org/2000/svg" width="19" height="19.001" viewBox="0 0 19 19.001"><g transform="translate(0.001)"><g transform="translate(-0.001 0)"><path d="M595.825,350.254a9.5,9.5,0,1,1,9.5-9.5A9.511,9.511,0,0,1,595.825,350.254Zm0-17.417a7.917,7.917,0,1,0,7.916,7.917A7.926,7.926,0,0,0,595.825,332.836Z" transform="translate(-586.325 -331.253)" fill="#46278a"/></g><g transform="translate(4.802 8.561)"><path d="M603.021,346.084h-7.514a.939.939,0,1,1,0-1.879h7.514a.939.939,0,1,1,0,1.879Z" transform="translate(-594.567 -344.205)" fill="#46278a"/></g><g transform="translate(8.56 4.803)"><path d="M600.217,348.889a.939.939,0,0,1-.94-.939v-7.515a.939.939,0,1,1,1.879,0v7.515A.939.939,0,0,1,600.217,348.889Z" transform="translate(-599.277 -339.495)" fill="#46278a"/></g></g></svg>