<svg xmlns="http://www.w3.org/2000/svg" width="22.04" height="22.04" viewBox="0 0 22.04 22.04"><g transform="translate(-220.638 -51.787)"><g transform="translate(220.638 51.787)"><path d="M231.659,73.827a11.02,11.02,0,1,1,11.019-11.02A11.033,11.033,0,0,1,231.659,73.827Zm0-20.752a9.732,9.732,0,1,0,9.731,9.732A9.743,9.743,0,0,0,231.659,53.075Z" transform="translate(-220.638 -51.787)" fill="#fff"/></g><path d="M241.9,65.74l-9.072-5.116a.328.328,0,0,0-.488.285V71.143a.327.327,0,0,0,.327.327.33.33,0,0,0,.161-.042L241.9,66.31a.328.328,0,0,0,0-.57Z" transform="translate(-4.26 -3.219)" fill="#fff"/></g></svg>