<svg xmlns="http://www.w3.org/2000/svg" xmlns:xlink="http://www.w3.org/1999/xlink" width="37" height="37" viewBox="0 0 37 37"><defs><clipPath id="a"><rect width="25.202" height="18.788" fill="#46278a"/></clipPath></defs><g transform="translate(-1600.492 -83.414)"><circle cx="18.5" cy="18.5" r="18.5" transform="translate(1600.492 83.414)" fill="#fff"/><path d="M18.5,3A15.5,15.5,0,0,0,7.54,29.46,15.5,15.5,0,0,0,29.46,7.54,15.4,15.4,0,0,0,18.5,3m0-3A18.5,18.5,0,1,1,0,18.5,18.5,18.5,0,0,1,18.5,0Z" transform="translate(1600.492 83.414)" fill="#46278a"/><g transform="translate(1605.46 92.863)"><g clip-path="url(#a)"><path d="M130.986,5.227l-.77-.855a.368.368,0,0,0-.488-.111,1.22,1.22,0,0,0-.428.763A2.908,2.908,0,0,0,129.72,7.3c.091.132.181.247.346.451l.038.047a5.247,5.247,0,0,1,.471.641,2.392,2.392,0,0,1,.292,1.315,2.579,2.579,0,0,1-2.38,2.377,2.45,2.45,0,0,1-1.525-.458c-.045-.032-.092-.063-.141-.093l-.077.125.086-.119a2.1,2.1,0,0,0-2.56.077l.093.114-.085-.119a2.474,2.474,0,0,1-1.547.473,2.579,2.579,0,0,1-2.38-2.377,2.468,2.468,0,0,1,1.441-2.339c.045-.021.091-.044.138-.069l-.07-.129.059.134a2.1,2.1,0,0,0,1.232-2.266l-.145.024.146-.013a2.91,2.91,0,0,1-.014-.332,2.471,2.471,0,0,1,4.47-1.4,1.174,1.174,0,0,0,1.9-1.382,4.821,4.821,0,0,0-8.716,2.732c0,.118,0,.217.007.378V5.089a.312.312,0,0,1-.158.278l.007,0a4.82,4.82,0,0,0,3.268,8.995l-.033-.143.027.144.071-.016h0l.011,0,.014,0h0l.035-.009.111-.031.017,0,.007,0,.049-.014c.1-.033.184-.06.268-.091l.017-.006h0l.03-.011.052-.021.006,0,.011,0L124.556,14h-.147v3.612a1.174,1.174,0,0,0,2.349,0V13.981h-.147l-.056.136.028.012h0l.045.019c.072.028.138.053.206.076s.145.048.211.067c.09.026.156.044.223.06a4.867,4.867,0,0,0,1.125.132q.087,0,.174,0a4.822,4.822,0,0,0,3.871-7.443,16.489,16.489,0,0,0-1.452-1.808Z" transform="translate(-108.014 0)" fill="#46278a"/><path d="M6.854,69.055H4.57V66.771a.762.762,0,1,0-1.523,0v2.285H.762a.762.762,0,0,0,0,1.523H3.046v2.285a.762.762,0,1,0,1.523,0V70.579H6.854a.762.762,0,0,0,0-1.523" transform="translate(0 -60.423)" fill="#46278a"/></g></g></g></svg>