<svg xmlns="http://www.w3.org/2000/svg" xmlns:xlink="http://www.w3.org/1999/xlink" width="233.599" height="244" viewBox="0 0 233.599 244"><defs><clipPath id="a"><circle cx="107" cy="107" r="107" transform="translate(-0.117 -0.001)" fill="none"/></clipPath><linearGradient id="b" x1="31.146" y1="-54.998" x2="32.477" y2="-54.998" gradientUnits="objectBoundingBox"><stop offset="0" stop-color="#614cd4"/><stop offset="1" stop-color="#ff8b85"/></linearGradient><linearGradient id="c" x1="31.239" y1="-54.984" x2="32.571" y2="-54.984" xlink:href="#b"/><linearGradient id="d" x1="31.335" y1="-54.97" x2="32.667" y2="-54.97" xlink:href="#b"/><linearGradient id="e" x1="31.43" y1="-54.956" x2="32.762" y2="-54.956" xlink:href="#b"/></defs><g transform="translate(0.117)"><g transform="translate(0 30)"><g clip-path="url(#a)"><ellipse cx="113.5" cy="114" rx="113.5" ry="114" transform="translate(-8.117 -6.001)" fill="#e6f4ff"/><g transform="translate(18.677 18.661)"><g transform="translate(80.661 0.637)"><path d="M2237.014,5540.836a39.437,39.437,0,0,1-1.661-4.55,4.265,4.265,0,0,0-3.31-2.48c-.968-.208-4.283-.527-4.838.212-.5.661,1.4,4.279.616,5.529-.341.544-6.694,3.688-6.624,6.266.033,1.206,14.035.755,16.29-.535C2238.667,5544.6,2238.228,5542.235,2237.014,5540.836Z" transform="translate(-2189.857 -5312.923)" fill="#311e69"/><path d="M2240.278,5459.32a96.631,96.631,0,0,0,2.217-19.477c-.049-12.073-2.534-20.257-2.59-28.055-.039-5.455,22.122-45.565,12.948-57.384s-22.617-5.031-22.617-5.031-8.869,56.981-7.422,67.654c1.059,7.808,2.263,32.016,4.62,44.144C2228.017,5464.178,2239.9,5461.2,2240.278,5459.32Z" transform="translate(-2190.45 -5237.113)" fill="#ffe6e6"/><path d="M2255.729,5356.147a18.784,18.784,0,0,0-4.8-4.436,262.143,262.143,0,0,1-9.185,32.711c-7.12,19.565-11.72,19.231-8.584,34.448,2.476,12.014-1.38,32.153-3.442,40.6.189,1.229.386,2.386.593,3.448.584,3.006,12.465.026,12.845-1.852a96.631,96.631,0,0,0,2.217-19.477c-.049-12.073-2.534-20.257-2.59-28.054C2242.743,5408.076,2264.9,5367.966,2255.729,5356.147Z" transform="translate(-2193.327 -5238.855)" fill="#ffcaca"/><path d="M2284.813,5540.836a39.483,39.483,0,0,1-1.661-4.55,4.265,4.265,0,0,0-3.31-2.48c-.968-.208-4.283-.527-4.839.212-.5.661,1.4,4.279.616,5.529-.341.544-6.693,3.688-6.623,6.266.033,1.206,14.034.755,16.29-.535C2286.467,5544.6,2286.028,5542.235,2284.813,5540.836Z" transform="translate(-2209.327 -5312.923)" fill="#311e69"/><path d="M2283.875,5464.215c.414-8.454,3.284-18.67,2.156-28.868-1.323-11.974-2.286-14.146-3.5-21.813-.85-5.363,14.465-41.61,3.673-51.379s-24.227-4.275-24.227-4.275,1.49,54.082,4.5,64.3c2.2,7.473,1.248,31.7,5.373,43.162C2272.875,5468.179,2283.78,5466.143,2283.875,5464.215Z" transform="translate(-2206.467 -5240.741)" fill="#ffe6e6"/><path d="M2295.343,5364.812a23.166,23.166,0,0,0-2.468-1.949,10.172,10.172,0,0,1,.146,2.022c-.334,9.7-3.009,19.732-5.184,29.1s-.836,27.759,2.007,37.959-2.007,14.883-4.683,22.241c-1.783,4.9,0,11.366,1.387,15.132,3.132-.3,6.413-1.389,6.465-2.441.414-8.454,3.284-18.67,2.156-28.868-1.323-11.973-2.286-14.146-3.5-21.813C2290.82,5410.828,2306.135,5374.58,2295.343,5364.812Z" transform="translate(-2215.606 -5243.397)" fill="#ffcaca"/><path d="M2218.218,5220.374s-28.043-1.421-30.425-5.456c-2.471-4.187,5.887-32.407,5.377-36.658-.862-7.19-8.931.175-10.9,4.181-1.821,3.708-20.775,30.178-11.332,43.315,5.51,7.667,30.984,16.521,41.71,15.3S2218.218,5220.374,2218.218,5220.374Z" transform="translate(-2168.318 -5166.973)" fill="#ad263d"/><g transform="translate(24.759 51.584)"><path d="M2235.233,5250.147s-10.224-.519-18.85-1.817c-2.413,3.01-7.248,10.3-6.124,19.331,7.355,2.334,14.762,3.694,19.406,3.163C2240.392,5269.6,2235.233,5250.147,2235.233,5250.147Z" transform="translate(-2210.093 -5248.33)" fill="#311e69"/></g><path d="M2242.589,5250.563c10.476-1.348,33.255-.959,39.245,12.555,3.884,8.762,2.007,18.961,1.377,29.642-.58,9.843.422,33.2-4.019,41.248-2.9,5.261-44.069-14.16-45.572-19.55s2.6-29.709,2.034-35.491C2234.809,5270.241,2227.444,5252.512,2242.589,5250.563Z" transform="translate(-2194.715 -5197.445)" fill="#614cd4"/><path d="M2284.726,5252.554c.533,5.74,2.349,26.861,1.585,40.942-.5,9.136-2.914,25.5-4.962,38.229,8.679,3.471,16.3,5.461,17.486,3.3,4.441-8.048,3.439-31.4,4.019-41.248.63-10.681,2.507-20.88-1.377-29.642C2298.636,5257.729,2292.017,5254.273,2284.726,5252.554Z" transform="translate(-2214.358 -5198.466)" fill="#311e69"/><g transform="translate(58.801 37.649)"><path d="M2277.327,5227.35s.893-1.922-3.358-2.515c-1.683-.235-5.173,2.026-6.172,1.145,0,0-1.488,3.121,2.567,6.492,3.1,2.581,3.975,4.39,5.8,4.817s4.332-3.7,4.508-5.848C2280.794,5229.973,2279.709,5226.709,2277.327,5227.35Z" transform="translate(-2267.53 -5224.818)" fill="#311e69"/><g transform="translate(0.575 4.079)"><path d="M2281.068,5234.245a5.245,5.245,0,0,0-.576-2.545,6.9,6.9,0,0,1-1.909,1.683c-1.627.937-6.7.87-10.082-.821a8.544,8.544,0,0,0,2.259,2.714c3.1,2.581,3.975,4.39,5.8,4.817S2280.892,5236.395,2281.068,5234.245Z" transform="translate(-2268.501 -5231.7)" fill="#1e1240"/></g><path d="M2276.193,5241.027l.115,8.345c-.34,1.1-7.2,2.25-8.48.314-.376-.567.1-1.57.939-2.554l4.809-5.282Z" transform="translate(-2267.599 -5231.42)" fill="#ff6161"/><path d="M2273.827,5244.208c1.274.172,3.02.385,3.02.385a5.467,5.467,0,0,1-2.862,2.794,5.245,5.245,0,0,1-3.3.27Z" transform="translate(-2268.816 -5232.716)" fill="#311e69"/><path d="M2275.681,5233.51l.34,4.771a2.917,2.917,0,0,1-2.858,2.9,8.061,8.061,0,0,1-3.5-.729c-1.222-.468-1.566-1.839-1.153-3.491a15.918,15.918,0,0,1,2.285-4.906C2272.271,5229.906,2275.232,5230.417,2275.681,5233.51Z" transform="translate(-2267.864 -5227.233)" fill="#ff6161"/><path d="M2279.421,5237.861a4.213,4.213,0,0,0,.293-.836c.137-.547.468-1.326,1.178-.724,1.033.876.142,3.747-1.264,3.629C2278.584,5239.843,2279.091,5238.531,2279.421,5237.861Z" transform="translate(-2272.204 -5229.407)" fill="#ff6161"/><path d="M2272.726,5239.226a7.873,7.873,0,0,1-2.535-.554s-.281.95.219,1.429S2272.091,5240.285,2272.726,5239.226Z" transform="translate(-2268.582 -5230.461)" fill="#fff"/><path d="M2269.713,5243.817c1.48.07,2.017,2.474,5.031,1.078a3.735,3.735,0,0,0,1.3-1.613l.008.1a2.917,2.917,0,0,1-2.858,2.9,8.071,8.071,0,0,1-3.5-.729,2.032,2.032,0,0,1-1.281-1.725A6.915,6.915,0,0,0,2269.713,5243.817Z" transform="translate(-2267.89 -5232.339)" fill="#ad263d"/></g><g transform="translate(19.698)"><path d="M2201.607,5170.953s-.308-4.735,2.847-7.408c2.8-2.373,6.007-3.023,7.525-1.206,1.265,1.515-3.505,4.09-3.768,5.95s.309,4.479-2.68,5.508C2203.312,5174.56,2201.187,5173.018,2201.607,5170.953Z" transform="translate(-2201.554 -5161.294)" fill="#ad263d"/><path d="M2208.654,5176.859s3.179-2.006,4.161-3.451,3.437-1.518,2.621-2.386-2.911-.418-3.59.352-3.1-.662-4.058.623S2207.018,5177.839,2208.654,5176.859Z" transform="translate(-2203.857 -5165.063)" fill="#ad263d"/></g></g><path d="M2087.81,5256.975s22.282,16.846,25.555,16.417c4.709-.617,6.469-22.4,15.453-21.673s-2.516,35.484-11.915,37.564-31.609-16.828-32.224-22.025S2087.81,5256.975,2087.81,5256.975Z" transform="translate(-2053.562 -5197.481)" fill="#1e1240"/><path d="M2154.82,5248.541c-.288-1.136.718-3.4,1.3-4.5s2.91-.981,3.04-1.266,1.2-2.356,2.312-1.582.84,5.888.453,6.911-3.179,2.405-4.451,2.239A3.25,3.25,0,0,1,2154.82,5248.541Z" transform="translate(-2082.139 -5193.129)" fill="#ad263d"/><g transform="translate(70.764)"><path d="M2157.988,5161.394l-6.363,38.32c-.131.786,2.752,1.92,6.438,2.531s6.78.472,6.91-.315l6.363-38.32Z" transform="translate(-2151.621 -5160.697)" fill="#311e69"/><path d="M2175.71,5163.132c-.13.787-3.225.928-6.911.315s-6.569-1.745-6.438-2.532,3.225-.927,6.911-.315S2175.841,5162.346,2175.71,5163.132Z" transform="translate(-2155.994 -5160.219)" fill="#1e1240"/><g transform="translate(0.131 3.906)"><path d="M2171.443,5168.963a24.482,24.482,0,0,1-11.959,3.969l-.386,2.325a27.183,27.183,0,0,0,13.708-4.437q.441-.294.844-.588l.568-3.423A22.673,22.673,0,0,1,2171.443,5168.963Z" transform="translate(-2154.798 -5166.809)" fill="url(#b)"/><path d="M2169.024,5183.527a24.473,24.473,0,0,1-11.959,3.97l-.386,2.324a27.182,27.182,0,0,0,13.708-4.437c.294-.2.575-.393.844-.588l.568-3.422A22.74,22.74,0,0,1,2169.024,5183.527Z" transform="translate(-2153.812 -5172.742)" fill="url(#c)"/><path d="M2166.606,5198.093a24.479,24.479,0,0,1-11.959,3.969l-.386,2.325a27.172,27.172,0,0,0,13.708-4.437q.441-.294.844-.588l.568-3.423A22.615,22.615,0,0,1,2166.606,5198.093Z" transform="translate(-2152.827 -5178.674)" fill="url(#d)"/><path d="M2166.962,5210.5a22.741,22.741,0,0,1-2.774,2.154,24.468,24.468,0,0,1-11.959,3.969l-.386,2.324a27.182,27.182,0,0,0,13.707-4.437c.295-.2.575-.393.844-.588Z" transform="translate(-2151.842 -5184.607)" fill="url(#e)"/></g></g><path d="M2077.887,5296.545c-2.625-9.69-3.05-12.292-3.778-17.1-.792-5.234,4.035-6.838,1.848-12.033-.631-1.5-3.464-4.45-3.813-5.554-1.72-5.444-14.054-6.711-20.875-2.887-4.754,2.666-.068,17.085-1.509,20.165-1.728,3.691-5.562,8.326-9.182,15.253C2046.811,5295.807,2065.267,5299.478,2077.887,5296.545Z" transform="translate(-2035.626 -5199.545)" fill="#1e1240"/><g transform="translate(19.926 57.201)"><path d="M2074.3,5264.326c4.112.4,6.562.147,6.062-2.348-.33-1.642-2.348-3.311-4.528-4.711a22.058,22.058,0,0,0-9.994.08C2066.442,5259.007,2070.779,5263.98,2074.3,5264.326Z" transform="translate(-2065.844 -5256.732)" fill="#ff6161"/></g><path d="M2088.786,5381.084c2.247-29.136-14.226-58.4-14.3-58.682-12.62,2.933-31.075-.738-37.309-2.153a68.372,68.372,0,0,0-3.375,7.509c-5.693,15.065,6.178,42.917,2.006,63.119-3.843,18.609-.307,49.122,1.743,52.441,1.757,2.613,4.407,3.523,7.062-.925,4-6.69,12.385-50.438,16.091-89.577,7.012,13.633,6.418,20.722,6.418,33.565,0,5.079,1.071,42.538,6.982,56.566,1.112,2.64,3.378,1.943,5.118,1.474C2085.582,5442.705,2087.344,5399.766,2088.786,5381.084Z" transform="translate(-2032.223 -5225.402)" fill="#311e69"/><path d="M2114.268,5382.564c2.247-29.136-14.226-58.4-14.3-58.681a40.571,40.571,0,0,1-5.181.828h0c.13,6.594,8.976,34.9,10.009,42.566s.294,38.92-.737,52.927c-.871,11.818-3.763,19.123-.958,26.076a15.785,15.785,0,0,0,1.6-.378C2111.064,5444.185,2112.827,5401.245,2114.268,5382.564Z" transform="translate(-2057.706 -5226.883)" fill="#1e1240"/><g transform="translate(16.747 39.986)"><path d="M2075.351,5230.346s.013-1.406-2.991-1.441-5.279,2.21-5.041,7.275,2.719,6.083,4.412,5.941,5.932-2.232,6.6-4.992S2077.767,5230.276,2075.351,5230.346Z" transform="translate(-2063.258 -5228.182)" fill="#311e69"/><path d="M2081.946,5241.691a3.385,3.385,0,0,0,.075-.7c.006-.451.121-1.119.785-.779.965.493.8,2.892-.321,3.059C2081.657,5243.389,2081.812,5242.274,2081.946,5241.691Z" transform="translate(-2069.18 -5232.749)" fill="#ff6161"/><path d="M2071.635,5246.53l-.663,6.913c-.1,1.139,2.457,4.3,4.375,3.008.561-.379,0-2-.4-3.226l-.859-6.057Z" transform="translate(-2064.752 -5235.361)" fill="#ff6161"/><path d="M2075.2,5251.661c-1.447-.579-2.752-2.931-2.752-2.931l2.364.2Z" transform="translate(-2065.356 -5236.257)" fill="#311e69"/><path d="M2072.2,5237.463l-.638,2.621a3.99,3.99,0,0,0,2.734,4.828,3.421,3.421,0,0,0,4.364-2.878c.437-2.155-.952-4.162-1.428-5.192C2076.147,5234.492,2073.156,5234.5,2072.2,5237.463Z" transform="translate(-2064.947 -5230.728)" fill="#ff6161"/><path d="M2070.645,5242.274a3.353,3.353,0,0,1-.12-.7c-.036-.449-.192-1.109-.833-.729-.931.554-.612,2.938.513,3.032C2071.041,5243.949,2070.815,5242.847,2070.645,5242.274Z" transform="translate(-2064.01 -5233)" fill="#ff6161"/><path d="M2076.531,5245.632a7.822,7.822,0,0,0,2.579-.123,3.113,3.113,0,0,1-.857,1.494C2077.684,5247.391,2076.978,5246.776,2076.531,5245.632Z" transform="translate(-2067.018 -5234.946)" fill="#fff"/><path d="M2074.767,5248.714a5.228,5.228,0,0,0,2.858-.543,5.387,5.387,0,0,0,1.216-1.609c-.007.04-.01.08-.018.119a3.422,3.422,0,0,1-4.364,2.878,3.831,3.831,0,0,1-2.617-2.482A4.95,4.95,0,0,0,2074.767,5248.714Z" transform="translate(-2065.108 -5235.375)" fill="#ad263d"/><path d="M2066.479,5231.218s-.423-4.2-3.243-3.439-4.088,4.905-.817,6.062S2066.865,5232.8,2066.479,5231.218Z" transform="translate(-2060.479 -5227.686)" fill="#311e69"/></g><path d="M2059.031,5405.983c-1.339,12.028-10.18,46.466-10.721,61.692a6.543,6.543,0,0,0,2.854-2.9c4-6.69,12.385-50.438,16.091-89.577C2067.254,5375.2,2061.1,5387.442,2059.031,5405.983Z" transform="translate(-2038.776 -5247.784)" fill="#1e1240"/><path d="M2056.487,5247.41c1.766-5.343,26.951,3.64,34.281,1.05s20.9-28.068,27.94-25.011-5.834,25.535-16.188,33.311c-8.883,6.67-22.609,5.38-29.982,3.545S2054.549,5253.276,2056.487,5247.41Z" transform="translate(-2042.012 -5185.871)" fill="#1e1240"/><path d="M2099.231,5528.016c.419-2.514-1.78-10.727-1.47-11.939.377-1.474,11.593-1.681,12.292-1.047,1.3,1.174-1.175,9.726-.14,11.521.452.782,9.38,2.094,9.379,7.083,0,1.758-19.713.848-19.713.848A22.875,22.875,0,0,1,2099.231,5528.016Z" transform="translate(-2058.906 -5304.603)" fill="#965242"/><path d="M2037.7,5528.016c.638-2.514-.844-10.727-.427-11.939.505-1.474,11.74-1.681,12.384-1.047,1.194,1.174-2.025,9.726-1.146,11.521.384.782,9.2,2.094,8.76,7.083-.154,1.758-19.786.848-19.786.848A22.71,22.71,0,0,1,2037.7,5528.016Z" transform="translate(-2034.249 -5304.603)" fill="#965242"/><path d="M2159.7,5218.408a31.119,31.119,0,0,0,1.3-3.007c.235-.819.482-2.853,1.2-1.445s-.367,2.628.8,2.813,2.446-1,4.819-2.066c1.095-.494,1.924,2.106-.21,3.944-2.542,2.19-5.03,3.212-6.51,2.936C2157.9,5220.988,2159.7,5218.408,2159.7,5218.408Z" transform="translate(-2083.943 -5181.911)" fill="#ff6161"/><g transform="translate(72.204 46.542)"><path d="M2157.842,5246.331a3.792,3.792,0,1,1,3.792-3.792A3.8,3.8,0,0,1,2157.842,5246.331Zm0-6.257a2.465,2.465,0,1,0,2.465,2.465A2.468,2.468,0,0,0,2157.842,5240.074Z" transform="translate(-2154.05 -5238.747)" fill="#1e1240"/></g></g></g></g><g transform="translate(75.111)"><path d="M2157.073,5127.141c.567,1.5,1.541,2.512,2.175,2.272s.689-1.648.122-3.144-1.541-2.512-2.175-2.271S2156.505,5125.646,2157.073,5127.141Z" transform="translate(-2139.352 -5096.791)" fill="#ffdcdc"/><path d="M2201.994,5095.4c.866.436,1.718.492,1.9.125s-.368-1.019-1.233-1.455-1.718-.492-1.9-.125S2201.128,5094.965,2201.994,5095.4Z" transform="translate(-2157.292 -5084.465)" fill="#ff6161"/><path d="M2200.013,5151.471c-1.809,1.369-2.8,3.1-2.223,3.87s2.519.279,4.328-1.091,2.8-3.1,2.223-3.871S2201.823,5150.1,2200.013,5151.471Z" transform="translate(-2156.029 -5107.402)" fill="#ffdcdc"/><path d="M2150.162,5145.868c.726.643,1.536.914,1.808.606s-.095-1.079-.822-1.722-1.536-.914-1.808-.605S2149.436,5145.226,2150.162,5145.868Z" transform="translate(-2136.325 -5104.959)" fill="#614cd4"/><path d="M2177.722,5079.67c.944-.222,1.634-.726,1.539-1.126s-.935-.546-1.879-.324-1.633.726-1.539,1.126S2176.779,5079.892,2177.722,5079.67Z" transform="translate(-2147.153 -5078.116)" fill="#ffdc6c"/><path d="M2203.452,5138.056c1.471-.558,2.471-1.516,2.234-2.139s-1.621-.678-3.091-.12-2.471,1.516-2.234,2.14S2201.981,5138.614,2203.452,5138.056Z" transform="translate(-2157.129 -5101.453)" fill="#ff6161"/><g transform="translate(28.968 29.49)"><path d="M2177.275,5141.481l-.957-.04a9.177,9.177,0,0,1,1.6-4.824,6.57,6.57,0,0,1-.97-1.046,2.362,2.362,0,0,1-.137-2.728,3.665,3.665,0,0,1,.381-.532,1.731,1.731,0,0,1-.586-1.306c.061-1.749,3.24-3,3.6-3.132l.337.9c-1.221.462-2.955,1.471-2.982,2.269a.858.858,0,0,0,.324.617,5.1,5.1,0,0,1,3.335-1.149,2,2,0,0,1,1.617,1.4,1.486,1.486,0,0,1-.388,1.6c-.5.442-1.581.752-3.845-.285a6.793,6.793,0,0,1-.647-.337,2.71,2.71,0,0,0-.324.438,1.4,1.4,0,0,0,.081,1.676,5.644,5.644,0,0,0,.8.871,3.68,3.68,0,0,1,2.286-1.309c.919-.062,1.594.556,1.789,1.652a1.427,1.427,0,0,1-.741,1.755,3.765,3.765,0,0,1-3.17-.772A8.02,8.02,0,0,0,2177.275,5141.481Zm2.018-5.022a2.947,2.947,0,0,0,2.18.633c.069-.03.281-.121.177-.708-.161-.906-.628-.873-.782-.864A2.773,2.773,0,0,0,2179.293,5136.459Zm-.555-4.235c.085.044.174.087.268.13,1.6.735,2.505.707,2.814.436a.579.579,0,0,0,.1-.6,1.05,1.05,0,0,0-.819-.734A4,4,0,0,0,2178.739,5132.224Z" transform="translate(-2176.318 -5127.872)" fill="#614cd4"/></g><g transform="translate(27.136 10.169)"><path d="M2175.934,5095.273l.551.783c-.643.452-2.441,1.985-2.292,3.062a1.983,1.983,0,0,0,.748,1.167,5,5,0,0,1,2.984-1.488c1.4-.153,1.721.539,1.8.844.2.808-.569,1.883-1.642,2.3a3.723,3.723,0,0,1-2.937-.377,3.453,3.453,0,0,0-.526,2.316,2,2,0,0,0,.4,1.005,4.764,4.764,0,0,1,.7-.578c1.761-1.207,2.682-.465,2.922-.209a1.562,1.562,0,0,1,.081,1.99,2.694,2.694,0,0,1-2.726.494,3.675,3.675,0,0,1-.818-.331,2.416,2.416,0,0,0-.216,1.8l-.905.313a3.362,3.362,0,0,1,.362-2.707,2.941,2.941,0,0,1-.75-1.661,4.454,4.454,0,0,1,.678-2.963,2.915,2.915,0,0,1-1.1-1.785C2172.987,5097.4,2175.632,5095.485,2175.934,5095.273Zm1.759,5.792c.014,0,.027-.01.039-.014.712-.278,1.119-.942,1.06-1.182-.019-.076-.242-.176-.761-.119a4.008,4.008,0,0,0-2.258,1.06A2.74,2.74,0,0,0,2177.693,5101.064Zm0,4.605a.609.609,0,0,0,.276-.167.593.593,0,0,0-.021-.747c-.225-.239-.786-.274-1.684.342a3.95,3.95,0,0,0-.482.385,2.694,2.694,0,0,0,.473.177A2.561,2.561,0,0,0,2177.688,5105.67Z" transform="translate(-2173.228 -5095.273)" fill="#ff6161"/></g><path d="M2128.883,5114.4l-1.441,2.5,4.866,1.605,1.093-2.011Z" transform="translate(-2127.442 -5092.896)" fill="#ffdc6c"/><path d="M2225.939,5083.848l-3.255,3.53,2.165,1.964,3.309-4.344Z" transform="translate(-2166.236 -5080.451)" fill="#ffdc6c"/><path d="M2194.121,5116.945l-1.676,4.371,3.165.569,1.421-4.94Z" transform="translate(-2153.919 -5093.932)" fill="#ffdc6c"/><path d="M2153.154,5100.137l-3.824-6.175-3.008,1.8,4.673,6.615Z" transform="translate(-2135.132 -5084.57)" fill="#614cd4"/><path d="M2213.4,5111.532l3.018,5.91,4.51-2.955-3.764-4.345Z" transform="translate(-2162.453 -5091.16)" fill="#614cd4"/></g><path d="M2295.324,5219.721s22.135,4.139,38.446-6.41c6.749-4.364,6.295-32.08,7.509-39.192.752-4.409,3.677-9.242,7.357-2.407,3.036,5.639,9.082,32.6,2.839,48.706-4.086,10.54-18.126,16.025-27.341,18.557-5.033,1.383-17.821,6.064-20.983,1.679C2299.885,5236.121,2295.324,5219.721,2295.324,5219.721Z" transform="translate(-2120.712 -5114.85)" fill="#ff6161"/><g transform="translate(174.612 103.65)"><path d="M2322.477,5253c-15.431.9-27.153,1.452-27.153,1.452s4.514,16.235,7.749,20.721c3.13,4.341,15.709.707,20.691-.662,2.123-.583,4.785-1.143,7.241-2.069C2332.513,5263.841,2324.942,5255.215,2322.477,5253Z" transform="translate(-2295.324 -5253)" fill="#614cd4"/></g><path d="M2340.882,5240.57c9.215-2.531,23.255-8.017,27.341-18.557,6.243-16.105.2-43.067-2.839-48.706-.217-.4-.431-.763-.643-1.086a1.9,1.9,0,0,0-.612.63c-2.09,3.6-.668,4.683-.478,13.294s5.328,21.238,1.064,27.257-12.792,14.047-17.913,16.852c-3.116,1.707-7.447,7.417-10.361,11.628C2338.186,5241.372,2339.736,5240.886,2340.882,5240.57Z" transform="translate(-2137.46 -5116.447)" fill="#ad263d"/><g transform="translate(221.116 46.191)"><path d="M2380.008,5169.5s3.616-3.073,3.341-7.2c-.244-3.663-2.006-6.419-4.368-6.245-1.969.145-.5,5.363-1.653,6.847s-3.433,2.894-2.092,5.757C2376.23,5170.788,2378.817,5171.242,2380.008,5169.5Z" transform="translate(-2374.211 -5156.052)" fill="#ff6161"/><path d="M2374.75,5169.368s-.77-3.68-.414-5.39-1.3-3.525-.109-3.542,2.325,1.8,2.244,2.824,2.635,1.77,2.376,3.349S2375.186,5171.225,2374.75,5169.368Z" transform="translate(-2373.789 -5157.837)" fill="#ff6161"/></g><path d="M2332.894,5279.521a16.44,16.44,0,0,0-1.3-9.142c-3.521,1.145-7.83,2.617-10.906,3.431-4.585,1.214-16.476-2.076-20.725-3.338,1.518,4.552,3.413,9.58,5,11.78,3.13,4.341,15.71.707,20.692-.662C2327.776,5281.007,2330.439,5280.447,2332.894,5279.521Z" transform="translate(-2122.601 -5156.428)" fill="#311e69"/></g></svg>