<svg xmlns="http://www.w3.org/2000/svg" xmlns:xlink="http://www.w3.org/1999/xlink" width="199.772" height="199.77" viewBox="0 0 199.772 199.77"><defs><clipPath id="a"><path d="M1290.587,319.885a99.882,99.882,0,0,0,97.712,99.859c.722.019,1.449.026,2.176.026q4.194,0,8.3-.342a99.488,99.488,0,0,0,58.591-25.366q2.249-2.027,4.374-4.192a99.92,99.92,0,0,0-88.225-168.435q-2.145.365-4.259.824c-.449.1-.9.2-1.347.3q-1.076.25-2.145.523a98.81,98.81,0,0,0-9.784,3.034c-.136.051-.273.1-.407.153q-2.166.805-4.284,1.713a99.76,99.76,0,0,0-60.706,91.9Z" transform="translate(813.213 5846.43)" fill="#e6f4ff"/></clipPath></defs><g transform="translate(-2103.8 -6066.43)"><path d="M1290.587,319.885a99.882,99.882,0,0,0,97.712,99.859c.722.019,1.449.026,2.176.026q4.194,0,8.3-.342a99.488,99.488,0,0,0,58.591-25.366q2.249-2.027,4.374-4.192a99.92,99.92,0,0,0-88.225-168.435q-2.145.365-4.259.824c-.449.1-.9.2-1.347.3q-1.076.25-2.145.523a98.81,98.81,0,0,0-9.784,3.034c-.136.051-.273.1-.407.153q-2.166.805-4.284,1.713a99.76,99.76,0,0,0-60.706,91.9Z" transform="translate(813.213 5846.43)" fill="#e6f4ff"/><g clip-path="url(#a)"><g transform="translate(-27.787 -13.949)"><path d="M2133.853,6588.7s-24.3-2.409-27.526-7.914,8.143-2.591,7.6-5.208-16.856-1.336-14.707-5.686,9.543-.851,8.119-3.191-15.745-4.78-13.925-9.862,9.522,5.491,11.679,3.008-4.008-3.651.722-6.1,8.045,16.954,12.789,16.079-1.822-11.712,4.129-11.039S2144.06,6590.155,2133.853,6588.7Z" transform="translate(0 -314.706)" fill="#ff7e78"/><path d="M2226.67,6402.279s-7.235-29.294-9.983-29.253.708,7.277-4.183,6.413-2-28.773-8.786-25.272c-4.931,2.546-4.98,15.186-4.98,15.186s-8.2-42.615-14.489-41.481-1.245,17.021-4.69,17.327-10.875-25.187-17.007-23,2.788,13.386,5.426,17.822,4.5,9.067,1.313,8.265-14.057-10.019-18.405-5.322,26.641,16.733,27.255,21.643-18.641-9.77-21.268-1.453,9.225,7.6,16.048,11.866,15.9,5.06,14.128,8.661-14.874-6.837-16.828.381,19.724,10.447,24.21,13.319S2230.111,6409.282,2226.67,6402.279Z" transform="translate(-44.996 -132.661)" fill="#f7726f"/><g transform="translate(2255.91 6170.228)"><path d="M2876.959,6311.229a16.047,16.047,0,0,1-12.416-5.989c-4.741-5.629-11.681-16.468-9.057-29.5,3.871-19.219,14.707-47.265,26.233-43.036C2892.284,6236.583,2904.131,6310.791,2876.959,6311.229Z" transform="translate(-2854.911 -6232.278)" fill="#f7726f"/><path d="M2901.61,6273.33l.706-7.88,14.489-7.092q-.1-.588-.2-1.168l-14.167,6.934,2.844-31.744a6.574,6.574,0,0,0-1.055-.076l-3.539,39.5-13.622-18.475q-.237.591-.469,1.188l13.945,18.913-3.326,37.12q.513.163,1.036.289l1.926-21.491,11.566-4.4,6.22,3.609q.072-.6.136-1.218l-5.006-2.9,5.354-2.037q.026-.618.043-1.24l-18.2,6.923,1.322-14.755Z" transform="translate(-2879.828 -6232.299)" fill="#ff8b85"/></g><g transform="translate(2141.635 6170.081)"><path d="M2391.67,6301.043s-10.658-50.063-37.993-64.3-35.642,4.834-33.57,11.788,20.264,14.731,32.329,23.052c7.075,4.88,31.086,34.4,33.868,36.122S2392.59,6304.832,2391.67,6301.043Z" transform="translate(-2319.805 -6231.593)" fill="#f7726f"/><path d="M2348.559,6247.075a56.119,56.119,0,0,0-24.356-5.349q.221-.576.5-1.151a57.517,57.517,0,0,1,23.755,5.167l-7.063-13.809c.446.035.9.082,1.366.142l7.44,14.546c5.632,3.027,12.087,9.51,17.079,15.163l-1.692-18.868q.638.566,1.26,1.16l1.72,19.185c1.377,1.6,2.612,3.092,3.648,4.376,3.544,4.4,6.776,8.8,9.308,12.539l2.322-11.306q.417.871.818,1.74l-2.24,10.908a58.63,58.63,0,0,1,4.16,7.035c1.5,3.336,4.758,10.813,7.678,17.542a6.142,6.142,0,0,1-.8,1.042c-2.981-6.872-6.382-14.684-7.925-18.111a55.483,55.483,0,0,0-3.907-6.639l-13.983,1.093q-.5-.543-.984-1.077l14.237-1.114a192.327,192.327,0,0,0-13.062-17.113L2353,6269.932q-.6-.383-1.211-.765l15.241-5.914c-5.819-6.675-12.055-12.713-17.257-15.549l-17.234,9.93q-.544-.359-1.065-.715Z" transform="translate(-2323.264 -6231.861)" fill="#ff8b85"/></g><g transform="translate(2298.82 6211.393)"><path d="M3071.6,6445.807s-.4-12.826,15.031-18.319c14.961-5.325,28.714-1.711,31.1,8.17s-34.6,15.675-38.444,15.574-7.1-4.06-7.1-4.06-11.593,12.145-13.3,14.85-3.788,2.337-2.8.267S3071.6,6445.807,3071.6,6445.807Z" transform="translate(-3055.835 -6425.032)" fill="#f7726f"/><path d="M3180.215,6443.318a.224.224,0,0,0-.121-.292,16.494,16.494,0,0,0-4.555-.885,38.447,38.447,0,0,0-7.5.178c1.174-1.291,4.5-4.949,4.687-5.174a.224.224,0,0,0-.344-.288c-.206.246-4.5,4.971-5.022,5.544q-.787.1-1.626.233a.182.182,0,0,0-.046.007c-1.246.2-2.58.456-4,.785a21.092,21.092,0,0,0-2.033.588l2.07-7.175a.224.224,0,0,0-.43-.125l-2.159,7.482a50.248,50.248,0,0,0-8.335,4.154l.973-8.595a.224.224,0,0,0-.445-.05l-1.012,8.938c-3.144,1.919-5.919,3.89-7.632,5.106-.312.222-.586.417-.82.581a.225.225,0,0,0-.055.313.207.207,0,0,0,.04.042.223.223,0,0,0,.272.012l.823-.582c1.161-.826,2.813-2,4.737-3.266l9.63,3.623a.224.224,0,1,0,.157-.418l-9.324-3.508c.791-.516,1.622-1.043,2.479-1.565a.423.423,0,0,0,.037-.022,60.4,60.4,0,0,1,6.148-3.317l8.365,5.463a.224.224,0,0,0,.245-.375l-8.125-5.307c.706-.31,1.405-.593,2.093-.84h0a21.7,21.7,0,0,1,2.4-.719c1.386-.321,2.69-.572,3.908-.77l7.817,5.128a.224.224,0,1,0,.246-.374l-7.4-4.856a39.854,39.854,0,0,1,9.111-.406,16.405,16.405,0,0,1,4.452.854A.225.225,0,0,0,3180.215,6443.318Z" transform="translate(-3123.419 -6434.094)" fill="#ff8b85"/></g><g transform="translate(2276.232 6193.736)"><path d="M2979.494,6348.935c14.614-6.711,15.8-6.576,15.8-6.576s-14.906,56.7-36.641,47.12c-1.329-.585-2.515-1.138-3.572-1.657-12.781-6.293,1.353-22.106,14.774-32.042.346-.255.741-.617.741-.617S2976.687,6350.223,2979.494,6348.935Z" transform="translate(-2950.072 -6342.358)" fill="#f7726f"/><path d="M3016.773,6342.6c-1.771,1.657-6.853,6.453-12.235,11.9l-.872-6.369-.891.407.932,6.807c-2.625,2.675-5.284,5.474-7.633,8.11l-3.005-8.332-.041.033s-.4.362-.74.617h0l3.078,8.483c-1.088,1.24-2.1,2.437-2.989,3.559l-5.254-7.941q-.312.266-.62.533l5.347,8.081c-.732.946-1.372,1.832-1.894,2.636-1.054,1.627-2.41,3.694-3.924,5.99l-3.8-7.63.926-6.017q-.49.473-.967.951l-.586,3.807-1.052-2.11q-.3.319-.588.64l5.556,11.142c-2.16,3.271-4.6,6.941-6.924,10.437l.009,0,.412.193.005,0,.434.2c2.335-3.509,4.776-7.186,6.934-10.455l12.395,5.013q.322-.37.638-.753l-12.506-5.058c1.476-2.239,2.8-4.255,3.832-5.85.45-.694.994-1.454,1.614-2.266l12.648,4.932c.156-.273.311-.549.465-.826l-3.4-1.324,5-1.685q.3-.594.6-1.192l-6.957,2.346-7.754-3.023c2.135-2.7,5-5.875,8.025-9.065l10.31,1.666q.184-.448.362-.892l-9.887-1.6c2.343-2.446,4.754-4.873,6.979-7.071l6.116,0q.163-.478.316-.939l-5.48,0c3.609-3.545,6.6-6.365,7.789-7.482.107-.38.178-.643.212-.771l.007-.023v0c.011-.042.017-.063.017-.063A3.63,3.63,0,0,0,3016.773,6342.6Z" transform="translate(-2972.501 -6342.358)" fill="#ff8b85"/></g><g transform="translate(2311.691 6240.295)"><path d="M3119.961,6594.335a9.124,9.124,0,0,0,11.046-1.7,101.647,101.647,0,0,0,12.714-15.893c5.831-9.555,12.38-5.72,12.235-11.883s-18.21-6.523-28.574,2.364C3118.816,6574.57,3111.287,6589.431,3119.961,6594.335Z" transform="translate(-3116.113 -6560.373)" fill="#f7726f"/><path d="M3135.313,6579.817l4.644,1.959-.925-6.693q.244-.267.492-.526l1.77,12.8c1.1-1.723,2.319-3.524,3.631-5.265a.283.283,0,0,1,.072-.1,49.425,49.425,0,0,1,4.061-4.765c.062-.374.31-1.852.7-3.681a24.323,24.323,0,0,1-1.915-5.071q.259-.122.52-.24a22.46,22.46,0,0,0,1.588,4.427,41.6,41.6,0,0,1,1.619-5.663q.342-.111.684-.214a55.608,55.608,0,0,0-2.51,9.765,24.579,24.579,0,0,1,3.013-2.5,28.559,28.559,0,0,1,13.489-4.949,26.428,26.428,0,0,1,4.1-.082,2.964,2.964,0,0,1,.132.572,25.776,25.776,0,0,0-4.2.067,28,28,0,0,0-13.2,4.852,34.95,34.95,0,0,0-7.328,7.427l12.256.273q-.172.276-.349.551l-12.325-.275a97.165,97.165,0,0,0-6.964,10.928l10.22.99q-.235.263-.466.517l-10.049-.974c-1.317,2.4-2.338,4.442-2.967,5.74q-.252-.119-.5-.254c.646-1.336,1.7-3.447,3.052-5.91l.007-.012c.6-1.094,1.261-2.258,1.971-3.454.376-.634.777-1.294,1.2-1.969l-.785-5.676-5.045-2.128Q3135.155,6580.054,3135.313,6579.817Z" transform="translate(-3130.653 -6565.424)" fill="#ff8b85"/></g><g transform="translate(2164.495 6136)"><path d="M2518.164,6520.689s51.937,13.3,60.617,23.446a32.177,32.177,0,0,1,7.634,21.77s-96.495,5.808-111.318,4.111-48.252-5.808-48.252-5.808,1.46-21,8.482-27.789c7.589-7.332,38.778-14.459,49.6-15.73C2489.879,6520.107,2518.164,6520.689,2518.164,6520.689Z" transform="translate(-2426.844 -6424.666)" fill="#ffe6e6"/><path d="M2686.395,6101.679c-3.271-18.4-14.889-18.092-14.889-18.092s-13.262-15.937-29.274-10.429c-27.39,9.423-12.656,31.315-12.656,31.315-.689,17.476,40.776,33.385,40.776,33.385S2690.918,6127.118,2686.395,6101.679Z" transform="translate(-2583.168 -6072)" fill="#492e2a"/><path d="M2712.067,6301.322l5.686,51.74c-1.436,6.793-39.3,7.491-36.594-1.111l5.012-43.8Z" transform="translate(-2626.739 -6252.349)" fill="#ff6161"/><path d="M2691.271,6411.612c4.436.3,13.872.46,18.534-3.141,6.219-4.806,6.4-8.5,6.4-8.5a54.794,54.794,0,0,1-7.245,2.418c-2.461.581-11.924,1.955-16.936,2.667Z" transform="translate(-2634.801 -6329.933)" fill="#311e69"/><path d="M2644.2,6160.857l4.7,28.519a17.63,17.63,0,0,1-15.587,19.021c-7.583.844-12.3.126-21.44-2.439-7.615-2.137-10.445-10.2-8.875-20.368,2.037-13.194,7.663-24.767,11.02-30.791C2621.668,6141.066,2639.773,6142.5,2644.2,6160.857Z" transform="translate(-2565.047 -6129.905)" fill="#ff6161"/><path d="M2800.216,6249.438a22.336,22.336,0,0,0,1.59-4.455c.751-2.915,2.543-7.072,6.319-3.831,5.492,4.714,1.939,18.905-5.57,18.231C2796.979,6258.884,2798.431,6253.006,2800.216,6249.438Z" transform="translate(-2719.22 -6204.101)" fill="#ff6161"/><rect width="2.968" height="3.863" transform="translate(86.123 32.977)" fill="#cecece"/><path d="M2699.68,6607.75l1.451-39.437-2.365-.277-2.3,39.73Q2697.99,6607.767,2699.68,6607.75Z" transform="translate(-2638.885 -6462.104)" fill="#ffd7d7"/><g transform="translate(79.394 36.369)"><ellipse cx="8.133" cy="9.918" rx="8.133" ry="9.918" transform="translate(0 0)" fill="#f2f2f2"/><path d="M2800.808,6252.219c0-5.024,3.064-9.175,7.037-9.827a6.684,6.684,0,0,0-1.1-.091c-4.492,0-8.133,4.44-8.133,9.918s3.641,9.918,8.133,9.918a6.792,6.792,0,0,0,1.1-.09C2803.871,6261.395,2800.808,6257.243,2800.808,6252.219Z" transform="translate(-2798.615 -6242.301)" fill="#cecece"/></g><path d="M2825.4,6136.27h3.772a.863.863,0,0,0,.88-.846l1.032-16.283a7.447,7.447,0,0,0-.074-1.689,5.507,5.507,0,0,0-2.284-3.808l-3.9-2.394a35.317,35.317,0,0,1,1.289,6.868c.4,4.219-1.589,17.294-1.589,17.294A.863.863,0,0,0,2825.4,6136.27Z" transform="translate(-2739.595 -6102.869)" fill="#f2f2f2"/><g transform="translate(45.27 48.496)"><path d="M2806.708,6299.09a3.955,3.955,0,0,0-3.687,2.194l-5.671,1.25a.912.912,0,0,0-.7,1.066l.294,1.492a.912.912,0,0,0,1.062.721l5.885-1.1s3.118,1.266,4.729-.4C2810.083,6302.8,2810.025,6299.161,2806.708,6299.09Z" transform="translate(-2762.933 -6299.089)" fill="#cecece"/><g transform="translate(5.06 4.714)"><path d="M2664.232,6326.663c-.676.057-1.068.085-1.083.086a.587.587,0,1,1-.083-1.171c.06,0,6.1-.441,12.215-1.418,16.173-2.587,16.435-2.96,16.494-2.976a.587.587,0,1,1,.29,1.138c-.06.016-.357.4-16.6,3C2670.844,6326.058,2666.26,6326.49,2664.232,6326.663Z" transform="translate(-2662.519 -6321.165)" fill="#f2f2f2"/></g><path d="M2645.885,6339.757a2.38,2.38,0,0,0,.213-2.671,4.213,4.213,0,0,0-.242-.389c-.435-.612-6.771-.252-6.936.587s-.184,2.7.555,3.077,6.107-.281,6.351-.538C2645.844,6339.806,2645.864,6339.783,2645.885,6339.757Z" transform="translate(-2638.827 -6328.424)" fill="#f2f2f2"/></g><path d="M2673.777,6509.729s12.033-2.11,15.862-3.455c3.184-1.118,12.087-6,12.087-6s3.712,9.74,3.712,11.53-25.82,8.765-25.82,8.765l-6.565-4.681-11.12,2.513,2.432-10.711a7.581,7.581,0,0,1,1.359-2.91l.988-1.3Z" transform="translate(-2611.729 -6408.811)" fill="#fff"/><ellipse cx="1.904" cy="2.544" rx="1.904" ry="2.544" transform="translate(53.771 115.335)" fill="#ff8b85"/><ellipse cx="1.904" cy="2.544" rx="1.904" ry="2.544" transform="translate(52.377 133.145)" fill="#ff8b85"/><path d="M2648.724,6381.594a63.588,63.588,0,0,1-12.81,2.979c-10.805,1.508-16.962.879-25.066-2.011-3.429-1.222-5.288-3.5-6.364-4.128,1.016,5.338,3.942,9.224,8.886,10.611,9.139,2.565,13.857,3.283,21.44,2.439A17.577,17.577,0,0,0,2648.724,6381.594Z" transform="translate(-2566.548 -6312.993)" fill="#ad263d"/></g></g></g></g></svg>