<svg xmlns="http://www.w3.org/2000/svg" width="23.909" height="23.908" viewBox="0 0 23.909 23.908"><path d="M459.087,61.8a11.954,11.954,0,1,0-19.653,9.131c.008.008.017.014.025.023a11.913,11.913,0,0,0,15.347,0c.008-.008.018-.014.025-.023A11.927,11.927,0,0,0,459.087,61.8Zm-21.916,0a9.962,9.962,0,1,1,17.661,6.315,7.552,7.552,0,0,0-4.322-5.651,4.981,4.981,0,1,0-6.752,0,7.552,7.552,0,0,0-4.322,5.651A9.913,9.913,0,0,1,437.17,61.8Zm6.974-2.988a2.989,2.989,0,1,1,2.988,2.988A2.991,2.991,0,0,1,444.144,58.814ZM441.2,69.786c.306-3.812,2.444-5.99,5.933-5.99s5.627,2.178,5.934,5.99a9.885,9.885,0,0,1-11.867,0Z" transform="translate(-435.178 -49.849)" fill="#fff"/></svg>