<svg xmlns="http://www.w3.org/2000/svg" width="28.662" height="28.662" viewBox="0 0 28.662 28.662"><path d="M20.474,28.662H8.19A8.2,8.2,0,0,1,0,20.474V8.19A8.2,8.2,0,0,1,8.19,0H20.474a8.2,8.2,0,0,1,8.188,8.19V20.474A8.2,8.2,0,0,1,20.474,28.662ZM8.19,2.729a5.466,5.466,0,0,0-5.46,5.46V20.474a5.466,5.466,0,0,0,5.46,5.459H20.474a5.465,5.465,0,0,0,5.459-5.459V8.19a5.466,5.466,0,0,0-5.459-5.46Zm6.142,19.109a7.515,7.515,0,0,1-7.507-7.507,7.779,7.779,0,0,1,7.507-7.507,7.507,7.507,0,0,1,0,15.013Zm.113-12.286h0a5,5,0,0,0-4.863,4.858,4.7,4.7,0,0,0,1.367,3.3,4.632,4.632,0,0,0,3.3,1.366,5.006,5.006,0,0,0,4.871-4.858,4.668,4.668,0,0,0-4.665-4.668ZM21.838,8.19A1.365,1.365,0,1,1,23.2,6.825,1.366,1.366,0,0,1,21.838,8.19Z" fill="#46278a"/></svg>