<svg xmlns="http://www.w3.org/2000/svg" width="27.018" height="27" viewBox="0 0 27.018 27"><g transform="translate(-5234.119 1431.533)"><path d="M5259.455-1422.623a3.6,3.6,0,0,0,.806,2.824c.273.389.482.823.721,1.235a1,1,0,0,1,0,1.074c-.463.8-.931,1.6-1.382,2.4a1.107,1.107,0,0,0-.136.5c-.013.905-.015,1.811,0,2.716a1.06,1.06,0,0,1-.595,1.016c-.762.429-1.522.863-2.27,1.316a1.447,1.447,0,0,0-.471.466c-.453.747-.888,1.507-1.315,2.27a1.077,1.077,0,0,1-1.042.6c-.905-.014-1.811-.009-2.716,0a.975.975,0,0,0-.447.117q-1.183.664-2.351,1.355a1.126,1.126,0,0,1-1.26-.005c-.767-.46-1.544-.9-2.325-1.341a1.04,1.04,0,0,0-.474-.126c-.886-.012-1.772-.022-2.657,0a1.148,1.148,0,0,1-1.131-.663c-.422-.766-.864-1.521-1.312-2.272a1.1,1.1,0,0,0-.365-.369q-1.152-.687-2.323-1.343a1.093,1.093,0,0,1-.615-1.066c.018-.885.013-1.771,0-2.656a1.173,1.173,0,0,0-.14-.53q-.659-1.185-1.352-2.352a1.063,1.063,0,0,1,0-1.178q.691-1.167,1.354-2.352a1.107,1.107,0,0,0,.135-.5c.013-.905.016-1.811,0-2.716a1.057,1.057,0,0,1,.6-1.016q1.182-.665,2.349-1.358a1.036,1.036,0,0,0,.348-.346q.694-1.166,1.358-2.348a1.078,1.078,0,0,1,1.043-.6q1.313.022,2.626,0a1.381,1.381,0,0,0,.613-.162c.784-.43,1.559-.878,2.329-1.334a1.046,1.046,0,0,1,1.151,0c.78.458,1.563.911,2.353,1.351a1.178,1.178,0,0,0,.529.144c.875.014,1.752.023,2.626,0a1.149,1.149,0,0,1,1.132.661c.422.766.864,1.521,1.312,2.272a1.1,1.1,0,0,0,.366.368q1.165.7,2.348,1.36a1.044,1.044,0,0,1,.588,1.02C5259.444-1423.737,5259.455-1423.289,5259.455-1422.623Zm-16.062-5.324c-.418,0-.836.009-1.254,0a.362.362,0,0,0-.375.214c-.383.686-.765,1.373-1.183,2.037a2.026,2.026,0,0,1-.614.619c-.664.419-1.351.8-2.037,1.184a.387.387,0,0,0-.232.4c.013.766.028,1.533-.006,2.3a2.286,2.286,0,0,1-.244.928c-.362.7-.771,1.368-1.172,2.043a.345.345,0,0,0,0,.4c.415.7.833,1.4,1.218,2.12a1.781,1.781,0,0,1,.2.761c.025.8.014,1.612.006,2.417a.346.346,0,0,0,.2.352c.7.393,1.407.786,2.091,1.209a1.778,1.778,0,0,1,.557.556c.424.684.818,1.387,1.211,2.089a.368.368,0,0,0,.374.217c.8-.01,1.593-.023,2.388.006a1.947,1.947,0,0,1,.815.221c.7.373,1.385.781,2.069,1.188a.365.365,0,0,0,.431,0c.676-.4,1.349-.807,2.043-1.173a2.119,2.119,0,0,1,.87-.237c.785-.032,1.572-.017,2.358-.007a.369.369,0,0,0,.375-.215c.4-.711.8-1.421,1.224-2.116a1.552,1.552,0,0,1,.495-.495c.7-.431,1.422-.837,2.142-1.241a.346.346,0,0,0,.2-.352c-.008-.776-.026-1.553.008-2.328a2.294,2.294,0,0,1,.244-.927c.361-.7.771-1.367,1.171-2.043a.348.348,0,0,0,0-.405c-.416-.7-.833-1.4-1.218-2.12a1.782,1.782,0,0,1-.2-.761c-.025-.8-.016-1.592,0-2.388a.386.386,0,0,0-.226-.4c-.687-.381-1.374-.764-2.039-1.179a1.928,1.928,0,0,1-.6-.594c-.422-.673-.809-1.369-1.2-2.063a.369.369,0,0,0-.374-.218c-.806.01-1.613.021-2.418-.005a1.784,1.784,0,0,1-.759-.207c-.718-.385-1.414-.812-2.127-1.206a.451.451,0,0,0-.366,0,10.106,10.106,0,0,0-1.137.653A3.739,3.739,0,0,1,5243.394-1427.948Z" fill="#46278a"/><path d="M5330.879-1331.917a2.865,2.865,0,0,1-2.861-2.864,2.876,2.876,0,0,1,2.866-2.865,2.859,2.859,0,0,1,2.856,2.868A2.856,2.856,0,0,1,5330.879-1331.917Zm.953-2.857a.957.957,0,0,0-.932-.966.974.974,0,0,0-.975.961.947.947,0,0,0,.955.941A.932.932,0,0,0,5331.832-1334.773Z" transform="translate(-86.411 -86.4)" fill="#46278a"/><path d="M5410.05-1258.53a2.864,2.864,0,0,1,2.864,2.868,2.882,2.882,0,0,1-2.879,2.861,2.869,2.869,0,0,1-2.842-2.861A2.849,2.849,0,0,1,5410.05-1258.53Zm-.95,2.875a.926.926,0,0,0,.96.924.945.945,0,0,0,.949-.945.959.959,0,0,0-.983-.943A.941.941,0,0,0,5409.1-1255.656Z" transform="translate(-159.271 -159.207)" fill="#46278a"/><path d="M5365.021-1307.071a2.911,2.911,0,0,1-.37.649q-2.665,2.693-5.357,5.36a.952.952,0,0,1-1.365.031.965.965,0,0,1,.029-1.387q2.666-2.671,5.341-5.335a.944.944,0,0,1,1.093-.23A1.106,1.106,0,0,1,5365.021-1307.071Z" transform="translate(-113.679 -113.619)" fill="#46278a"/></g></svg>