<svg xmlns="http://www.w3.org/2000/svg" width="28.662" height="28.662" viewBox="0 0 28.662 28.662"><circle cx="14.331" cy="14.331" r="14.331" fill="#46278a"/><g transform="translate(5.686 4.802)"><g transform="translate(0 0)"><path d="M-1811.185,776.878l.051.046c.157.112.271.271.422.392a2.749,2.749,0,0,0,1.6.617,2.709,2.709,0,0,0,2.834-2.4,1.811,1.811,0,0,0,.005-.207q0-6.379,0-12.758c0-.287,0-.287.286-.287h1.939a.291.291,0,0,1,.179.027l.011.009a.224.224,0,0,1,.049.115,4.474,4.474,0,0,0,1.8,2.751c.059.043.109.1.165.143l.124.1a2.869,2.869,0,0,1,.393.336,4.477,4.477,0,0,0,1.772.906c.058.015.124.014.167.069a.038.038,0,0,0,.011.009.187.187,0,0,1,.032.142q0,1.125,0,2.249c0,.172-.023.18-.2.181a7.21,7.21,0,0,1-1.622-.2,7.779,7.779,0,0,1-2.55-1.1c-.041-.027-.084-.084-.128-.065s-.026.1-.026.147c0,2.111.008,4.222,0,6.332a5.894,5.894,0,0,1-1.444,3.92,5.919,5.919,0,0,1-3.895,2.079,5.975,5.975,0,0,1-3.436-.607,3.129,3.129,0,0,1-.5-.306l-.148-.132a4.1,4.1,0,0,1-.878-1.119,5.8,5.8,0,0,1-.736-2.039,5.782,5.782,0,0,1-.079-1.252,5.976,5.976,0,0,1,1.4-3.6,6,6,0,0,1,2.72-1.853,5.473,5.473,0,0,1,1.387-.282,2.03,2.03,0,0,1,.264-.021.193.193,0,0,1,.121.028.044.044,0,0,0,.013.009.251.251,0,0,1,.019.135q0,1.141,0,2.283c0,.027,0,.054,0,.081,0,.076-.042.1-.115.081a2.871,2.871,0,0,0-.637-.1,2.423,2.423,0,0,0-.974.145,2.6,2.6,0,0,0-1.813,2.238,2.6,2.6,0,0,0,1.2,2.584C-1811.334,776.77-1811.256,776.819-1811.185,776.878Z" transform="translate(1815.92 -761.529)" fill="#e9e9e9"/><path d="M-1806.225,796.291c.04-.011.063.021.091.038a6.027,6.027,0,0,0,2.2.812,5.657,5.657,0,0,0,1.195.07,5.946,5.946,0,0,0,3.571-1.37,5.906,5.906,0,0,0,1.99-3.114,5.846,5.846,0,0,0,.183-1.2c.012-.235.011-.469.011-.7q0-3.017,0-6.034v-.137c.052-.014.076.025.105.045a7.719,7.719,0,0,0,2.329,1.084,7.865,7.865,0,0,0,1.4.253c.2.017.4.015.6.029.087.006.089,0,.089-.088s0-.192,0-.289V783.64c0-.042,0-.084,0-.127.179.02.356.059.536.072a3.152,3.152,0,0,0,.334.015c.055,0,.078.018.073.073a.543.543,0,0,0,0,.069V786.7c0,.019,0,.039,0,.058,0,.086,0,.088-.093.087a7.179,7.179,0,0,1-.92-.062,7.8,7.8,0,0,1-1.815-.464,7.775,7.775,0,0,1-1.586-.839c-.031-.021-.062-.04-.11-.071v.138q0,3.225,0,6.449a5.872,5.872,0,0,1-.909,3.182,5.92,5.92,0,0,1-3.065,2.471,5.838,5.838,0,0,1-2.449.336,5.948,5.948,0,0,1-3.687-1.607C-1806.175,796.349-1806.2,796.319-1806.225,796.291Z" transform="translate(1808.991 -778.289)" fill="#6641b8"/><path d="M-1789.37,759.491c-.042,0-.084.006-.126.006h-2.078c-.161,0-.161,0-.161.155q0,6.346,0,12.691a2.721,2.721,0,0,1-.114.864,2.641,2.641,0,0,1-2,1.875,2.66,2.66,0,0,1-2.75-.928.372.372,0,0,1-.03-.048,3.691,3.691,0,0,0,.644.212,2.684,2.684,0,0,0,1.994-.348,2.7,2.7,0,0,0,1.278-1.9,2.651,2.651,0,0,0,.032-.471q0-6.358,0-12.715c0-.2-.027-.173.169-.173h3c.1,0,.1,0,.1.1A3.305,3.305,0,0,0-1789.37,759.491Z" transform="translate(1801.418 -758.71)" fill="#9d7de5"/><path d="M-1812.542,792.492a6.171,6.171,0,0,0-1.749.3,5.96,5.96,0,0,0-2.184,1.286,5.941,5.941,0,0,0-1.713,2.789,5.794,5.794,0,0,0-.2,1.188,5.874,5.874,0,0,0-.009.725,5.935,5.935,0,0,0,.43,1.945,5.955,5.955,0,0,0,1.2,1.866.274.274,0,0,1,.026.037,1.421,1.421,0,0,1-.312-.215,5.964,5.964,0,0,1-2.029-2.918,5.958,5.958,0,0,1-.252-1.262,5.94,5.94,0,0,1-.012-.933,5.893,5.893,0,0,1,.511-2.057,5.946,5.946,0,0,1,1.265-1.815,5.951,5.951,0,0,1,2.17-1.365,5.981,5.981,0,0,1,1.595-.338,6.19,6.19,0,0,1,1.185.026c.053.006.084.017.083.081C-1812.54,792.054-1812.54,792.273-1812.542,792.492Z" transform="translate(1819.358 -784.761)" fill="#9d7de5"/><path d="M-1802.441,803.044a2.273,2.273,0,0,1-.638-.447,2.67,2.67,0,0,1-.83-1.668,2.731,2.731,0,0,1,1.914-2.924,2.742,2.742,0,0,1,1.544-.023.167.167,0,0,0,.089.012.305.305,0,0,0,.009-.125q0-1.153,0-2.307c0-.042,0-.084.006-.126a4.932,4.932,0,0,1,.886.039c.046.005.059.027.057.067,0,.023,0,.046,0,.069q0,1.528,0,3.057a.2.2,0,0,1-.014.117c-.134-.025-.266-.066-.4-.085a2.692,2.692,0,0,0-2.12.565,2.632,2.632,0,0,0-1,1.686,2.685,2.685,0,0,0,.45,2.017C-1802.472,802.992-1802.457,803.018-1802.441,803.044Z" transform="translate(1807.176 -787.695)" fill="#6641b8"/><path d="M-1760.088,765.437a3.843,3.843,0,0,1-.795-.642,4.5,4.5,0,0,1-1.216-2.344.144.144,0,0,1,0-.023c.276-.016.553,0,.829-.007.049,0,.071.019.066.068,0,.019,0,.039,0,.058a4.15,4.15,0,0,0,.593,2.149,4.432,4.432,0,0,0,.472.667C-1760.12,765.384-1760.092,765.4-1760.088,765.437Z" transform="translate(1774.159 -761.638)" fill="#6641b8"/><path d="M-1749.629,778.552a4.5,4.5,0,0,1-2.082-1.059,1.646,1.646,0,0,1-.25-.253.121.121,0,0,1,.073.028,4.564,4.564,0,0,0,1.531.542,3.721,3.721,0,0,0,.641.056c.089,0,.092,0,.092.088C-1749.625,778.154-1749.627,778.353-1749.629,778.552Z" transform="translate(1766.155 -773.338)" fill="#9d7de5"/></g></g></svg>