<svg xmlns="http://www.w3.org/2000/svg" width="25.711" height="24.639" viewBox="0 0 25.711 24.639"><path d="M276.765,497.78a1.074,1.074,0,0,1-.5-.124l-6.782-3.579-6.783,3.579a1.071,1.071,0,0,1-1.556-1.128l1.3-7.586-5.491-5.371a1.071,1.071,0,0,1,.6-1.826l7.584-1.106,3.393-6.9a1.072,1.072,0,0,1,1.922,0l3.394,6.9,7.584,1.106a1.071,1.071,0,0,1,.595,1.826l-5.491,5.371,1.3,7.586a1.072,1.072,0,0,1-1.056,1.252Zm-7.283-5.986a1.065,1.065,0,0,1,.5.124l5.361,2.829-1.025-6a1.071,1.071,0,0,1,.308-.946l4.344-4.251-6-.875a1.072,1.072,0,0,1-.806-.588l-2.68-5.451-2.68,5.451a1.072,1.072,0,0,1-.807.588l-6,.875,4.345,4.251a1.073,1.073,0,0,1,.307.946l-1.024,6,5.36-2.829A1.069,1.069,0,0,1,269.482,491.795Z" transform="translate(-256.627 -473.141)" fill="#bc9dfc"/></svg>