<svg xmlns="http://www.w3.org/2000/svg" width="31.854" height="25.478" viewBox="0 0 31.854 25.478"><path d="M28.585,6.337c.014.271.021.557.021.844a18.621,18.621,0,0,1-2.118,8.536,17.818,17.818,0,0,1-3.35,4.5,18.311,18.311,0,0,1-13.125,5.257A18.777,18.777,0,0,1,0,22.594c.508.048,1.03.08,1.557.08a13.286,13.286,0,0,0,8.12-2.755,6.528,6.528,0,0,1-6.106-4.474,6.285,6.285,0,0,0,1.228.127,6.821,6.821,0,0,0,1.723-.223A6.472,6.472,0,0,1,1.279,9.044a.363.363,0,0,1,0-.08,6.616,6.616,0,0,0,2.958.8,6.39,6.39,0,0,1-2.9-5.35,6.31,6.31,0,0,1,.882-3.232A18.683,18.683,0,0,0,15.68,7.9a6.645,6.645,0,0,1-.159-1.465A6.485,6.485,0,0,1,22.049,0a6.59,6.59,0,0,1,4.767,2.022A12.913,12.913,0,0,0,30.969.462,6.472,6.472,0,0,1,28.1,4.029a13.419,13.419,0,0,0,3.751-1.019A13.11,13.11,0,0,1,28.585,6.337Z" fill="#46278a"/></svg>