<svg xmlns="http://www.w3.org/2000/svg" width="23.898" height="23.909" viewBox="0 0 23.898 23.909"><path d="M652.9,198.919a6.978,6.978,0,0,0-5.977-6.893V190.95a1,1,0,0,0-1.992,0v1.076a6.977,6.977,0,0,0-5.977,6.893c0,3.034-.427,3.926-.879,4.87-.547,1.146-1.113,2.329-1.113,6.089a1,1,0,0,0,1,1h4.981a2.989,2.989,0,1,0,5.977,0h4.981a1,1,0,0,0,1-1c0-3.834-.569-4.986-1.119-6.1C653.32,202.868,652.9,202.009,652.9,198.919Zm-6.974,12.951a1,1,0,0,1-1-1h1.992A1,1,0,0,1,645.922,211.87Zm1.992-2.989h-8.95a8.772,8.772,0,0,1,.9-4.232c.528-1.1,1.074-2.245,1.074-5.73a4.981,4.981,0,0,1,9.962,0c0,3.555.548,4.666,1.079,5.739a8.466,8.466,0,0,1,.9,4.223Z" transform="translate(-633.973 -189.954)" fill="#46278a"/><path d="M659.864,197.912a1,1,0,0,0-1.433,1.384,2.613,2.613,0,0,1,0,3.6,1,1,0,1,0,1.433,1.383A4.621,4.621,0,0,0,659.864,197.912Z" transform="translate(-637.237 -191.132)" fill="#46278a"/><path d="M636.109,197.887a1,1,0,0,0-1.409.025,4.621,4.621,0,0,0,0,6.365,1,1,0,0,0,1.434-1.383,2.611,2.611,0,0,1,0-3.6A1,1,0,0,0,636.109,197.887Z" transform="translate(-633.431 -191.132)" fill="#46278a"/></svg>