<svg xmlns="http://www.w3.org/2000/svg" width="29.37" height="27" viewBox="0 0 29.37 27"><path d="M288.255,63.756c.032,0,.063,0,.094,0a1.057,1.057,0,0,0,1.052-.965l.517-5.9a1.057,1.057,0,1,0-2.107-.184l-.517,5.9A1.057,1.057,0,0,0,288.255,63.756Z" transform="translate(-276.291 -49.213)" fill="#46278a"/><path d="M292.458,63.756c.031,0,.062,0,.093,0a1.058,1.058,0,0,0,1.052-.965l.516-5.9a1.057,1.057,0,0,0-2.107-.184l-.517,5.9A1.058,1.058,0,0,0,292.458,63.756Z" transform="translate(-276.938 -49.213)" fill="#46278a"/><path d="M296.659,63.756c.031,0,.063,0,.094,0a1.057,1.057,0,0,0,1.052-.965l.517-5.9a1.058,1.058,0,0,0-2.107-.184l-.516,5.9A1.057,1.057,0,0,0,296.659,63.756Z" transform="translate(-277.585 -49.213)" fill="#46278a"/><path d="M300.861,63.756c.032,0,.063,0,.094,0a1.057,1.057,0,0,0,1.052-.965l.517-5.9a1.057,1.057,0,0,0-2.107-.184l-.517,5.9A1.057,1.057,0,0,0,300.861,63.756Z" transform="translate(-278.232 -49.213)" fill="#46278a"/><path d="M299.959,65.154a3.465,3.465,0,0,0,2.838-3.085l.851-8.381a2.306,2.306,0,0,0-.573-1.768,2.221,2.221,0,0,0-1.629-.741l-21-.169-.514-2.171a1.056,1.056,0,0,0-1.029-.814h-3.555a1.058,1.058,0,1,0,0,2.115h2.719l4.391,18.541a3.418,3.418,0,1,0,5.021,3.974H295.8a3.428,3.428,0,1,0,0-2.115h-8.326a3.412,3.412,0,0,0-2.962-2.342l-.107-.453ZM301.5,53.331a.181.181,0,0,1,.043.143l-.851,8.381a1.345,1.345,0,0,1-1.082,1.213L283.92,65.683l-2.973-12.552Zm-2.453,16.953a1.313,1.313,0,1,1-1.313,1.313A1.314,1.314,0,0,1,299.047,70.285Zm-13.5,1.313a1.312,1.312,0,1,1-1.312-1.313A1.313,1.313,0,0,1,285.546,71.6Z" transform="translate(-274.289 -48.025)" fill="#46278a"/></svg>