<svg xmlns="http://www.w3.org/2000/svg" xmlns:xlink="http://www.w3.org/1999/xlink" width="20.403" height="20.411" viewBox="0 0 20.403 20.411"><defs><clipPath id="a"><rect width="20.403" height="20.411" fill="#46278a"/></clipPath></defs><g clip-path="url(#a)"><path d="M19.707,364.672c-1.082.018-2.164,0-3.247.01-.152,0-.21-.038-.252-.191a2.959,2.959,0,0,0-5.687-.018c-.046.165-.113.209-.28.209q-4.651-.008-9.3,0c-.08,0-.16,0-.239,0a.628.628,0,0,0-.552.815.66.66,0,0,0,.71.456q4.7,0,9.4,0c.15,0,.215.034.256.185a2.959,2.959,0,0,0,5.7-.022.181.181,0,0,1,.213-.163c1.082.005,2.165-.008,3.247.008a.806.806,0,0,0,.845-.477v-.319a.757.757,0,0,0-.812-.492M13.367,367a1.693,1.693,0,1,1,0-3.386,1.693,1.693,0,0,1,0,3.386" transform="translate(-0.116 -347.87)" fill="#46278a"/><path d="M20.067,2.336a1.1,1.1,0,0,0-.446-.082c-1.056,0-2.112,0-3.167,0a.287.287,0,0,1-.327-.236A2.767,2.767,0,0,0,15.4.826,2.68,2.68,0,0,0,13.639,0h-.8a.294.294,0,0,1-.067.033A2.911,2.911,0,0,0,10.4,2.173c-.046.153-.132.146-.245.146H.815a1.9,1.9,0,0,0-.219,0A.633.633,0,0,0,.062,3.2a.667.667,0,0,0,.691.4c3.134,0,6.268,0,9.4-.007.155,0,.215.043.255.189a2.959,2.959,0,0,0,5.7-.016.192.192,0,0,1,.226-.173c1.1.007,2.191-.006,3.287.01a.746.746,0,0,0,.792-.491V2.789a.586.586,0,0,0-.346-.453M13.25,4.655a1.693,1.693,0,1,1,1.7-1.694,1.7,1.7,0,0,1-1.7,1.694" transform="translate(-0.01)" fill="#46278a"/><path d="M19.565,183.44c-3.1.01-6.2,0-9.3.01-.161,0-.22-.043-.264-.2a2.96,2.96,0,0,0-5.692.022c-.038.142-.1.178-.239.177-1.128-.006-2.257,0-3.385,0a.638.638,0,1,0-.022,1.274q1.693.006,3.385,0c.154,0,.222.031.266.194a2.96,2.96,0,0,0,5.686,0c.043-.157.1-.2.264-.2,3.106.006,6.213,0,9.319.01a.78.78,0,0,0,.818-.484v-.319a.79.79,0,0,0-.838-.484m-12.43,2.334a1.691,1.691,0,1,1,1.715-1.632,1.7,1.7,0,0,1-1.715,1.632" transform="translate(-0.001 -173.882)" fill="#46278a"/></g></svg>