<svg xmlns="http://www.w3.org/2000/svg" width="24.896" height="16.066" viewBox="0 0 24.896 16.066"><g transform="translate(-1082.215 -1103.131)"><g transform="translate(1082.215 1103.131)"><g transform="translate(0 0)"><path d="M2961.016-531.747v.583a2.728,2.728,0,0,1-.729,1.179c-.71.732-1.4,1.488-2.145,2.179a18.148,18.148,0,0,1-5.211,3.459,10.745,10.745,0,0,1-5.91.805,12.9,12.9,0,0,1-4.794-1.83,23.39,23.39,0,0,1-5.61-4.9,1.648,1.648,0,0,1,0-2.361c.749-.827,1.5-1.656,2.318-2.415a17.4,17.4,0,0,1,6.108-3.821,10.384,10.384,0,0,1,4.418-.583,12.269,12.269,0,0,1,4.731,1.5,21.722,21.722,0,0,1,5.932,4.84A3.352,3.352,0,0,1,2961.016-531.747Zm-7.084.292a5.349,5.349,0,0,0-5.36-5.351,5.349,5.349,0,0,0-5.358,5.353,5.353,5.353,0,0,0,5.359,5.353A5.353,5.353,0,0,0,2953.932-531.455Z" transform="translate(-2936.12 539.49)" fill="#46278a"/><path d="M3116.947-445.466a3.843,3.843,0,0,1-3.835-3.829,3.843,3.843,0,0,1,3.833-3.831,3.843,3.843,0,0,1,3.835,3.829A3.843,3.843,0,0,1,3116.947-445.466Z" transform="translate(-3104.492 457.332)" fill="#46278a"/></g></g></g></svg>