<svg xmlns="http://www.w3.org/2000/svg" xmlns:xlink="http://www.w3.org/1999/xlink" width="16" height="19" viewBox="0 0 16 19"><defs><clipPath id="a"><rect width="16" height="19" transform="translate(0 0.412)" fill="#bc9dff"/></clipPath></defs><g transform="translate(0 -0.412)"><g clip-path="url(#a)"><path d="M49.044,53.088a4.044,4.044,0,1,1,4.044-4.044,4.049,4.049,0,0,1-4.044,4.044m0-6.471a2.427,2.427,0,1,0,2.427,2.427,2.429,2.429,0,0,0-2.427-2.427" transform="translate(-40.956 -40.956)" fill="#bc9dff"/><path d="M8.088,19.412a.807.807,0,0,1-.554-.22c-.471-.443-.972-.893-1.457-1.327C3.089,15.185,0,12.413,0,8.088a8.088,8.088,0,1,1,16.177,0c0,4.325-3.089,7.1-6.077,9.777-.485.435-.986.885-1.457,1.327a.807.807,0,0,1-.554.22m0-17.794A6.478,6.478,0,0,0,1.618,8.088c0,3.6,2.691,6.017,5.54,8.573.307.275.621.557.931.84.31-.283.624-.565.931-.84,2.849-2.556,5.54-4.97,5.54-8.573A6.478,6.478,0,0,0,8.088,1.618" transform="translate(0 0)" fill="#bc9dff"/></g></g></svg>