<svg xmlns="http://www.w3.org/2000/svg" width="18" height="18.001" viewBox="0 0 18 18.001"><path d="M6048.139,124.21V110.258a.456.456,0,0,1,.156.129c.5.51,1,1.021,1.506,1.527a.726.726,0,0,0,1.054.013.75.75,0,0,0-.012-1.071c-.642-.657-1.281-1.317-1.936-1.96a2.154,2.154,0,0,0-3.009-.037c-.685.653-1.337,1.342-2,2.02a.711.711,0,0,0-.174.732.73.73,0,0,0,1.249.294c.51-.509,1.013-1.026,1.519-1.538.041-.042.085-.081.135-.129v14c-.572-.586-1.113-1.145-1.661-1.7a.72.72,0,0,0-1.066-.011.756.756,0,0,0,.027,1.071c.634.648,1.267,1.3,1.911,1.936a2.164,2.164,0,0,0,3.036.045c.679-.651,1.329-1.334,1.987-2.008a.743.743,0,1,0-1.066-1.035q-.754.762-1.506,1.527C6048.246,124.111,6048.2,124.152,6048.139,124.21Z" transform="translate(-6033.074 -108.234)" fill="#505050"/><path d="M5820.15,110.241c.032-.139.061-.279.1-.417a2.946,2.946,0,0,1,2.836-2.212c.726-.005,1.452,0,2.178,0a2.918,2.918,0,0,1,3,2.819,24.3,24.3,0,0,1-.015,2.661,2.868,2.868,0,0,1-2.61,2.611,25.4,25.4,0,0,1-2.815,0,2.9,2.9,0,0,1-2.632-2.462,1.019,1.019,0,0,0-.036-.129Zm1.479,1.421c0,.363,0,.726,0,1.089a1.466,1.466,0,0,0,1.511,1.5q1.063,0,2.126,0a1.475,1.475,0,0,0,1.526-1.527q0-1.055,0-2.109a1.467,1.467,0,0,0-1.523-1.526c-.708,0-1.418-.005-2.126,0a1.46,1.46,0,0,0-1.514,1.515C5821.627,110.959,5821.629,111.31,5821.629,111.662Z" transform="translate(-5820.15 -107.61)" fill="#505050"/><path d="M5820.15,317.592c.03-.127.058-.256.089-.382a2.92,2.92,0,0,1,2.767-2.229c.875-.027,1.753-.031,2.626.021a2.865,2.865,0,0,1,2.609,2.61,24.757,24.757,0,0,1,0,2.8,2.893,2.893,0,0,1-2.5,2.652.569.569,0,0,0-.095.032h-2.872a.583.583,0,0,0-.1-.031,2.959,2.959,0,0,1-2.454-2.231c-.028-.122-.053-.245-.081-.367Zm1.48,1.454c0,.363-.005.726,0,1.089a1.454,1.454,0,0,0,1.481,1.477q1.1.014,2.195,0a1.462,1.462,0,0,0,1.486-1.511q.006-1.063,0-2.126a1.474,1.474,0,0,0-1.528-1.525q-1.055,0-2.109,0a1.468,1.468,0,0,0-1.527,1.523C5821.627,318.331,5821.629,318.689,5821.63,319.046Z" transform="translate(-5820.15 -305.093)" fill="#505050"/><path d="M6048.139,124.21c.061-.058.107-.1.15-.142q.753-.763,1.506-1.527a.743.743,0,1,1,1.066,1.035c-.658.674-1.308,1.357-1.987,2.008a2.164,2.164,0,0,1-3.036-.045c-.644-.639-1.277-1.288-1.911-1.936a.756.756,0,0,1-.027-1.071.72.72,0,0,1,1.066.011c.547.553,1.089,1.113,1.661,1.7v-14c-.05.048-.094.088-.135.129-.506.513-1.009,1.03-1.519,1.538a.73.73,0,0,1-1.249-.294.711.711,0,0,1,.174-.732c.662-.678,1.314-1.366,2-2.02a2.154,2.154,0,0,1,3.009.037c.655.643,1.294,1.3,1.936,1.96a.75.75,0,0,1,.012,1.071.726.726,0,0,1-1.054-.013c-.505-.506-1-1.017-1.506-1.527a.456.456,0,0,0-.156-.129Z" transform="translate(-6033.074 -108.234)" fill="#505050"/></svg>