<svg xmlns="http://www.w3.org/2000/svg" width="28" height="28" viewBox="0 0 28 28"><g transform="translate(-1572 -219.999)"><g transform="translate(891.477 -111.254)"><g transform="translate(680.524 331.253)"><path d="M694.524,359.253a14,14,0,1,1,14-14A14.016,14.016,0,0,1,694.524,359.253Zm0-25.667a11.667,11.667,0,1,0,11.667,11.667A11.68,11.68,0,0,0,694.524,333.586Z" transform="translate(-680.524 -331.253)" fill="#703be2"/></g><g transform="translate(689.814 340.543)"><path d="M691.121,350.093a1.177,1.177,0,0,1-.832-2.01l7.065-7.065a1.177,1.177,0,1,1,1.665,1.665l-7.065,7.065A1.173,1.173,0,0,1,691.121,350.093Z" transform="translate(-689.944 -340.673)" fill="#703be2"/></g><g transform="translate(689.814 340.543)"><path d="M698.186,350.093a1.173,1.173,0,0,1-.832-.345l-7.065-7.065a1.177,1.177,0,1,1,1.665-1.665l7.065,7.065a1.177,1.177,0,0,1-.833,2.01Z" transform="translate(-689.944 -340.673)" fill="#703be2"/></g></g></g></svg>