<svg xmlns="http://www.w3.org/2000/svg" width="25.055" height="22.967" viewBox="0 0 25.055 22.967"><path d="M-346.791,338.091l-11.484-10.439a1.044,1.044,0,0,0-1.4,0l-11.483,10.439a1.045,1.045,0,0,0-.272,1.149,1.045,1.045,0,0,0,.974.667h1.043v9.4a1.044,1.044,0,0,0,1.044,1.043h18.791a1.044,1.044,0,0,0,1.044-1.043v-9.4h1.043a1.043,1.043,0,0,0,.974-.667A1.043,1.043,0,0,0-346.791,338.091Zm-10.1,10.168h-4.176v-6.264h4.176Zm6.263-9.4v9.4H-354.8v-7.307a1.044,1.044,0,0,0-1.044-1.044h-6.263a1.044,1.044,0,0,0-1.044,1.044v7.307h-4.176v-9.4a1.044,1.044,0,0,0-.561-.926l8.913-8.1,8.914,8.1A1.043,1.043,0,0,0-350.625,338.863Z" transform="translate(371.504 -327.38)" fill="#b3b3b3"/></svg>