<svg xmlns="http://www.w3.org/2000/svg" width="19.103" height="22.923" viewBox="0 0 19.103 22.923"><g transform="translate(-0.001 -0.002)"><path d="M-125.252,351.72a.955.955,0,0,1-.388-.083l-8.208-3.648-8.209,3.648a.952.952,0,0,1-.908-.072.956.956,0,0,1-.434-.8V329.751a.955.955,0,0,1,.954-.954h17.193a.955.955,0,0,1,.955.954v21.013a.957.957,0,0,1-.435.8A.952.952,0,0,1-125.252,351.72Zm-8.6-5.731a.946.946,0,0,1,.387.083l7.254,3.224V330.707h-15.282V349.3l7.254-3.224A.948.948,0,0,1-133.848,345.989Z" transform="translate(143.4 -328.795)" fill="#46278a"/><g transform="translate(3.82 4.471)"><path d="M-138.565,339.125h3.82a.956.956,0,0,0,.955-.955.956.956,0,0,0-.955-.955h-3.82a.955.955,0,0,0-.955.955A.955.955,0,0,0-138.565,339.125Z" transform="translate(139.52 -333.394)" fill="#46278a"/><path d="M-128.9,337.214h-1.911a.955.955,0,0,0-.955.955.955.955,0,0,0,.955.955h1.911a.955.955,0,0,0,.954-.955A.955.955,0,0,0-128.9,337.214Z" transform="translate(139.403 -333.394)" fill="#46278a"/><path d="M-138.565,343h9.551a.955.955,0,0,0,.954-.955.955.955,0,0,0-.954-.955h-9.551a.956.956,0,0,0-.955.955A.955.955,0,0,0-138.565,343Z" transform="translate(139.52 -333.452)" fill="#46278a"/><path d="M-138.565,335.246h9.551a.955.955,0,0,0,.954-.955.955.955,0,0,0-.954-.955h-9.551a.955.955,0,0,0-.955.955A.955.955,0,0,0-138.565,335.246Z" transform="translate(139.52 -333.335)" fill="#46278a"/></g></g></svg>