<svg xmlns="http://www.w3.org/2000/svg" width="25" height="25" viewBox="0 0 25 25"><g transform="translate(-633.424 -331.253)"><g transform="translate(633.424 331.253)"><path d="M645.924,356.253a12.5,12.5,0,1,1,12.5-12.5A12.514,12.514,0,0,1,645.924,356.253Zm0-22.917a10.417,10.417,0,1,0,10.417,10.417A10.428,10.428,0,0,0,645.924,333.336Z" transform="translate(-633.424 -331.253)" fill="#9494cb"/></g><g transform="translate(640.037 342.575)"><path d="M652.264,346.56h-9.42a1.178,1.178,0,0,1,0-2.355h9.42a1.178,1.178,0,1,1,0,2.355Z" transform="translate(-641.667 -344.205)" fill="#9494cb"/></g></g></svg>