<svg xmlns="http://www.w3.org/2000/svg" width="25" height="25.001" viewBox="0 0 25 25.001"><g transform="translate(-586.325 -331.253)"><g transform="translate(586.325 331.253)"><path d="M598.825,356.254a12.5,12.5,0,1,1,12.5-12.5A12.514,12.514,0,0,1,598.825,356.254Zm0-22.918a10.417,10.417,0,1,0,10.416,10.417A10.429,10.429,0,0,0,598.825,333.336Z" transform="translate(-586.325 -331.253)" fill="#9494cb"/></g><g transform="translate(592.938 342.576)"><path d="M605.164,346.56h-9.419a1.178,1.178,0,1,1,0-2.355h9.419a1.178,1.178,0,1,1,0,2.355Z" transform="translate(-594.567 -344.205)" fill="#9494cb"/></g><g transform="translate(597.647 337.866)"><path d="M600.455,351.27a1.177,1.177,0,0,1-1.178-1.177v-9.42a1.178,1.178,0,1,1,2.355,0v9.42A1.177,1.177,0,0,1,600.455,351.27Z" transform="translate(-599.277 -339.495)" fill="#9494cb"/></g></g></svg>