<svg xmlns="http://www.w3.org/2000/svg" width="35" height="35" viewBox="0 0 35 35"><path d="M17.08,1.047l-4.171,1.9H9.778L7.389,6.078,4.44,8.886,3.353,10.8V14.02L1.268,16.673l1.217,3.472.869,2.342L2.485,24.96,5.93,27.265l1.459,1.61.934,1.262,1.456,1.131h3.131l2.343,1.088,1.828,1.262,3.776-2.35h4.959l1.48-4,2.26-1.225,1.391-1.081V21.124l1.175-1.74.824-2.711-.824-1.6-1.175-2.045V8.886L28.332,7.512H27.294l-1.48-2.84-.822-1.726-2.234.769-1.9-.769H18.783Z" transform="translate(0.42 0.348)" fill="#46278a"/><path d="M5266.94-1419.983a4.66,4.66,0,0,0,1.045,3.66c.353.5.624,1.067.933,1.6a1.3,1.3,0,0,1,0,1.393c-.6,1.037-1.2,2.071-1.79,3.116a1.441,1.441,0,0,0-.176.65q-.026,1.76,0,3.52a1.375,1.375,0,0,1-.77,1.318c-.989.556-1.972,1.119-2.941,1.706a1.871,1.871,0,0,0-.61.6c-.587.969-1.15,1.953-1.7,2.943a1.4,1.4,0,0,1-1.35.782c-1.173-.019-2.346-.012-3.52,0a1.267,1.267,0,0,0-.58.152q-1.531.86-3.045,1.757a1.456,1.456,0,0,1-1.631-.006c-.995-.6-2-1.172-3.012-1.738a1.347,1.347,0,0,0-.614-.164c-1.147-.016-2.3-.029-3.443,0a1.486,1.486,0,0,1-1.464-.859c-.547-.993-1.12-1.972-1.7-2.945a1.425,1.425,0,0,0-.472-.478q-1.493-.89-3.01-1.74a1.417,1.417,0,0,1-.8-1.381c.022-1.148.017-2.3,0-3.443a1.519,1.519,0,0,0-.182-.687q-.853-1.537-1.751-3.049a1.378,1.378,0,0,1,.005-1.527q.894-1.513,1.753-3.048a1.449,1.449,0,0,0,.174-.65c.017-1.173.021-2.347,0-3.52a1.37,1.37,0,0,1,.772-1.317q1.53-.862,3.043-1.76a1.347,1.347,0,0,0,.45-.449q.9-1.511,1.759-3.044a1.4,1.4,0,0,1,1.351-.782q1.7.029,3.4,0a1.8,1.8,0,0,0,.795-.209c1.015-.558,2.019-1.138,3.017-1.729a1.353,1.353,0,0,1,1.491,0c1.01.593,2.024,1.181,3.049,1.751a1.533,1.533,0,0,0,.686.187c1.133.019,2.269.03,3.4,0a1.489,1.489,0,0,1,1.467.857c.547.992,1.118,1.972,1.7,2.945a1.42,1.42,0,0,0,.473.477q1.51.9,3.041,1.763a1.353,1.353,0,0,1,.763,1.322C5266.926-1421.427,5266.94-1420.846,5266.94-1419.983Zm-20.806-6.9c-.542,0-1.084.011-1.625-.005a.468.468,0,0,0-.486.277c-.5.889-.991,1.78-1.533,2.641a2.616,2.616,0,0,1-.8.8c-.859.543-1.75,1.038-2.637,1.534a.5.5,0,0,0-.3.513c.017.993.038,1.987-.008,2.979a2.959,2.959,0,0,1-.315,1.2c-.469.9-1,1.773-1.519,2.649a.448.448,0,0,0,0,.524c.539.909,1.08,1.817,1.578,2.748a2.293,2.293,0,0,1,.261.987c.034,1.043.019,2.089.007,3.133a.45.45,0,0,0,.263.457c.909.51,1.822,1.018,2.708,1.567a2.292,2.292,0,0,1,.722.72c.549.886,1.061,1.8,1.57,2.708a.474.474,0,0,0,.484.281c1.031-.012,2.064-.03,3.093.008a2.515,2.515,0,0,1,1.056.286c.91.483,1.8,1.013,2.681,1.54a.473.473,0,0,0,.558,0c.874-.52,1.747-1.047,2.646-1.521a2.733,2.733,0,0,1,1.127-.307c1.016-.042,2.036-.022,3.055-.009a.477.477,0,0,0,.486-.279c.516-.922,1.035-1.842,1.586-2.743a2.009,2.009,0,0,1,.64-.641c.912-.558,1.842-1.085,2.775-1.609a.447.447,0,0,0,.26-.457c-.01-1.006-.034-2.013.01-3.018a2.99,2.99,0,0,1,.317-1.2c.469-.9,1-1.773,1.517-2.649a.45.45,0,0,0,0-.525c-.539-.909-1.08-1.817-1.579-2.748a2.33,2.33,0,0,1-.261-.986c-.033-1.031-.02-2.063-.006-3.095a.5.5,0,0,0-.292-.518c-.89-.493-1.779-.99-2.641-1.529a2.5,2.5,0,0,1-.776-.769c-.548-.873-1.048-1.775-1.552-2.675a.478.478,0,0,0-.484-.282c-1.044.013-2.09.027-3.133-.007a2.315,2.315,0,0,1-.983-.268c-.93-.5-1.832-1.052-2.755-1.563a.589.589,0,0,0-.475,0,13.183,13.183,0,0,0-1.473.847A4.839,4.839,0,0,1,5246.134-1426.885Z" transform="translate(-5234.119 1431.533)" fill="#46278a"/><path d="M5331.724-1330.219a3.713,3.713,0,0,1-3.707-3.713,3.728,3.728,0,0,1,3.712-3.714,3.706,3.706,0,0,1,3.7,3.719A3.7,3.7,0,0,1,5331.724-1330.219Zm1.234-3.7a1.24,1.24,0,0,0-1.207-1.253,1.262,1.262,0,0,0-1.264,1.245,1.227,1.227,0,0,0,1.236,1.22A1.208,1.208,0,0,0,5332.958-1333.922Z" transform="translate(-5318.317 1347.351)" fill="#fff"/><path d="M5410.894-1258.53a3.712,3.712,0,0,1,3.71,3.718,3.735,3.735,0,0,1-3.73,3.709,3.718,3.718,0,0,1-3.682-3.709A3.692,3.692,0,0,1,5410.894-1258.53Zm-1.23,3.726a1.2,1.2,0,0,0,1.243,1.2,1.225,1.225,0,0,0,1.229-1.225,1.244,1.244,0,0,0-1.274-1.223A1.219,1.219,0,0,0,5409.664-1254.8Z" transform="translate(-5389.313 1276.414)" fill="#fff"/><path d="M5367.2-1306.774a3.9,3.9,0,0,1-.478.842q-3.455,3.49-6.942,6.948a1.232,1.232,0,0,1-1.769.041,1.251,1.251,0,0,1,.038-1.8q3.454-3.463,6.919-6.916a1.222,1.222,0,0,1,1.416-.3A1.433,1.433,0,0,1,5367.2-1306.774Z" transform="translate(-5344.886 1320.831)" fill="#fff"/></svg>