<svg xmlns="http://www.w3.org/2000/svg" width="40" height="40" viewBox="0 0 40 40"><g transform="translate(0 0.293)"><g transform="translate(0 -0.293)" fill="none" stroke="#bc9dff" stroke-width="1"><rect width="40" height="40" rx="20" stroke="none"/><rect x="0.5" y="0.5" width="39" height="39" rx="19.5" fill="none"/></g><g transform="translate(11.2 12.741)"><path d="M659.9,489.675a.734.734,0,0,1-.392-.113c-3.147-1.981-8.425-5.937-8.425-10.174a4.781,4.781,0,0,1,4.776-4.776A5.353,5.353,0,0,1,659.9,476.5a5.351,5.351,0,0,1,4.041-1.888,4.781,4.781,0,0,1,4.776,4.776c0,4.236-5.278,8.192-8.425,10.174A.733.733,0,0,1,659.9,489.675Zm-4.042-13.593a3.31,3.31,0,0,0-3.306,3.307c0,2.509,2.671,5.659,7.348,8.68,4.676-3.021,7.347-6.171,7.347-8.68a3.31,3.31,0,0,0-3.306-3.307,3.693,3.693,0,0,0-3.357,2.1.734.734,0,0,1-.684.468h0a.735.735,0,0,1-.684-.468A3.693,3.693,0,0,0,655.862,476.082Z" transform="translate(-651.087 -474.612)" fill="#fff"/></g></g></svg>