<svg xmlns="http://www.w3.org/2000/svg" xmlns:xlink="http://www.w3.org/1999/xlink" width="78" height="78" viewBox="0 0 78 78"><defs><filter id="a" x="0" y="0" width="78" height="78" filterUnits="userSpaceOnUse"><feOffset dy="3" input="SourceAlpha"/><feGaussianBlur stdDeviation="3" result="b"/><feFlood flood-opacity="0.161"/><feComposite operator="in" in2="b"/><feComposite in="SourceGraphic"/></filter></defs><g transform="translate(9.451 6)"><g transform="translate(0 0)"><g transform="matrix(1, 0, 0, 1, -9.45, -6)" filter="url(#a)"><circle cx="30" cy="30" r="30" transform="translate(9 6)" fill="#46278a"/></g><path d="M731.854,51.181a3.937,3.937,0,0,0-3.669,4.188c0,.058.022.111.028.168l-11.856,4.09a3.944,3.944,0,1,0-.615,5.354l7.518,4.712a4.02,4.02,0,0,0-.083.8,3.967,3.967,0,1,0,1.28-2.888l-7.435-4.659a3.884,3.884,0,0,0,.135-.966c0-.03-.008-.056-.008-.085l12.057-4.16a3.931,3.931,0,1,0,2.65-6.557Z" transform="translate(-692.869 -32.472)" fill="#bc9dfc"/></g></g></svg>