<svg xmlns="http://www.w3.org/2000/svg" xmlns:xlink="http://www.w3.org/1999/xlink" width="78" height="78" viewBox="0 0 78 78"><defs><filter id="a" x="0" y="0" width="78" height="78" filterUnits="userSpaceOnUse"><feOffset dy="3" input="SourceAlpha"/><feGaussianBlur stdDeviation="3" result="b"/><feFlood flood-opacity="0.161"/><feComposite operator="in" in2="b"/><feComposite in="SourceGraphic"/></filter></defs><g transform="translate(8.738 6)"><g transform="translate(0 0)"><g transform="matrix(1, 0, 0, 1, -8.74, -6)" filter="url(#a)"><circle cx="30" cy="30" r="30" transform="translate(9 6)" fill="#46278a"/></g><path d="M666.851,501.543a1.312,1.312,0,0,1-.7-.2c-5.626-3.542-15.064-10.616-15.064-18.19a8.549,8.549,0,0,1,8.538-8.539,9.571,9.571,0,0,1,7.226,3.375,9.567,9.567,0,0,1,7.225-3.375,8.549,8.549,0,0,1,8.538,8.539c0,7.573-9.437,14.648-15.064,18.19A1.311,1.311,0,0,1,666.851,501.543Zm-7.226-24.3a5.918,5.918,0,0,0-5.911,5.912c0,4.486,4.776,10.118,13.137,15.52,8.36-5.4,13.136-11.034,13.136-15.52a5.917,5.917,0,0,0-5.911-5.912,6.6,6.6,0,0,0-6,3.762,1.312,1.312,0,0,1-1.223.837h0a1.314,1.314,0,0,1-1.224-.837A6.6,6.6,0,0,0,659.625,477.239Z" transform="translate(-636.42 -457.152)" fill="#bc9dfc"/></g></g></svg>