<svg xmlns="http://www.w3.org/2000/svg" xmlns:xlink="http://www.w3.org/1999/xlink" width="78" height="78" viewBox="0 0 78 78"><defs><filter id="a" x="0" y="0" width="78" height="78" filterUnits="userSpaceOnUse"><feOffset dy="3" input="SourceAlpha"/><feGaussianBlur stdDeviation="3" result="b"/><feFlood flood-opacity="0.161"/><feComposite operator="in" in2="b"/><feComposite in="SourceGraphic"/></filter></defs><g transform="translate(9 6)"><g transform="matrix(1, 0, 0, 1, -9, -6)" filter="url(#a)"><circle cx="30" cy="30" r="30" transform="translate(9 6)" fill="#46278a" opacity="0.997"/></g><g transform="translate(11.552 14.584)"><g transform="translate(0 0)"><path d="M288.462,65.47c.039,0,.076.005.114.005a1.283,1.283,0,0,0,1.277-1.172l.628-7.165a1.284,1.284,0,0,0-2.557-.224l-.627,7.165A1.283,1.283,0,0,0,288.462,65.47Z" transform="translate(-273.94 -47.816)" fill="#bc9dfc"/><path d="M292.665,65.47c.038,0,.075.005.113.005a1.285,1.285,0,0,0,1.278-1.172l.626-7.165a1.283,1.283,0,1,0-2.557-.224l-.628,7.165A1.284,1.284,0,0,0,292.665,65.47Z" transform="translate(-273.825 -47.816)" fill="#bc9dfc"/><path d="M296.866,65.47c.038,0,.076.005.114.005a1.283,1.283,0,0,0,1.277-1.172l.627-7.165a1.284,1.284,0,0,0-2.558-.224l-.626,7.165A1.283,1.283,0,0,0,296.866,65.47Z" transform="translate(-273.714 -47.816)" fill="#bc9dfc"/><path d="M301.068,65.47c.039,0,.076.005.114.005a1.283,1.283,0,0,0,1.276-1.172l.628-7.165a1.284,1.284,0,0,0-2.557-.224l-.628,7.165A1.284,1.284,0,0,0,301.068,65.47Z" transform="translate(-273.599 -47.816)" fill="#bc9dfc"/><path d="M305.45,68.818a4.206,4.206,0,0,0,3.445-3.745L309.928,54.9a2.8,2.8,0,0,0-.7-2.146,2.7,2.7,0,0,0-1.978-.9l-25.493-.205-.624-2.635a1.282,1.282,0,0,0-1.249-.988h-4.315a1.284,1.284,0,0,0,0,2.567h3.3L284.2,73.1a4.149,4.149,0,1,0,6.1,4.824h10.107a4.161,4.161,0,1,0,0-2.567H290.3a4.142,4.142,0,0,0-3.6-2.843l-.129-.549Zm1.87-14.352a.22.22,0,0,1,.052.174l-1.033,10.173a1.632,1.632,0,0,1-1.314,1.473L285.98,69.46l-3.609-15.237Zm-2.977,20.58a1.593,1.593,0,1,1-1.594,1.594A1.6,1.6,0,0,1,304.343,75.046ZM287.954,76.64a1.593,1.593,0,1,1-1.593-1.594A1.594,1.594,0,0,1,287.954,76.64Z" transform="translate(-274.289 -48.025)" fill="#bc9dfc"/></g></g></g></svg>