<svg xmlns="http://www.w3.org/2000/svg" width="30" height="30" viewBox="0 0 30 30"><g transform="translate(-633.424 -142.854)"><path d="M650.924,142.854a12.491,12.491,0,0,0-9.673,20.406l-7.461,7.461a1.25,1.25,0,1,0,1.768,1.768l7.461-7.461a12.5,12.5,0,1,0,7.905-22.173Zm0,22.5a9.968,9.968,0,0,1-7.063-2.928l0-.005-.005,0a9.995,9.995,0,1,1,7.072,2.937Z" transform="translate(0)" fill="#fff"/><path d="M651.706,152.157h-2.561V149.6a.854.854,0,0,0-1.708,0v2.562h-2.562a.854.854,0,0,0,0,1.708h2.562v2.561a.854.854,0,1,0,1.708,0v-2.561h2.561a.854.854,0,1,0,0-1.708Z" transform="translate(3.199 1.777)" fill="#fff"/></g></svg>