<svg xmlns="http://www.w3.org/2000/svg" xmlns:xlink="http://www.w3.org/1999/xlink" width="58" height="58" viewBox="0 0 58 58"><defs><filter id="a" x="0" y="0" width="58" height="58" filterUnits="userSpaceOnUse"><feOffset dy="3" input="SourceAlpha"/><feGaussianBlur stdDeviation="3" result="b"/><feFlood flood-opacity="0.161"/><feComposite operator="in" in2="b"/><feComposite in="SourceGraphic"/></filter></defs><g transform="translate(12.588 10.182)"><g transform="matrix(1, 0, 0, 1, -12.59, -10.18)" filter="url(#a)"><circle cx="20" cy="20" r="20" transform="translate(9 6)" fill="#fff"/></g><path d="M15.259,11.243A4.009,4.009,0,0,0,12.1,12.782l-4.208-2.1a4.006,4.006,0,0,0,0-2.082l4.208-2.1a4,4,0,1,0-.721-1.436L7.173,7.16a4.015,4.015,0,1,0,0,4.953l4.208,2.1a4.015,4.015,0,1,0,3.878-2.974m0-9.637a2.409,2.409,0,1,1-2.139,3.515c0-.01-.008-.02-.013-.03s-.014-.025-.021-.037a2.409,2.409,0,0,1,2.174-3.448M4.015,12.046a2.41,2.41,0,1,1,2.166-1.355l-.013.022-.007.015a2.411,2.411,0,0,1-2.146,1.317m11.243,5.622A2.409,2.409,0,0,1,13.09,14.21c.005-.009.012-.018.016-.028s.009-.02.013-.03a2.409,2.409,0,1,1,2.139,3.515" transform="translate(6.412 5.819)" fill="#909090"/></g></svg>