<svg xmlns="http://www.w3.org/2000/svg" width="115.957" height="115.953" viewBox="0 0 115.957 115.953"><path d="M551.135,107.823a57.978,57.978,0,1,0-95.317,44.286c.037.041.082.07.123.111a57.78,57.78,0,0,0,74.432,0c.041-.041.086-.07.123-.111A57.845,57.845,0,0,0,551.135,107.823Zm-106.294,0A48.315,48.315,0,1,1,530.5,138.45c-2.827-13.2-10.2-22.756-20.963-27.409a24.158,24.158,0,1,0-32.748,0c-10.759,4.653-18.136,14.205-20.963,27.409A48.081,48.081,0,0,1,444.841,107.823Zm33.823-14.493a14.495,14.495,0,1,1,14.492,14.493A14.506,14.506,0,0,1,478.664,93.331Zm-14.283,53.21c1.485-18.489,11.854-29.051,28.776-29.051s27.291,10.562,28.78,29.051a47.944,47.944,0,0,1-57.556,0Z" transform="translate(-435.178 -49.849)" fill="#703be2"/></svg>