<svg xmlns="http://www.w3.org/2000/svg" width="25.001" height="24.849" viewBox="0 0 25.001 24.849"><g transform="translate(0 0)"><path d="M-2810.718,723.818a12.5,12.5,0,0,0-12.5,12.5,12.5,12.5,0,0,0,10.547,12.348v-8.735h-3.174v-3.613h3.174v-2.754c0-3.133,1.866-4.863,4.722-4.863a19.221,19.221,0,0,1,2.8.244v3.076h-1.576a1.807,1.807,0,0,0-2.037,1.952v2.345h3.467l-.554,3.613h-2.913v8.735a12.5,12.5,0,0,0,10.547-12.348A12.5,12.5,0,0,0-2810.718,723.818Z" transform="translate(2823.218 -723.818)" fill="#8f9096"/></g></svg>