<svg xmlns="http://www.w3.org/2000/svg" width="23.859" height="23.908" viewBox="0 0 23.859 23.908"><g transform="translate(-7243.626 987.629)"><path d="M7254.9-963.721c-.466-.066-.936-.115-1.4-.193a11.927,11.927,0,0,1-9.6-9.216,11.831,11.831,0,0,1,5.913-12.975,11.67,11.67,0,0,1,12,.284c.06.035.116.076.2.131l-.747,1.157a10.46,10.46,0,0,0-9.276-1.034,10.168,10.168,0,0,0-5.717,4.936,10.54,10.54,0,0,0,3.4,13.708,10.6,10.6,0,0,0,13.741-1.714,10.5,10.5,0,0,0,1.02-12.644l-.181,1.013a.7.7,0,0,1-.807.565h0a.7.7,0,0,1-.567-.808c.169-.969.338-1.936.51-2.916a.423.423,0,0,1,.488-.344h0c.775.135,2.12.38,2.938.531a.69.69,0,0,1,.551.821h0a.69.69,0,0,1-.792.539l-.921-.157c.049.087.071.127.095.166a11.779,11.779,0,0,1,1.571,4.224c.07.427.116.857.174,1.286v1.445c-.013.06-.03.12-.039.18-.081.552-.132,1.11-.245,1.655a11.931,11.931,0,0,1-9.567,9.165c-.462.075-.929.128-1.394.192Z" fill="#46278a"/><path d="M7347.8-913.508c.152-2.8.3-5.6.457-8.414a.768.768,0,0,1,.766-.726h1.626c0-.423,0-.817,0-1.21a2.528,2.528,0,0,1,1.429-2.382,2.583,2.583,0,0,1,3.754,2.383c.005.394,0,.787,0,1.2h1.625a.767.767,0,0,1,.766.726c.153,2.812.305,5.613.458,8.421a1.378,1.378,0,0,1-1.375,1.453h-8.133A1.377,1.377,0,0,1,7347.8-913.508Zm9.446-.693c-.123-2.266-.246-4.521-.369-6.783a.268.268,0,0,0-.268-.253h-6.735a.268.268,0,0,0-.268.254c-.124,2.266-.246,4.521-.369,6.783a.708.708,0,0,0,.707.746h6.6A.708.708,0,0,0,7357.247-914.2Zm-2.843-8.464a13.88,13.88,0,0,0-.012-1.537,1.137,1.137,0,0,0-1.15-.925,1.139,1.139,0,0,0-1.148.927,13.962,13.962,0,0,0-.012,1.535Z" transform="translate(-97.687 -57.293)" fill="#46278a"/><rect width="4.284" height="1.37" rx="0.685" transform="translate(7253.414 -975.326)" fill="#46278a"/></g></svg>