<svg xmlns="http://www.w3.org/2000/svg" width="20" height="22" viewBox="0 0 20 22"><g transform="translate(-299 -428)"><rect width="14" height="18" rx="3" transform="translate(299 428)" fill="#fff"/><path d="M3,2A1,1,0,0,0,2,3V15a1,1,0,0,0,1,1h8a1,1,0,0,0,1-1V3a1,1,0,0,0-1-1H3M3,0h8a3,3,0,0,1,3,3V15a3,3,0,0,1-3,3H3a3,3,0,0,1-3-3V3A3,3,0,0,1,3,0Z" transform="translate(299 428)" fill="#46278a"/><rect width="14" height="18" rx="3" transform="translate(305 432)" fill="#fff"/><path d="M3,2A1,1,0,0,0,2,3V15a1,1,0,0,0,1,1h8a1,1,0,0,0,1-1V3a1,1,0,0,0-1-1H3M3,0h8a3,3,0,0,1,3,3V15a3,3,0,0,1-3,3H3a3,3,0,0,1-3-3V3A3,3,0,0,1,3,0Z" transform="translate(305 432)" fill="#46278a"/></g></svg>