<svg xmlns="http://www.w3.org/2000/svg" width="27.078" height="24.893" viewBox="0 0 27.078 24.893"><g transform="translate(0)"><path d="M288.18,63.13c.03,0,.058,0,.087,0a.974.974,0,0,0,.97-.89l.477-5.442a.975.975,0,1,0-1.942-.17l-.477,5.442A.975.975,0,0,0,288.18,63.13Z" transform="translate(-277.149 -49.723)" fill="#fff"/><path d="M292.383,63.13c.029,0,.057,0,.086,0a.976.976,0,0,0,.97-.89l.476-5.442a.975.975,0,1,0-1.942-.17l-.477,5.442A.975.975,0,0,0,292.383,63.13Z" transform="translate(-278.074 -49.723)" fill="#fff"/><path d="M296.584,63.13c.029,0,.058,0,.087,0a.974.974,0,0,0,.97-.89l.477-5.442a.975.975,0,0,0-1.943-.17l-.476,5.442A.975.975,0,0,0,296.584,63.13Z" transform="translate(-278.998 -49.723)" fill="#fff"/><path d="M300.786,63.13c.03,0,.058,0,.087,0a.974.974,0,0,0,.969-.89l.477-5.442a.975.975,0,0,0-1.942-.17l-.477,5.442A.975.975,0,0,0,300.786,63.13Z" transform="translate(-279.923 -49.723)" fill="#fff"/><path d="M297.956,63.818a3.194,3.194,0,0,0,2.616-2.845l.785-7.727a2.126,2.126,0,0,0-.528-1.63,2.048,2.048,0,0,0-1.5-.683l-19.362-.156-.474-2a.974.974,0,0,0-.948-.75h-3.278a.975.975,0,0,0,0,1.95h2.507l4.048,17.094a3.151,3.151,0,1,0,4.629,3.664h7.676a3.161,3.161,0,1,0,0-1.95h-7.676a3.146,3.146,0,0,0-2.731-2.159l-.1-.417Zm1.42-10.9a.167.167,0,0,1,.04.132l-.785,7.727a1.24,1.24,0,0,1-1,1.119l-14.465,2.411-2.741-11.573Zm-2.261,15.63a1.21,1.21,0,1,1-1.211,1.211A1.212,1.212,0,0,1,297.115,68.548Zm-12.447,1.211a1.21,1.21,0,1,1-1.21-1.211A1.211,1.211,0,0,1,284.668,69.758Z" transform="translate(-274.289 -48.025)" fill="#fff"/></g></svg>