<svg xmlns="http://www.w3.org/2000/svg" width="21" height="21" viewBox="0 0 21 21"><g transform="translate(-899.008 -564.227)"><circle cx="7.5" cy="7.5" r="7.5" transform="translate(902.008 567.227)" fill="#fff"/><path d="M7.5,0A7.5,7.5,0,1,0,15,7.5,7.5,7.5,0,0,0,7.5,0m0-3A10.5,10.5,0,1,1-3,7.5,10.512,10.512,0,0,1,7.5-3Z" transform="translate(902.008 567.227)" fill="#7b59d8"/><path d="M930.031,580.433a1.25,1.25,0,0,1-.818-.3l-3.219-2.784a1.25,1.25,0,0,1,1.635-1.891l2.25,1.946,3.719-4.517a1.25,1.25,0,1,1,1.93,1.589L931,579.977a1.25,1.25,0,0,1-.86.451Q930.084,580.433,930.031,580.433Z" transform="translate(-20.958 -1.685)" fill="#7b59d8"/></g></svg>