<svg xmlns="http://www.w3.org/2000/svg" width="20" height="20" viewBox="0 0 20 20"><g transform="translate(-897.008 -566.487)"><g transform="translate(897.008 566.487)"><path d="M907.008,586.487a10,10,0,1,1,10-10A10.011,10.011,0,0,1,907.008,586.487Zm0-18.333a8.333,8.333,0,1,0,8.333,8.333A8.343,8.343,0,0,0,907.008,568.154Z" transform="translate(-897.008 -566.487)" fill="#46278a"/></g><g transform="translate(902.008 573.154)"><path d="M908.239,582.574a.831.831,0,0,1-.589-.244L904.317,579a.833.833,0,0,1,1.178-1.178l2.744,2.744,4.411-4.41a.833.833,0,0,1,1.178,1.178l-5,5A.83.83,0,0,1,908.239,582.574Z" transform="translate(-904.073 -575.907)" fill="#46278a"/></g></g></svg>