<svg xmlns="http://www.w3.org/2000/svg" width="20.179" height="16.427" viewBox="0 0 20.179 16.427"><path d="M4259.064-887.711v9.813a.228.228,0,0,0-.028.05,2.212,2.212,0,0,1-2.321,1.9q-7.742,0-15.485,0a2.742,2.742,0,0,1-.491-.033,2.217,2.217,0,0,1-1.852-2.241q-.005-4.541,0-9.082a2.227,2.227,0,0,1,2.334-2.342c.8,0,1.6,0,2.4,0h.234c0-.236,0-.451,0-.666a1.963,1.963,0,0,1,2.052-2.059q3.064-.005,6.127,0a2.174,2.174,0,0,1,.564.061,1.956,1.956,0,0,1,1.489,1.956c0,.228,0,.456,0,.706h.254c.867,0,1.734-.011,2.6.01a2.2,2.2,0,0,1,2.029,1.594C4259.008-887.937,4259.035-887.824,4259.064-887.711Zm-10.088,9.837a4.946,4.946,0,0,0,4.925-4.929,4.939,4.939,0,0,0-4.927-4.925,4.94,4.94,0,0,0-4.926,4.926A4.947,4.947,0,0,0,4248.977-877.874Z" transform="translate(-4238.886 892.378)" fill="#fff"/><path d="M4387.387-757.8a3.259,3.259,0,0,1-3.267,3.247,3.261,3.261,0,0,1-3.24-3.256,3.263,3.263,0,0,1,3.268-3.249A3.264,3.264,0,0,1,4387.387-757.8Z" transform="translate(-4374.043 767.384)" fill="#fff"/></svg>