<svg xmlns="http://www.w3.org/2000/svg" width="23.549" height="28.26" viewBox="0 0 23.549 28.26"><g transform="translate(-164.783 -142.854)"><path d="M187.155,171.114H165.96a1.177,1.177,0,0,1-1.177-1.178V151.1a1.177,1.177,0,0,1,1.177-1.178h21.195a1.177,1.177,0,0,1,1.177,1.178v18.839A1.177,1.177,0,0,1,187.155,171.114Zm-20.017-2.355h18.839V152.274H167.138Z" fill="#fff"/><path d="M182.445,154.629a1.177,1.177,0,0,1-1.177-1.177v-4.71a3.537,3.537,0,0,0-3.533-3.533H175.38a3.536,3.536,0,0,0-3.532,3.533v4.71a1.178,1.178,0,0,1-2.355,0v-4.71a5.894,5.894,0,0,1,5.887-5.888h2.355a5.9,5.9,0,0,1,5.888,5.888v4.71A1.178,1.178,0,0,1,182.445,154.629Z" fill="#fff"/><path d="M175.616,164.52a1.173,1.173,0,0,1-.833-.345l-3.768-3.768a1.177,1.177,0,1,1,1.665-1.665l2.936,2.935,4.819-4.819a1.177,1.177,0,0,1,1.665,1.665l-5.652,5.652A1.173,1.173,0,0,1,175.616,164.52Z" fill="#fff"/></g></svg>