<svg xmlns="http://www.w3.org/2000/svg" width="20.646" height="20.646" viewBox="0 0 20.646 20.646"><g transform="translate(-1434.177 -499.177)"><text transform="translate(1442.999 513.5)" fill="#9494cb" font-size="12" font-family="Nunito-Regular, Nunito"><tspan x="0" y="0">i</tspan></text><path d="M1.392.56A1,1,0,0,1,.7.3.944.944,0,0,1,.4-.42V-5.484a.944.944,0,0,1,.3-.723,1,1,0,0,1,.691-.257.981.981,0,0,1,.693.264.954.954,0,0,1,.287.716V-.42a.945.945,0,0,1-.3.73A.991.991,0,0,1,1.392.56Zm0-7.284a1.16,1.16,0,0,1-.809-.3,1.077,1.077,0,0,1-.339-.81,1.063,1.063,0,0,1,.339-.8,1.16,1.16,0,0,1,.809-.3,1.16,1.16,0,0,1,.809.3,1.063,1.063,0,0,1,.339.8,1.077,1.077,0,0,1-.339.81A1.16,1.16,0,0,1,1.392-6.724Z" transform="translate(1442.999 513.5)" fill="#9494cb"/><g transform="translate(1434.177 499.177)"><path d="M907.331,587.133a10.323,10.323,0,1,1,10.323-10.323A10.335,10.335,0,0,1,907.331,587.133Zm0-18.926a8.6,8.6,0,1,0,8.6,8.6A8.612,8.612,0,0,0,907.331,568.208Z" transform="translate(-897.008 -566.487)" fill="#9494cb"/></g></g></svg>