<svg xmlns="http://www.w3.org/2000/svg" xmlns:xlink="http://www.w3.org/1999/xlink" width="40.5" height="54" viewBox="0 0 40.5 54"><defs><linearGradient id="a" x1="0.388" y1="0.95" x2="0.63" y2="-0.021" gradientUnits="objectBoundingBox"><stop offset="0" stop-color="#ff1d53"/><stop offset="1" stop-color="#ff6a00"/></linearGradient></defs><g transform="translate(-1493.981 639.513)"><path d="M1509.731-585.513a2.247,2.247,0,0,1-.766-.135,2.25,2.25,0,0,1-1.484-2.115v-20.25h-11.25a2.25,2.25,0,0,1-2.037-1.3,2.25,2.25,0,0,1,.309-2.395l22.5-27a2.25,2.25,0,0,1,2.495-.675,2.25,2.25,0,0,1,1.484,2.116v20.25h11.25a2.25,2.25,0,0,1,2.038,1.3,2.25,2.25,0,0,1-.309,2.4l-22.5,27A2.25,2.25,0,0,1,1509.731-585.513Zm-8.7-27h8.7a2.25,2.25,0,0,1,2.25,2.25v16.285l15.446-18.535h-8.7a2.25,2.25,0,0,1-2.25-2.25v-16.285Z" fill="url(#a)"/></g></svg>