<svg xmlns="http://www.w3.org/2000/svg" width="15.344" height="20.458" viewBox="0 0 15.344 20.458"><g transform="translate(-1081 -535)"><path d="M689.331,49.831H675.693a.852.852,0,0,0-.852.853V57.5a.853.853,0,0,0,.249.6l4.865,4.865v6.466a.853.853,0,0,0,1.234.762l3.409-1.705a.854.854,0,0,0,.472-.762V62.97l4.864-4.865a.851.851,0,0,0,.25-.6V50.684A.852.852,0,0,0,689.331,49.831Zm-.852,1.7V53.24H676.545V51.535Zm-4.865,10.479a.851.851,0,0,0-.25.6V67.2l-1.705.853v-5.44a.854.854,0,0,0-.249-.6l-4.865-4.865v-2.2h11.934v2.2Z" transform="translate(406.16 485.169)" fill="#9494cb"/></g></svg>