<svg xmlns="http://www.w3.org/2000/svg" width="16.113" height="14.502" viewBox="0 0 16.113 14.502"><path d="M376.233,508.419h12.89V506H386.2a2.552,2.552,0,0,1-2.369-1.386,2.694,2.694,0,0,1-.353-1.335v-.2a2.7,2.7,0,0,1,.355-1.339,2.543,2.543,0,0,1,2.328-1.382h2.956v-2.417h-12.89v10.472Zm10.07-6.444a1.208,1.208,0,1,1-.854.354,1.2,1.2,0,0,1,.854-.354Zm.285.923a.4.4,0,1,0,.118.285.4.4,0,0,0-.118-.285Zm3.776-1.729H386.2l-.074,0a1.909,1.909,0,0,0-1.279.56,1.931,1.931,0,0,0-.318.42,1.976,1.976,0,0,0-.085.188,2.4,2.4,0,0,0,0,1.688c.024.062.051.122.081.18l0,.006a1.916,1.916,0,0,0,1.6.981l.05,0h4.184a.368.368,0,0,0,.37-.37v-3.288a.368.368,0,0,0-.37-.37Zm-.436-.806h.436a1.182,1.182,0,0,1,1.176,1.175v3.288A1.181,1.181,0,0,1,390.364,506h-.436v2.857a.366.366,0,0,1-.365.366H375.793a.366.366,0,0,1-.366-.366V497.544h0v-2.455a.366.366,0,0,1,.366-.366h12.16a.366.366,0,0,1,.365.366v2.052h1.246a.366.366,0,0,1,.365.366v2.857Zm-13.7-3.223h11.278v-1.612H376.233v1.612Z" transform="translate(-375.427 -494.723)" fill="#9494cb"/></svg>