<svg xmlns="http://www.w3.org/2000/svg" width="25.804" height="26.93" viewBox="0 0 25.804 26.93"><path d="M-3817.1-5379.87a4.107,4.107,0,0,1-.484-.216,1.16,1.16,0,0,1-.532-1.1,12.436,12.436,0,0,1,3.083-8.169,12.289,12.289,0,0,1,4.561-3.318c.053-.023.1-.049.187-.089a7.672,7.672,0,0,1-3.149-7.46,7.447,7.447,0,0,1,2.931-4.979,7.649,7.649,0,0,1,10.424,1,7.762,7.762,0,0,1-1.163,11.339c.505.233,1.013.464,1.516.7.179.084.352.186.522.288a1.184,1.184,0,0,1,.533,1.73,1.177,1.177,0,0,1-1.765.367,10.069,10.069,0,0,0-3.292-1.277,10.044,10.044,0,0,0-11.707,7.688,11.718,11.718,0,0,0-.236,1.95c-.047.97-.165,1.188-1.031,1.541Zm6-19.215a5.256,5.256,0,0,0,5.236,5.3,5.254,5.254,0,0,0,5.3-5.231,5.271,5.271,0,0,0-5.223-5.345A5.265,5.265,0,0,0-3811.1-5399.085Z" transform="translate(3818.115 5406.8)" fill="#bc9dfc"/><path d="M-3526.982-5103.587c-.335.862-.574,1.027-1.5,1.027h-2.149c0,.809,0,1.586,0,2.363a1.174,1.174,0,0,1-.737,1.174,1.206,1.206,0,0,1-1.691-1.132c-.011-.789,0-1.578,0-2.4h-.742c-.569,0-1.138,0-1.705,0a1.166,1.166,0,0,1-1.243-1.135,1.163,1.163,0,0,1,1.068-1.278c.592-.056,1.192-.025,1.788-.031.263,0,.527,0,.834,0v-.319c0-.692,0-1.385,0-2.082a1.216,1.216,0,0,1,1.2-1.261,1.214,1.214,0,0,1,1.234,1.251c.01.79,0,1.578,0,2.41h2.134c.931,0,1.185.171,1.514,1.017Z" transform="translate(3552.786 5125.721)" fill="#bc9dfc"/></svg>
