<svg xmlns="http://www.w3.org/2000/svg" width="21.755" height="26.106" viewBox="0 0 21.755 26.106"><g transform="translate(-353.181 -331.253)"><g transform="translate(353.181 331.253)"><path d="M367.03,357.359H356.377a3.234,3.234,0,0,1-3.2-3.264V334.516a3.234,3.234,0,0,1,3.2-3.263H367.03a3.233,3.233,0,0,1,3.2,3.263,1.066,1.066,0,1,1-2.131,0,1.077,1.077,0,0,0-1.065-1.087H356.377a1.078,1.078,0,0,0-1.066,1.087v19.579a1.079,1.079,0,0,0,1.066,1.088H367.03a1.078,1.078,0,0,0,1.065-1.088,1.066,1.066,0,1,1,2.131,0A3.234,3.234,0,0,1,367.03,357.359Z" transform="translate(-353.181 -331.253)" fill="#bc9dff"/></g><g transform="translate(367.871 338.419)"><path d="M370.844,351.27a1.177,1.177,0,0,1-.833-2.01l3.877-3.877-3.877-3.877a1.178,1.178,0,0,1,1.665-1.666l4.7,4.7a1.194,1.194,0,0,1,.159.192,1.176,1.176,0,0,1-.146,1.487l-4.71,4.71A1.173,1.173,0,0,1,370.844,351.27Z" transform="translate(-369.666 -339.496)" fill="#bc9dff"/></g><g transform="translate(360.806 343.128)"><path d="M363.779,346.56a1.178,1.178,0,1,1,0-2.355h11.775a1.178,1.178,0,0,1,0,2.355Z" transform="translate(-362.601 -344.205)" fill="#bc9dff"/></g></g></svg>