<svg xmlns="http://www.w3.org/2000/svg" width="24.005" height="18.373" viewBox="0 0 24.005 18.373"><g transform="translate(-7256.374 1538.515)"><path d="M7280.379-1532.467a7.207,7.207,0,0,1-.348,1.082,3.3,3.3,0,0,1-2.854,1.908c-.132.011-.266.008-.4.008q-6.8,0-13.591,0a.425.425,0,0,0-.393.185c-.183.253-.385.492-.582.734a1.294,1.294,0,0,1-2.137-.026c-.038-.049-.079-.1-.112-.15a2.006,2.006,0,0,0-1.241-.933,3.26,3.26,0,0,1-2.344-3.179c-.008-.726,0-1.453,0-2.179a3.382,3.382,0,0,1,3.486-3.492q6.667,0,13.333,0,1.839,0,3.679,0a3.372,3.372,0,0,1,3.466,2.917.359.359,0,0,0,.037.083Zm-19.223,2.982c.278-.347.543-.655.782-.982a.967.967,0,0,1,.86-.414q5.975.013,11.95.005c.727,0,1.453.006,2.179,0a1.944,1.944,0,0,0,2.027-1.854c.049-.84.024-1.687,0-2.529a1.831,1.831,0,0,0-.2-.737,1.961,1.961,0,0,0-1.907-1.11h-16.941c-.046,0-.094,0-.141,0a1.981,1.981,0,0,0-1.984,2.03c-.007.687,0,1.375,0,2.062a1.981,1.981,0,0,0,1.948,2.134.84.84,0,0,1,.648.362C7260.627-1530.18,7260.883-1529.847,7261.156-1529.485Z" transform="translate(0)" fill="#46278a"/><path d="M7260.964-1344.639c.078-.453.163-.992.266-1.528a.445.445,0,0,0-.148-.472c-.359-.325-.7-.672-1.046-1.009a.719.719,0,0,1-.238-.8.746.746,0,0,1,.682-.487q.766-.1,1.528-.23a.348.348,0,0,0,.219-.161c.242-.463.472-.933.7-1.4a.721.721,0,0,1,.667-.47.729.729,0,0,1,.687.478c.225.463.447.928.686,1.384a.375.375,0,0,0,.236.173c.507.088,1.018.162,1.528.23a.735.735,0,0,1,.676.495.731.731,0,0,1-.248.8c-.367.351-.726.711-1.094,1.061a.313.313,0,0,0-.106.327c.1.513.177,1.03.267,1.546a.7.7,0,0,1-.273.747.717.717,0,0,1-.816.014c-.454-.243-.914-.475-1.366-.723a.314.314,0,0,0-.343,0c-.473.257-.947.513-1.43.751A.707.707,0,0,1,7260.964-1344.639Zm2.681-4.267a3.35,3.35,0,0,1-.616.907,3.44,3.44,0,0,1-1.057.316,1.348,1.348,0,0,1,.608,1.848,4.46,4.46,0,0,0,.58-.279.816.816,0,0,1,.885,0c.168.1.346.183.514.272a3.187,3.187,0,0,1-.026-1.059,3.459,3.459,0,0,1,.672-.874A1.311,1.311,0,0,1,7263.645-1348.906Z" transform="translate(-3.182 -176.316)" fill="#46278a"/><path d="M7532.159-1344.645c.082-.484.185-1.053.269-1.624a.4.4,0,0,0-.093-.3c-.358-.37-.731-.727-1.1-1.084a.722.722,0,0,1-.239-.8.739.739,0,0,1,.68-.488c.5-.067,1.005-.139,1.5-.228a.405.405,0,0,0,.253-.183c.236-.448.456-.906.676-1.363a.738.738,0,0,1,.678-.492.739.739,0,0,1,.7.5c.214.451.445.894.66,1.344a.309.309,0,0,0,.272.207c.5.062,1,.15,1.506.216a.741.741,0,0,1,.676.493.721.721,0,0,1-.245.8c-.365.353-.734.7-1.087,1.067a.439.439,0,0,0-.106.322c.069.494.161.986.25,1.477a.744.744,0,0,1-.248.8.733.733,0,0,1-.856.018c-.437-.241-.886-.461-1.323-.7a.353.353,0,0,0-.385,0c-.459.251-.919.5-1.387.731A.709.709,0,0,1,7532.159-1344.645Zm3.6-1.156a3.284,3.284,0,0,1-.042-1.087,3.256,3.256,0,0,1,.646-.853c-.2-.03-.4-.066-.607-.09a.8.8,0,0,1-.678-.505c-.083-.186-.182-.365-.268-.536a3.2,3.2,0,0,1-.6.876,2.96,2.96,0,0,1-.977.286,2.889,2.889,0,0,1,.618.8,3.5,3.5,0,0,1-.024,1.107A1.318,1.318,0,0,1,7535.762-1345.8Z" transform="translate(-258.454 -176.311)" fill="#46278a"/><path d="M7399.11-1351.221a.735.735,0,0,1,.724.423c.238.474.475.948.7,1.428a.312.312,0,0,0,.277.2c.5.064,1,.149,1.506.217a.736.736,0,0,1,.671.5.712.712,0,0,1-.236.781c-.363.354-.723.714-1.094,1.059a.353.353,0,0,0-.114.371c.092.483.172.968.255,1.452a.745.745,0,0,1-.253.8.741.741,0,0,1-.857.011c-.444-.245-.894-.481-1.349-.7a.4.4,0,0,0-.313,0c-.456.223-.9.461-1.349.7a.74.74,0,0,1-.857-.007.749.749,0,0,1-.255-.8c.082-.485.159-.97.256-1.452a.37.37,0,0,0-.129-.388c-.359-.336-.707-.685-1.061-1.027a.727.727,0,0,1-.255-.8.746.746,0,0,1,.692-.5c.5-.065,1-.139,1.5-.228a.4.4,0,0,0,.249-.188c.244-.462.466-.935.7-1.4A.687.687,0,0,1,7399.11-1351.221Zm1.707,3.519a3.392,3.392,0,0,1-1.059-.313,2.974,2.974,0,0,1-.572-.838,2.948,2.948,0,0,1-.577.841,2.984,2.984,0,0,1-.978.287,2.958,2.958,0,0,1,.624.809,3.155,3.155,0,0,1-.032,1.057c.173-.09.343-.168.5-.264a.835.835,0,0,1,.927,0c.161.1.333.174.5.26l.075-.01A1.311,1.311,0,0,1,7400.817-1347.7Z" transform="translate(-130.808 -176.297)" fill="#46278a"/><path d="M7322.845-1494.784h7.756c.47,0,.741.192.817.571a.686.686,0,0,1-.49.8,1.405,1.405,0,0,1-.348.037q-7.756,0-15.513,0c-.475,0-.75-.185-.835-.555a.689.689,0,0,1,.6-.843,2.9,2.9,0,0,1,.3-.008Z" transform="translate(-54.445 -41.163)" fill="#46278a"/><path d="M7318.1-1453.1c1.046,0,2.091,0,3.137,0a.7.7,0,0,1,.7.956.713.713,0,0,1-.7.448c-.741,0-1.483,0-2.224,0-1.358,0-2.716,0-4.074,0a.7.7,0,0,1-.726-.9.71.71,0,0,1,.731-.5C7315.991-1453.1,7317.045-1453.1,7318.1-1453.1Z" transform="translate(-54.408 -80.397)" fill="#46278a"/></g></svg>