<svg xmlns="http://www.w3.org/2000/svg" width="80" height="80" viewBox="0 0 80 80"><g transform="translate(-220.638 -51.787)"><g transform="translate(220.638 51.787)"><path d="M260.641,131.787a40,40,0,1,1,40-40A40.046,40.046,0,0,1,260.641,131.787Zm0-75.324a35.324,35.324,0,1,0,35.321,35.325A35.366,35.366,0,0,0,260.641,56.463Z" transform="translate(-220.638 -51.787)" fill="#fff"/></g><path d="M266.474,79,234.083,60.733a1.17,1.17,0,0,0-1.744,1.017V98.293a1.168,1.168,0,0,0,1.169,1.169,1.18,1.18,0,0,0,.575-.15l32.391-18.275a1.17,1.17,0,0,0,0-2.036Z" transform="translate(15.655 11.766)" fill="#fff"/></g></svg>