<svg xmlns="http://www.w3.org/2000/svg" width="23.834" height="28.601" viewBox="0 0 23.834 28.601"><g transform="translate(-892.348 1536.855)"><path d="M910.223-1513.021a1.192,1.192,0,0,0-1.192,1.192,1.193,1.193,0,0,1-1.192,1.192H895.923a1.193,1.193,0,0,1-1.192-1.192v-21.45a1.193,1.193,0,0,1,1.192-1.192H907.84a1.193,1.193,0,0,1,1.192,1.192,1.192,1.192,0,0,0,1.192,1.192,1.192,1.192,0,0,0,1.192-1.192,3.579,3.579,0,0,0-3.575-3.575H895.923a3.579,3.579,0,0,0-3.575,3.575v21.45a3.579,3.579,0,0,0,3.575,3.575H907.84a3.579,3.579,0,0,0,3.575-3.575A1.192,1.192,0,0,0,910.223-1513.021Z" fill="#703be2"/><path d="M978.44-1467.222l.021-.034c.012-.019.024-.039.036-.058s.014-.028.022-.042.018-.036.026-.055.013-.031.02-.047.014-.036.02-.054.011-.033.016-.05.01-.039.015-.058.008-.032.011-.048.009-.052.012-.078c0-.01,0-.02,0-.03,0-.037.005-.074.006-.111,0,0,0,0,0-.007s0-.017,0-.025c0-.027,0-.053,0-.08s0-.029,0-.043-.006-.044-.01-.066-.006-.032-.01-.047-.01-.04-.015-.059-.009-.033-.014-.049-.013-.037-.02-.055-.012-.032-.019-.048-.017-.035-.026-.053-.014-.031-.023-.046c-.017-.031-.035-.061-.055-.091h0a1.2,1.2,0,0,0-.074-.1l-.027-.029c-.017-.02-.035-.039-.054-.058l-.007-.008-4.753-4.752a1.192,1.192,0,0,0-1.685,0,1.192,1.192,0,0,0,0,1.685l2.732,2.732h-9.04a1.192,1.192,0,0,0-1.192,1.192,1.192,1.192,0,0,0,1.192,1.192h9.04l-2.732,2.732a1.192,1.192,0,0,0,0,1.685,1.187,1.187,0,0,0,.843.349,1.188,1.188,0,0,0,.843-.349l4.767-4.767c.026-.026.051-.054.075-.082l.017-.023C978.408-1467.179,978.425-1467.2,978.44-1467.222Z" transform="translate(-62.467 -54.66)" fill="#703be2"/></g></svg>