<svg xmlns="http://www.w3.org/2000/svg" width="19" height="19" viewBox="0 0 19 19"><g transform="translate(0 0)"><path d="M642.924,350.253a9.5,9.5,0,1,1,9.5-9.5A9.511,9.511,0,0,1,642.924,350.253Zm0-17.417a7.917,7.917,0,1,0,7.917,7.917A7.925,7.925,0,0,0,642.924,332.836Z" transform="translate(-633.424 -331.253)" fill="#46278a"/></g><g transform="translate(4.803 8.56)"><path d="M650.121,346.084h-7.515a.939.939,0,0,1,0-1.879h7.515a.939.939,0,1,1,0,1.879Z" transform="translate(-641.667 -344.205)" fill="#46278a"/></g></svg>