<svg xmlns="http://www.w3.org/2000/svg" width="34.998" height="34.998" viewBox="0 0 34.998 34.998"><g transform="translate(0 0)"><path d="M650.923,366.251a17.5,17.5,0,1,1,17.5-17.5A17.519,17.519,0,0,1,650.923,366.251Zm0-32.082a14.583,14.583,0,1,0,14.583,14.583A14.6,14.6,0,0,0,650.923,334.169Z" transform="translate(-633.424 -331.253)" fill="#e6e6e6"/></g><g transform="translate(8.848 15.768)"><path d="M657.24,347.666H643.4a1.73,1.73,0,0,1,0-3.461H657.24a1.73,1.73,0,1,1,0,3.461Z" transform="translate(-641.667 -344.205)" fill="#e6e6e6"/></g></svg>