<svg xmlns="http://www.w3.org/2000/svg" width="15.307" height="14.512" viewBox="0 0 15.307 14.512"><path d="M375.1,392.766h2.153l2.327-5.429a.365.365,0,0,1,.478-.192l.068.028a.366.366,0,0,1,.192.48l-2.191,5.113h6.836l-2.191-5.113a.366.366,0,0,1,.192-.48l.068-.028a.365.365,0,0,1,.478.192l2.327,5.428h3a.366.366,0,0,1,.365.365v.076a.365.365,0,0,1-.365.365h-.48l-.7,6.968a1.208,1.208,0,0,1-1.2,1.089h-9.82a1.209,1.209,0,0,1-1.2-1.089l-.7-6.968h-.48a.366.366,0,0,1-.365-.365v-.076a.366.366,0,0,1,.365-.365h.843Zm6.848,2.781v5.275h2.417v-5.274a.365.365,0,0,1,.365-.365h.076a.366.366,0,0,1,.365.365v5.274h1.285a.4.4,0,0,0,.4-.362l.688-6.89h-12l.688,6.89a.4.4,0,0,0,.4.362h1.284v-5.274a.366.366,0,0,1,.366-.366h.075a.366.366,0,0,1,.366.366v5.274h2.417v-5.275a.366.366,0,0,1,.366-.365h.075a.366.366,0,0,1,.366.365Z" transform="translate(-373.89 -387.116)" fill="#9494cb"/></svg>