<svg xmlns="http://www.w3.org/2000/svg" width="13.696" height="16.128" viewBox="0 0 13.696 16.128"><path d="M385.815,432.709v-6.3l-5.639,3.526v6.3l5.639-3.524Zm-9.667-2.158v-2.636l-2.417-1.51v6.3l5.639,3.526v-6.3l-2.416-1.511v2.132a.366.366,0,0,1-.365.365h-.076a.365.365,0,0,1-.365-.365Zm.4-3.336,5.488-3.678-2.258-1.411-5.687,3.553,2.457,1.536ZM382.778,424l-5.489,3.679,2.484,1.552,5.687-3.555L382.778,424Zm3.843,8.928v.02a.354.354,0,0,1-.172.309l-6.483,4.051a.359.359,0,0,1-.387,0l-6.482-4.053a.355.355,0,0,1-.172-.31v-7.29a.355.355,0,0,1,.172-.309l6.482-4.051a.359.359,0,0,1,.387,0l6.483,4.051a.354.354,0,0,1,.172.309v7.273Z" transform="translate(-372.925 -421.241)" fill="#9494cb"/></svg>