<svg xmlns="http://www.w3.org/2000/svg" width="16" height="15.999" viewBox="0 0 16 15.999"><g transform="translate(-7297.839 4555.901)"><path d="M7297.838-4547.4v-1c.013-.1.027-.207.038-.31a7.807,7.807,0,0,1,1.774-4.24,7.848,7.848,0,0,1,5.906-2.942,7.464,7.464,0,0,1,4.35,1.119,7.865,7.865,0,0,1,3.928,6.765,7.457,7.457,0,0,1-1.107,4.152,7.932,7.932,0,0,1-5.511,3.833c-.292.055-.585.082-.877.122h-1c-.1-.014-.2-.028-.3-.039a7.86,7.86,0,0,1-4.215-1.751,7.879,7.879,0,0,1-2.857-4.831C7297.909-4546.814,7297.878-4547.108,7297.838-4547.4Zm14.4-.633a6.422,6.422,0,0,0-6.537-6.266,6.425,6.425,0,0,0-6.263,6.54,6.424,6.424,0,0,0,6.53,6.256A6.421,6.421,0,0,0,7312.237-4548.034Z" transform="translate(0 0)" fill="#46278a"/><path d="M7416.757-4472.283v.843h-1.577c0-.005-.017-.015-.017-.021a7.659,7.659,0,0,1,.063-1.239,1.426,1.426,0,0,1,1.125-1.113,1.6,1.6,0,0,0,1.231-1.6,1.581,1.581,0,0,0-1.791-1.565,1.52,1.52,0,0,0-1.431,1.45c0,.026-.007.051-.009.087h-1.571a3.054,3.054,0,0,1,2.323-3.06,3.274,3.274,0,0,1,3.964,2.16A3.279,3.279,0,0,1,7416.757-4472.283Z" transform="translate(-110.116 -74.07)" fill="#46278a"/><path d="M7471.865-4286.861c0,.221,0,.445,0,.668,0,.088-.03.118-.119.117-.457,0-.913,0-1.373,0-.088,0-.116-.029-.116-.117,0-.457,0-.915,0-1.372,0-.088.028-.119.116-.118.46,0,.916,0,1.373,0,.089,0,.119.03.119.118C7471.861-4287.33,7471.865-4287.1,7471.865-4286.861Z" transform="translate(-165.223 -257.024)" fill="#46278a"/></g></svg>