<svg xmlns="http://www.w3.org/2000/svg" width="29.256" height="27.154" viewBox="0 0 29.256 27.154"><path d="M517.968,60.894V57.6a3.115,3.115,0,0,0-3.094-3.129h-1.015v-3.8a2.012,2.012,0,0,0-.822-1.613,2.323,2.323,0,0,0-2.048-.356l-18.6,5.793a2.728,2.728,0,0,0-.408.074,3.114,3.114,0,0,0-2.343,3.034V72.631a3.115,3.115,0,0,0,3.1,3.128h22.142a3.115,3.115,0,0,0,3.094-3.128V68.164a1.981,1.981,0,0,0,.925-1.678V62.572A1.981,1.981,0,0,0,517.968,60.894Zm-1.075,1.678v3.892h-5.576a1.881,1.881,0,0,1-1.817-1.935,1.971,1.971,0,0,1,.55-1.385,1.737,1.737,0,0,1,1.267-.55ZM511.359,51.2v3.269H500.865Zm3.515,22.055H492.732a.612.612,0,0,1-.6-.628V57.6a.635.635,0,0,1,.485-.618.456.456,0,0,1,.11-.011h22.142a.613.613,0,0,1,.594.629v2.992h-4.151a3.715,3.715,0,0,0-2.71,1.165,3.956,3.956,0,0,0-1.107,2.77,3.881,3.881,0,0,0,3.817,3.935h4.151v4.167A.612.612,0,0,1,514.874,73.259Z" transform="translate(-489.637 -48.605)" fill="#fff"/></svg>