<svg xmlns="http://www.w3.org/2000/svg" width="11.799" height="11.799" viewBox="0 0 11.799 11.799"><g transform="translate(2.611 -149.525)"><g transform="translate(-2.611 149.525)"><path d="M3.289,161.324a5.9,5.9,0,1,1,5.9-5.9A5.906,5.906,0,0,1,3.289,161.324Zm0-10.816a4.916,4.916,0,1,0,4.917,4.917A4.922,4.922,0,0,0,3.289,150.508Z" transform="translate(2.611 -149.525)" fill="#fff"/></g><g transform="translate(1.495 153.154)"><path d="M8.134,163.233a.612.612,0,0,1-.453-.16.621.621,0,0,1-.16-.459V159.1a.558.558,0,0,1,.619-.619H9.778a1.733,1.733,0,0,1,1.234.409,1.677,1.677,0,0,1,0,2.256,1.735,1.735,0,0,1-1.234.409H8.747v1.058a.63.63,0,0,1-.156.459A.61.61,0,0,1,8.134,163.233Zm.612-2.615h.818q.719,0,.719-.6t-.719-.6H8.747Z" transform="translate(-7.522 -158.482)" fill="#fff"/></g></g></svg>