<svg xmlns="http://www.w3.org/2000/svg" width="60" height="60" viewBox="0 0 60 60"><g transform="translate(-214.233 167.193)"><g transform="translate(226.414 -151.299)"><path d="M258.2-136.587h-4.181l-1.041-3.9a.744.744,0,0,0-.909-.526.743.743,0,0,0-.526.909l1.188,4.455a.742.742,0,0,0,.717.551H258.2a.743.743,0,0,0,.742-.743A.742.742,0,0,0,258.2-136.587Z" transform="translate(-226.277 151.436)" fill="#44454f"/><path d="M261.621-136.487l-4.227-6.638a1.939,1.939,0,0,0-1.632-.887h-5.726v-5.463a1.957,1.957,0,0,0-1.949-1.961H231.2a1.957,1.957,0,0,0-1.949,1.961v3.046a.742.742,0,0,0,.742.742.743.743,0,0,0,.743-.742v-3.046a.476.476,0,0,1,.464-.476h16.891a.477.477,0,0,1,.464.476v14.62a.477.477,0,0,1-.464.476H230.593a1.351,1.351,0,0,0-1.346,1.352v4.264a2.564,2.564,0,0,0,2.552,2.57h2.72a3.718,3.718,0,0,0,3.638,2.97,3.718,3.718,0,0,0,3.637-2.97h9.059a3.718,3.718,0,0,0,3.638,2.97,3.718,3.718,0,0,0,3.637-2.97h1.263a2.511,2.511,0,0,0,2.524-2.492v-6.785A1.916,1.916,0,0,0,261.621-136.487Zm-23.464,11.779a2.23,2.23,0,0,1-2.228-2.227,2.23,2.23,0,0,1,2.228-2.227,2.229,2.229,0,0,1,2.227,2.227A2.229,2.229,0,0,1,238.157-124.708Zm16.334,0a2.23,2.23,0,0,1-2.228-2.227,2.23,2.23,0,0,1,2.228-2.227,2.229,2.229,0,0,1,2.227,2.227A2.229,2.229,0,0,1,254.491-124.708Zm5.939-3.977a1.025,1.025,0,0,1-1.039,1.007h-1.263a3.718,3.718,0,0,0-3.637-2.969,3.719,3.719,0,0,0-3.638,2.969h-9.059a3.718,3.718,0,0,0-3.637-2.969,3.719,3.719,0,0,0-3.638,2.969H231.8a1.077,1.077,0,0,1-1.067-1.085v-4.131h17.355a1.957,1.957,0,0,0,1.949-1.961v-7.672h5.726a.463.463,0,0,1,.383.2l4.22,6.627a.435.435,0,0,1,.065.225Z" transform="translate(-226.277 151.436)" fill="#44454f"/><path d="M232.217-136.587a.742.742,0,0,0,.742.742h10.4a.742.742,0,0,0,.742-.742.743.743,0,0,0-.742-.743h-10.4A.743.743,0,0,0,232.217-136.587Z" transform="translate(-226.277 151.436)" fill="#44454f"/><path d="M228.505-143.269H238.9a.743.743,0,0,0,.742-.743.742.742,0,0,0-.742-.742H228.505a.742.742,0,0,0-.743.742A.743.743,0,0,0,228.505-143.269Z" transform="translate(-226.277 151.436)" fill="#44454f"/><path d="M235.929-139.557a.743.743,0,0,0,.743-.742.743.743,0,0,0-.743-.743H227.02a.743.743,0,0,0-.743.743.743.743,0,0,0,.743.742Z" transform="translate(-226.277 151.436)" fill="#44454f"/><path d="M230.361-136.587a.743.743,0,0,0-.743-.743h-2.227a.743.743,0,0,0-.743.743.743.743,0,0,0,.743.742h2.227A.743.743,0,0,0,230.361-136.587Z" transform="translate(-226.277 151.436)" fill="#44454f"/><path d="M240.384-141.042H238.9a.743.743,0,0,0-.742.743.742.742,0,0,0,.742.742h1.485a.742.742,0,0,0,.742-.742A.743.743,0,0,0,240.384-141.042Z" transform="translate(-226.277 151.436)" fill="#44454f"/></g><g transform="translate(214.233 -167.193)"><path d="M244.235-107.193a30.035,30.035,0,0,1-30-30,30.036,30.036,0,0,1,30-30,30.034,30.034,0,0,1,30,30A30.033,30.033,0,0,1,244.235-107.193Zm0-56.493a26.524,26.524,0,0,0-26.495,26.493A26.524,26.524,0,0,0,244.235-110.7a26.522,26.522,0,0,0,26.491-26.494A26.523,26.523,0,0,0,244.235-163.686Z" transform="translate(-214.233 167.193)" fill="#44454f"/></g></g></svg>