<svg xmlns="http://www.w3.org/2000/svg" width="34.998" height="34.999" viewBox="0 0 34.998 34.999"><g transform="translate(0)"><g transform="translate(0 0)"><path d="M603.825,366.252a17.5,17.5,0,1,1,17.5-17.5A17.519,17.519,0,0,1,603.825,366.252Zm0-32.083a14.583,14.583,0,1,0,14.582,14.583A14.6,14.6,0,0,0,603.825,334.169Z" transform="translate(-586.325 -331.253)" fill="#46278a"/></g><g transform="translate(9.28 15.855)"><path d="M609.361,347.493h-13.15a1.644,1.644,0,1,1,0-3.288h13.15a1.644,1.644,0,1,1,0,3.288Z" transform="translate(-594.567 -344.205)" fill="#46278a"/></g><g transform="translate(15.856 9.28)"><path d="M600.922,355.934a1.644,1.644,0,0,1-1.645-1.643V341.14a1.644,1.644,0,1,1,3.288,0v13.151A1.643,1.643,0,0,1,600.922,355.934Z" transform="translate(-599.277 -339.495)" fill="#46278a"/></g></g></svg>