<svg xmlns="http://www.w3.org/2000/svg" width="9.232" height="9.232" viewBox="0 0 9.232 9.232"><g transform="translate(2922.36 4266.077)"><g transform="translate(-2922.36 -4266.077)"><path d="M-2917.744-4256.845a4.622,4.622,0,0,1-4.616-4.616,4.621,4.621,0,0,1,4.616-4.616,4.621,4.621,0,0,1,4.616,4.616A4.622,4.622,0,0,1-2917.744-4256.845Zm0-8.463a3.851,3.851,0,0,0-3.847,3.847,3.851,3.851,0,0,0,3.847,3.847,3.851,3.851,0,0,0,3.847-3.847A3.851,3.851,0,0,0-2917.744-4265.308Z" transform="translate(2922.36 4266.077)" fill="#505050"/></g><g transform="translate(-2918.129 -4264.154)"><path d="M-2821.437-4218h-1.539a.384.384,0,0,1-.385-.385v-2.308a.384.384,0,0,1,.385-.385.384.384,0,0,1,.385.385v1.923h1.154a.385.385,0,0,1,.385.385A.384.384,0,0,1-2821.437-4218Z" transform="translate(2823.36 4221.077)" fill="#505050"/></g></g></svg>