<svg xmlns="http://www.w3.org/2000/svg" width="23.55" height="28.26" viewBox="0 0 23.55 28.26"><g transform="translate(-575 -567)"><path d="M234.255,149.919h-3.533v-1.177a5.894,5.894,0,0,0-5.887-5.888H222.48a5.894,5.894,0,0,0-5.888,5.888v1.177H213.06a1.177,1.177,0,0,0-1.178,1.178v18.839a1.177,1.177,0,0,0,1.178,1.178h21.2a1.177,1.177,0,0,0,1.177-1.178V151.1A1.177,1.177,0,0,0,234.255,149.919Zm-15.308-1.177a3.537,3.537,0,0,1,3.533-3.533h2.355a3.536,3.536,0,0,1,3.532,3.533v1.177h-9.42Zm-2.355,3.532v1.178a1.178,1.178,0,0,0,2.355,0v-1.178h9.42v1.178a1.177,1.177,0,0,0,2.355,0v-1.178h2.355v9.42h-18.84v-9.42Zm-2.355,16.485v-4.71h18.84v4.71Z" transform="translate(363.118 424.146)" fill="#9494cb"/></g></svg>