<svg xmlns="http://www.w3.org/2000/svg" width="33.454" height="29.911" viewBox="0 0 33.454 29.911"><path d="M338.53-135.587a3.383,3.383,0,0,0-3.609-1.211v-12.333a.967.967,0,0,0-.971-.963H317.1a.967.967,0,0,0-.971.963v12.179a8.877,8.877,0,0,0-2.6,1.562l-2.506,2.169-.134-.133a.974.974,0,0,0-1.3-.068l-3.681,2.954a.957.957,0,0,0-.143,1.354.978.978,0,0,0,1.365.143l2.924-2.347a.832.832,0,0,0,.082.142.94.94,0,0,0,.479.276l6.222,6.172-2.429,2.976a.958.958,0,0,0,.144,1.354.971.971,0,0,0,.611.215.975.975,0,0,0,.755-.358l2.977-3.65a.957.957,0,0,0-.068-1.286l-.623-.618.026-.025a1.592,1.592,0,0,1,1.131-.465h8.754a3.559,3.559,0,0,0,1.922-.562l7.878-5.048a2.355,2.355,0,0,0,1.05-1.565A2.343,2.343,0,0,0,338.53-135.587Zm-14.625-12.581h3.242v1.34h-3.242Zm-5.832,0h4.861v1.822a.483.483,0,0,0,.486.481h4.213a.483.483,0,0,0,.485-.481v-1.822h4.862v12.206c0,.019.009.034.01.052l-1.6.794a3.267,3.267,0,0,1-1.447.339h-.129a3.836,3.836,0,0,0,.194-1.158,1.636,1.636,0,0,0-1.64-1.627h-9a8.976,8.976,0,0,0-1.293.1Zm18.982,14.07a.426.426,0,0,1-.192.286l-7.877,5.047a1.613,1.613,0,0,1-.869.254h-8.754a3.532,3.532,0,0,0-2.5,1.029l-.026.025-4.435-4.4,2.406-2.083a6.97,6.97,0,0,1,4.561-1.7h8.686a1.78,1.78,0,0,1-1.771,1.555h-4.968a.967.967,0,0,0-.971.963.967.967,0,0,0,.971.963h4.968a3.683,3.683,0,0,0,2.154-.7h1.507a5.231,5.231,0,0,0,2.315-.542l2.936-1.456a1.438,1.438,0,0,1,1.783.417A.42.42,0,0,1,337.056-134.1Z" transform="translate(-305.551 150.094)" fill="#b3b3b3"/></svg>