<svg xmlns="http://www.w3.org/2000/svg" width="26.511" height="18.225" viewBox="0 0 26.511 18.225"><g transform="translate(-1007.629 -662.082)"><path d="M1013.969,665.2a.856.856,0,0,0-1.356,0l-4.833,6.9a.827.827,0,0,0,.678,1.3h1.934v4.7a.828.828,0,1,0,1.656,0v-5.523a.828.828,0,0,0-.828-.828h-1.171l3.242-4.631,3.241,4.631h-1.17a.828.828,0,0,0-.828.828V678.1a.828.828,0,1,0,1.656,0v-4.7h1.934a.827.827,0,0,0,.678-1.3Z" fill="#8e8e8e"/><path d="M1020.885,663.738h2.762a.828.828,0,0,0,0-1.656h-2.762a.828.828,0,1,0,0,1.656Z" fill="#8e8e8e"/><path d="M1020.885,667.88h4.142a.828.828,0,1,0,0-1.656h-4.142a.828.828,0,1,0,0,1.656Z" fill="#8e8e8e"/><path d="M1020.885,672.022h6.9a.827.827,0,1,0,0-1.655h-6.9a.827.827,0,1,0,0,1.655Z" fill="#8e8e8e"/><path d="M1020.885,676.165h9.665a.828.828,0,0,0,0-1.656h-9.665a.828.828,0,1,0,0,1.656Z" fill="#8e8e8e"/><path d="M1033.312,678.651h-12.427a.828.828,0,1,0,0,1.656h12.427a.828.828,0,1,0,0-1.656Z" fill="#8e8e8e"/></g></svg>