<svg xmlns="http://www.w3.org/2000/svg" width="18.614" height="17.827" viewBox="0 0 18.614 17.827"><path d="M-1031.27,658.07a.627.627,0,0,0-.015-.118c0-.009,0-.019,0-.028a.653.653,0,0,0-.053-.134c-.006-.011-.013-.021-.02-.031a.629.629,0,0,0-.063-.089c-.01-.012-.021-.023-.032-.035a.649.649,0,0,0-.081-.069c-.008-.006-.014-.014-.022-.019l-.013-.006a.656.656,0,0,0-.115-.056l-.02-.009h0l-8.658-2.886a.648.648,0,0,0-.41,0l-8.658,2.886-.006,0c-.012,0-.022.01-.034.015a.646.646,0,0,0-.1.051l-.015.008c-.008.005-.014.013-.022.019a.643.643,0,0,0-.079.069c-.011.011-.022.022-.032.034a.64.64,0,0,0-.064.091c-.006.01-.013.019-.018.029a.634.634,0,0,0-.052.134c0,.01,0,.02-.005.03a.664.664,0,0,0-.014.115c0,.007,0,.013,0,.02v9.445a.649.649,0,0,0,.373.588l8.92,4.2.011,0a.635.635,0,0,0,.1.033c.011,0,.021.008.032.01a.654.654,0,0,0,.137.015.641.641,0,0,0,.141-.016c.012,0,.024-.008.036-.011a.632.632,0,0,0,.1-.035l.016-.006,8.4-4.2a.649.649,0,0,0,.359-.581V658.09C-1031.268,658.083-1031.27,658.077-1031.27,658.07Zm-9.3-2.182,1.993.664-6.388,2.59-2.4-.989Zm-7.671,11.393-.338-.159v-.788l.338.159Zm6.034,2.84-5.385-2.534V666.8l5.385,2.534Zm1.25.588-.6-.282v-.788l.6.282Zm0-2.223-7.622-3.587v-5.84l7.622,3.138Zm.642-7.428-2.935-1.209,6.571-2.664,2.96.987Zm1.257,9.324-.6.3v-.771l.6-.3Zm5.51-2.755-4.86,2.43v-.771l4.86-2.43Zm.987-.494-.338.169v-.771l.338-.169Zm0-2.223-7.1,3.548v-6.271l7.1-3.1Z" transform="translate(1049.882 -654.554)" fill="#505050"/></svg>