<svg xmlns="http://www.w3.org/2000/svg" width="22.284" height="19.361" viewBox="0 0 22.284 19.361"><g transform="translate(-406 -768)"><path d="M728.068,51.18a3.276,3.276,0,0,0-3.054,3.486c0,.048.018.092.023.14l-9.868,3.4a3.283,3.283,0,1,0-.512,4.456l6.257,3.922a3.341,3.341,0,0,0-.069.668,3.278,3.278,0,1,0,3.278-3.277,5.694,5.694,0,0,0-2.213.873l-6.188-3.878a3.235,3.235,0,0,0,.112-.8c0-.025-.007-.047-.007-.071l10.035-3.462a3.272,3.272,0,1,0,2.206-5.457Z" transform="translate(-303.278 716.827)" fill="#fff"/></g></svg>