<svg xmlns="http://www.w3.org/2000/svg" width="15" height="18" viewBox="0 0 15 18"><g transform="translate(0.75 3)"><path d="M400.65,162.3h-9a2.253,2.253,0,0,1-2.25-2.25v-12a.75.75,0,1,1,1.5,0v12a.751.751,0,0,0,.75.75h9a.751.751,0,0,0,.75-.75v-12a.75.75,0,0,1,1.5,0v12A2.253,2.253,0,0,1,400.65,162.3Z" transform="translate(-389.4 -147.295)" fill="#46278a"/></g><g transform="translate(0 3)"><path d="M402.459,148.8h-13.5a.75.75,0,0,1,0-1.5h13.5a.75.75,0,0,1,0,1.5Z" transform="translate(-388.209 -147.295)" fill="#46278a"/></g><g transform="translate(3.75 6)"><path d="M394.913,161.059a.75.75,0,0,1-.749-.75v-7.5a.75.75,0,1,1,1.5,0v7.5A.75.75,0,0,1,394.913,161.059Z" transform="translate(-394.164 -152.059)" fill="#46278a"/></g><g transform="translate(6.75 6)"><path d="M399.677,161.059a.75.75,0,0,1-.75-.75v-7.5a.75.75,0,1,1,1.5,0v7.5A.75.75,0,0,1,399.677,161.059Z" transform="translate(-398.927 -152.059)" fill="#46278a"/></g><g transform="translate(9.75 6)"><path d="M404.441,161.059a.75.75,0,0,1-.75-.75v-7.5a.75.75,0,0,1,1.5,0v7.5A.75.75,0,0,1,404.441,161.059Z" transform="translate(-403.691 -152.059)" fill="#46278a"/></g><g transform="translate(3.75 0)"><path d="M400.914,147.031a.75.75,0,0,1-.75-.75v-1.5a.751.751,0,0,0-.75-.75h-3a.751.751,0,0,0-.75.75v1.5a.75.75,0,1,1-1.5,0v-1.5a2.252,2.252,0,0,1,2.249-2.25h3a2.253,2.253,0,0,1,2.25,2.25v1.5A.75.75,0,0,1,400.914,147.031Z" transform="translate(-394.164 -142.531)" fill="#46278a"/></g></svg>