<svg xmlns="http://www.w3.org/2000/svg" width="30.002" height="30.001" viewBox="0 0 30.002 30.001"><path d="M465.18,64.849a15,15,0,1,0-24.662,11.458c.01.011.021.018.032.029a14.95,14.95,0,0,0,19.258,0c.011-.011.022-.018.032-.029A14.967,14.967,0,0,0,465.18,64.849Zm-27.5,0a12.5,12.5,0,1,1,22.162,7.924,9.477,9.477,0,0,0-5.424-7.092,6.25,6.25,0,1,0-8.473,0,9.477,9.477,0,0,0-5.424,7.092A12.44,12.44,0,0,1,437.678,64.849Zm8.751-3.75a3.75,3.75,0,1,1,3.75,3.75A3.753,3.753,0,0,1,446.429,61.1Zm-3.7,13.767c.384-4.784,3.067-7.516,7.445-7.516s7.061,2.733,7.446,7.516a12.4,12.4,0,0,1-14.891,0Z" transform="translate(-435.178 -49.849)" fill="#b3b3b3"/></svg>