<svg xmlns="http://www.w3.org/2000/svg" width="24.005" height="24.002" viewBox="0 0 24.005 24.002"><g transform="translate(-7801.065 1426.593)"><path d="M7801.065-1407.842v-16.5a.4.4,0,0,0,.038-.082,2.571,2.571,0,0,1,2.607-2.167q9.349,0,18.7,0a2.579,2.579,0,0,1,2.658,2.666q0,7.826,0,15.651a2.9,2.9,0,0,1-.072.672,2.58,2.58,0,0,1-2.606,2q-2.895.006-5.789,0a.494.494,0,0,0-.389.157q-1.187,1.2-2.386,2.386c-.175.172-.38.313-.571.469h-.375c-.185-.15-.384-.286-.553-.453q-1.192-1.176-2.368-2.37a.594.594,0,0,0-.471-.189q-2.871.009-5.742,0a2.6,2.6,0,0,1-2.552-1.8C7801.145-1407.545,7801.108-1407.694,7801.065-1407.842Zm12,3.54c.072-.068.134-.124.194-.184.73-.729,1.464-1.453,2.185-2.19a1.049,1.049,0,0,1,.81-.335c2.016.009,4.032,0,6.047,0a1.211,1.211,0,0,0,1.359-1.355v-15.467a1.2,1.2,0,0,0-1.352-1.358h-18.493a1.2,1.2,0,0,0-1.348,1.339v15.49a1.21,1.21,0,0,0,1.363,1.351c2.023,0,4.047,0,6.07,0a1,1,0,0,1,.769.32c.728.741,1.466,1.472,2.2,2.206C7812.935-1404.425,7813-1404.369,7813.069-1404.3Z" transform="translate(0 0)" fill="#fff"/><path d="M7888.866-1354.417c.11-.647.217-1.278.326-1.908.1-.577.2-1.154.3-1.729a.345.345,0,0,0-.118-.349q-1.259-1.21-2.5-2.434a.692.692,0,0,1,.021-1.113,1.134,1.134,0,0,1,.458-.157q1.69-.254,3.383-.488a.364.364,0,0,0,.313-.228c.5-1.025,1.008-2.043,1.5-3.067a.76.76,0,0,1,.709-.518.762.762,0,0,1,.687.518c.484,1,.985,1.984,1.461,2.985a.511.511,0,0,0,.449.324c1.113.152,2.225.315,3.337.478a.7.7,0,0,1,.651.943,1.129,1.129,0,0,1-.271.373q-1.21,1.192-2.435,2.37a.388.388,0,0,0-.132.389c.2,1.129.394,2.26.592,3.39a.734.734,0,0,1-.267.794.737.737,0,0,1-.837.008c-1.02-.542-2.045-1.074-3.064-1.617a.338.338,0,0,0-.363,0q-1.549.825-3.107,1.635a.7.7,0,0,1-1.015-.295A1.739,1.739,0,0,1,7888.866-1354.417Zm8.685-6.528.068.046a.9.9,0,0,0-.112-.03c-.787-.115-1.574-.236-2.363-.338a.867.867,0,0,1-.746-.516c-.33-.7-.679-1.386-1.022-2.078-.035-.072-.079-.141-.136-.24-.4.8-.782,1.569-1.154,2.34a.809.809,0,0,1-.666.485c-.572.078-1.144.161-1.715.244-.279.041-.559.085-.91.14.1.077.142.107.181.145.582.566,1.162,1.135,1.746,1.7a.744.744,0,0,1,.238.719c-.065.345-.119.692-.177,1.038l-.268,1.585c.121-.06.2-.1.284-.141.685-.359,1.371-.713,2.05-1.08a.78.78,0,0,1,.8,0c.549.3,1.1.582,1.657.871.211.111.423.22.654.339a1.275,1.275,0,0,0,0-.147c-.128-.746-.236-1.5-.393-2.236a1.062,1.062,0,0,1,.336-1.088C7896.477-1359.748,7897-1360.357,7897.55-1360.946Z" transform="translate(-80.18 -56.415)" fill="#fff"/></g></svg>