<svg xmlns="http://www.w3.org/2000/svg" width="26.289" height="26.271" viewBox="0 0 26.289 26.271"><path d="M13.145,1.047,10.012,2.473H7.66L5.865,4.824,3.65,6.931,2.834,8.368v2.417L1.268,12.776l.914,2.606.652,1.758L2.182,19l2.588,1.73,1.1,1.208.7.947,1.094.849h2.352l1.76.816,1.373.947,2.836-1.764h3.725l1.111-3,1.7-.919L23.559,19V16.117l.883-1.306.619-2.035-.619-1.2-.883-1.535V6.931L21.6,5.9h-.779L19.705,3.768l-.617-1.3L17.41,3.05l-1.43-.577H14.424Z" fill="#46278a"/><path d="M5258.771-1422.864a3.5,3.5,0,0,0,.785,2.747c.266.379.469.8.7,1.2a.976.976,0,0,1,0,1.046c-.451.778-.905,1.554-1.345,2.339a1.074,1.074,0,0,0-.132.488q-.019,1.321,0,2.642a1.031,1.031,0,0,1-.579.989c-.742.417-1.481.84-2.208,1.281a1.412,1.412,0,0,0-.459.453c-.44.727-.863,1.466-1.279,2.209a1.049,1.049,0,0,1-1.015.587c-.881-.014-1.762-.009-2.643,0a.95.95,0,0,0-.435.114q-1.151.646-2.288,1.319a1.1,1.1,0,0,1-1.226,0c-.747-.448-1.5-.88-2.262-1.3a1.012,1.012,0,0,0-.461-.123c-.862-.012-1.725-.022-2.586,0a1.116,1.116,0,0,1-1.1-.645c-.411-.745-.841-1.48-1.277-2.211a1.068,1.068,0,0,0-.354-.359q-1.122-.668-2.261-1.306a1.063,1.063,0,0,1-.6-1.037c.017-.861.013-1.723,0-2.584a1.137,1.137,0,0,0-.136-.516q-.641-1.154-1.315-2.289a1.034,1.034,0,0,1,0-1.146q.673-1.136,1.317-2.288a1.08,1.08,0,0,0,.131-.488c.013-.881.016-1.762,0-2.642a1.029,1.029,0,0,1,.58-.989q1.15-.647,2.286-1.321a1.007,1.007,0,0,0,.338-.337q.675-1.134,1.322-2.285a1.048,1.048,0,0,1,1.015-.587q1.277.022,2.556,0a1.347,1.347,0,0,0,.6-.157c.763-.419,1.517-.854,2.266-1.3a1.018,1.018,0,0,1,1.12,0c.759.445,1.521.886,2.29,1.314a1.15,1.15,0,0,0,.515.14c.851.014,1.7.022,2.555,0a1.118,1.118,0,0,1,1.1.643c.411.745.84,1.48,1.277,2.21a1.068,1.068,0,0,0,.355.358q1.134.677,2.284,1.323a1.016,1.016,0,0,1,.573.992C5258.761-1423.947,5258.771-1423.511,5258.771-1422.864Zm-15.628-5.181c-.407,0-.814.008-1.22,0a.352.352,0,0,0-.365.208c-.373.667-.744,1.336-1.151,1.982a1.967,1.967,0,0,1-.6.6c-.645.408-1.313.779-1.981,1.152a.377.377,0,0,0-.226.385c.013.745.028,1.492-.006,2.236a2.223,2.223,0,0,1-.237.9c-.353.677-.751,1.331-1.141,1.988a.335.335,0,0,0,0,.393c.4.682.811,1.364,1.185,2.063a1.731,1.731,0,0,1,.2.741c.025.783.014,1.568.005,2.352a.338.338,0,0,0,.2.343c.683.383,1.368.764,2.034,1.176a1.72,1.72,0,0,1,.542.541c.412.665.8,1.35,1.179,2.033a.356.356,0,0,0,.364.211c.774-.009,1.55-.022,2.323.006a1.89,1.89,0,0,1,.793.215c.684.363,1.349.76,2.014,1.156a.356.356,0,0,0,.419,0c.657-.39,1.312-.786,1.988-1.141a2.056,2.056,0,0,1,.846-.23c.763-.031,1.53-.016,2.295-.007a.358.358,0,0,0,.365-.209c.388-.692.777-1.383,1.191-2.059a1.51,1.51,0,0,1,.481-.482c.685-.419,1.384-.814,2.084-1.208a.336.336,0,0,0,.2-.343c-.008-.755-.025-1.511.008-2.265a2.231,2.231,0,0,1,.238-.9c.352-.677.75-1.331,1.14-1.988a.338.338,0,0,0,0-.394c-.4-.682-.811-1.364-1.186-2.063a1.746,1.746,0,0,1-.2-.74c-.024-.774-.015-1.549,0-2.323a.374.374,0,0,0-.219-.389c-.668-.37-1.336-.743-1.984-1.148a1.873,1.873,0,0,1-.583-.578c-.411-.655-.788-1.332-1.166-2.007a.358.358,0,0,0-.363-.212c-.785.01-1.57.02-2.354-.005a1.736,1.736,0,0,1-.738-.2c-.7-.375-1.376-.79-2.07-1.173a.441.441,0,0,0-.356,0,9.874,9.874,0,0,0-1.106.636A3.637,3.637,0,0,1,5243.144-1428.044Z" transform="translate(-5234.119 1431.533)" fill="#46278a"/><path d="M5330.8-1332.072a2.787,2.787,0,0,1-2.784-2.787,2.8,2.8,0,0,1,2.789-2.788,2.783,2.783,0,0,1,2.779,2.791A2.78,2.78,0,0,1,5330.8-1332.072Zm.927-2.779a.932.932,0,0,0-.907-.941.948.948,0,0,0-.949.935.922.922,0,0,0,.929.915A.907.907,0,0,0,5331.729-1334.851Z" transform="translate(-5320.732 1344.931)" fill="#fff"/><path d="M5409.972-1258.53a2.787,2.787,0,0,1,2.787,2.791,2.8,2.8,0,0,1-2.8,2.784,2.791,2.791,0,0,1-2.765-2.784A2.772,2.772,0,0,1,5409.972-1258.53Zm-.924,2.8a.9.9,0,0,0,.934.9.92.92,0,0,0,.923-.919.934.934,0,0,0-.957-.918A.915.915,0,0,0,5409.048-1255.733Z" transform="translate(-5393.763 1271.954)" fill="#fff"/><path d="M5364.822-1307.1a2.894,2.894,0,0,1-.359.632q-2.594,2.62-5.214,5.215a.926.926,0,0,1-1.328.03.938.938,0,0,1,.028-1.35q2.594-2.6,5.2-5.191a.918.918,0,0,1,1.063-.224A1.075,1.075,0,0,1,5364.822-1307.1Z" transform="translate(-5348.063 1317.648)" fill="#fff"/></svg>