<svg xmlns="http://www.w3.org/2000/svg" xmlns:xlink="http://www.w3.org/1999/xlink" width="48.245" height="15.711" viewBox="0 0 48.245 15.711"><defs><linearGradient id="a" x1="1" x2="0.348" y2="1" gradientUnits="objectBoundingBox"><stop offset="0" stop-color="#ff5b10"/><stop offset="1" stop-color="#ff264a"/></linearGradient></defs><g transform="translate(10.124 9.711)"><path d="M-3852.466,4161.591h-.828a.169.169,0,0,1-.183-.154l-.839-4.92a.174.174,0,0,1,0-.044c0-.076.045-.113.135-.113l1.063.007a.155.155,0,0,1,.172.158l.414,3.151,1.737-3.151a.276.276,0,0,1,.246-.158h1.194c.063,0,.1.021.1.063a.231.231,0,0,1-.033.1l-2.928,4.913A.274.274,0,0,1-3852.466,4161.591Z" transform="translate(3854.32 -4155.795)" fill="#ff5b10"/><path d="M-3820.584,4163.3a2.67,2.67,0,0,1,.987-.8,2.929,2.929,0,0,1,1.282-.282,1.976,1.976,0,0,1,.979.238,1.7,1.7,0,0,1,.667.655,1.863,1.863,0,0,1,.238.938,2.3,2.3,0,0,1-.052.469,2.96,2.96,0,0,1-.539,1.224,2.677,2.677,0,0,1-.974.8,2.86,2.86,0,0,1-1.261.28,1.989,1.989,0,0,1-.987-.242,1.727,1.727,0,0,1-.676-.667,1.893,1.893,0,0,1-.242-.953,2.3,2.3,0,0,1,.044-.443A2.891,2.891,0,0,1-3820.584,4163.3Zm.727,1.479a.968.968,0,0,0,.1.436.738.738,0,0,0,.282.306.833.833,0,0,0,.438.111,1.111,1.111,0,0,0,.566-.153,1.423,1.423,0,0,0,.449-.411,1.46,1.46,0,0,0,.246-.553,1.371,1.371,0,0,0,.029-.268.962.962,0,0,0-.1-.434.711.711,0,0,0-.279-.3.831.831,0,0,0-.436-.11,1.123,1.123,0,0,0-.564.152,1.446,1.446,0,0,0-.454.407,1.4,1.4,0,0,0-.25.555A1.358,1.358,0,0,0-3819.857,4164.778Z" transform="translate(3825.126 -4160.949)" fill="#ff5b10"/><path d="M-3775.288,4162.581h1.019c.09,0,.135.037.135.11a.383.383,0,0,1-.007.055l-.883,4.159a.186.186,0,0,1-.2.165h-.652a.2.2,0,0,1-.145-.06.223.223,0,0,1-.068-.141l-.019-.393a2.029,2.029,0,0,1-1.513.667,1.428,1.428,0,0,1-.6-.145,1.282,1.282,0,0,1-.526-.463,1.416,1.416,0,0,1-.214-.806,2.433,2.433,0,0,1,.059-.513l.528-2.473a.18.18,0,0,1,.194-.161h1c.091,0,.136.038.136.113a.266.266,0,0,1-.007.048l-.505,2.378a.8.8,0,0,0-.022.187.574.574,0,0,0,.161.42.627.627,0,0,0,.466.163,1.056,1.056,0,0,0,.35-.071,1.024,1.024,0,0,0,.375-.245.9.9,0,0,0,.239-.46l.5-2.367A.192.192,0,0,1-3775.288,4162.581Z" transform="translate(3787.973 -4161.273)" fill="#ff5b10"/><path d="M-3735.21,4165.261a.084.084,0,0,1,.084.047l.385.748a.2.2,0,0,1,.022.088c0,.044-.032.089-.1.136a2.7,2.7,0,0,1-.709.372,2.335,2.335,0,0,1-.79.148,2,2,0,0,1-.989-.245,1.754,1.754,0,0,1-.687-.684,1.974,1.974,0,0,1-.247-.99,2.732,2.732,0,0,1,.04-.447,2.568,2.568,0,0,1,.5-1.142,2.853,2.853,0,0,1,.962-.811,2.544,2.544,0,0,1,1.193-.3,2.119,2.119,0,0,1,.815.143,2,2,0,0,1,.621.4.125.125,0,0,1,.044.084.118.118,0,0,1-.037.078l-.63.74a.138.138,0,0,1-.1.044.121.121,0,0,1-.077-.029,1.3,1.3,0,0,0-.372-.218,1.181,1.181,0,0,0-.4-.064,1.094,1.094,0,0,0-.53.143,1.436,1.436,0,0,0-.456.4,1.458,1.458,0,0,0-.264.579,1.5,1.5,0,0,0-.029.278.935.935,0,0,0,.1.441.713.713,0,0,0,.284.3.84.84,0,0,0,.425.1,1.025,1.025,0,0,0,.414-.088,3.346,3.346,0,0,0,.422-.223A.17.17,0,0,1-3735.21,4165.261Z" transform="translate(3752.116 -4160.923)" fill="#ff5b10"/><path d="M-3702.363,4154.78a.677.677,0,0,0-.148-.469.519.519,0,0,0-.4-.165.836.836,0,0,0-.4.1.913.913,0,0,0-.322.295,1.288,1.288,0,0,0-.194.475l-.48,2.257a.22.22,0,0,1-.069.121.191.191,0,0,1-.128.044h-1.019c-.09,0-.135-.038-.135-.113v-.015a.151.151,0,0,1,0-.036l1.162-5.467a.2.2,0,0,1,.071-.125.208.208,0,0,1,.13-.04h1.019a.142.142,0,0,1,.1.033.108.108,0,0,1,.037.084.2.2,0,0,1-.007.048l-.341,1.608a2.039,2.039,0,0,1,1.217-.517q1.3,0,1.3,1.4a4.583,4.583,0,0,1-.11.927l-.436,2.048a.217.217,0,0,1-.069.121.19.19,0,0,1-.128.044h-1.019c-.09,0-.136-.038-.136-.113v-.015a.148.148,0,0,1,0-.036l.465-2.184A1.394,1.394,0,0,0-3702.363,4154.78Z" transform="translate(3723.435 -4151.641)" fill="#ff5b10"/><path d="M-3660.3,4165.318a.1.1,0,0,1,.092.051l.374.626a.2.2,0,0,1,.033.1.177.177,0,0,1-.092.135,3.061,3.061,0,0,1-.9.488,2.985,2.985,0,0,1-.874.125,1.943,1.943,0,0,1-.975-.249,1.836,1.836,0,0,1-.692-.684,1.89,1.89,0,0,1-.253-.969,2.155,2.155,0,0,1,.037-.4,2.879,2.879,0,0,1,.5-1.2,2.631,2.631,0,0,1,.947-.81,2.691,2.691,0,0,1,1.231-.287,1.725,1.725,0,0,1,.788.2,1.6,1.6,0,0,1,.636.6,1.9,1.9,0,0,1,.251,1.01,2.992,2.992,0,0,1-.037.462.642.642,0,0,1-.1.284.339.339,0,0,1-.188.126,1.285,1.285,0,0,1-.328.033h-2.5a.9.9,0,0,0,.125.417.764.764,0,0,0,.295.279.881.881,0,0,0,.419.1,1.928,1.928,0,0,0,.443-.044,1.154,1.154,0,0,0,.3-.108,2.22,2.22,0,0,0,.249-.166c.054-.04.094-.067.121-.085A.176.176,0,0,1-3660.3,4165.318Zm-1.317-1.831a1.608,1.608,0,0,0-.448.467h1.777a.662.662,0,0,0-.246-.479.827.827,0,0,0-.527-.17A.973.973,0,0,0-3661.617,4163.488Z" transform="translate(3686.391 -4160.977)" fill="#ff5b10"/><path d="M-3624.593,4162.257h.6a.278.278,0,0,1,.147.031.227.227,0,0,1,.077.151l.074.393a3.792,3.792,0,0,1,.326-.324,1.277,1.277,0,0,1,.348-.208,1.188,1.188,0,0,1,.469-.086,1.323,1.323,0,0,1,.517.106,2.083,2.083,0,0,1,.431.236,1.759,1.759,0,0,1,.254.214.19.19,0,0,1,.062.127.26.26,0,0,1-.08.154l-.6.648a.179.179,0,0,1-.125.073.144.144,0,0,1-.1-.055c-.012-.013-.049-.05-.11-.114a.759.759,0,0,0-.235-.159.762.762,0,0,0-.311-.063,1.011,1.011,0,0,0-.418.089.937.937,0,0,0-.342.268.973.973,0,0,0-.2.43l-.513,2.419a.183.183,0,0,1-.194.157h-1.033a.158.158,0,0,1-.1-.027.1.1,0,0,1-.035-.079.28.28,0,0,1,.007-.051l.887-4.17A.178.178,0,0,1-3624.593,4162.257Z" transform="translate(3653.015 -4160.949)" fill="#ff5b10"/></g><g transform="translate(15.181 2.777)"><path d="M-3811.645,4103.421h3.818c.083,0,.125.035.125.106a.3.3,0,0,1-.007.051l-.187.891a.175.175,0,0,1-.187.157h-1.25l-.824,3.865a.174.174,0,0,1-.187.154h-1.015c-.088,0-.132-.035-.132-.106a.317.317,0,0,1,.007-.048l.824-3.865h-1.242c-.085,0-.128-.035-.128-.106a.287.287,0,0,1,.008-.051l.187-.891A.177.177,0,0,1-3811.645,4103.421Z" transform="translate(3812.03 -4102.252)" fill="#ff5b10"/><path d="M-3780.549,4112.318a.1.1,0,0,1,.091.051l.374.626a.205.205,0,0,1,.033.1.177.177,0,0,1-.092.135,3.055,3.055,0,0,1-.9.488,2.963,2.963,0,0,1-.874.125,1.942,1.942,0,0,1-.975-.249,1.83,1.83,0,0,1-.693-.683,1.892,1.892,0,0,1-.253-.969,2.176,2.176,0,0,1,.036-.4,2.878,2.878,0,0,1,.5-1.2,2.627,2.627,0,0,1,.947-.81,2.689,2.689,0,0,1,1.231-.287,1.715,1.715,0,0,1,.788.2,1.6,1.6,0,0,1,.636.6,1.9,1.9,0,0,1,.251,1.01,3.017,3.017,0,0,1-.036.462.659.659,0,0,1-.1.284.343.343,0,0,1-.189.126,1.286,1.286,0,0,1-.328.033h-2.5a.893.893,0,0,0,.125.418.767.767,0,0,0,.3.278.87.87,0,0,0,.419.1,1.925,1.925,0,0,0,.443-.044,1.167,1.167,0,0,0,.3-.108,2.231,2.231,0,0,0,.249-.167q.081-.059.121-.085A.173.173,0,0,1-3780.549,4112.318Zm-1.317-1.83a1.608,1.608,0,0,0-.449.467h1.777a.661.661,0,0,0-.246-.479.826.826,0,0,0-.527-.17A.969.969,0,0,0-3781.866,4110.488Z" transform="translate(3787.207 -4107.379)" fill="#ff5b10"/><path d="M-3744.843,4109.257h.6a.288.288,0,0,1,.147.031.227.227,0,0,1,.077.152l.073.392a3.753,3.753,0,0,1,.326-.324,1.307,1.307,0,0,1,.348-.209,1.2,1.2,0,0,1,.469-.086,1.313,1.313,0,0,1,.517.106,2.113,2.113,0,0,1,.431.236,1.845,1.845,0,0,1,.255.214.191.191,0,0,1,.062.128.26.26,0,0,1-.08.154l-.6.648a.179.179,0,0,1-.124.073.147.147,0,0,1-.1-.055l-.11-.114a.738.738,0,0,0-.235-.159.755.755,0,0,0-.311-.064,1,1,0,0,0-.418.089.942.942,0,0,0-.342.267.976.976,0,0,0-.2.431l-.513,2.419a.182.182,0,0,1-.194.157h-1.033a.159.159,0,0,1-.1-.027.1.1,0,0,1-.035-.079.287.287,0,0,1,.008-.051l.886-4.17A.178.178,0,0,1-3744.843,4109.257Z" transform="translate(3753.831 -4107.352)" fill="#ff5b10"/><path d="M-3714.946,4112.8a.254.254,0,0,1,.107-.187l.571-.491a.172.172,0,0,1,.1-.044.182.182,0,0,1,.121.066,1.052,1.052,0,0,0,.777.4.709.709,0,0,0,.385-.083.356.356,0,0,0,.157-.229.6.6,0,0,0,.007-.07.211.211,0,0,0-.051-.141.514.514,0,0,0-.179-.118,3.488,3.488,0,0,0-.367-.129,1.606,1.606,0,0,1-.747-.45,1.085,1.085,0,0,1-.264-.741,1.6,1.6,0,0,1,.04-.359,1.364,1.364,0,0,1,.317-.628,1.588,1.588,0,0,1,.61-.416,2.233,2.233,0,0,1,.828-.146,1.82,1.82,0,0,1,.643.1,1.577,1.577,0,0,1,.451.243,3.02,3.02,0,0,1,.335.32.173.173,0,0,1,.052.11c0,.049-.038.1-.114.158l-.593.439a.21.21,0,0,1-.125.055.158.158,0,0,1-.106-.059,2.168,2.168,0,0,0-.163-.15.621.621,0,0,0-.165-.089.68.68,0,0,0-.244-.039.667.667,0,0,0-.315.063.245.245,0,0,0-.139.154.382.382,0,0,0-.008.059.144.144,0,0,0,.048.11.516.516,0,0,0,.141.084c.063.026.161.063.3.11.109.037.214.073.312.11a1.4,1.4,0,0,1,.674.475,1.124,1.124,0,0,1,.205.657,1.572,1.572,0,0,1-.041.344,1.629,1.629,0,0,1-.4.783,1.766,1.766,0,0,1-.7.459,2.6,2.6,0,0,1-.879.147,2.082,2.082,0,0,1-.875-.184,1.522,1.522,0,0,1-.652-.56A.228.228,0,0,1-3714.946,4112.8Z" transform="translate(3726.554 -4107.189)" fill="#ff5b10"/><path d="M-3676.938,4112.318a.1.1,0,0,1,.091.051l.374.626a.2.2,0,0,1,.033.1.177.177,0,0,1-.092.135,3.05,3.05,0,0,1-.9.488,2.966,2.966,0,0,1-.874.125,1.944,1.944,0,0,1-.975-.249,1.831,1.831,0,0,1-.692-.683,1.893,1.893,0,0,1-.253-.969,2.114,2.114,0,0,1,.037-.4,2.869,2.869,0,0,1,.5-1.2,2.625,2.625,0,0,1,.947-.81,2.691,2.691,0,0,1,1.231-.287,1.714,1.714,0,0,1,.788.2,1.593,1.593,0,0,1,.636.6,1.9,1.9,0,0,1,.251,1.01,2.987,2.987,0,0,1-.037.462.653.653,0,0,1-.1.284.342.342,0,0,1-.189.126,1.284,1.284,0,0,1-.328.033h-2.5a.893.893,0,0,0,.125.418.766.766,0,0,0,.295.278.87.87,0,0,0,.419.1,1.925,1.925,0,0,0,.443-.044,1.173,1.173,0,0,0,.3-.108,2.277,2.277,0,0,0,.25-.167c.053-.039.094-.067.121-.085A.174.174,0,0,1-3676.938,4112.318Zm-1.317-1.83a1.6,1.6,0,0,0-.449.467h1.777a.661.661,0,0,0-.246-.479.827.827,0,0,0-.527-.17A.969.969,0,0,0-3678.255,4110.488Z" transform="translate(3695.984 -4107.379)" fill="#ff5b10"/><path d="M-3635.981,4104.437h-.846a.124.124,0,0,1-.108-.055.328.328,0,0,1-.051-.108c-.009-.036-.019-.092-.031-.171l-.022-.113a2.207,2.207,0,0,1-.6.385,1.655,1.655,0,0,1-.652.136,1.743,1.743,0,0,1-.9-.231,1.574,1.574,0,0,1-.608-.649,2.058,2.058,0,0,1-.216-.959,3.028,3.028,0,0,1,.051-.524,2.717,2.717,0,0,1,.5-1.145,2.732,2.732,0,0,1,.947-.8,2.59,2.59,0,0,1,1.207-.293,1.28,1.28,0,0,1,1.015.433l.33-1.539a.177.177,0,0,1,.191-.157h1.03c.087,0,.131.035.131.106a.258.258,0,0,1-.007.051l-1.165,5.481A.177.177,0,0,1-3635.981,4104.437Zm-.59-2.477a.892.892,0,0,0-.115-.453.82.82,0,0,0-.321-.312.961.961,0,0,0-.465-.111,1.1,1.1,0,0,0-.555.152,1.422,1.422,0,0,0-.451.409,1.432,1.432,0,0,0-.247.557,1.21,1.21,0,0,0-.033.279.918.918,0,0,0,.1.429.717.717,0,0,0,.284.3.854.854,0,0,0,.431.106,1.28,1.28,0,0,0,.59-.146,1.5,1.5,0,0,0,.489-.4,1.347,1.347,0,0,0,.269-.562A1.128,1.128,0,0,0-3636.571,4101.96Z" transform="translate(3660.586 -4098.044)" fill="#ff5b10"/><path d="M-3597.463,4095.591a.189.189,0,0,1,.114-.04h1.044a.124.124,0,0,1,.092.033.115.115,0,0,1,.033.084.126.126,0,0,1,0,.037l-.89,4.181a.172.172,0,0,1-.184.153h-1.044c-.087,0-.132-.035-.132-.106a.32.32,0,0,1,.007-.047l.891-4.181A.194.194,0,0,1-3597.463,4095.591Zm.412-1.867a.329.329,0,0,1,.236-.079h.806c.145,0,.216.063.216.19a.617.617,0,0,1-.015.1l-.172.813a.316.316,0,0,1-.1.2.36.36,0,0,1-.214.055h-.806a.343.343,0,0,1-.179-.039.145.145,0,0,1-.062-.134.348.348,0,0,1,.007-.081l.172-.817A.431.431,0,0,1-3597.051,4093.724Z" transform="translate(3623.973 -4093.646)" fill="#ff5b10"/><path d="M-3575.157,4113.719h-.8a.126.126,0,0,1-.108-.055.335.335,0,0,1-.051-.108q-.012-.053-.031-.17l-.022-.125a2.581,2.581,0,0,1-.612.4,1.563,1.563,0,0,1-.641.134,1.965,1.965,0,0,1-.953-.234,1.746,1.746,0,0,1-.683-.658,1.859,1.859,0,0,1-.251-.969,2.613,2.613,0,0,1,.051-.487,2.9,2.9,0,0,1,.515-1.17,2.657,2.657,0,0,1,.96-.8,2.8,2.8,0,0,1,1.27-.288,1.276,1.276,0,0,1,1.151.593l.223-.388a.565.565,0,0,1,.084-.127.157.157,0,0,1,.106-.031h.748c.088,0,.132.036.132.106a.36.36,0,0,1-.007.051l-.887,4.173A.177.177,0,0,1-3575.157,4113.719Zm-.689-2.473a.918.918,0,0,0-.106-.444.786.786,0,0,0-.3-.313.871.871,0,0,0-.452-.115,1.192,1.192,0,0,0-.551.141,1.43,1.43,0,0,0-.473.4,1.367,1.367,0,0,0-.266.573,1.355,1.355,0,0,0-.029.264.9.9,0,0,0,.1.439.749.749,0,0,0,.3.3.9.9,0,0,0,.445.107,1.173,1.173,0,0,0,.575-.152,1.5,1.5,0,0,0,.475-.406,1.358,1.358,0,0,0,.258-.552A1.076,1.076,0,0,0-3575.846,4111.246Z" transform="translate(3607.136 -4107.326)" fill="#ff5b10"/></g><path d="M-3923.474,4070.61a.654.654,0,0,0-.926,0l-.88.88a4.366,4.366,0,0,0-5.667.429l-7.856,7.855a.655.655,0,0,0-.192.463c0,.271.088.359.417.688l5.012,5.012a.654.654,0,0,0,.463.192.727.727,0,0,0,.551-.28l7.768-7.767a4.366,4.366,0,0,0,.429-5.667l.88-.88A.655.655,0,0,0-3923.474,4070.61Zm-2.235,6.546-7.393,7.392-4.311-4.311,7.393-7.393a3.055,3.055,0,0,1,3.8-.414l-.8.8a1.95,1.95,0,0,0-.847-.192,1.95,1.95,0,0,0-1.388.576,1.948,1.948,0,0,0-.575,1.389,1.951,1.951,0,0,0,.575,1.389,1.959,1.959,0,0,0,1.389.574,1.958,1.958,0,0,0,1.389-.574,1.952,1.952,0,0,0,.575-1.389,1.955,1.955,0,0,0-.191-.847l.8-.8A3.055,3.055,0,0,1-3925.709,4077.157Zm-1.693-2.619a.65.65,0,0,1,.192.463.65.65,0,0,1-.192.463.656.656,0,0,1-.926,0,.651.651,0,0,1-.192-.463.653.653,0,0,1,.192-.463.653.653,0,0,1,.463-.191.652.652,0,0,1,.463.191h0Z" transform="translate(3938.994 -4070.418)" fill="url(#a)"/></svg>