<svg xmlns="http://www.w3.org/2000/svg" width="21.151" height="17.466" viewBox="0 0 21.151 17.466"><path d="M-474.306,1661.841a.373.373,0,0,0-.373.373v.215a.373.373,0,0,0,.373.373.373.373,0,0,0,.373-.373v-.215A.373.373,0,0,0-474.306,1661.841Z" transform="translate(490.786 -1646.985)" fill="#505050"/><path d="M-474.306,1538.6a.373.373,0,0,0,.373-.373v-.215a.373.373,0,0,0-.373-.373.373.373,0,0,0-.373.373v.215A.373.373,0,0,0-474.306,1538.6Z" transform="translate(490.786 -1528.362)" fill="#505050"/><path d="M-414.378,1602.125h-.215a.373.373,0,0,0-.373.373.373.373,0,0,0,.373.373h.215a.373.373,0,0,0,.373-.373A.373.373,0,0,0-414.378,1602.125Z" transform="translate(433.756 -1589.953)" fill="#505050"/><path d="M-538.583,1602.871a.373.373,0,0,0,.373-.373.373.373,0,0,0-.373-.373h-.215a.373.373,0,0,0-.373.373.373.373,0,0,0,.373.373Z" transform="translate(552.379 -1589.953)" fill="#505050"/><path d="M-431.819,1644.46a.373.373,0,0,0-.528,0,.373.373,0,0,0,0,.528l.152.152a.372.372,0,0,0,.264.109.372.372,0,0,0,.264-.109.373.373,0,0,0,0-.528Z" transform="translate(450.46 -1630.281)" fill="#505050"/><path d="M-519.644,1556.633a.373.373,0,0,0-.528,0,.373.373,0,0,0,0,.528l.152.152a.372.372,0,0,0,.264.109.372.372,0,0,0,.264-.109.373.373,0,0,0,0-.528Z" transform="translate(534.338 -1546.401)" fill="#505050"/><path d="M-432.083,1557.422a.372.372,0,0,0,.264-.109l.152-.152a.373.373,0,0,0,0-.528.373.373,0,0,0-.528,0l-.152.152a.373.373,0,0,0,0,.528A.372.372,0,0,0-432.083,1557.422Z" transform="translate(450.46 -1546.401)" fill="#505050"/><path d="M-520.02,1644.46l-.152.152a.373.373,0,0,0,0,.528.371.371,0,0,0,.264.109.372.372,0,0,0,.264-.109l.152-.152a.373.373,0,0,0,0-.528A.373.373,0,0,0-520.02,1644.46Z" transform="translate(534.338 -1630.281)" fill="#505050"/><path d="M-451.111,1657.523a.373.373,0,0,0-.488-.2.373.373,0,0,0-.2.488l.082.2a.373.373,0,0,0,.345.231.371.371,0,0,0,.143-.029.373.373,0,0,0,.2-.488Z" transform="translate(468.962 -1642.641)" fill="#505050"/><path d="M-499.25,1543.254a.373.373,0,0,0,.345.23.373.373,0,0,0,.143-.028.373.373,0,0,0,.2-.488l-.082-.2a.373.373,0,0,0-.488-.2.373.373,0,0,0-.2.488Z" transform="translate(514.358 -1533.046)" fill="#505050"/><path d="M-419.486,1578.043a.373.373,0,0,0,.345.231.373.373,0,0,0,.143-.029l.2-.082a.373.373,0,0,0,.2-.488.373.373,0,0,0-.488-.2l-.2.082A.373.373,0,0,0-419.486,1578.043Z" transform="translate(438.1 -1566.382)" fill="#505050"/><path d="M-533.347,1625.21a.373.373,0,0,0-.488-.2l-.2.082a.373.373,0,0,0-.2.488.373.373,0,0,0,.345.23.369.369,0,0,0,.143-.029l.2-.082A.373.373,0,0,0-533.347,1625.21Z" transform="translate(547.692 -1611.78)" fill="#505050"/><path d="M-418.8,1625.081l-.2-.082a.372.372,0,0,0-.488.2.373.373,0,0,0,.2.488l.2.082a.37.37,0,0,0,.143.029.373.373,0,0,0,.345-.231A.373.373,0,0,0-418.8,1625.081Z" transform="translate(438.1 -1611.772)" fill="#505050"/><path d="M-534.033,1578.157l.2.082a.371.371,0,0,0,.143.028.373.373,0,0,0,.345-.23.373.373,0,0,0-.2-.488l-.2-.082a.373.373,0,0,0-.488.2A.373.373,0,0,0-534.033,1578.157Z" transform="translate(547.692 -1566.376)" fill="#505050"/><path d="M-451.231,1542.57a.373.373,0,0,0-.488.2l-.082.2a.373.373,0,0,0,.2.488.374.374,0,0,0,.143.028.373.373,0,0,0,.345-.23l.082-.2A.373.373,0,0,0-451.231,1542.57Z" transform="translate(468.962 -1533.047)" fill="#505050"/><path d="M-498.763,1657.319a.373.373,0,0,0-.488.2l-.082.2a.373.373,0,0,0,.2.488.368.368,0,0,0,.143.029.373.373,0,0,0,.345-.231l.082-.2A.373.373,0,0,0-498.763,1657.319Z" transform="translate(514.358 -1642.638)" fill="#505050"/><path d="M-497.973,1578.2a.73.73,0,0,0-.189.028l-.661-.661a.373.373,0,0,0-.528,0,.373.373,0,0,0,0,.528l.664.664a.729.729,0,0,0-.025.181.74.74,0,0,0,.739.739.74.74,0,0,0,.739-.739A.74.74,0,0,0-497.973,1578.2Z" transform="translate(514.453 -1566.392)" fill="#505050"/><path d="M-565.278,1482.662v-.394h.514a.373.373,0,0,0,.373-.373.373.373,0,0,0-.373-.373h-1.746a.373.373,0,0,0-.373.373.373.373,0,0,0,.373.373h.485v.4a4.675,4.675,0,0,0-4.284,4.652,4.677,4.677,0,0,0,4.671,4.671,4.677,4.677,0,0,0,4.671-4.671A4.674,4.674,0,0,0-565.278,1482.662Zm-.359,8.329a3.68,3.68,0,0,1-3.676-3.676,3.68,3.68,0,0,1,3.676-3.676,3.68,3.68,0,0,1,3.676,3.676A3.68,3.68,0,0,1-565.637,1490.991Z" transform="translate(582.116 -1474.77)" fill="#505050"/><path d="M-821.214,1346.074a5.123,5.123,0,0,1-.411-1.255.114.114,0,0,0-.162-.082l-1.132.566v-6.417l6.62-2.9v1.371a.206.206,0,0,0,.206.206h1.081a.206.206,0,0,0,.206-.206v-2.512c0-.008,0-.015,0-.022a.743.743,0,0,0-.017-.137c0-.01,0-.021-.006-.031a.742.742,0,0,0-.061-.155c-.006-.012-.015-.023-.022-.035a.736.736,0,0,0-.074-.1c-.012-.013-.024-.026-.036-.039a.716.716,0,0,0-.094-.08c-.009-.007-.016-.015-.025-.022l-.015-.007a.76.76,0,0,0-.137-.067l-.019-.008h0l-8.366-2.789a.747.747,0,0,0-.472,0l-8.367,2.789-.008,0c-.012,0-.023.011-.035.016a.729.729,0,0,0-.119.06l-.017.009c-.009.006-.016.015-.025.022a.732.732,0,0,0-.091.078c-.013.013-.025.025-.036.039a.753.753,0,0,0-.073.1c-.007.011-.015.021-.021.033a.745.745,0,0,0-.06.154c0,.011,0,.023-.006.035a.735.735,0,0,0-.016.132c0,.008,0,.015,0,.022v9.127a.746.746,0,0,0,.429.675l8.62,4.057.012,0a.749.749,0,0,0,.114.039c.012,0,.023.008.035.011a.741.741,0,0,0,.157.017.738.738,0,0,0,.162-.019c.014,0,.027-.009.041-.013a.717.717,0,0,0,.113-.041l.018-.007,2.762-1.381a.114.114,0,0,0,.036-.175A5.192,5.192,0,0,1-821.214,1346.074Zm-2.705-13.228,1.582.527-5.83,2.364-1.98-.815Zm-.493,12.488-7.127-3.354v-6.018l7.127,2.935Zm.738-7.748-2.52-1.038,6.039-2.448,2.525.842Z" transform="translate(833.032 -1331.313)" fill="#505050"/></svg>