<svg xmlns="http://www.w3.org/2000/svg" width="24" height="24" viewBox="0 0 24 24"><g transform="translate(-8.15 -147.123)"><g transform="translate(8.15 147.123)"><path d="M20.15,171.123a1,1,0,0,1-.429-.1c-3.839-1.824-6.477-3.774-8.3-6.134A16.948,16.948,0,0,1,8.15,154.123v-6a1,1,0,0,1,1-1h22a1,1,0,0,1,1,1v6a16.948,16.948,0,0,1-3.271,10.769c-1.823,2.361-4.461,4.31-8.3,6.134A1,1,0,0,1,20.15,171.123Zm-10-22v5A15.043,15.043,0,0,0,13,163.67a19.5,19.5,0,0,0,7.147,5.342A19.5,19.5,0,0,0,27.3,163.67a15.037,15.037,0,0,0,2.853-9.547v-5Z" transform="translate(-8.15 -147.123)" fill="#bc9dff"/></g><g transform="translate(15.108 154.824)"><path d="M19.634,162.594a.955.955,0,0,1-.678-.28l-3.829-3.83a.957.957,0,0,1,1.353-1.353l3.153,3.152,5.066-5.066a.957.957,0,1,1,1.354,1.353l-5.744,5.744A.955.955,0,0,1,19.634,162.594Z" transform="translate(-15.549 -155.404)" fill="#bc9dff"/></g></g></svg>