<svg xmlns="http://www.w3.org/2000/svg" width="20.788" height="27.717" viewBox="0 0 20.788 27.717"><g transform="translate(-1081 -535)"><path d="M694.473,49.831H675.995a1.155,1.155,0,0,0-1.155,1.155v9.238a1.156,1.156,0,0,0,.338.817l6.591,6.591v8.761a1.155,1.155,0,0,0,1.672,1.033l4.619-2.31a1.157,1.157,0,0,0,.639-1.033V67.632l6.59-6.591a1.153,1.153,0,0,0,.339-.817V50.986A1.155,1.155,0,0,0,694.473,49.831Zm-1.155,2.309v2.31H677.15V52.14Zm-6.591,14.2a1.153,1.153,0,0,0-.338.817v6.215l-2.31,1.155v-7.37a1.158,1.158,0,0,0-.338-.817l-6.591-6.591V56.76h16.168v2.986Z" transform="translate(406.16 485.169)" fill="#fff"/></g></svg>