<svg xmlns="http://www.w3.org/2000/svg" width="28.26" height="23.55" viewBox="0 0 28.26 23.55"><g transform="translate(-68.228 -239.408)"><path d="M92.956,262.958H71.761a3.536,3.536,0,0,1-3.533-3.532V242.941a1.178,1.178,0,1,1,2.355,0,1.179,1.179,0,0,0,1.178,1.177H92.956a3.537,3.537,0,0,1,3.532,3.533v11.775A3.536,3.536,0,0,1,92.956,262.958ZM70.583,246.272v13.154a1.179,1.179,0,0,0,1.178,1.177H92.956a1.178,1.178,0,0,0,1.177-1.177V247.651a1.179,1.179,0,0,0-1.177-1.178H71.761A3.537,3.537,0,0,1,70.583,246.272Z" fill="#fff"/><circle cx="1.178" cy="1.178" r="1.178" transform="translate(89.423 252.361)" fill="#fff"/><path d="M95.311,248.828a1.177,1.177,0,0,1-1.178-1.177v-4.71a1.179,1.179,0,0,0-1.177-1.178H71.761a1.18,1.18,0,0,0-1.178,1.178,1.178,1.178,0,0,1-2.355,0,3.537,3.537,0,0,1,3.533-3.533H92.956a3.537,3.537,0,0,1,3.532,3.533v4.71A1.177,1.177,0,0,1,95.311,248.828Z" fill="#fff"/></g></svg>