<svg xmlns="http://www.w3.org/2000/svg" width="26.766" height="20.074" viewBox="0 0 26.766 20.074"><g transform="translate(-112 -548)"><path d="M74.915,150.972H73.8v-1.115a1.115,1.115,0,0,0-1.115-1.115H57.071a1.115,1.115,0,0,0-1.115,1.115V165.47a1.115,1.115,0,0,0,1.115,1.115h2.423a3.345,3.345,0,0,0,6.308,0h8.19a3.345,3.345,0,0,0,6.307,0h1.307a1.116,1.116,0,0,0,1.116-1.115v-6.692A7.816,7.816,0,0,0,74.915,150.972ZM62.647,166.585a1.115,1.115,0,1,1,1.116-1.115A1.116,1.116,0,0,1,62.647,166.585Zm14.5,0a1.115,1.115,0,1,1,1.115-1.115A1.116,1.116,0,0,1,77.146,166.585Zm3.345-2.231H80.3a3.345,3.345,0,0,0-6.307,0H65.8a3.345,3.345,0,0,0-6.308,0H58.187V150.972H71.569v8.922a1.115,1.115,0,1,0,2.23,0V153.2h1.116a5.583,5.583,0,0,1,5.576,5.576Z" transform="translate(56.044 399.258)" fill="#bc9dff"/></g></svg>