<svg xmlns="http://www.w3.org/2000/svg" width="29.121" height="29.12" viewBox="0 0 29.121 29.12"><g transform="translate(-113 -426)"><path d="M-27.9,165.652A10.728,10.728,0,0,0-33.923,162,8.475,8.475,0,0,0-31,155.591,8.5,8.5,0,0,0-39.49,147.1a8.5,8.5,0,0,0-8.493,8.493A8.475,8.475,0,0,0-45.056,162a10.728,10.728,0,0,0-6.023,3.654,14.484,14.484,0,0,0-2.971,9.353,1.213,1.213,0,0,0,1.213,1.213,1.213,1.213,0,0,0,1.214-1.213,12.114,12.114,0,0,1,2.417-7.81,8.945,8.945,0,0,1,7.29-3.11h4.853a8.945,8.945,0,0,1,7.29,3.11,12.114,12.114,0,0,1,2.417,7.81,1.213,1.213,0,0,0,1.213,1.213,1.213,1.213,0,0,0,1.214-1.213A14.484,14.484,0,0,0-27.9,165.652Zm-17.656-10.061a6.073,6.073,0,0,1,6.066-6.066,6.073,6.073,0,0,1,6.067,6.066,6.073,6.073,0,0,1-6.067,6.067A6.073,6.073,0,0,1-45.556,155.591Z" transform="translate(167.05 278.902)" fill="#bc9dff"/></g></svg>