<svg xmlns="http://www.w3.org/2000/svg" width="31.456" height="31.446" viewBox="0 0 31.456 31.446"><g transform="translate(-5578.95 939.636)"><path d="M5854.846-870.589a.929.929,0,0,0-.915-.918.93.93,0,0,0-.925.907.931.931,0,0,0,.93.933A.931.931,0,0,0,5854.846-870.589Zm-3.686,5.516a.929.929,0,0,0-.926-.906.93.93,0,0,0-.915.918.931.931,0,0,0,.941.922A.931.931,0,0,0,5851.161-865.072Z" transform="translate(-248.189 -62.54)" fill="#bc9dff"/><path d="M5592.53-939.636a8.622,8.622,0,0,1,1.458.528,3.509,3.509,0,0,1,1.805,2.927c.006.07.013.139.022.252.1-.047.181-.079.254-.121.816-.468,1.631-.938,2.448-1.4a.941.941,0,0,1,1.428.376q1.323,2.282,2.639,4.568a.939.939,0,0,1-.395,1.445q-5.206,3.008-10.413,6.012a.759.759,0,0,0-.257.218h12.165c.8,0,1.13.334,1.13,1.14v14.369c0,.8-.336,1.135-1.138,1.135h-18c-.8,0-1.139-.334-1.139-1.134v-11.546l-.677.385c-.24.136-.476.282-.721.409a.9.9,0,0,1-1.232-.332q-1.424-2.384-2.824-4.781a.9.9,0,0,1,.36-1.292c.847-.5,1.7-.981,2.551-1.471.078-.045.152-.094.254-.158a3.737,3.737,0,0,1-1.535-1.812,3.692,3.692,0,0,1,.975-4.118,3.65,3.65,0,0,1,4.256-.444c.762.439,1.5.922,2.246,1.385.094.058.189.113.332.2,0-.127,0-.213,0-.3-.03-.828-.053-1.657-.091-2.485a3.687,3.687,0,0,1,3.092-3.9.831.831,0,0,0,.141-.053Zm10.42,29.588v-12.929h-5.506v.375c0,2.579,0,5.159,0,7.738a.981.981,0,0,1-.559,1,.942.942,0,0,1-1.13-.3c-.354-.353-.7-.709-1.082-1.092-.4.406-.766.789-1.145,1.159a.91.91,0,0,1-1.225.141.987.987,0,0,1-.395-.883q.007-3.884,0-7.769v-.387a18.792,18.792,0,0,1-1.958-.012,4.535,4.535,0,0,0-3.3.9.517.517,0,0,0-.276.477q.013,5.635.006,11.27v.313Zm-4.2-25.415-17.606,10.132c.64,1.085,1.259,2.131,1.889,3.2l17.562-10.139Zm-8.366,2.672c.116-.06.188-.094.256-.133q1.2-.686,2.392-1.374a1.892,1.892,0,0,0,.817-2.286,1.851,1.851,0,0,0-2-1.193,1.827,1.827,0,0,0-1.57,1.838C5590.29-934.906,5590.347-933.874,5590.384-932.791Zm-2.672,1.556c-.928-.574-1.8-1.122-2.684-1.654a1.715,1.715,0,0,0-1.361-.174,1.846,1.846,0,0,0-1.267,2.386,1.8,1.8,0,0,0,2.385,1.1C5585.767-930.07,5586.7-930.656,5587.712-931.235Zm7.868,14.26v-5.993h-1.8V-917C5594.667-917.627,5594.816-917.627,5595.58-916.975Z" transform="translate(0.001 0)" fill="#bc9dff"/><path d="M5900.519-823.581c-.362.855-1.135.654-1.843.68,0,.306,0,.589,0,.872a.927.927,0,0,1-.935.965.927.927,0,0,1-.906-.962c0-.283,0-.567,0-.879-.314,0-.6,0-.881,0a.929.929,0,0,1-.961-.939.928.928,0,0,1,.966-.9c.275,0,.551,0,.876,0,0-.28,0-.551,0-.822a.934.934,0,0,1,.909-1.02.934.934,0,0,1,.933,1.028c0,.255,0,.51,0,.8.683.049,1.482-.187,1.842.688Z" transform="translate(-290.113 -103.771)" fill="#bc9dff"/><path d="M5896.084-870.589a.931.931,0,0,1-.911.923.93.93,0,0,1-.93-.933.931.931,0,0,1,.926-.907A.929.929,0,0,1,5896.084-870.589Z" transform="translate(-289.426 -62.54)" fill="#bc9dff"/><path d="M5851.161-803.225a.931.931,0,0,1-.9.934.931.931,0,0,1-.941-.922.93.93,0,0,1,.915-.918A.929.929,0,0,1,5851.161-803.225Z" transform="translate(-248.189 -124.388)" fill="#bc9dff"/></g></svg>