<svg xmlns="http://www.w3.org/2000/svg" xmlns:xlink="http://www.w3.org/1999/xlink" width="25" height="25" viewBox="0 0 25 25"><defs><clipPath id="a"><rect width="25" height="25" transform="translate(0 0.133)" fill="#bc9dff"/></clipPath></defs><g transform="translate(-0.335 -0.471)"><g transform="translate(0.335 0.338)" clip-path="url(#a)"><path d="M25.052,7.18c0-.011,0-.022-.005-.033-.005-.034-.012-.066-.02-.1,0-.009,0-.019-.007-.028a1.039,1.039,0,0,0-.1-.233L24.9,6.761q-.026-.043-.057-.083l-.017-.023a1.064,1.064,0,0,0-.082-.091l-.019-.018q-.037-.035-.078-.066l-.027-.02a1.067,1.067,0,0,0-.113-.071L13.03.127a1.044,1.044,0,0,0-1,0L.55,6.389a1.068,1.068,0,0,0-.113.071l-.027.02q-.041.031-.078.066l-.019.018a1.063,1.063,0,0,0-.082.091l-.017.023q-.03.04-.057.083L.14,6.788a1.039,1.039,0,0,0-.1.233c0,.009,0,.018-.007.028-.008.032-.015.065-.02.1,0,.011,0,.022-.005.033A1.07,1.07,0,0,0,0,7.309V17.751a1.044,1.044,0,0,0,.544.917l11.485,6.264a1.025,1.025,0,0,0,.113.053l.025.009q.044.016.09.029l.033.008c.029.007.059.012.089.017l.031,0a.975.975,0,0,0,.24,0l.031,0c.03,0,.06-.01.089-.017l.033-.008c.031-.008.061-.018.09-.029l.025-.009a1.025,1.025,0,0,0,.113-.053l11.485-6.264a1.044,1.044,0,0,0,.544-.917V7.309a1.069,1.069,0,0,0-.009-.129M12.53,2.233l9.305,5.076L18.273,9.252,8.968,4.176ZM6.787,5.366l9.305,5.076L12.53,12.384,3.225,7.309Zm-4.7,3.7,9.4,5.126v8.063l-9.4-5.126ZM13.574,22.257V14.194l9.4-5.126v8.063Z" transform="translate(-0.044 0.109)" fill="#bc9dff"/></g></g></svg>