<svg xmlns="http://www.w3.org/2000/svg" width="30" height="30" viewBox="0 0 30 30"><path d="M21.429,30H8.572A8.581,8.581,0,0,1,0,21.429V8.572A8.582,8.582,0,0,1,8.572,0H21.429A8.581,8.581,0,0,1,30,8.572V21.429A8.58,8.58,0,0,1,21.429,30ZM8.572,2.857A5.722,5.722,0,0,0,2.857,8.572V21.429a5.721,5.721,0,0,0,5.715,5.714H21.429a5.72,5.72,0,0,0,5.714-5.714V8.572a5.721,5.721,0,0,0-5.714-5.715Zm6.429,20A7.866,7.866,0,0,1,7.144,15,8.142,8.142,0,0,1,15,7.144a7.857,7.857,0,0,1,0,15.714ZM15.118,10h0a5.236,5.236,0,0,0-5.09,5.085,4.915,4.915,0,0,0,1.431,3.456,4.849,4.849,0,0,0,3.451,1.43A5.239,5.239,0,0,0,20,14.886,4.886,4.886,0,0,0,15.12,10Zm7.739-1.427a1.429,1.429,0,1,1,1.428-1.428A1.43,1.43,0,0,1,22.858,8.572Z" transform="translate(0 0)" fill="#fff" opacity="0.4"/></svg>