<svg xmlns="http://www.w3.org/2000/svg" width="28.338" height="22.666" viewBox="0 0 28.338 22.666"><path d="M25.43,5.638c.013.241.018.5.018.751A16.29,16.29,0,0,1,8.908,22.664,16.7,16.7,0,0,1,0,20.1c.452.042.916.071,1.385.071a11.819,11.819,0,0,0,7.224-2.451,5.808,5.808,0,0,1-5.432-3.98,5.591,5.591,0,0,0,1.092.113,6.068,6.068,0,0,0,1.533-.2A5.758,5.758,0,0,1,1.137,8.046a.323.323,0,0,1,0-.071,5.886,5.886,0,0,0,2.632.708A5.684,5.684,0,0,1,1.186,3.924,5.614,5.614,0,0,1,1.97,1.048,16.621,16.621,0,0,0,13.95,7.026a5.911,5.911,0,0,1-.142-1.3A5.769,5.769,0,0,1,19.616,0a5.863,5.863,0,0,1,4.241,1.8A11.488,11.488,0,0,0,27.551.411,5.758,5.758,0,0,1,25,3.584a11.938,11.938,0,0,0,3.337-.907A11.663,11.663,0,0,1,25.43,5.638Z" fill="#fff" opacity="0.4"/></svg>