<svg xmlns="http://www.w3.org/2000/svg" width="15.559" height="13.29" viewBox="0 0 15.559 13.29"><g transform="translate(0)"><path d="M658.867,487.9a.646.646,0,0,1-.346-.1c-2.777-1.748-7.434-5.239-7.434-8.977a4.219,4.219,0,0,1,4.214-4.214,4.724,4.724,0,0,1,3.566,1.665,4.722,4.722,0,0,1,3.565-1.665,4.219,4.219,0,0,1,4.214,4.214c0,3.738-4.658,7.229-7.434,8.977A.644.644,0,0,1,658.867,487.9ZM655.3,475.909a2.921,2.921,0,0,0-2.917,2.917c0,2.214,2.357,4.993,6.483,7.659,4.125-2.666,6.482-5.445,6.482-7.659a2.92,2.92,0,0,0-2.917-2.917,3.259,3.259,0,0,0-2.962,1.857.648.648,0,0,1-.6.413h0a.648.648,0,0,1-.6-.413A3.259,3.259,0,0,0,655.3,475.909Z" transform="translate(-651.087 -474.612)" fill="#e6e6e6"/></g></svg>