<svg xmlns="http://www.w3.org/2000/svg" width="25.001" height="25.001" viewBox="0 0 25.001 25.001"><g transform="translate(0 0)"><path d="M-2429.887,721.839a12.5,12.5,0,0,0-12.5,12.5,12.5,12.5,0,0,0,12.5,12.5,12.5,12.5,0,0,0,12.5-12.5A12.5,12.5,0,0,0-2429.887,721.839Zm7.823,15.746a5.775,5.775,0,0,1-.366,1.911,3.859,3.859,0,0,1-.908,1.394,3.86,3.86,0,0,1-1.394.908,5.778,5.778,0,0,1-1.911.366c-.84.038-1.107.047-3.245.047s-2.406-.009-3.245-.047a5.781,5.781,0,0,1-1.911-.366,3.863,3.863,0,0,1-1.394-.908,3.856,3.856,0,0,1-.908-1.394,5.787,5.787,0,0,1-.366-1.911c-.039-.84-.047-1.108-.047-3.245s.009-2.406.047-3.245a5.784,5.784,0,0,1,.366-1.91,3.856,3.856,0,0,1,.908-1.394,3.86,3.86,0,0,1,1.394-.908,5.783,5.783,0,0,1,1.911-.366c.84-.038,1.107-.047,3.245-.047s2.405.009,3.245.047a5.78,5.78,0,0,1,1.911.366,3.857,3.857,0,0,1,1.394.908,3.859,3.859,0,0,1,.908,1.394,5.772,5.772,0,0,1,.366,1.91c.039.839.047,1.108.047,3.245S-2422.026,736.745-2422.064,737.585Z" transform="translate(2442.388 -721.839)" fill="#8f9096" fill-rule="evenodd"/><ellipse cx="2.624" cy="2.624" rx="2.624" ry="2.624" transform="translate(9.877 9.877)" fill="#8f9096"/><path d="M-2396.872,757.769a4.362,4.362,0,0,0-.271-1.462,2.443,2.443,0,0,0-.589-.9,2.438,2.438,0,0,0-.905-.589,4.354,4.354,0,0,0-1.461-.271c-.83-.038-1.079-.046-3.18-.046s-2.351.008-3.181.046a4.354,4.354,0,0,0-1.461.271,2.439,2.439,0,0,0-.9.589,2.437,2.437,0,0,0-.589.9,4.356,4.356,0,0,0-.271,1.462c-.038.83-.046,1.079-.046,3.18s.008,2.35.046,3.181a4.356,4.356,0,0,0,.271,1.461,2.436,2.436,0,0,0,.589.905,2.44,2.44,0,0,0,.9.589,4.357,4.357,0,0,0,1.461.271c.83.038,1.079.046,3.181.046s2.351-.008,3.18-.046a4.357,4.357,0,0,0,1.461-.271,2.439,2.439,0,0,0,.905-.589,2.442,2.442,0,0,0,.589-.905,4.362,4.362,0,0,0,.271-1.462c.038-.83.046-1.079.046-3.18S-2396.834,758.6-2396.872,757.769Zm-6.407,7.222a4.042,4.042,0,0,1-4.042-4.042,4.042,4.042,0,0,1,4.042-4.042,4.042,4.042,0,0,1,4.042,4.042A4.041,4.041,0,0,1-2403.278,764.991Zm4.2-7.3a.944.944,0,0,1-.944-.944.945.945,0,0,1,.944-.945.945.945,0,0,1,.945.945A.945.945,0,0,1-2399.077,757.693Z" transform="translate(2415.779 -748.449)" fill="#8f9096" fill-rule="evenodd"/></g></svg>