<svg xmlns="http://www.w3.org/2000/svg" xmlns:xlink="http://www.w3.org/1999/xlink" width="335.091" height="346.583" viewBox="0 0 335.091 346.583"><defs><linearGradient id="a" x1="0.496" y1="0.969" x2="0.537" y2="-0.028" gradientUnits="objectBoundingBox"><stop offset="0" stop-color="#c5205c"/><stop offset="0.123" stop-color="#cb245e"/><stop offset="1" stop-color="#fb446c"/></linearGradient></defs><g transform="translate(-1775.497 -1879.545)"><path d="M1290.587,387.543a167.539,167.539,0,0,0,163.9,167.5c1.211.031,2.43.043,3.649.043q7.035,0,13.929-.575a166.878,166.878,0,0,0,98.278-42.549q3.773-3.4,7.337-7.031a167.6,167.6,0,0,0-147.985-282.526q-3.6.612-7.143,1.382c-.753.159-1.506.33-2.259.5q-1.805.419-3.6.877a165.73,165.73,0,0,0-16.41,5.089c-.229.085-.458.167-.683.256q-3.633,1.351-7.186,2.873a167.332,167.332,0,0,0-101.826,154.158Z" transform="translate(484.91 1659.545)" fill="#e6f4ff"/><path d="M2064.965,2167.405a49.44,49.44,0,0,1-1.132,8.025,11.853,11.853,0,0,1-11.586,9.145c-3.9-.132-11.447-.176-20.472-.176-5.724,0-12.045.025-18.416.051-7.013.031-14.089.082-20.485.125-13.875.107-24.561.227-24.561.227s-5.2-.057-13.063-.126c-3.4-.031-7.308-.062-11.5-.1-21.359-.157-50.259-.3-59.379,0a11.874,11.874,0,0,1-7.384-2.554,11.7,11.7,0,0,1-4.189-6.591,48.791,48.791,0,0,1-1.138-8.025,36.864,36.864,0,0,1-.032-3.887c.446-8.227,14.453-58.468,18.737-66.191q1.99-3.586,4.189-7.057c6.208-9.767,13.994-18.724,23.775-24.913a70.322,70.322,0,0,1,14.195-6.768,12.954,12.954,0,0,1-2.623-7.622c.013-5.24,3.686-9.919,8.2-12.579s9.787-3.667,14.944-4.566c4.466-.78,10.434-1.547,15.265-.641,4.83-.906,10.8-.138,15.265.641,5.157.9,10.435,1.906,14.944,4.566s8.189,7.34,8.2,12.579a12.958,12.958,0,0,1-2.623,7.622,70.324,70.324,0,0,1,14.2,6.768c9.78,6.189,17.561,15.146,23.781,24.913,1.478,2.314,2.862,4.667,4.182,7.063a66.089,66.089,0,0,1,3.56,9.2c5.32,16.026,13.069,45.543,14.132,50.033a38.429,38.429,0,0,1,1.044,6.95A35.19,35.19,0,0,1,2064.965,2167.405Z" transform="translate(-22.805 -33.858)" fill="url(#a)"/><path d="M1984.495,2002.015a8.42,8.42,0,0,1-5.052-4.151,19.514,19.514,0,0,1-1.993-6.325,65.1,65.1,0,0,1,1.326-28.361c1.584-5.786,4.5-11.9,10.147-14.173.048-3.074,2.281-5.81,4.777-7.664,5.778-4.292,13.96-4.758,20.661-2.056s11.958,8.232,15.271,14.562,4.826,13.433,5.543,20.517c.625,6.173.625,12.639-1.982,18.289s-8.4,10.26-14.7,9.874C2006.769,2001.807,1995.878,2004.879,1984.495,2002.015Z" transform="translate(-60.119 0)" fill="#462261"/><path d="M2032.18,2061.847s-16.345,47.9-5.78,79.451h-35.24c10.565-31.551-5.78-79.451-5.78-79.451a17.246,17.246,0,0,1,1.168-1.391c4.8-5.2,12.97-8.615,22.246-8.615,9.122,0,17.18,3.308,22.009,8.364a19.031,19.031,0,0,1,1.376,1.6c-.024.015-.048.034-.077.048Z" transform="translate(-63.288 -40.643)" fill="#4625ac"/><path d="M2030.552,2062.068c0,5.956-8.252,19.636-18.431,19.636s-18.431-13.681-18.431-19.636,8.252-10.784,18.431-10.784S2030.552,2056.112,2030.552,2062.068Z" transform="translate(-66.244 -40.445)" fill="#f68895"/><path d="M2026.851,2047.09q.265,4.018.906,7.994a43.475,43.475,0,0,1-30.428,0,88.869,88.869,0,0,0,1.063-16.749,87.955,87.955,0,0,0-1.126-11.635c5.107,1.063,10.189,1.786,15.277,2.616,5.089-.83,10.17-1.553,15.278-2.616A88.9,88.9,0,0,0,2026.851,2047.09Z" transform="translate(-67.516 -31.698)" fill="#f68895"/><path d="M2026.849,2047.089a29.262,29.262,0,0,1-11.236.5,29.688,29.688,0,0,1-17.223-9.257,87.581,87.581,0,0,0-1.124-11.632c5.1,1.063,10.189,1.788,15.278,2.613,5.09-.825,10.168-1.549,15.279-2.613A88.91,88.91,0,0,0,2026.849,2047.089Z" transform="translate(-67.516 -31.699)" fill="#f17785"/><path d="M2028.206,2011.5a17.428,17.428,0,0,1-32.222,3.679c-3.317-6.239-2.564-13.8-1.333-20.753.971-5.5,2.178-11.154,1.714-16.649a14.5,14.5,0,0,0,3.332-5,53.543,53.543,0,0,0,27.031,9.522,58.557,58.557,0,0,0,.425,9.947C2027.984,1998.671,2029.882,2005.244,2028.206,2011.5Z" transform="translate(-66.214 -12.515)" fill="#f68895"/><path d="M2044.666,2003.583a8.953,8.953,0,0,1,.736-3.05,2.531,2.531,0,0,1,2.237-1.567,3.2,3.2,0,0,1,2.238,1.757,8.919,8.919,0,0,1,.7,7.439,6.761,6.761,0,0,1-5.1,4.446C2045.131,2009.567,2044.324,2006.6,2044.666,2003.583Z" transform="translate(-84.351 -21.829)" fill="#f68895"/><path d="M1993.7,2003.583a8.959,8.959,0,0,0-.736-3.05,2.529,2.529,0,0,0-2.237-1.567,3.2,3.2,0,0,0-2.237,1.757,8.918,8.918,0,0,0-.7,7.439,6.76,6.76,0,0,0,5.1,4.446C1993.235,2009.567,1994.042,2006.6,1993.7,2003.583Z" transform="translate(-63.965 -21.829)" fill="#f68895"/><path d="M2021.894,2029a1.048,1.048,0,0,1,1.011,1.341,4.561,4.561,0,0,1-8.72,0,1.048,1.048,0,0,1,1.011-1.341Z" transform="translate(-73.519 -32.516)" fill="#efefef"/><path d="M2109.976,2239.314a11.856,11.856,0,0,1-11.581,9.145c-3.9-.131-11.45-.177-20.474-.177-12.032,0-26.7.086-38.9.177-13.875.106-24.56.223-24.56.223s-5.2-.056-13.06-.127c-.046-4.987-.106-9.991-.106-14.883l35.6-11.825c13.334-4.426,26.88-8.9,40.918-9.469,11.252-.456,23.02,1.919,32.288,8.072a38.625,38.625,0,0,1,1.043,6.948A46.675,46.675,0,0,1,2109.976,2239.314Z" transform="translate(-68.949 -97.74)" fill="#fb446c"/><path d="M1872.8,2239.314a11.856,11.856,0,0,0,11.581,9.145c3.9-.131,11.45-.177,20.474-.177,12.032,0,26.7.086,38.9.177,13.875.106,24.56.223,24.56.223s5.2-.056,13.06-.127c.045-4.987.106-9.991.106-14.883l-35.6-11.825c-13.333-4.426-26.879-8.9-40.917-9.469-11.252-.456-23.021,1.919-32.288,8.072a38.624,38.624,0,0,0-1.043,6.948A46.679,46.679,0,0,0,1872.8,2239.314Z" transform="translate(-22.804 -97.74)" fill="#fb446c"/><path d="M9.088,0H115.222a9.087,9.087,0,0,1,9.087,9.087V71.261a9.087,9.087,0,0,1-9.087,9.087H9.087A9.087,9.087,0,0,1,0,71.261V9.088A9.088,9.088,0,0,1,9.088,0Z" transform="translate(1883.356 2070.623)" fill="#29153f"/><rect width="20.61" height="8.645" transform="translate(1935.205 2106.475)" fill="#fff"/><g transform="translate(1807.497 2109.602)"><path d="M1908.009,2222.8s72.384,64.788,141.237.9l-62.1,66.917Z" transform="translate(-1843.257 -2211.068)" fill="#371a4f"/><path d="M2067.953,2356.171c-2.995.24-5.457-3.023-5.1-6.007s2.817-5.379,5.594-6.525,5.854-1.275,8.857-1.388l22.552-.849c3.1-.117,6.294-.222,9.224.808,6.734,2.366,10.195,11.289,6.817,17.577s-12.729,8.329-18.42,4.021C2089.779,2357.979,2076.667,2360.324,2067.953,2356.171Z" transform="translate(-1898.334 -2253.239)" fill="#29153f"/><path d="M1987.919,2311.2c-4.274,2.012-9.254,2.2-14.047,2.293-24.243.51-48.659.013-72.445-4.319-21.393-3.9-42.364-11.052-60.161-22.589q-2.988-1.92-5.844-4.019c-12.81-9.4-23.821-21.875-27.065-36.667-3.133-14.295,2.456-28.1,14.207-37.572,11.426-9.211,34.4.828,46.043,6.23,11.046,5.128,21.234,11.632,31.229,18.359q3.268,2.2,6.516,4.421l51.217,34.883q14.764,10.063,29.534,20.117c3.161,2.154,6.543,4.606,7.395,8.142C1995.527,2304.794,1992.187,2309.19,1987.919,2311.2Z" transform="translate(-1807.497 -2204.59)" fill="#462261"/><path d="M2006.568,2326.848c-4.274,2.013-9.254,2.2-14.047,2.293-24.243.509-48.658.013-72.445-4.319-21.393-3.9-42.364-11.052-60.161-22.589a96.668,96.668,0,0,0,31.242,1.1c10.043-1.306,20.086-4.332,27.861-10.333s12.948-15.327,11.785-24.608c-.975-7.778-6.017-14.339-12.318-19.824q3.268,2.2,6.516,4.421,25.6,17.438,51.218,34.883,14.763,10.063,29.534,20.118c3.161,2.153,6.543,4.605,7.394,8.142C2014.176,2320.439,2010.836,2324.834,2006.568,2326.848Z" transform="translate(-1826.146 -2220.235)" fill="#371a4f"/><path d="M1936.158,2346.306c2.8-1.086,6.093,1.339,6.606,4.3s-1.164,5.959-3.5,7.851-5.247,2.893-8.092,3.858l-21.371,7.252c-2.941,1-5.969,2.009-9.071,1.859-7.13-.345-12.994-7.909-11.552-14.9s9.821-11.616,16.506-9.111C1914.724,2350.8,1926.621,2344.812,1936.158,2346.306Z" transform="translate(-1836.479 -2254.916)" fill="#29153f"/><path d="M2126.3,2245.9c-3.244,14.792-14.256,27.265-27.065,36.667-18.958,13.919-42.219,22.27-66,26.608s-48.2,4.828-72.445,4.319c-4.793-.1-9.773-.28-14.047-2.293-3.348-1.581-6.135-4.631-6.675-7.957a7.054,7.054,0,0,1,.1-2.764c.851-3.536,4.233-5.988,7.395-8.142q14.763-10.062,29.526-20.117,25.616-17.438,51.225-34.883c5.609-3.822,11.233-7.651,16.994-11.275a184.5,184.5,0,0,1,20.743-11.5c11.64-5.4,34.625-15.441,46.051-6.23C2123.847,2217.8,2129.436,2231.607,2126.3,2245.9Z" transform="translate(-1854.629 -2204.59)" fill="#462261"/><path d="M2126.353,2245.9c-3.244,14.792-14.255,27.265-27.065,36.667-18.958,13.919-42.219,22.27-66.005,26.608s-48.2,4.828-72.445,4.319c-4.793-.1-9.773-.28-14.047-2.293-3.348-1.581-6.136-4.631-6.675-7.957,43.935,8.575,91.141,2.4,130.641-17.321,12.1-6.039,23.883-13.69,30.537-24.774s6.806-26.283-2.767-35.38c-7.671-7.294-19.864-9.218-30.716-7.427-7.906,1.305-15.3,4.293-22.458,7.72a184.516,184.516,0,0,1,20.742-11.5c11.641-5.4,34.625-15.441,46.051-6.23C2123.9,2217.8,2129.487,2231.607,2126.353,2245.9Z" transform="translate(-1854.68 -2204.59)" fill="#371a4f"/></g></g></svg>