<svg xmlns="http://www.w3.org/2000/svg" width="369.432" height="381.363" viewBox="0 0 369.432 381.363"><g transform="translate(-1180.907 -72.2)"><g transform="translate(1180.907 72.2)"><path d="M1290.587,387.543a167.539,167.539,0,0,0,163.9,167.5c1.211.031,2.43.043,3.649.043q7.035,0,13.929-.575a166.878,166.878,0,0,0,98.278-42.549q3.773-3.4,7.337-7.031a167.6,167.6,0,0,0-147.985-282.526q-3.6.612-7.143,1.382c-.753.159-1.506.33-2.259.5q-1.805.419-3.6.877a165.73,165.73,0,0,0-16.41,5.089c-.229.085-.458.167-.683.256q-3.633,1.351-7.186,2.873a167.332,167.332,0,0,0-101.826,154.158Z" transform="translate(-1256.246 -173.724)" fill="#e6f4ff"/><g transform="translate(297.945 136.249)"><path d="M2138.508,507.828a25.275,25.275,0,0,1,13.012.876c7.006,2.377.5,19.267-.125,26.4s6.506,16.139,8.758,23.771-5,17.015-5,17.015-8.633-11.51-13.762-14.888-8.758-17.015-8.883-25.022S2138.508,507.828,2138.508,507.828Z" transform="translate(-2132.501 -507.36)" fill="#2c313a"/></g><g transform="translate(138.961 22.729)"><g transform="translate(55.3 111.144)"><path d="M1829.411,499.771c27.49,25.22,55.221,28.617,53.183,40.567-1.3,7.618-14.015,24.954-27.139,22.709-16.247-2.779-37.168-16.4-54.106-34.218C1807.439,512.463,1822.172,503.382,1829.411,499.771Z" transform="translate(-1801.348 -499.771)" fill="#ce4949"/></g><path d="M1624.729,152.046c.217-4.719-.215-3.835,5.57-6.895,2.861-1.513,6.859,2.1,8.117,5.079,6,14.235,30.78,58.586,55.082,89.863a128.062,128.062,0,0,0,14.593,15.845c-7.238,3.611-21.971,12.692-28.062,29.059a147.842,147.842,0,0,1-12.823-15.414C1642.7,235.536,1626.631,172.1,1624.729,152.046Z" transform="translate(-1624.729 -144.794)" fill="#f27c79"/></g><g transform="translate(302.379 135.674)"><path d="M2150.175,505.565s3.566-.594,3.566,2.69c0,9.008-4,10.071-6.193,8.945S2147.61,505.315,2150.175,505.565Z" transform="translate(-2146.662 -505.523)" fill="#434a59"/></g><g transform="translate(198.239 271.845)"><path d="M1814.054,1049.909c1.211.031,2.43.043,3.649.043q7.035,0,13.929-.574a166.878,166.878,0,0,0,98.278-42.549c-2.263-13.766-4.616-26.174-6.771-33.965-7.481-27.07-77.418-50.806-87.8-12.144-3.187,11.868-15.734,21.034-19.845,61.51q-.169,1.654-.315,3.412c-.051.6-.1,1.215-.147,1.837q-.181,2.289-.323,4.744c-.023.384-.042.769-.066,1.157,0,.1-.011.2-.015.3-.19,3.416-.338,7.046-.446,10.87Q1814.1,1047.172,1814.054,1049.909Z" transform="translate(-1814.054 -940.433)" fill="#5cbec6"/></g><g transform="translate(198.363 357.053)"><path d="M1814.451,1231.486a159.725,159.725,0,0,0,17.454,4.826,166.508,166.508,0,0,0,46.692-10.734c-7.046-1.246-14.182-2.539-20.941-3.8-22.92-4.293-36.457-7.66-42.207-9.2h0c-.05.6-.1,1.215-.144,1.836q-.181,2.289-.322,4.744c-.023.384-.042.769-.066,1.157,0,.1-.011.2-.015.3C1814.707,1224.032,1814.56,1227.662,1814.451,1231.486Z" transform="translate(-1814.451 -1212.576)" fill="#4297b2"/></g><g transform="translate(193.884 168.474)"><path d="M1805.071,806.9c7.19,6.3,21.515,10.284,38.135,12.594a165.57,165.57,0,0,0,25.564-7.632,167.394,167.394,0,0,0,51.587-31.814q3.773-3.4,7.337-7.031c-3.9-23.188-7.477-47.32-9.4-69.021-2.454-27.746,5.284-50.942,4.748-62.212a14.03,14.03,0,0,0-.443-3.075,35.483,35.483,0,0,0-16.93-21.678,43.861,43.861,0,0,0-6.029-2.9,50.332,50.332,0,0,0-6.06-1.949,60.84,60.84,0,0,0-7.854-1.467c-.574-.07-1.157-.132-1.743-.19q-1.52-.145-2.947-.206c-.345-.016-.683-.027-1.017-.031-19-.388-24.908,10.979-33.806,21.736a22.441,22.441,0,0,0-2.446,3.773c-6.041,11.379-10.785,36.019-20.948,70.089-2.908,9.752-18.23,59.537-22.551,89.6C1799.633,799.944,1801.441,803.718,1805.071,806.9Z" transform="translate(-1800.146 -610.282)" fill="#ff5f4a"/></g><g transform="translate(282.068 124.353)"><path d="M2103.3,475.424a16.133,16.133,0,0,0-9.315-5.233c-1.149-.217-7.062-2.631-10.566,1.975s-.324,16.6.056,18.62.874,11.714,3.359,13.817a7.614,7.614,0,0,0,10.492-.622C2100.506,500.925,2112.93,486.641,2103.3,475.424Z" transform="translate(-2081.792 -469.366)" fill="#2c313a"/></g><g transform="translate(275.287 152.227)"><path d="M2075.952,558.392l2.329,20.545c.115,3.391-12.391,9.618-17.854,5.462-1.6-1.216,3.924-9.37,3.924-9.37l4.219-15.166Z" transform="translate(-2060.136 -558.392)" fill="#ff867a"/></g><g transform="translate(280.878 155.709)"><path d="M2077.993,577.72l2.155-7.75,6.095-.456S2084.8,577.382,2077.993,577.72Z" transform="translate(-2077.993 -569.514)" fill="#c66c67"/></g><g transform="translate(272.352 129.91)"><path d="M2072.375,497.424l1.248,6.8c-.34,6.34-6.776,11.03-13.045,10.022-7.818-1.258-11.187-3.757-9.307-10.853,1.1-4.161,6.775-10.711,9.011-13.234,2.615-2.948,6.121-3.7,8.942-2.5C2071.906,488.814,2067.559,491.4,2072.375,497.424Z" transform="translate(-2050.762 -487.116)" fill="#ff867a"/></g><g transform="translate(272.427 150.726)"><path d="M2067.656,558.8a9.581,9.581,0,0,1-6.912,1.116c-5.852-.942-9.211-2.579-9.742-6.319,1.644,1.016,4.59,2.914,6.271,3.4C2059.611,557.671,2066.213,558.545,2067.656,558.8Z" transform="translate(-2051.002 -553.597)" fill="#c66c67"/></g><g transform="translate(279.195 136.654)"><g transform="translate(0 4.075)"><path d="M2075.269,524.111a5.583,5.583,0,0,1-1.646-2.15c-.286-.65-1.236-.088-.953.555a6.294,6.294,0,0,0,1.82,2.377C2075.038,525.334,2075.821,524.556,2075.269,524.111Z" transform="translate(-2072.618 -521.672)" fill="#c66c67"/></g><g transform="translate(6.563 3.196)"><path d="M2095.037,519.037a.561.561,0,0,0-.759-.039,2,2,0,0,0-.664.892.667.667,0,0,0,.566.875C2094.76,520.824,2095.693,519.535,2095.037,519.037Z" transform="translate(-2093.578 -518.864)" fill="#434a59"/></g><g transform="translate(0.045)"><path d="M2074.22,508.828a.561.561,0,0,0-.759-.04,2,2,0,0,0-.664.892.667.667,0,0,0,.565.876C2073.944,510.615,2074.876,509.326,2074.22,508.828Z" transform="translate(-2072.761 -508.655)" fill="#434a59"/></g></g><g transform="translate(292.306 143.546)"><path d="M2117.08,533.486a9.972,9.972,0,0,0,1.509-1.463c.872-1.014,2.4-2.32,3.272-.285,1.263,2.959-3.681,8.109-6.542,6.364C2113.2,536.806,2115.667,534.558,2117.08,533.486Z" transform="translate(-2114.492 -530.665)" fill="#ff867a"/></g><g transform="translate(288.324 137.078)"><path d="M2102.32,510.09a9.036,9.036,0,0,1,2.152,2.429.374.374,0,1,1-.657.357,8.079,8.079,0,0,0-1.882-2.134C2101.546,510.433,2101.928,509.776,2102.32,510.09Z" transform="translate(-2101.772 -510.007)" fill="#434a59"/></g><g transform="translate(280.505 134.113)"><path d="M2077.173,500.548c.651-.028,1.3,0,1.957.036.5.026.5.785,0,.759-.653-.035-1.305-.064-1.956-.036C2076.678,501.328,2076.677,500.569,2077.173,500.548Z" transform="translate(-2076.802 -500.537)" fill="#434a59"/></g><g transform="translate(280.439 124.962)"><path d="M2081.711,471.775s-3.847,2.521-4.98,5.1,4.884,4.119,5.391,4.038,1.727-2.885,2.013-2.514.739,3.676,1.924,4.974,5.734,5.224,6.25,4.026.567-12.365-1.737-13.759S2084.813,470.447,2081.711,471.775Z" transform="translate(-2076.589 -471.31)" fill="#2c313a"/></g><g transform="translate(132.661)"><path d="M1619.96,103.782a13.02,13.02,0,0,0,3.646-8.269c.16-4.954,4.255-12.09.376-13.917s-4.536-1.07-4.536-1.07-2.652-8.958-5.275-8.29-2.6,2.2-3.843,3.085a16.8,16.8,0,0,0-3.341,2.566c-.81.995-1.646,2.815-2.3,3.572s2.988,12.883,6.672,19.979S1619.96,103.782,1619.96,103.782Z" transform="translate(-1604.608 -72.2)" fill="#f27c79"/></g><g transform="translate(0 5.764)"><g transform="translate(109.083 19.593)"><path d="M1535.679,181.914c8,3.13,18.2-3.828,24.7-7.839,5.568-3.437,11.007-7.118,16.328-10.927-7.269-.992-14.728-1.786-21.81-3.481-6.67-1.6-13.265-4.146-19.767-6.482C1530.63,160.5,1524.386,177.5,1535.679,181.914Z" transform="translate(-1529.302 -153.185)" fill="#ea7faf"/></g><g transform="translate(75.642)"><path d="M1422.814,129.385a2.238,2.238,0,0,0,1.4,1.029l58.811,14.092,9.224,2.209,19.873,4.764,1.736.415,7.629,1.829,3.766.9a2.236,2.236,0,0,0,2.7-1.7c.062-.28,1.405-6.91-4.177-10.7-.357-.245-.885-.606-1.557-1.068-.485-.33-1.04-.714-1.665-1.141-1.937-1.336-4.5-3.1-7.391-5.1l-4.084-2.822c-3.719-2.574-7.706-5.33-11.441-7.923-3.156-2.19-6.134-4.259-8.63-6a0,0,0,0,0,0,0c-1.13-.784-2.154-1.5-3.055-2.132h0c-.858-.6-1.6-1.122-2.2-1.545l.912-3.812,3.219-13.444.062-.256a2.487,2.487,0,0,1,2.946-1.836c.011,0,.027,0,.042,0a2.488,2.488,0,0,1,1.833,2.989,2.231,2.231,0,1,0,4.34,1.04,6.946,6.946,0,0,0-2.993-7.454c-.093-.062-.19-.124-.291-.179h0a6.884,6.884,0,0,0-1.844-.738l-.043-.012a6.97,6.97,0,0,0-8.328,5.144l-.637,2.659-1.13,4.717v0l-2.43,10.133c-1.44.209-3.545.5-6.079.858-4.077.567-9.267,1.281-14.62,2.011-11.9,1.622-24.6,3.331-27.552,3.707-6.7.85-8.5,7.368-8.576,7.648A2.232,2.232,0,0,0,1422.814,129.385Zm5.148-2.667a5.428,5.428,0,0,1,3.75-2.267c2.772-.353,14.119-1.879,25.354-3.408,9.981-1.359,19.869-2.721,23.592-3.269,1.277.908,3.451,2.426,6.153,4.313,2.034,1.413,4.368,3.036,6.844,4.752,4.394,3.051,9.235,6.4,13.646,9.449,2.4,1.662,4.678,3.234,6.685,4.616a0,0,0,0,0,0,0c1.351.932,2.578,1.778,3.638,2.508.59.408,1.129.777,1.611,1.107.9.617,1.588,1.091,2.026,1.386a5.443,5.443,0,0,1,2.314,3.723l-5.28-1.266-1.727-.415-1.922-.458L1491,141.824l-.792-.19-15.525-3.719h0l-17.834-4.274Z" transform="translate(-1422.498 -90.608)" fill="#e7f2f2"/></g><g transform="translate(0 19.593)"><path d="M1329.708,236.537q1.991,7.4,4.313,14.7,16.206-5.78,32.573-11.085a227.883,227.883,0,0,1-3.377-42.714c.781-7.733-1.905-15.471-8.11-20.333q-8.863-6.97-17.713-13.956c-5.321,3.809-10.759,7.49-16.328,10.927-6.5,4.012-16.694,10.969-24.7,7.839-11.293-4.416-5.049-21.413-.55-28.729q-16.879.882-33.748,1.953a63.33,63.33,0,0,0-30.186,9.813,413.965,413.965,0,0,0-50.976,32.562q10.789,14.864,22.248,29.214,7.566-6.586,15.453-12.772a184.737,184.737,0,0,0-5.543,96.9c18.453,12.711,42.513,18.9,63.956,23.457,13.722,2.916,27.828,5.344,41.944,5.595a55,55,0,0,0,12.214-.749A191.951,191.951,0,0,1,1329.708,236.537Z" transform="translate(-1180.907 -153.185)" fill="#ffa9cc"/></g><g transform="translate(35.207 22.844)"><g transform="translate(113.594 23.314)"><path d="M1685.607,239.534h0c-.121-.164-.252-.324-.379-.485-.1-.125-.2-.251-.3-.374-.18-.217-.364-.432-.554-.643h0c-9.1,8-15.228,20.2-19.925,31.139a145.4,145.4,0,0,0-8.292,25.647c.334,1.266.506,1.9.858,3.17C1661.381,277.582,1669.945,254.133,1685.607,239.534Z" transform="translate(-1656.156 -238.031)" fill="#ea7faf"/></g><path d="M1330.017,163.568q-.706.151-1.41.319l-.232.055q-.714.172-1.426.359c-11.944,19.32-24.493,37.822-33.6,58.749.991-.787,1.489-1.18,2.494-1.963,3.625-7.746,7.544-15.345,11.834-22.744C1314.606,186.4,1322.866,175.352,1330.017,163.568Z" transform="translate(-1293.354 -163.568)" fill="#ea7faf"/></g></g><g transform="translate(276.007 143.375)"><path d="M2070.062,533.676a20.37,20.37,0,0,0-4.021-2.625,16.665,16.665,0,0,0-3.39-.93,6.409,6.409,0,0,0,.266,4.065C2063.815,536.135,2068.6,536.2,2070.062,533.676Z" transform="translate(-2062.436 -530.12)" fill="#434a59"/></g><g transform="translate(276.633 143.482)"><path d="M2071.435,533.911a3.528,3.528,0,0,1-1.417,1.321c-1.913-.455-5.056-1.942-5.412-2.676a3.28,3.28,0,0,1,.014-2.094,17.183,17.183,0,0,1,2.793.823A20.359,20.359,0,0,1,2071.435,533.911Z" transform="translate(-2064.434 -530.463)" fill="#fff"/></g><g transform="translate(283.282 146.291)"><path d="M2094.873,554.178s1.044-5.273.858-6.634-4.458-8.337-4.91-8.106c-1.192.61,1.6,5.817,1.6,5.817s-3.3-4.636-4.051-4.4-.779.69-.779.69a1.121,1.121,0,0,0-1.141.643c-.265.486,1.446,4.917,1.446,4.917a12.611,12.611,0,0,0-1.91-2.672c-.945-.869.49,2.641.892,4.271s-.561,5,.109,8.108,2.1,4.55,3.043,4.385S2094.444,556.555,2094.873,554.178Z" transform="translate(-2085.669 -539.433)" fill="#ff867a"/></g><g transform="translate(230.832 216.975)"><path d="M1996.322,765.189s-21.68,25.526-44.011,34.7-33.817-4.26-34.155-10.9,19-11.627,19-11.627Z" transform="translate(-1918.152 -765.189)" fill="#ce4949"/></g><g transform="translate(228.959 158.071)"><path d="M1972.914,577.081c5.836,1.451-20.125,47.121-20.125,47.121s-.216,21.836,9.718,31.833c-19.72,9.517-42.521,15.214-48.963,2.85C1901.98,636.687,1967.078,575.631,1972.914,577.081Z" transform="translate(-1912.171 -577.056)" fill="#ff867a"/></g><g transform="translate(269.577 185.26)"><path d="M2041.9,683.851s22.09-18.056,31.7-19.805c7.68-1.4,17.883,6.736,9.437,28.844-2,5.241-15.737,15.225-31.421,22.794C2041.681,705.687,2041.9,683.851,2041.9,683.851Z" transform="translate(-2041.897 -663.893)" fill="#ff5f4a"/></g><g transform="translate(252.688 204.279)"><path d="M1988.895,752.832a.938.938,0,0,0,.771-.4A253.393,253.393,0,0,0,2005.683,726a.938.938,0,1,0-1.673-.85,251.358,251.358,0,0,1-15.885,26.207.939.939,0,0,0,.77,1.474Z" transform="translate(-1987.957 -724.637)" fill="#c66c67"/></g><g transform="translate(133.209 0.368)"><path d="M1616.612,73.377s4.758,4.8,3.96,9.653-3.96.8-3.96.8-.36,1.645-1.423,1.587a7.382,7.382,0,0,0-1.4,0,1.564,1.564,0,0,1-1.682,2,6.018,6.018,0,0,1-5.5-3.323c-1.13-2.193,1.728-4.408,3.788-6.258A60.054,60.054,0,0,1,1616.612,73.377Z" transform="translate(-1606.359 -73.377)" fill="#f27c79"/></g></g></g></svg>