<svg xmlns="http://www.w3.org/2000/svg" width="334.588" height="334.605" viewBox="0 0 334.588 334.605"><g transform="translate(-3538.571 -290.446)"><path d="M3538.571,457.738a167.287,167.287,0,0,0,163.652,167.249c1.209.031,2.426.043,3.644.043q7.024,0,13.908-.574a166.626,166.626,0,0,0,98.13-42.485q3.768-3.4,7.327-7.02a167.351,167.351,0,0,0-147.764-282.1q-3.593.611-7.132,1.38c-.752.159-1.5.329-2.256.5q-1.8.418-3.593.876a165.473,165.473,0,0,0-16.385,5.082c-.229.085-.458.167-.682.256q-3.628,1.349-7.175,2.868a167.079,167.079,0,0,0-101.673,153.927Z" transform="translate(0)" fill="#e6f4ff"/><g transform="translate(3557.331 318.1)"><g transform="translate(42.524 60.792)"><path d="M3818.654,573.357s-90.845,74.712-83.654,115.6,47.6,22.056,59.922,1.854,38.008-98.723,35.954-103.976S3818.654,573.357,3818.654,573.357Z" transform="translate(-3734.594 -573.357)" fill="#4f7c9d"/></g><g transform="translate(74.373 18.66)"><path d="M3848.4,457.773c-.779-3.892-4.021-12.064-3.5-16.734s-4.022-1.946-4.022,2.205,1.427,5.837,0,7.913c-.493.717-2.242.52-4.4.035l12.337,9.738C3848.7,459.7,3848.56,458.6,3848.4,457.773Z" transform="translate(-3836.471 -438.589)" fill="#f27c79"/></g><g transform="translate(55.575 42.259)"><path d="M3792.858,516.865s-29.163,112.54-9.988,125.609,30.475-1.5,36.3-14.075-.288-105.26-6.41-111.534S3792.858,516.865,3792.858,516.865Z" transform="translate(-3776.34 -514.076)" fill="#f27c79"/></g><g transform="translate(95.3 180.48)"><path d="M4013.057,1072.891s-14.262,5.845-36.971,8.637c-4.358.536-9.071.975-14.032,1.119-2.58.075-5.224-.084-7.927-.022-9.474.22-20.819-1.268-30.009-3.141a176.752,176.752,0,0,1-19.589-5.122c-.472-12.805-1.4-22.172-1.045-31.412.315-8.546,1.022-15.335,2.189-19.975a20.51,20.51,0,0,1,1.481-4.247c1.73-3.42,3.421-6.645,5.059-9.711,2.739-5.138,5.334-9.869,7.667-14.4,4.22-8.153,7.655-15.715,9.8-24.025a76.167,76.167,0,0,0,2.307-14.391c13.316,3.133,50.329,16.4,78.089,31.574,2.5,1.35,4.928,2.739,7.248,4.128,8.9,5.308,16.357,10.774,21,16.03a24.553,24.553,0,0,1,4.076,5.99c1.4,3.106,2.844,10.879,4.272,22.189.341,2.7.7,5.583,1.036,8.664.537,4.876,1.074,10.223,1.625,15.977.38,4.115-1.119-12.045-.738-7.536C4048.676,1054.078,4037.243,1064.306,4013.057,1072.891Z" transform="translate(-3903.407 -956.197)" fill="#7f635d"/></g><g transform="translate(107.246 269.049)"><path d="M4074.008,1239.5l-132.388,3.07s32.287,18.755,86.1,22.9c20.757,1.6,29.9-5.688,50.49-17.057C4077.282,1237.609,4074.948,1247.876,4074.008,1239.5Z" transform="translate(-3941.62 -1239.497)" fill="#514240"/></g><g transform="translate(174.218)"><path d="M4156.257,396.511s-1.168-6.128.411-8.6,2.8-2.612,2.8-2.612,1.247-7.343,9.728-6.294,11.439,7.379,11.864,9.379,2.762,2.31,2.831,3.759-2.472,1.72-2.472,1.72a66.622,66.622,0,0,1-1.9,9.826c-1.117,3.314-5.054,9.378-9.42,8.932S4155.795,404.315,4156.257,396.511Z" transform="translate(-4155.841 -378.903)" fill="#402823"/></g><g transform="translate(91.99 51.215)"><path d="M4043.313,679.631c3.5-50.749,12.685-78.783,7.841-96.1-6.21-22.209-38.7-37.347-57.289-39.928-15.291-2.122-52.844-.83-66.451,8.7-21.823,15.284-34.593,204.588-34.593,204.588s17.918,11.849,67.9,18.221c65.122,8.3,87.174,0,87.174,0S4039.162,739.823,4043.313,679.631Z" transform="translate(-3892.822 -542.721)" fill="#3f9bde"/></g><g transform="translate(196.853 201.616)"><path d="M4275.227,1086.212a360.6,360.6,0,0,1-2.423-37.4l-44.562-25.012S4248.624,1070.059,4275.227,1086.212Z" transform="translate(-4228.242 -1023.804)" fill="#4f7c9d"/></g><g transform="translate(176.367 24.221)"><path d="M4179.246,456.376s1.958,25.6,1.473,32.726c-.207,3.037-13.935,7.409-17.909,2.706-1.164-1.377,8.567-32.2,8.567-32.2Z" transform="translate(-4162.713 -456.376)" fill="#ff867a"/></g><g transform="translate(172.513 9.872)"><path d="M4167.878,416.993l2.355,12.453a7.731,7.731,0,0,1-6.636,8.5c-3.315.448-6.673.791-10.345-1.169-3.4-1.816-3.081-5.319-2.5-9.794a35.218,35.218,0,0,1,3.829-12.334C4157.8,408.55,4165.75,408.989,4167.878,416.993Z" transform="translate(-4150.387 -410.481)" fill="#ff867a"/></g><g transform="translate(174.792 23.473)"><path d="M4164.6,454.666a20.833,20.833,0,0,1-6.843-.682s-.5,2.431.957,3.54S4163.255,457.648,4164.6,454.666Z" transform="translate(-4157.677 -453.984)" fill="#fff"/></g><g transform="translate(190.718 17.932)"><path d="M4209.494,440.354c.358-.7.869-1.3,1.212-2.009.653-1.343,1.934-3.187,3.449-1.239,2.205,2.833-2.228,9.38-4.5,8.313C4208.38,444.824,4208.229,442.822,4209.494,440.354Z" transform="translate(-4208.618 -436.26)" fill="#ff867a"/></g><g transform="translate(183.438 84.179)"><path d="M4248.816,648.161s82.041,110.446,59.555,154.539c-24.181,47.419-129.553-39.679-122.724-58.236,5.135-13.953,81.212,21.135,81.212,21.135s-38.831-61.057-37.1-89.769C4231.252,651.035,4248.816,648.161,4248.816,648.161Z" transform="translate(-4185.33 -648.161)" fill="#ff867a"/></g><g transform="translate(225.747 84.179)"><path d="M4381.937,712.474a544.186,544.186,0,0,0-40.1-64.313s-19.639,2.874-21.133,27.669c-.847,14.059,10.868,44.009,20.151,62.613C4348.846,737.357,4372.164,726.336,4381.937,712.474Z" transform="translate(-4320.663 -648.161)" fill="#3f9bde"/></g><g transform="translate(224.647 114.38)"><path d="M4339.408,805.777a1.1,1.1,0,0,1-.924-.5c-14.755-22.76-21.258-58.857-21.321-59.22a1.1,1.1,0,1,1,2.166-.382c.063.357,6.491,36.024,21,58.406a1.1,1.1,0,0,1-.922,1.7Z" transform="translate(-4317.145 -744.765)" fill="#335a76"/></g><g transform="translate(219.069 121.339)"><path d="M4310.521,781.4a1.094,1.094,0,0,1-.536-.14c-4.968-2.775-10.314-12.2-10.54-12.6a1.1,1.1,0,0,1,1.916-1.079c.053.093,5.268,9.282,9.7,11.757a1.1,1.1,0,0,1-.537,2.059Z" transform="translate(-4299.304 -767.025)" fill="#335a76"/></g><g transform="translate(263.867 200.516)"><path d="M4469.048,1041.391a1.1,1.1,0,0,1-.985-.609c-5.286-10.572-24.579-18.3-24.772-18.375a1.1,1.1,0,0,1,.809-2.045c.826.327,20.272,8.121,25.93,19.438a1.1,1.1,0,0,1-.982,1.592Z" transform="translate(-4442.595 -1020.284)" fill="#c66c67"/></g><g transform="translate(153.31 160.87)"><path d="M4135.621,911.34s-24.146-13.823-30.194-15.066-15.885-3.841-16.446-2.362,12.476,6.459,12.476,6.459-3.747,9.087-1.536,13.19a6.249,6.249,0,0,0,6.26,3.45s13.935,10.288,22.651,6.772S4135.621,911.34,4135.621,911.34Z" transform="translate(-4088.963 -893.47)" fill="#ff867a"/></g><g transform="translate(93.334 117.911)"><path d="M3925.127,877.01c2.055-8.9-1.993-120.949-1.993-120.949l-17.914,48.168c-3.856,31.572-6.6,62.7-8.1,81.463C3906.757,885.165,3923.666,883.339,3925.127,877.01Z" transform="translate(-3897.12 -756.061)" fill="#4f7c9d"/></g><g transform="translate(0 78.064)"><path d="M3620.047,628.6l98.615,6.224s-1.482,136.773-12.84,147.324-108.153-4.958-107.24-18.5S3620.047,628.6,3620.047,628.6Z" transform="translate(-3598.576 -628.604)" fill="#f2c3a7"/></g><g transform="translate(46.276 27.225)"><path d="M3746.6,523.612s7.61-55.148,15.143-56.843,30.874-1,33.756,5.679-3.185,53.707-3.185,53.707h-9.342s5.308-48.622,2.911-52.046-16.779-3.2-17.805-2.114-11.129,54.16-11.129,54.16Z" transform="translate(-3746.598 -465.986)" fill="#f2c3a7"/></g><g transform="translate(58.129 26.05)"><path d="M3812.506,474.777a85.139,85.139,0,0,1-8.44-6.278c-3.083-2.832-16.932-7.322-18.2-6.049-.84.84-.151,2.616.9,4.364-1.325-1.277-2.474-1.484-2.214,2.085.254,3.468,6.676,8.755,6.676,8.755s-6.688-5.414-5.762-2.82,11.5,13.457,16.027,13.976,10.624-1.417,10.624-1.417S3813.482,479.856,3812.506,474.777Z" transform="translate(-3784.511 -462.228)" fill="#f27c79"/></g><g transform="translate(172.67 32.434)"><path d="M4165.188,490.353c3.253-2.169,4.394-8.161,2.682-6.791s-7.133,2.511-9.873,2.226c-2.07-.215-5.537-2.188-7.11-3.141a4.987,4.987,0,0,0,2.709,3.735,12.932,12.932,0,0,0,6.513,1.513c-.6,1.985-1.223,4.109-1.833,6.225A50.863,50.863,0,0,0,4165.188,490.353Z" transform="translate(-4150.888 -482.647)" fill="#c66c67"/></g></g></g></svg>