<svg xmlns="http://www.w3.org/2000/svg" width="318.688" height="318.704" viewBox="0 0 318.688 318.704"><g transform="translate(-3538.571 -290.446)"><path d="M3538.572,449.788a159.338,159.338,0,0,0,155.876,159.3c1.151.03,2.31.041,3.47.041q6.689,0,13.248-.546a158.707,158.707,0,0,0,93.466-40.466q3.589-3.234,6.978-6.687a159.4,159.4,0,0,0-140.741-268.7q-3.423.582-6.794,1.314c-.716.152-1.432.314-2.148.476q-1.716.4-3.422.834a157.711,157.711,0,0,0-15.607,4.84c-.218.081-.436.159-.65.244q-3.456,1.285-6.834,2.732a159.141,159.141,0,0,0-96.842,146.612Z" transform="translate(0 0)" fill="#e6f4ff"/><g transform="translate(3556.439 316.786)"><g transform="translate(40.503 57.904)"><path d="M3814.66,573.357s-86.528,71.161-79.679,110.107,45.333,21.008,57.075,1.766,36.2-94.031,34.245-99.035S3814.66,573.357,3814.66,573.357Z" transform="translate(-3734.595 -573.357)" fill="#4f7c9d"/></g><g transform="translate(70.839 17.773)"><path d="M3847.829,456.861c-.743-3.707-3.83-11.491-3.336-15.939s-3.831-1.854-3.831,2.1,1.359,5.56,0,7.537c-.469.683-2.135.5-4.191.034l11.75,9.275C3848.114,458.7,3847.986,457.647,3847.829,456.861Z" transform="translate(-3836.471 -438.59)" fill="#f27c79"/></g><g transform="translate(52.933 40.251)"><path d="M3792.073,516.732s-27.777,107.192-9.513,119.64,29.026-1.428,34.571-13.406-.274-100.258-6.1-106.233S3792.073,516.732,3792.073,516.732Z" transform="translate(-3776.341 -514.076)" fill="#f27c79"/></g><g transform="translate(90.771 171.904)"><path d="M4007.846,1067.345s-13.584,5.567-35.214,8.227c-4.151.51-8.64.928-13.365,1.066-2.457.071-4.976-.08-7.55-.021-9.024.209-19.829-1.208-28.583-2.991a168.361,168.361,0,0,1-18.657-4.879c-.449-12.2-1.332-21.119-1-29.919.3-8.14.974-14.606,2.085-19.026a19.534,19.534,0,0,1,1.411-4.045c1.648-3.258,3.258-6.329,4.818-9.25,2.609-4.894,5.081-9.4,7.3-13.72,4.02-7.765,7.29-14.968,9.338-22.883a72.561,72.561,0,0,0,2.2-13.707c12.683,2.984,47.938,15.618,74.378,30.074,2.384,1.285,4.694,2.609,6.9,3.932,8.476,5.056,15.58,10.262,20,15.268a23.372,23.372,0,0,1,3.882,5.705c1.336,2.959,2.708,10.362,4.07,21.135.325,2.572.662,5.318.987,8.252.511,4.644,1.023,9.737,1.547,15.218.362,3.92-1.065-11.473-.7-7.178C4041.773,1049.426,4030.883,1059.169,4007.846,1067.345Z" transform="translate(-3903.407 -956.197)" fill="#7f635d"/></g><g transform="translate(102.15 256.263)"><path d="M4067.718,1239.5l-126.1,2.924s30.752,17.863,82.009,21.811c19.771,1.522,28.483-5.417,48.091-16.247C4070.835,1237.7,4068.612,1247.478,4067.718,1239.5Z" transform="translate(-3941.621 -1239.497)" fill="#514240"/></g><g transform="translate(165.939)"><path d="M4156.237,395.674s-1.112-5.837.392-8.191S4159.3,385,4159.3,385s1.188-6.994,9.265-5.995,10.9,7.028,11.3,8.933,2.63,2.2,2.7,3.58-2.354,1.638-2.354,1.638a63.378,63.378,0,0,1-1.807,9.359c-1.064,3.156-4.815,8.932-8.974,8.507S4155.8,403.107,4156.237,395.674Z" transform="translate(-4155.841 -378.903)" fill="#402823"/></g><g transform="translate(87.619 48.781)"><path d="M4036.162,673.125c3.333-48.338,12.081-75.039,7.469-91.537-5.916-21.153-36.859-35.572-54.567-38.031-14.564-2.022-50.332-.791-63.293,8.286-20.786,14.557-32.949,194.865-32.949,194.865s17.066,11.286,64.674,17.355c62.027,7.908,83.032,0,83.032,0S4032.208,730.456,4036.162,673.125Z" transform="translate(-3892.822 -542.721)" fill="#3f9bde"/></g><g transform="translate(187.498 192.035)"><path d="M4272.993,1083.246a343.829,343.829,0,0,1-2.307-35.62l-42.444-23.823S4247.655,1067.861,4272.993,1083.246Z" transform="translate(-4228.242 -1023.804)" fill="#4f7c9d"/></g><g transform="translate(167.985 23.07)"><path d="M4178.46,456.376s1.864,24.388,1.4,31.171c-.2,2.893-13.273,7.057-17.059,2.577-1.109-1.311,8.161-30.668,8.161-30.668Z" transform="translate(-4162.713 -456.376)" fill="#ff867a"/></g><g transform="translate(164.315 9.403)"><path d="M4167.048,416.684l2.244,11.862a7.364,7.364,0,0,1-6.322,8.1c-3.157.427-6.356.754-9.854-1.113-3.24-1.73-2.934-5.066-2.379-9.329a33.529,33.529,0,0,1,3.647-11.748C4157.446,408.642,4165.02,409.06,4167.048,416.684Z" transform="translate(-4150.387 -410.481)" fill="#ff867a"/></g><g transform="translate(166.486 22.357)"><path d="M4164.274,454.634a19.839,19.839,0,0,1-6.517-.65s-.479,2.316.911,3.372S4162.989,457.474,4164.274,454.634Z" transform="translate(-4157.677 -453.984)" fill="#fff"/></g><g transform="translate(181.655 17.08)"><path d="M4209.452,440.16c.342-.666.827-1.24,1.155-1.913.623-1.279,1.841-3.035,3.285-1.18,2.1,2.7-2.121,8.934-4.29,7.918C4208.392,444.417,4208.249,442.51,4209.452,440.16Z" transform="translate(-4208.619 -436.26)" fill="#ff867a"/></g><g transform="translate(174.72 80.178)"><path d="M4245.8,648.161s78.14,105.2,56.724,147.195c-23.033,45.166-123.4-37.793-116.891-55.469,4.891-13.29,77.352,20.131,77.352,20.131s-36.985-58.155-35.339-85.5C4229.07,650.9,4245.8,648.161,4245.8,648.161Z" transform="translate(-4185.332 -648.161)" fill="#ff867a"/></g><g transform="translate(215.019 80.178)"><path d="M4379.025,709.418a518.207,518.207,0,0,0-38.193-61.257s-18.7,2.738-20.129,26.354c-.8,13.391,10.353,41.918,19.194,59.638C4347.507,733.119,4369.717,722.621,4379.025,709.418Z" transform="translate(-4320.662 -648.161)" fill="#3f9bde"/></g><g transform="translate(213.971 108.944)"><path d="M4338.351,802.877a1.051,1.051,0,0,1-.882-.477c-14.051-21.679-20.247-56.06-20.307-56.405a1.047,1.047,0,1,1,2.062-.364c.062.34,6.184,34.312,20.005,55.63a1.047,1.047,0,0,1-.878,1.617Z" transform="translate(-4317.146 -744.765)" fill="#335a76"/></g><g transform="translate(208.659 115.573)"><path d="M4309.989,780.719a1.043,1.043,0,0,1-.511-.133c-4.731-2.643-9.824-11.617-10.039-12a1.047,1.047,0,1,1,1.824-1.028c.05.088,5.017,8.841,9.236,11.2a1.048,1.048,0,0,1-.511,1.961Z" transform="translate(-4299.305 -767.025)" fill="#335a76"/></g><g transform="translate(251.327 190.987)"><path d="M4467.791,1040.388a1.047,1.047,0,0,1-.937-.58c-5.034-10.07-23.411-17.429-23.6-17.5a1.048,1.048,0,1,1,.771-1.948c.785.311,19.309,7.735,24.7,18.514a1.047,1.047,0,0,1-.469,1.4A1.033,1.033,0,0,1,4467.791,1040.388Z" transform="translate(-4442.596 -1020.284)" fill="#c66c67"/></g><g transform="translate(146.024 153.225)"><path d="M4133.4,910.491s-23-13.166-28.759-14.35-15.13-3.658-15.665-2.25,11.882,6.152,11.882,6.152-3.568,8.655-1.463,12.564a5.952,5.952,0,0,0,5.962,3.286s13.273,9.8,21.575,6.451S4133.4,910.491,4133.4,910.491Z" transform="translate(-4088.963 -893.47)" fill="#ff867a"/></g><g transform="translate(88.899 112.308)"><path d="M3923.8,871.262c1.958-8.473-1.9-115.2-1.9-115.2l-17.062,45.879c-3.673,30.072-6.284,59.723-7.716,77.591C3906.3,879.03,3922.4,877.291,3923.8,871.262Z" transform="translate(-3897.12 -756.061)" fill="#4f7c9d"/></g><g transform="translate(0 74.355)"><path d="M3619.027,628.6l93.929,5.928s-1.412,130.274-12.23,140.323-103.013-4.723-102.143-17.62S3619.027,628.6,3619.027,628.6Z" transform="translate(-3598.577 -628.604)" fill="#f2c3a7"/></g><g transform="translate(44.077 25.931)"><path d="M3746.6,520.873s7.248-52.527,14.423-54.141,29.406-.953,32.152,5.409-3.033,51.155-3.033,51.155h-8.9s5.055-46.312,2.773-49.573-15.981-3.049-16.959-2.014-10.6,51.587-10.6,51.587Z" transform="translate(-3746.598 -465.986)" fill="#f2c3a7"/></g><g transform="translate(55.367 24.812)"><path d="M3811.177,474.181a81.084,81.084,0,0,1-8.04-5.98c-2.936-2.7-16.127-6.974-17.339-5.762-.8.8-.145,2.491.857,4.157-1.262-1.216-2.356-1.414-2.109,1.986.241,3.3,6.358,8.339,6.358,8.339s-6.37-5.157-5.489-2.686,10.958,12.818,15.265,13.312,10.119-1.35,10.119-1.35S3812.106,479.018,3811.177,474.181Z" transform="translate(-3784.511 -462.228)" fill="#f27c79"/></g><g transform="translate(164.464 30.892)"><path d="M4164.51,489.987c3.1-2.066,4.186-7.773,2.555-6.469s-6.794,2.392-9.4,2.12c-1.972-.205-5.273-2.084-6.773-2.992a4.75,4.75,0,0,0,2.58,3.557,12.316,12.316,0,0,0,6.2,1.441c-.567,1.891-1.164,3.914-1.747,5.929A48.473,48.473,0,0,0,4164.51,489.987Z" transform="translate(-4150.889 -482.647)" fill="#c66c67"/></g></g></g></svg>