<svg xmlns="http://www.w3.org/2000/svg" width="16.84" height="16.139" viewBox="0 0 16.84 16.139"><path d="M269.817,489.28a.7.7,0,0,1-.328-.081l-4.443-2.344L260.6,489.2a.7.7,0,0,1-1.019-.739l.849-4.969-3.6-3.518a.7.7,0,0,1,.39-1.2l4.967-.725,2.222-4.519a.7.7,0,0,1,1.259,0l2.223,4.519,4.967.725a.7.7,0,0,1,.39,1.2l-3.6,3.518.849,4.969a.7.7,0,0,1-.692.82Zm-4.77-3.921a.7.7,0,0,1,.327.081l3.512,1.853-.672-3.928a.7.7,0,0,1,.2-.62l2.845-2.784-3.931-.573A.7.7,0,0,1,266.8,479l-1.756-3.57L263.292,479a.7.7,0,0,1-.529.385l-3.931.573,2.846,2.784a.7.7,0,0,1,.2.62l-.671,3.928,3.511-1.853A.7.7,0,0,1,265.047,485.359Z" transform="translate(-256.627 -473.141)" fill="#909090"/></svg>