<svg xmlns="http://www.w3.org/2000/svg" width="39" height="39" viewBox="0 0 39 39"><g transform="translate(4441.479 4030.969)"><circle cx="19.5" cy="19.5" r="19.5" transform="translate(-4441.479 -4030.969)" fill="#e6e6e6"/><g transform="translate(0.111 -1.963)"><path d="M-4430.591-3857.192c.293-.782.537-.959,1.316-.959.814,0,1.627,0,2.44,0a1.073,1.073,0,0,1,1.1.979,1.079,1.079,0,0,1-.866,1.266c-.486.051-.981.026-1.471.034-.132,0-.262,0-.409,0v9.034h11.781v-9.034c-.377,0-.747,0-1.117,0a6.171,6.171,0,0,1-.754-.027,1.091,1.091,0,0,1-.89-1.105,1.116,1.116,0,0,1,.835-1.113,1.628,1.628,0,0,1,.334-.032q1.263,0,2.525,0a1.117,1.117,0,0,1,1.172,1.281c0,4.393-.007,6.49.007,10.883a1.323,1.323,0,0,1-.847,1.446h-14.311a1.293,1.293,0,0,1-.842-.917Z" transform="translate(0 -156.463)" fill="#909090"/><path d="M-4334.935-4017.051v.266c0,3.724,0,4.689,0,8.414a1.236,1.236,0,0,1-.549,1.16.959.959,0,0,1-1.4-.761,2.581,2.581,0,0,1-.032-.456c0-3.7,0-4.644,0-8.345v-.316c-.066.066-.112.1-.151.148-.372.426-.736.864-1.116,1.279a.946.946,0,0,1-1.667-.535,1.2,1.2,0,0,1,.172-.931,2.373,2.373,0,0,1,.2-.255l2.75-3.164a.935.935,0,0,1,1.6-.009q1.4,1.606,2.793,3.213a1.266,1.266,0,0,1,.286,1.332.927.927,0,0,1-1.608.357c-.368-.4-.718-.818-1.074-1.231-.051-.059-.094-.129-.141-.193Z" transform="translate(-86.666)" fill="#909090"/></g></g></svg>