<svg xmlns="http://www.w3.org/2000/svg" xmlns:xlink="http://www.w3.org/1999/xlink" width="59.992" height="52.709" viewBox="0 0 59.992 52.709"><defs><linearGradient id="a" x1="0.491" y1="0.502" x2="0.584" y2="-0.104" gradientUnits="objectBoundingBox"><stop offset="0" stop-color="#ff1d53"/><stop offset="1" stop-color="#ff6a00"/></linearGradient></defs><path d="M7377.674,4386.8l14.432-14.432-14.432-14.431c-10.4-10.4-24.832,4.03-14.431,14.431Z" transform="translate(-7359.646 -4345.992)" fill="#101572"/><g transform="translate(10.843 0)"><path d="M7407.713,4384.092l-15.848-15.848a9.821,9.821,0,0,1,0-13.889l16.716-16.716c17.052-17.051,40.711,6.608,23.66,23.66l-22.792,22.792A1.229,1.229,0,0,1,7407.713,4384.092Z" transform="translate(-7388.989 -4331.743)" fill="url(#a)"/><circle cx="3.229" cy="3.229" r="3.229" transform="translate(34.443 8.249)" fill="#fff"/></g><path d="M0,0H7.112a0,0,0,0,1,0,0V13.092a0,0,0,0,1,0,0h0A7.112,7.112,0,0,1,0,5.98V0A0,0,0,0,1,0,0Z" transform="translate(15.893 19.871) rotate(-45)" fill="#101572"/></svg>