<svg xmlns="http://www.w3.org/2000/svg" xmlns:xlink="http://www.w3.org/1999/xlink" width="210.473" height="52.209" viewBox="0 0 210.473 52.209"><defs><clipPath id="a"><path d="M19.386,52.209h-.105a1.214,1.214,0,0,1-.806-.355L2.838,36.157a9.756,9.756,0,0,1,0-13.757L19.332,5.841C23.131,2.03,27.546.01,32.1,0h.085a16.688,16.688,0,0,1,15.1,10.364,15.77,15.77,0,0,1,.887,9.25,19.221,19.221,0,0,1-5.491,9.663L20.19,51.854A1.2,1.2,0,0,1,19.386,52.209ZM37.172,8.17a3.2,3.2,0,1,0,3.187,3.2A3.2,3.2,0,0,0,37.172,8.17Z" transform="translate(0.733 0.791)" fill="none"/></clipPath><linearGradient id="b" x1="0.491" y1="0.502" x2="0.584" y2="-0.104" gradientUnits="objectBoundingBox"><stop offset="0" stop-color="#ff1c52"/><stop offset="1" stop-color="#ff6900"/></linearGradient><clipPath id="c"><path d="M0,52.209H210.473V0H0Z" transform="translate(0 0.791)" fill="none"/></clipPath></defs><g transform="translate(0 -0.791)"><path d="M17.774,32,32,17.774,17.774,3.546C7.519-6.706-6.707,7.52,3.547,17.774Z" transform="translate(0 9)" fill="#fff"/><g transform="translate(10)"><path d="M19.386,52.209h-.105a1.214,1.214,0,0,1-.806-.355L2.838,36.157a9.756,9.756,0,0,1,0-13.757L19.332,5.841C23.131,2.03,27.546.01,32.1,0h.085a16.688,16.688,0,0,1,15.1,10.364,15.77,15.77,0,0,1,.887,9.25,19.221,19.221,0,0,1-5.491,9.663L20.19,51.854A1.2,1.2,0,0,1,19.386,52.209ZM37.172,8.17a3.2,3.2,0,1,0,3.187,3.2A3.2,3.2,0,0,0,37.172,8.17Z" transform="translate(0.733 0.791)" fill="none"/><g clip-path="url(#a)"><path d="M19.386,52.209h-.105a1.214,1.214,0,0,1-.806-.355L2.838,36.157a9.756,9.756,0,0,1,0-13.757L19.332,5.841C23.131,2.03,27.546.01,32.1,0h.085a16.688,16.688,0,0,1,15.1,10.364,15.77,15.77,0,0,1,.887,9.25,19.221,19.221,0,0,1-5.491,9.663L20.19,51.854A1.2,1.2,0,0,1,19.386,52.209ZM37.172,8.17a3.2,3.2,0,1,0,3.187,3.2A3.2,3.2,0,0,0,37.172,8.17Z" transform="translate(0.733 0.791)" fill="url(#b)"/></g></g><path d="M14.177,9.171h0a7.069,7.069,0,0,1-9.982,0L0,4.982,4.988,0Z" transform="translate(15.774 15.491)" fill="#fff"/><path d="M0,29.448V0H5.145V8.492a11.836,11.836,0,0,1,4.276-.709,9.916,9.916,0,0,1,6.986,2.327,8.445,8.445,0,0,1,2.516,6.523V29.448H13.78V16.195a5.907,5.907,0,0,0-.146-1.429,3.32,3.32,0,0,0-.637-1.2,3.012,3.012,0,0,0-1.607-.94,10.662,10.662,0,0,0-2.826-.313,8.459,8.459,0,0,0-3.419.626v16.51Z" transform="translate(81.258 12.047)" fill="#fff"/><path d="M10.11,21.956c-3.241,0-5.762-.955-7.494-2.839S0,14.5,0,10.978s.88-6.255,2.615-8.14S6.871,0,10.11,0s5.762.955,7.5,2.839,2.615,4.625,2.615,8.14-.88,6.255-2.615,8.14S13.351,21.956,10.11,21.956Zm.011-17.739a4.746,4.746,0,0,0-3.753,1.4c-.812.932-1.224,2.74-1.224,5.375s.412,4.441,1.224,5.364a4.766,4.766,0,0,0,3.753,1.388,4.731,4.731,0,0,0,3.742-1.388c.806-.92,1.214-2.725,1.214-5.364s-.408-4.446-1.214-5.375A4.712,4.712,0,0,0,10.121,4.217Z" transform="translate(102.336 19.872)" fill="#fff"/><path d="M0,10.728v-4.4H3.6V0H8.741V6.323H13.8v4.4H8.741V21.247A2.354,2.354,0,0,0,9.316,23.1a3.245,3.245,0,0,0,2.038.481,6.127,6.127,0,0,0,2.445-.459v4.235a8.455,8.455,0,0,1-3.282.626h-.1a6.632,6.632,0,0,1-5-1.879A7.117,7.117,0,0,1,3.6,20.934V10.728Z" transform="translate(123.228 13.841)" fill="#fff"/><path d="M9.556,29.866a13.748,13.748,0,0,1-2.12-.166,8.765,8.765,0,0,1-2.47-.88,8.586,8.586,0,0,1-2.458-1.838A9.175,9.175,0,0,1,.733,23.666,15.962,15.962,0,0,1,0,18.616c0-3.455.858-6.138,2.551-7.976s4.162-2.772,7.34-2.772a20.089,20.089,0,0,1,3.554.333V0H18.59V22.676a6.788,6.788,0,0,1-2.226,5.069C14.886,29.152,12.6,29.866,9.556,29.866Zm.5-17.991A4.626,4.626,0,0,0,6.4,13.309c-.832.952-1.255,2.646-1.255,5.035a11.321,11.321,0,0,0,.985,5.443,3.654,3.654,0,0,0,3.428,1.676c2.581,0,3.89-.775,3.89-2.3V12.231A16.623,16.623,0,0,0,10.059,11.875Z" transform="translate(142.361 11.962)" fill="#fff"/><path d="M9.807,22.039a14.878,14.878,0,0,1-2.675-.23,8.867,8.867,0,0,1-2.6-.959,8.189,8.189,0,0,1-2.316-1.856A8.851,8.851,0,0,1,.622,15.871,15.508,15.508,0,0,1,0,11.27a13.458,13.458,0,0,1,2.291-8.2C3.811,1.032,6.255,0,9.556,0c3.121,0,5.517,1,7.122,2.984a11.353,11.353,0,0,1,2.413,7.346c0,1.218-.028,2.086-.085,2.651H5.144c.14,1.842.7,3.092,1.662,3.713a6.872,6.872,0,0,0,3.776.941,17.04,17.04,0,0,0,7.277-1.649V20.12A16.776,16.776,0,0,1,9.807,22.039ZM9.432,4.216a3.785,3.785,0,0,0-3,1.231A6.841,6.841,0,0,0,5.144,9.434h8.615a7.393,7.393,0,0,0-1.306-3.708A3.546,3.546,0,0,0,9.432,4.216Z" transform="translate(163.338 19.79)" fill="#fff"/><path d="M9.212,22c-3.139,0-5.484-.716-6.971-2.129A6.907,6.907,0,0,1,0,14.693a7.414,7.414,0,0,1,.126-1.325,6.4,6.4,0,0,1,.664-1.7A5.882,5.882,0,0,1,2.253,9.875,7.857,7.857,0,0,1,4.984,8.548,14.724,14.724,0,0,1,9.253,8a25.957,25.957,0,0,1,3.753.292A3.912,3.912,0,0,0,11.87,5.24,4.94,4.94,0,0,0,8.483,4.217,16.677,16.677,0,0,0,2.2,5.3V1.087A19.008,19.008,0,0,1,8.773,0c3.033,0,5.388.783,7,2.327s2.422,3.811,2.422,6.732v5.762a6.8,6.8,0,0,1-2.2,5.06C14.525,21.287,12.244,22,9.212,22Zm.772-10.728c-3.2,0-4.824.934-4.838,2.776,0,2.272,1.354,3.424,4.023,3.424H9.2a4.427,4.427,0,0,0,2.891-.809,3.006,3.006,0,0,0,.961-2.428V11.542A26.21,26.21,0,0,0,9.984,11.272Z" transform="translate(184.605 19.829)" fill="#fff"/><path d="M0,52.209H210.473V0H0Z" transform="translate(0 0.791)" fill="none"/><g clip-path="url(#c)"><path d="M0,29.448H5.145V0H0Z" transform="translate(205.33 12.046)" fill="#fff"/></g></g></svg>