<svg xmlns="http://www.w3.org/2000/svg" width="35.286" height="31.685" viewBox="0 0 35.286 31.685"><g transform="translate(0 0)"><path d="M3280.388,5902.036c.3-.576.59-1.158.905-1.726a.7.7,0,0,1,1.121-.292c2.187,1.258,4.369,2.523,6.56,3.774a1.284,1.284,0,0,0,.609.165q8.438.013,16.877,0a1.358,1.358,0,0,0,.642-.172c2.151-1.228,4.294-2.47,6.439-3.709.638-.368.926-.294,1.291.336.178.308.359.614.532.924a2.053,2.053,0,0,1-.781,2.909q-3.3,1.921-6.615,3.816a.5.5,0,0,0-.3.508c.01,2.674.006,5.348.006,8.022a2.176,2.176,0,0,1-1.723,2.53h-15.851a2.174,2.174,0,0,1-1.723-2.526c0-2.672,0-5.344.005-8.015a.5.5,0,0,0-.284-.515c-2.08-1.187-4.142-2.4-6.229-3.577a2.754,2.754,0,0,1-1.487-1.693Zm9.373,10.651a.951.951,0,0,0,.1-.052c.44-.437.875-.878,1.322-1.309a1.119,1.119,0,0,1,.393-.261.652.652,0,0,1,.771.3.674.674,0,0,1-.145.875c-.743.751-1.5,1.49-2.233,2.249a.772.772,0,0,0-.194.471c-.022.654-.013,1.309-.006,1.963a1.079,1.079,0,0,0,.066.4c.166.4.411.438.712.137l11.817-11.812c.084-.084.162-.176.285-.311-1.181,0-2.292,0-3.4.008a.534.534,0,0,0-.312.171c-.534.521-1.058,1.053-1.587,1.58-.252.251-5.751,5.748-6.018,5.981a.659.659,0,0,1-.934-.038.69.69,0,0,1-.017-.937c.1-.122,5.48-5.465,5.594-5.578.378-.374.757-.747,1.2-1.188-1.177,0-2.242-.008-3.307.009a.753.753,0,0,0-.47.2c-1.025,1-2.014,2.047-3.062,3.026a1.656,1.656,0,0,0-.586,1.431C3289.8,5910.884,3289.761,5911.765,3289.761,5912.688Zm2.469,5.056c1.184,0,2.285,0,3.386-.008a.573.573,0,0,0,.342-.178q5.086-5.071,10.16-10.151c.07-.07.169-.16.172-.242.014-.6.008-1.206.008-1.821-.485,0-.922.014-1.356-.005a.693.693,0,0,0-.567.241q-5.925,5.936-11.859,11.862C3292.437,5917.519,3292.362,5917.6,3292.229,5917.743Zm14.072-8.394-8.4,8.394c1.025,0,2.127,0,3.229-.006a.467.467,0,0,0,.292-.135q2.369-2.353,4.726-4.719a.438.438,0,0,0,.143-.255C3306.3,5911.507,3306.3,5910.386,3306.3,5909.35Zm1.379-2.724c.157-.083.268-.137.374-.2,1.817-1.049,3.62-2.124,5.456-3.138,1.081-.6.877-.993.36-1.756-.006-.009-.018-.014-.041-.031q-3,1.731-6.006,3.476a.3.3,0,0,0-.135.207C3307.674,5905.65,3307.68,5906.115,3307.68,5906.626Zm-25.469-5.137c-.072.118-.139.224-.2.332-.4.69-.326.957.368,1.357l5.662,3.264c.1.058.2.11.343.184,0-.5.013-.937-.009-1.371a.449.449,0,0,0-.191-.312C3286.21,5903.793,3284.233,5902.656,3282.211,5901.489Zm24.087,13.344-2.9,2.907c.7,0,1.466.011,2.231,0a.653.653,0,0,0,.66-.658C3306.309,5916.313,3306.3,5915.547,3306.3,5914.833Zm-14.771-9.474h-1.747v1.75Z" transform="translate(-3280.388 -5887.437)" fill="#703be2"/><path d="M3469.685,5727.43c.052-.418.125-.906.167-1.4a.578.578,0,0,0-.122-.388c-.27-.312-.563-.6-.854-.9a1.355,1.355,0,0,1-.386-1.448,1.332,1.332,0,0,1,1.124-.942,7.343,7.343,0,0,1,.913-.166.917.917,0,0,0,.893-.649,7.535,7.535,0,0,1,.43-.823,1.379,1.379,0,0,1,2.455-.012c.209.368.421.737.6,1.119a.519.519,0,0,0,.441.317q.628.1,1.253.223a1.367,1.367,0,0,1,.76,2.293c-.3.343-.64.66-.937,1.009a.625.625,0,0,0-.123.418c.038.456.134.908.166,1.365a1.361,1.361,0,0,1-1.948,1.367c-.41-.178-.8-.4-1.215-.567a.681.681,0,0,0-.471,0c-.423.175-.821.408-1.244.585A1.374,1.374,0,0,1,3469.685,5727.43Zm.114-3.7c.375.386.687.749,1.043,1.062a1.229,1.229,0,0,1,.413,1.292c-.1.47-.126.955-.192,1.49.557-.269,1.047-.492,1.523-.742a.954.954,0,0,1,.948,0c.5.254,1.009.481,1.57.747-.082-.592-.146-1.125-.234-1.654a1,1,0,0,1,.313-.962c.342-.323.653-.678.975-1.022a2.371,2.371,0,0,0,.161-.22l-.891-.162c-1.457-.268-1.152-.03-1.875-1.342-.15-.272-.3-.542-.481-.856-.281.53-.541.989-.772,1.463a1,1,0,0,1-.815.6C3470.944,5723.491,3470.409,5723.61,3469.8,5723.726Z" transform="translate(-3455.437 -5719.964)" fill="#703be2"/><path d="M3309.374,5749.73a1.183,1.183,0,0,1,1.023.789c.168.4.308.814.485,1.211a.629.629,0,0,0,.292.29c.386.173.788.311,1.179.473a1.237,1.237,0,0,1,.831,1.189,1.223,1.223,0,0,1-.818,1.164c-.393.159-.794.3-1.179.474a.689.689,0,0,0-.312.315c-.176.384-.312.787-.474,1.178a1.21,1.21,0,0,1-1.17.8,1.223,1.223,0,0,1-1.171-.805c-.162-.391-.295-.795-.469-1.18a.686.686,0,0,0-.314-.315c-.364-.167-.745-.295-1.117-.443a1.256,1.256,0,0,1-.011-2.391,4.023,4.023,0,0,0,1.331-.594,3.91,3.91,0,0,0,.564-1.309A1.28,1.28,0,0,1,3309.374,5749.73Zm-2.483,3.943c.4.157.711.3,1.036.4a1.209,1.209,0,0,1,.9.891c.095.336.252.655.41,1.051.175-.449.335-.821.466-1.205a1,1,0,0,1,.674-.671c.378-.127.745-.29,1.2-.468-.462-.182-.826-.345-1.2-.469a.992.992,0,0,1-.669-.675c-.129-.378-.289-.747-.465-1.2-.179.455-.338.82-.466,1.2a.993.993,0,0,1-.669.675C3307.722,5753.327,3307.356,5753.49,3306.891,5753.674Z" transform="translate(-3303.568 -5747.676)" fill="#703be2"/><path d="M3660.094,5753.665a1.235,1.235,0,0,1-.784,1.151c-.4.171-.815.308-1.21.487a.688.688,0,0,0-.316.313c-.171.375-.3.767-.457,1.148a1.257,1.257,0,0,1-2.369,0c-.15-.371-.276-.754-.447-1.115a.808.808,0,0,0-.354-.361c-.371-.177-.766-.3-1.146-.461a1.25,1.25,0,0,1,.01-2.352,1.991,1.991,0,0,0,1.928-1.91,1.258,1.258,0,0,1,2.381-.008c.142.35.292.7.407,1.057a.646.646,0,0,0,.461.45c.38.128.754.273,1.121.435A1.235,1.235,0,0,1,3660.094,5753.665Zm-6.3,0c.475.185.862.345,1.255.485a.94.94,0,0,1,.6.607c.141.4.3.786.481,1.25.179-.454.349-.838.484-1.234a.954.954,0,0,1,.625-.631c.389-.139.771-.3,1.243-.479-.43-.167-.762-.318-1.108-.426a1.131,1.131,0,0,1-.811-.8c-.109-.355-.265-.7-.43-1.118-.184.474-.344.862-.486,1.258a.932.932,0,0,1-.606.6C3654.653,5753.31,3654.269,5753.475,3653.8,5753.66Z" transform="translate(-3626.522 -5747.661)" fill="#703be2"/><path d="M3606.4,5847.525a7.137,7.137,0,0,1,3.078-5.275.707.707,0,0,1,.835-.042.672.672,0,0,1-.026,1.151,5.668,5.668,0,0,0-2.373,3.493,6.922,6.922,0,0,0-.132.812c-.071.494-.375.779-.781.727S3606.385,5848.021,3606.4,5847.525Z" transform="translate(-3583.897 -5833.659)" fill="#703be2"/><path d="M3408.583,5847.617a.748.748,0,0,1-.632.826c-.407.049-.72-.233-.774-.732a6.04,6.04,0,0,0-1.635-3.589,5.816,5.816,0,0,0-.822-.67.7.7,0,0,1-.264-1,.689.689,0,0,1,1-.163,6.781,6.781,0,0,1,2.865,4.056C3408.439,5846.758,3408.5,5847.192,3408.583,5847.617Z" transform="translate(-3395.78 -5833.711)" fill="#703be2"/><path d="M3526.519,5869.645c0-.5-.008-1.008,0-1.512a.689.689,0,1,1,1.371.008q.015,1.512,0,3.024a.7.7,0,0,1-.692.776c-.4,0-.673-.3-.68-.784C3526.513,5870.652,3526.519,5870.148,3526.519,5869.645Z" transform="translate(-3509.525 -5857.205)" fill="#703be2"/></g></svg>