<svg xmlns="http://www.w3.org/2000/svg" width="25.159" height="21.056" viewBox="0 0 25.159 21.056"><g transform="translate(-2810.934 -5420.489)"><g transform="translate(2810.934 5420.489)"><path d="M2835.415,5441.544h-23.808a1.02,1.02,0,0,1-.673-1.092c.012-4.54,0-9.079.013-13.619a1.982,1.982,0,0,1,.16-.762c.714-1.639,1.452-3.267,2.167-4.905a1.018,1.018,0,0,1,1.039-.677q9.2.01,18.4,0a1.024,1.024,0,0,1,1.041.678c.711,1.62,1.442,3.232,2.146,4.855a2.176,2.176,0,0,1,.179.841c.011,4.53,0,9.061.015,13.591A1.032,1.032,0,0,1,2835.415,5441.544Zm-1.1-14.017h-7.01v.341c0,1.881.005,3.765-.007,5.646a1.307,1.307,0,0,1-.169.642.841.841,0,0,1-1.093.282q-1.148-.449-2.287-.917a.556.556,0,0,0-.464-.006c-.733.3-1.487.561-2.208.892a.938.938,0,0,1-1.382-.927c.039-1.872.013-3.745.013-5.618v-.334H2812.7v12.245h21.615Zm-.478-1.787c-.04-.1-.069-.182-.1-.263-.44-.991-.89-1.979-1.318-2.977a.368.368,0,0,0-.406-.259q-6.362.011-12.724.006-2.166,0-4.333,0c-.143,0-.25.005-.322.171-.456,1.056-.926,2.1-1.39,3.155-.021.048-.034.1-.059.168Zm-12.359,6.605c.335-.133.631-.25.926-.369,1.247-.5.974-.491,2.22,0l.912.362v-4.81h-4.058Z" transform="translate(-2810.934 -5420.488)" fill="#bc9dfc"/></g></g></svg>