<svg xmlns="http://www.w3.org/2000/svg" width="32.013" height="32.006" viewBox="0 0 32.013 32.006"><g transform="translate(-3854.472 -5356.07)"><path d="M3854.471,5551.489a8.941,8.941,0,0,1,.269-.889,3.435,3.435,0,0,1,5.44-1.265c.577.51,1.1,1.078,1.648,1.622q1.637,1.633,3.272,3.27c.168.167.343.327.584.556a4.959,4.959,0,0,1,1.377-4.918,4.782,4.782,0,0,1,3.75-1.383,5.042,5.042,0,0,1,4.466,6.287c.228-.216.409-.379.581-.552q2.323-2.319,4.643-4.64a3.457,3.457,0,0,1,4.291-.615,3.419,3.419,0,0,1,.79,5.258c-1.4,1.475-2.848,2.9-4.3,4.32a12.406,12.406,0,0,0-3.718,7.22c-.08.544-.093,1.1-.126,1.65a.957.957,0,0,1-1.077,1.018h-11.752a.953.953,0,0,1-1.1-1.054,11.955,11.955,0,0,0-1.928-6.464,16.97,16.97,0,0,0-1.867-2.3c-1.166-1.234-2.377-2.426-3.6-3.605a4.768,4.768,0,0,1-1.646-2.645Zm21.115,15.05c.008-.068.015-.118.02-.168a14.006,14.006,0,0,1,2.962-7.594,15.469,15.469,0,0,1,1.2-1.355c1.442-1.46,2.9-2.9,4.348-4.358a1.57,1.57,0,0,0-1.247-2.7,1.667,1.667,0,0,0-1.055.55c-1.656,1.658-3.284,3.345-4.983,4.959a9.265,9.265,0,0,1-10.585,1.5,9.66,9.66,0,0,1-2.479-1.824q-2.351-2.355-4.708-4.705a1.573,1.573,0,1,0-2.2,2.244c1.471,1.476,2.952,2.941,4.416,4.422a13.658,13.658,0,0,1,3.471,5.81c.306,1.042.468,2.125.7,3.218Zm-5.1-16.182a3.067,3.067,0,0,0-3.082,3.042,3.072,3.072,0,1,0,6.144.019A3.066,3.066,0,0,0,3870.483,5550.357Z" transform="translate(0.001 -180.355)" fill="#bc9dfc"/><path d="M3854.471,5407.727a2.687,2.687,0,0,1,1.5-1.733c.394-.211.789-.421,1.182-.634a.625.625,0,0,0,.353-.474.925.925,0,0,1,1.018-.769.944.944,0,0,1,.825,1.008,1.924,1.924,0,0,1-.868,1.582c-.414.293-.875.52-1.315.774a5.21,5.21,0,0,0-.566.328.715.715,0,0,0-.252.357.967.967,0,0,1-.824.821.927.927,0,0,1-1-.625.378.378,0,0,0-.054-.073Z" transform="translate(0.001 -45.03)" fill="#bc9dfc"/><path d="M4272.431,5356.069a1.073,1.073,0,0,1,.71.727c.022.083.125.159.209.209.347.208.711.391,1.051.609a1.656,1.656,0,0,1,.763,1.266.926.926,0,0,1-.7,1.037.948.948,0,0,1-1.111-.583.922.922,0,0,0-.33-.372c-.286-.188-.607-.324-.89-.515a2.244,2.244,0,0,1-.521-.487,1.168,1.168,0,0,1,.382-1.893Z" transform="translate(-390.705 0.001)" fill="#bc9dfc"/><path d="M3983.827,5356.069c.209.177.416.357.629.529a2.6,2.6,0,0,0,.286.184,1.43,1.43,0,0,1,.8,1.087.939.939,0,0,1-1.69.688,2.137,2.137,0,0,0-.338-.3,4.3,4.3,0,0,1-.531-.429,1.063,1.063,0,0,1,.408-1.756Z" transform="translate(-120.166 0.001)" fill="#bc9dfc"/><path d="M4180.049,5437.3a2,2,0,0,1-1.027,1.626c-.479.309-.994.561-1.492.838a.879.879,0,0,0-.539.661.877.877,0,0,1-1.053.653.94.94,0,0,1-.766-.992,1.891,1.891,0,0,1,.731-1.458,10.93,10.93,0,0,1,1.124-.721c.294-.176.615-.31.9-.5a.757.757,0,0,0,.272-.415.94.94,0,0,1,1.854.31Z" transform="translate(-300.613 -75.124)" fill="#bc9dfc"/><path d="M3998.928,5453.341a.921.921,0,0,1,.752-.97.945.945,0,0,1,1.069.613.713.713,0,0,0,.259.314c.308.194.641.348.949.54a1.708,1.708,0,0,1,.839,1.354.932.932,0,0,1-.677,1,.9.9,0,0,1-1.115-.558.705.705,0,0,0-.38-.415,10.672,10.672,0,0,1-.969-.563A1.581,1.581,0,0,1,3998.928,5453.341Z" transform="translate(-135.408 -90.252)" fill="#bc9dfc"/><path d="M4129.9,5373.276a1.4,1.4,0,0,1-.794,1.038,1.462,1.462,0,0,0-.369.313.941.941,0,0,1-1.108.329.952.952,0,0,1-.591-1.025,1.475,1.475,0,0,1,.784-1.064,1.8,1.8,0,0,0,.409-.359.948.948,0,0,1,1.066-.3A1,1,0,0,1,4129.9,5373.276Z" transform="translate(-255.487 -15.072)" fill="#bc9dfc"/><path d="M4319.56,5485.489a.943.943,0,0,1,.635-.97.953.953,0,0,1,1.059.328,1.4,1.4,0,0,0,.362.319,1.512,1.512,0,0,1,.8,1.017.958.958,0,0,1-.551,1.077.944.944,0,0,1-1.157-.34,1.338,1.338,0,0,0-.374-.306A1.377,1.377,0,0,1,4319.56,5485.489Z" transform="translate(-435.958 -120.359)" fill="#bc9dfc"/></g></svg>