<svg xmlns="http://www.w3.org/2000/svg" width="22.881" height="22.88" viewBox="0 0 22.881 22.88"><g transform="translate(-113 -426)"><path d="M-33.5,161.676a8.429,8.429,0,0,0-4.732-2.871,6.659,6.659,0,0,0,2.3-5.034A6.681,6.681,0,0,0-42.61,147.1a6.681,6.681,0,0,0-6.673,6.673,6.659,6.659,0,0,0,2.3,5.034,8.429,8.429,0,0,0-4.732,2.871,11.381,11.381,0,0,0-2.334,7.349.953.953,0,0,0,.953.953.953.953,0,0,0,.954-.953,9.518,9.518,0,0,1,1.9-6.136,7.028,7.028,0,0,1,5.728-2.444H-40.7a7.028,7.028,0,0,1,5.728,2.444,9.518,9.518,0,0,1,1.9,6.136.953.953,0,0,0,.953.953.953.953,0,0,0,.954-.953A11.381,11.381,0,0,0-33.5,161.676Zm-13.873-7.905A4.771,4.771,0,0,1-42.61,149a4.772,4.772,0,0,1,4.767,4.766,4.772,4.772,0,0,1-4.767,4.767A4.772,4.772,0,0,1-47.376,153.771Z" transform="translate(167.05 278.902)" fill="#bc9dff"/></g></svg>