<svg xmlns="http://www.w3.org/2000/svg" width="18.428" height="18.428" viewBox="0 0 18.428 18.428"><g transform="translate(-1091 -1102)"><path d="M18.428,9.214A9.214,9.214,0,1,1,9.214,0a9.214,9.214,0,0,1,9.214,9.214" transform="translate(1091 1102)" fill="#46278a"/><path d="M96.99,114.174a1.136,1.136,0,0,1-.348.825q-2.222,2.226-4.449,4.446a1.148,1.148,0,0,1-1.691-.005q-1.309-1.294-2.6-2.6a1.171,1.171,0,1,1,1.655-1.657c.535.526,1.068,1.054,1.589,1.593.155.161.241.181.412.008q1.686-1.713,3.395-3.4a1.171,1.171,0,0,1,2.041.8" transform="translate(1007.959 994.814)" fill="#fff"/></g></svg>