<svg xmlns="http://www.w3.org/2000/svg" width="9.5" height="10.5" viewBox="0 0 9.5 10.5"><g transform="translate(-319.25 -648.25)"><path d="M141.333,610.995a.747.747,0,0,1-.5-.189l-4-3.557-4,3.557a.75.75,0,1,1-1-1.121l4.5-4a.75.75,0,0,1,1,0l4.5,4a.75.75,0,0,1-.5,1.311Z" transform="translate(-282.245 790.333) rotate(-90)" fill="#b3b3b3"/><path d="M141.333,610.995a.747.747,0,0,1-.5-.189l-4-3.557-4,3.557a.75.75,0,1,1-1-1.121l4.5-4a.75.75,0,0,1,1,0l4.5,4a.75.75,0,0,1-.5,1.311Z" transform="translate(930.245 516.667) rotate(90)" fill="#b3b3b3"/></g></svg>