<svg xmlns="http://www.w3.org/2000/svg" width="54" height="55" viewBox="0 0 54 55"><g transform="translate(-0.116 0.288)"><ellipse cx="27" cy="27.5" rx="27" ry="27.5" transform="translate(0.116 -0.288)" fill="#1d99ee"/><g transform="translate(10.352 14.355)"><path d="M-1989.616-753.513c13.378,0,20.694-11.083,20.694-20.694,0-.315-.006-.628-.021-.94a14.793,14.793,0,0,0,3.629-3.766,14.518,14.518,0,0,1-4.177,1.145,7.3,7.3,0,0,0,3.2-4.023,14.576,14.576,0,0,1-4.618,1.765,7.266,7.266,0,0,0-5.309-2.3,7.275,7.275,0,0,0-7.274,7.273,7.26,7.26,0,0,0,.189,1.658,20.648,20.648,0,0,1-14.992-7.6,7.248,7.248,0,0,0-.985,3.656,7.267,7.267,0,0,0,3.237,6.054,7.217,7.217,0,0,1-3.294-.91c0,.03,0,.061,0,.092a7.276,7.276,0,0,0,5.835,7.131,7.287,7.287,0,0,1-1.917.256,7.251,7.251,0,0,1-1.367-.131,7.282,7.282,0,0,0,6.795,5.052,14.6,14.6,0,0,1-9.034,3.114,14.819,14.819,0,0,1-1.735-.1,20.592,20.592,0,0,0,11.149,3.267" transform="translate(2000.765 782.324)" fill="#fff"/></g></g></svg>