<svg xmlns="http://www.w3.org/2000/svg" width="54" height="55" viewBox="0 0 54 55"><g transform="translate(0.154 -0.212)"><ellipse cx="27" cy="27.5" rx="27" ry="27.5" transform="translate(-0.154 0.212)" fill="#00b900"/><g transform="translate(8.313 10.967)"><path d="M-1968.538-382.767c0-8.352-8.374-15.148-18.667-15.148s-18.667,6.8-18.667,15.148c0,7.488,6.641,13.76,15.611,14.945.608.131,1.435.4,1.644.921a3.835,3.835,0,0,1,.061,1.688s-.219,1.317-.266,1.6c-.082.472-.375,1.846,1.617,1.006s10.75-6.33,14.666-10.837h0c2.706-2.967,4-5.977,4-9.32" transform="translate(2005.871 397.915)" fill="#fff"/><g transform="translate(6.123 11.112)"><path d="M-1971.667-370.532h-1.309a.363.363,0,0,0-.364.363v8.133a.363.363,0,0,0,.364.363h1.309a.363.363,0,0,0,.364-.363v-8.133a.364.364,0,0,0-.364-.363" transform="translate(1980.417 370.532)" fill="#00b900"/><path d="M-1957.808-370.532h-1.309a.363.363,0,0,0-.364.363v4.832l-3.727-5.034a.372.372,0,0,0-.028-.037l0,0-.022-.022-.007-.006-.019-.016-.009-.007-.019-.013-.011-.007-.019-.011-.011-.005-.021-.009-.012,0-.021-.007-.013,0-.021,0-.015,0-.019,0h-1.341a.364.364,0,0,0-.364.363v8.133a.363.363,0,0,0,.364.363h1.309a.363.363,0,0,0,.364-.363v-4.831l3.732,5.04a.362.362,0,0,0,.093.089l0,0,.022.013.011.006.017.009.018.007.011,0,.025.008h.005a.366.366,0,0,0,.093.012h1.309a.363.363,0,0,0,.364-.363v-8.133a.364.364,0,0,0-.364-.363" transform="translate(1975.571 370.532)" fill="#00b900"/><path d="M-1985.187-363.709h-3.558v-6.46a.363.363,0,0,0-.364-.363h-1.309a.364.364,0,0,0-.364.363v8.133h0a.362.362,0,0,0,.1.251l0,.006.005,0a.362.362,0,0,0,.251.1h5.231a.363.363,0,0,0,.363-.364v-1.309a.363.363,0,0,0-.363-.364" transform="translate(1990.781 370.532)" fill="#00b900"/><path d="M-1937.382-368.5a.363.363,0,0,0,.363-.364v-1.309a.364.364,0,0,0-.363-.364h-5.231a.362.362,0,0,0-.252.1l0,0-.006.007a.363.363,0,0,0-.1.251h0v8.132h0a.361.361,0,0,0,.1.251l.005.006.005,0a.361.361,0,0,0,.251.1h5.231a.364.364,0,0,0,.363-.364v-1.309a.363.363,0,0,0-.363-.364h-3.558v-1.375h3.558a.363.363,0,0,0,.363-.364v-1.31a.363.363,0,0,0-.363-.364h-3.558V-368.5Z" transform="translate(1962.375 370.532)" fill="#00b900"/></g></g></g></svg>