<svg xmlns="http://www.w3.org/2000/svg" width="54.782" height="54.782" viewBox="0 0 54.782 54.782"><g transform="translate(0 0)"><path d="M-2869.03-790.308a27.391,27.391,0,0,0-27.391-27.391,27.391,27.391,0,0,0-27.391,27.391A27.4,27.4,0,0,0-2900.7-763.25v-19.14h-6.955v-7.918h6.955v-6.035c0-6.865,4.089-10.656,10.345-10.656a42.141,42.141,0,0,1,6.132.535v6.741h-3.455c-3.4,0-4.463,2.111-4.463,4.277v5.138h7.6l-1.214,7.918h-6.382v19.14A27.4,27.4,0,0,0-2869.03-790.308Z" transform="translate(2923.813 817.699)" fill="#1677f0"/><path d="M-2862.1-766.722l1.215-7.918h-7.6v-5.138c0-2.166,1.061-4.277,4.464-4.277h3.454V-790.8a42.135,42.135,0,0,0-6.132-.535c-6.257,0-10.346,3.792-10.346,10.657v6.035H-2884v7.918h6.955v19.141a27.617,27.617,0,0,0,4.28.333,27.619,27.619,0,0,0,4.28-.333v-19.141Z" transform="translate(2900.154 802.031)" fill="#fff"/></g></svg>