<svg xmlns="http://www.w3.org/2000/svg" width="25" height="25" viewBox="0 0 25 25"><g transform="translate(-0.001 -0.001)"><circle cx="12.5" cy="12.5" r="12.5" transform="translate(0.001 0.001)" fill="#8f9096"/><g transform="translate(5 4.02)"><path d="M-2005.276,775.116l.045.041c.138.1.239.238.371.345a2.417,2.417,0,0,0,1.4.542,2.382,2.382,0,0,0,2.493-2.11,1.6,1.6,0,0,0,0-.182q0-5.609,0-11.218c0-.252,0-.252.251-.252h1.7a.255.255,0,0,1,.158.024l.01.008a.2.2,0,0,1,.043.1,3.934,3.934,0,0,0,1.58,2.419c.052.038.1.085.145.126l.109.092a2.5,2.5,0,0,1,.345.3,3.938,3.938,0,0,0,1.559.8c.051.013.109.012.146.061l.01.008a.163.163,0,0,1,.028.125q0,.989,0,1.978c0,.151-.02.159-.173.159a6.336,6.336,0,0,1-1.426-.172,6.836,6.836,0,0,1-2.243-.966c-.036-.024-.074-.074-.112-.057s-.023.085-.023.129c0,1.856.007,3.712,0,5.568a5.182,5.182,0,0,1-1.27,3.447,5.2,5.2,0,0,1-3.425,1.828,5.252,5.252,0,0,1-3.021-.534,2.747,2.747,0,0,1-.44-.269l-.131-.116a3.6,3.6,0,0,1-.772-.984,5.1,5.1,0,0,1-.647-1.793,5.093,5.093,0,0,1-.07-1.1,5.254,5.254,0,0,1,1.231-3.166A5.275,5.275,0,0,1-2005,768.66a4.811,4.811,0,0,1,1.22-.248,1.768,1.768,0,0,1,.232-.019.171.171,0,0,1,.107.024.036.036,0,0,0,.011.008.222.222,0,0,1,.017.119q0,1,0,2.007c0,.023,0,.047,0,.071,0,.067-.037.089-.1.071a2.533,2.533,0,0,0-.56-.086,2.13,2.13,0,0,0-.857.127,2.285,2.285,0,0,0-1.594,1.968,2.287,2.287,0,0,0,1.058,2.272C-2005.407,775.021-2005.338,775.064-2005.276,775.116Z" transform="translate(2009.44 -761.619)" fill="#fff"/><path d="M-1999.856,794.749c.036-.01.056.019.08.034a5.3,5.3,0,0,0,1.934.714,4.971,4.971,0,0,0,1.051.061,5.23,5.23,0,0,0,3.14-1.2,5.2,5.2,0,0,0,1.75-2.738,5.143,5.143,0,0,0,.161-1.059c.01-.206.01-.412.01-.618q0-2.653,0-5.306v-.12c.046-.013.067.022.093.039a6.791,6.791,0,0,0,2.048.953,6.907,6.907,0,0,0,1.233.222c.176.015.351.013.527.026.077.005.078,0,.079-.078s0-.169,0-.254q0-.9,0-1.8c0-.037,0-.074,0-.111.158.018.313.052.472.064a2.781,2.781,0,0,0,.294.013c.049,0,.069.016.063.064a.531.531,0,0,0,0,.061v2.6c0,.017,0,.034,0,.051,0,.075,0,.077-.082.077a6.339,6.339,0,0,1-.809-.054,6.863,6.863,0,0,1-1.6-.408,6.826,6.826,0,0,1-1.394-.738c-.027-.019-.055-.036-.1-.062v.121q0,2.836,0,5.671a5.165,5.165,0,0,1-.8,2.8,5.205,5.205,0,0,1-2.7,2.173,5.134,5.134,0,0,1-2.153.3,5.23,5.23,0,0,1-3.242-1.413C-1999.812,794.8-1999.833,794.774-1999.856,794.749Z" transform="translate(2002.288 -778.92)" fill="#77787e"/><path d="M-1983.877,759.4c-.037,0-.074.005-.111.005h-1.827c-.141,0-.141,0-.141.137q0,5.58,0,11.16a2.4,2.4,0,0,1-.1.76,2.321,2.321,0,0,1-1.762,1.648,2.339,2.339,0,0,1-2.418-.816.308.308,0,0,1-.027-.042,3.243,3.243,0,0,0,.566.187,2.36,2.36,0,0,0,1.754-.306,2.37,2.37,0,0,0,1.124-1.671,2.321,2.321,0,0,0,.029-.414q0-5.59,0-11.181c0-.174-.024-.152.149-.152H-1984c.088,0,.089,0,.089.091A2.935,2.935,0,0,0-1983.877,759.4Z" transform="translate(1994.471 -758.71)" fill="#a5a5a7"/><path d="M-2007,792.4a5.422,5.422,0,0,0-1.538.267,5.24,5.24,0,0,0-1.921,1.131,5.223,5.223,0,0,0-1.507,2.452,5.083,5.083,0,0,0-.179,1.045,5.176,5.176,0,0,0-.008.638,5.216,5.216,0,0,0,.378,1.71,5.227,5.227,0,0,0,1.059,1.64.261.261,0,0,1,.023.033,1.247,1.247,0,0,1-.274-.189,5.243,5.243,0,0,1-1.784-2.566,5.225,5.225,0,0,1-.221-1.11,5.2,5.2,0,0,1-.011-.82,5.182,5.182,0,0,1,.45-1.809,5.222,5.222,0,0,1,1.113-1.6,5.227,5.227,0,0,1,1.907-1.2,5.256,5.256,0,0,1,1.4-.3,5.438,5.438,0,0,1,1.042.023c.047.006.074.015.073.071C-2006.994,792.013-2006.994,792.206-2007,792.4Z" transform="translate(2012.989 -785.6)" fill="#a5a5a7"/><path d="M-1996.251,802.125a2,2,0,0,1-.561-.393,2.349,2.349,0,0,1-.73-1.466,2.4,2.4,0,0,1,1.683-2.571,2.413,2.413,0,0,1,1.357-.021.146.146,0,0,0,.078.01.277.277,0,0,0,.008-.11q0-1.014,0-2.029c0-.037,0-.074.006-.111a4.349,4.349,0,0,1,.779.035c.041,0,.052.024.051.059s0,.041,0,.061q0,1.344,0,2.688a.175.175,0,0,1-.012.1c-.118-.022-.234-.058-.354-.075a2.369,2.369,0,0,0-1.865.5,2.313,2.313,0,0,0-.878,1.482,2.359,2.359,0,0,0,.4,1.774C-1996.278,802.079-1996.265,802.1-1996.251,802.125Z" transform="translate(2000.415 -788.628)" fill="#77787e"/><path d="M-1953.962,765.073a3.369,3.369,0,0,1-.7-.564,3.954,3.954,0,0,1-1.07-2.061.111.111,0,0,1,0-.02c.243-.014.486,0,.729-.006.043,0,.062.016.058.06,0,.017,0,.034,0,.051a3.65,3.65,0,0,0,.522,1.89,3.915,3.915,0,0,0,.415.587C-1953.989,765.027-1953.965,765.043-1953.962,765.073Z" transform="translate(1966.335 -761.733)" fill="#77787e"/><path d="M-1943.542,778.394a3.954,3.954,0,0,1-1.831-.931,1.44,1.44,0,0,1-.219-.222.108.108,0,0,1,.065.025,4.011,4.011,0,0,0,1.346.477,3.281,3.281,0,0,0,.563.049c.079,0,.081,0,.081.077C-1943.538,778.044-1943.54,778.219-1943.542,778.394Z" transform="translate(1958.073 -773.809)" fill="#a5a5a7"/></g></g></svg>