<svg xmlns="http://www.w3.org/2000/svg" width="9.42" height="9.42" viewBox="0 0 9.42 9.42"><g transform="translate(-689.814 -340.543)"><g transform="translate(689.814 340.543)"><path d="M691.121,350.093a1.177,1.177,0,0,1-.832-2.01l7.065-7.065a1.177,1.177,0,1,1,1.665,1.665l-7.065,7.065A1.173,1.173,0,0,1,691.121,350.093Z" transform="translate(-689.944 -340.673)" fill="#fff"/></g><g transform="translate(689.814 340.543)"><path d="M698.186,350.093a1.173,1.173,0,0,1-.832-.345l-7.065-7.065a1.177,1.177,0,1,1,1.665-1.665l7.065,7.065a1.177,1.177,0,0,1-.833,2.01Z" transform="translate(-689.944 -340.673)" fill="#fff"/></g></g></svg>