<svg xmlns="http://www.w3.org/2000/svg" width="25.001" height="25.001" viewBox="0 0 25.001 25.001"><g transform="translate(0 0)"><path d="M-2190.431,786.193l4.33-2.5-4.33-2.5Z" transform="translate(2201.264 -771.192)" fill="#8f9096"/><path d="M-2236.43,727.193a12.5,12.5,0,0,0-12.5,12.5,12.5,12.5,0,0,0,12.5,12.5,12.5,12.5,0,0,0,12.5-12.5A12.5,12.5,0,0,0-2236.43,727.193Zm7.985,16.512a2.087,2.087,0,0,1-1.473,1.474,49.793,49.793,0,0,1-6.512.348,49.791,49.791,0,0,1-6.512-.348,2.087,2.087,0,0,1-1.474-1.474,21.683,21.683,0,0,1-.348-4.012,21.685,21.685,0,0,1,.348-4.012,2.087,2.087,0,0,1,1.474-1.474,49.809,49.809,0,0,1,6.512-.348,49.81,49.81,0,0,1,6.512.348,2.087,2.087,0,0,1,1.473,1.474,21.67,21.67,0,0,1,.349,4.012A21.668,21.668,0,0,1-2228.445,743.705Z" transform="translate(2248.931 -727.193)" fill="#8f9096"/></g></svg>